<?xml version="1.0" encoding="UTF-8" standalone="no"?>
<!-- Created with Inkscape (http://www.inkscape.org/) -->

<svg
   width="28.575001mm"
   height="28.575001mm"
   viewBox="0 0 28.575001 28.575001"
   version="1.1"
   id="svg1"
   inkscape:version="1.3.2 (091e20ef0f, 2023-11-25)"
   sodipodi:docname="logo_editable.svg"
   inkscape:export-filename="logo.png"
   inkscape:export-xdpi="96"
   inkscape:export-ydpi="96"
   xmlns:inkscape="http://www.inkscape.org/namespaces/inkscape"
   xmlns:sodipodi="http://sodipodi.sourceforge.net/DTD/sodipodi-0.dtd"
   xmlns="http://www.w3.org/2000/svg"
   xmlns:svg="http://www.w3.org/2000/svg">
  <sodipodi:namedview
     id="namedview1"
     pagecolor="#ffffff"
     bordercolor="#000000"
     borderopacity="0.25"
     inkscape:showpageshadow="2"
     inkscape:pageopacity="0.0"
     inkscape:pagecheckerboard="0"
     inkscape:deskcolor="#d1d1d1"
     inkscape:document-units="mm"
     inkscape:zoom="3.4624462"
     inkscape:cx="68.881937"
     inkscape:cy="68.015497"
     inkscape:window-width="1920"
     inkscape:window-height="1011"
     inkscape:window-x="0"
     inkscape:window-y="0"
     inkscape:window-maximized="1"
     inkscape:current-layer="g2" />
  <defs
     id="defs1" />
  <g
     inkscape:label="Layer 1"
     inkscape:groupmode="layer"
     id="layer1">
    <g
       id="g2">
      <path
         id="path1"
         style="fill:#ffd700;stroke-width:0.0667598"
         d="M 23.01875,14.2875 A 8.7312499,8.7312499 0 0 1 14.2875,23.01875 8.7312499,8.7312499 0 0 1 5.5562505,14.2875 8.7312499,8.7312499 0 0 1 14.2875,5.5562505 8.7312499,8.7312499 0 0 1 23.01875,14.2875 Z" />
      <path
         style="font-size:43.0602px;font-family:'Ma Shan Zheng';-inkscape-font-specification:'Ma Shan Zheng, Normal';stroke-width:0.339532"
         d="m 11.039901,11.572696 q 0.271199,-0.09763 0.412222,-0.09763 0.151871,0 0.325437,0.119327 0.141024,0.10848 0.173568,0.173567 0.04339,0.06509 0.08678,0.36883 0.0217,0.09763 0.03254,0.151871 0.02169,0.130175 -0.141023,0.227807 -0.141023,0.06509 -0.282047,0.20611 -0.130175,0.141023 -0.282046,0.260351 -0.108479,0.07593 -0.130175,0.130175 -0.01085,0.04339 0.01085,0.173567 0.04339,0.195262 0.05424,0.390525 0.01085,0.195263 0.119328,0.379678 0.108479,0.173567 0.227806,0.423069 0.130175,0.238655 0.31459,0.542396 0.184415,0.303743 0.151871,0.412222 -0.03254,0.06509 0.0217,0.09763 0.06509,0.0217 0.36883,0.09763 0.423069,0.08678 0.846138,0.26035 0.509853,0.216959 1.421079,0.444765 l 0.412221,0.10848 q 0.282047,0.06509 1.865844,0.08678 1.583798,0.0217 1.789909,0.05424 0.141023,0.01085 0.173567,0.03254 0.04339,0.0217 0.04339,0.09763 0,0.108479 -0.184415,0.184415 -0.184415,0.08678 -0.249503,0.08678 -0.09763,0 -0.499004,0.347134 -0.401374,0.357981 -0.488157,0.509852 -0.05424,0.07594 -0.260351,0.07594 -0.20611,0 -0.564092,-0.05424 -0.347134,-0.04339 -0.488157,-0.08678 -0.412221,-0.119327 -1.063097,-0.216959 -0.303742,-0.03254 -0.553245,-0.141023 -0.249502,-0.108479 -1.214968,-0.607484 -0.683419,-0.347134 -1.280056,-0.499005 -0.292894,-0.07594 -0.781051,-0.03254 -0.488156,0.03254 -0.62918,0.15187 -0.141023,0.08678 -0.15187,0.130176 0,0.06509 -0.119328,0.184414 -0.108479,0.119328 -0.184415,0.162719 -0.09763,0.03254 -0.141023,0.0217 -0.03254,0 -0.09763,-0.07594 -0.1084792,-0.09763 -0.1084792,-0.151871 0,-0.06509 -0.065088,-0.06509 -0.065088,0 -0.065088,-0.162719 0,-0.271198 0.4013732,-0.466461 l 0.390525,-0.195262 q 0.216959,-0.08678 0.379678,-0.260351 0.162719,-0.184415 0.130175,-0.303742 -0.03254,-0.09763 -0.303742,-0.88953 -0.119327,-0.336286 -0.151871,-0.824443 -0.03254,-0.488157 0.03254,-0.759355 0.130175,-0.520701 0.108479,-0.542397 -0.0217,-0.0217 -0.379677,0.173567 -0.260351,0.141023 -0.433918,0.303742 -0.1735662,0.151871 -0.1735662,0.227807 0,0.119327 -0.1735668,-0.03254 -0.021696,-0.0217 -0.043392,-0.05424 -0.151871,-0.162719 -0.130175,-0.249502 0.032544,-0.09763 0.043392,-0.195263 0.010848,-0.07593 0.1193272,-0.151871 0.1193272,-0.07593 0.4881568,-0.271198 0.596636,-0.303742 0.867834,-0.412221 z M 10.768703,9.2946303 q 0.08678,-0.021696 0.216959,-0.043392 0.151871,0 0.531548,0.1301751 0.390526,0.1301753 0.423069,0.184415 0.119328,0.2278065 0.04339,0.5423966 -0.07593,0.303742 -0.271198,0.412221 Q 11.3111,10.737405 10.844638,10.010594 10.475809,9.4139575 10.768703,9.2946303 Z M 13.45899,8.8281692 q 0.03254,-0.097631 0.08678,-0.097631 0.06509,0 0.336286,0.097631 l 0.303742,0.086784 0.206111,-0.097631 q 0.292894,-0.1410232 0.292894,-0.05424 0,0.065087 -0.108479,0.1844147 -0.06509,0.05424 -0.08678,0.151871 -0.01085,0.086784 -0.01085,0.347134 0,0.3471337 -0.06509,0.4230691 -0.05424,0.065088 -0.292895,0.032544 -0.15187,-0.021696 -0.26035,-0.1084793 -0.09763,-0.086784 -0.23865,-0.3471343 Q 13.372206,9.0125842 13.45899,8.8281692 Z m 2.115346,0.2711982 q 0.01085,-0.032544 0.260351,-0.4230693 0.26035,-0.3905254 0.26035,-0.4230691 0,-0.043392 0.07593,-0.086783 0.07594,-0.05424 0.162719,-0.032544 0.09763,0.021696 0.151871,0.021696 0.05424,0 0.260351,0.2061107 0.20611,0.1952626 0.238654,0.1952626 0.04339,0 0.04339,0.162719 -0.01085,0.3471339 -0.347134,0.3905254 -0.151871,0.021696 -0.173567,0.097632 -0.0217,0.075936 -0.292894,0.2603503 -0.162719,0.1193272 -0.282046,0.2169586 -0.119327,0.086784 -0.184415,0.1518711 -0.05424,0.05424 -0.03254,0.075935 0.0217,0.021696 0.553245,-0.032544 1.475318,-0.1301753 1.724821,0.05424 0.06509,0.05424 0.119327,0.1844143 0.05424,0.130175 0.05424,0.238654 0,0.130176 -0.151872,0.195263 -0.108479,0.06509 -0.184414,0.06509 -0.06509,-0.01085 -0.31459,-0.10848 -0.238655,-0.08678 -0.412222,-0.09763 -0.162719,-0.0217 -0.748507,-0.0217 -0.813595,0 -0.94377,0.03254 -0.09763,0.0217 -0.108479,0.04339 0,0.01085 0.05424,0.06509 0.151871,0.173567 -0.01085,0.412222 l -0.184415,0.26035 q -0.130175,0.195263 -0.01085,0.216959 0.0217,0 0.04339,-0.0217 0.09763,-0.0217 0.715963,0.03254 0.618332,0.04339 0.770203,0.07593 0.249503,0.07594 0.271199,0.195263 0.03254,0.108479 -0.06509,0.640028 -0.05424,0.303742 -0.03254,1.247512 0.01085,0.62918 0,0.856986 0,0.227807 -0.05424,0.488157 -0.151871,0.68342 -0.542397,1.073945 -0.184415,0.206111 -0.292894,0.227807 -0.108479,0.0217 -0.227807,-0.119327 -0.108479,-0.119328 -0.292894,-0.249503 -0.173567,-0.130175 -0.216958,-0.195263 -0.03254,-0.06509 -0.162719,-0.184414 -0.130176,-0.130175 -0.292895,-0.10848 -0.15187,0.0217 -0.271198,0.09763 -0.108479,0.07594 -0.31459,0.07594 -0.130175,0 -0.173567,0.0217 -0.04339,0.0217 -0.05424,0.06509 -0.01085,0.09763 -0.119328,0.10848 -0.09763,0.01085 -0.119327,-0.07594 -0.03254,-0.06509 -0.130175,-0.20611 -0.09763,-0.141024 -0.130175,-0.336286 -0.0217,-0.195263 -0.06509,-0.271199 -0.04339,-0.07593 -0.01085,-0.249502 0.162719,-0.553244 0.162719,-1.703125 0.01085,-0.585788 0.0217,-0.737659 0.01085,-0.151871 0.06509,-0.195263 0.07593,-0.05424 0.03254,-0.06509 -0.05424,-0.01085 0.07593,-0.108479 0.04339,-0.01085 0.07594,-0.04339 0.227806,-0.130175 0.423069,-0.433917 0.423069,-0.650876 0.390526,-0.726811 -0.01085,-0.04339 -0.564093,0.09763 -0.542396,0.130175 -0.640028,0.184415 -0.09763,0.03254 -0.282046,0.09763 -0.184415,0.05424 -0.347134,-0.01085 -0.26035,-0.119327 -0.151871,-0.31459 0.06509,-0.108479 0.553245,-0.238654 1.117336,-0.303742 1.431927,-0.303742 0.141022,0 0.292894,-0.1627187 0.108479,-0.1084793 0.357981,-0.4339172 0.249503,-0.3362858 0.292894,-0.4122215 z m 0.151871,2.7228306 q -0.206111,-0.07593 -0.596636,-0.05424 -0.379678,0.0217 -0.705115,0.10848 -0.195263,0.06509 -0.238655,0.119327 -0.04339,0.04339 0.01085,0.108479 0.04339,0.07594 0,0.195263 -0.04339,0.108479 -0.03254,0.119327 0.01085,0.01085 0.292894,-0.08678 0.292894,-0.09763 0.585788,-0.07594 0.303743,0.0217 0.390526,0.141023 0.08678,0.10848 0.07594,0.238655 l -0.01085,0.141023 -0.574941,0.119327 q -0.57494,0.119327 -0.694267,0.108479 -0.10848,-0.02169 -0.162719,0 -0.03254,0.0217 -0.05424,0.238655 -0.0217,0.206111 0.01085,0.238654 0.0217,0.01085 0.412221,-0.119327 0.390526,-0.130175 0.672572,-0.151871 0.184415,-0.03254 0.238654,-0.01085 0.05424,0.0217 0.10848,0.09763 0.07593,0.108479 0.05424,0.282046 -0.03254,0.141023 -0.08678,0.206111 -0.05424,0.06509 -0.184415,0.08678 -0.130175,0.0217 -0.227806,0.07594 l -0.292895,0.119327 q -0.195262,0.06509 -0.249502,0.141023 -0.07594,0.108479 -0.444765,0 -0.07594,-0.0217 -0.07594,0.03254 0.01085,0.05424 0.0217,0.249502 0,0.130175 0.01085,0.173567 0.0217,0.03254 0.09763,0.03254 0.10848,0 0.216959,-0.04339 0.119327,-0.05424 0.640028,-0.09763 0.379677,-0.03254 0.477309,-0.0217 0.09763,0 0.20611,0.06509 l 0.162719,0.08678 0.04339,-0.206111 q 0.04339,-0.216958 0.0217,-0.824442 -0.01085,-0.618332 -0.01085,-1.204121 0,-0.433917 -0.0217,-0.509852 -0.0217,-0.08678 -0.08678,-0.119328 z"
         id="text1"
         aria-label="é“" />
      <path
         style="font-size:14.027px;font-family:'Ma Shan Zheng';-inkscape-font-specification:'Ma Shan Zheng, Normal';stroke-width:0.110604"
         d="m 12.282101,18.370932 q 0,-0.04594 0.03887,-0.07068 0.201424,-0.134282 0.568933,-0.222626 0.151952,-0.0318 0.250897,-0.0318 0.501792,0 0.724418,0.614872 0.07774,0.219093 0.07774,0.462921 0,0.36751 -0.194357,0.742088 -0.194356,0.374577 -0.399313,0.604271 -0.11308,0.120147 -0.240295,0.120147 -0.127215,0 -0.19789,-0.09895 -0.07067,-0.09895 -0.07067,-0.250896 0,-0.155485 0.05654,-0.346307 0.05654,-0.190823 0.176687,-0.240295 -0.01767,0.08128 -0.01767,0.173153 0,0.08834 0.06007,0.219093 0.06361,0.130749 0.148418,0.130749 0.08481,0 0.137816,-0.09895 0.219092,-0.39578 0.219092,-0.901106 0,-0.600738 -0.314503,-0.777425 -0.09188,-0.04947 -0.176688,-0.04947 -0.08481,0 -0.183755,0.04947 0.02827,0.151951 0.02827,0.385179 0,0.229693 -0.08128,0.738553 -0.07774,0.505326 -0.07774,0.770357 v 0.11308 q 0,0.09188 -0.04241,0.120148 -0.04241,0.02827 -0.08834,0.02827 -0.130749,0 -0.183755,-0.484124 -0.0212,-0.194356 -0.03534,-0.261497 0.0106,-0.0035 0.0318,-0.0035 0.06361,0 0.148418,0.09188 v -0.09188 q -0.0035,-0.279166 0.07421,-1.017719 0.0035,-0.02827 0.0035,-0.102479 0,-0.07774 -0.01414,-0.159019 -0.02474,0.01414 -0.09895,0.07421 -0.173153,0.14135 -0.247362,0.14135 -0.07068,0 -0.07068,-0.123681 l 0.0035,-0.109547 z m 2.46302,1.671463 q -0.289767,0.519461 -0.441719,0.519461 -0.109546,0 -0.19789,-0.134282 -0.02474,-0.03534 -0.05301,-0.109547 -0.02827,-0.07774 -0.07067,-0.141349 -0.03887,-0.06361 -0.03887,-0.16962 0,-0.109547 0.04241,-0.194357 0.289767,-0.572467 0.611339,-0.784492 0.0424,-0.0318 0.09894,-0.0318 0.05654,0 0.141349,0.06361 0.04947,0.04947 0.06007,0.08481 0.01767,0.07774 0.01767,0.09541 0.123681,0.0424 0.123681,0.155485 0,0.07774 -0.04241,0.353375 -0.0424,0.272099 -0.04947,0.406381 0,0.07421 0.04947,0.07421 0.05654,0 0.201424,-0.19789 0.148418,-0.19789 0.16962,-0.19789 0.03534,0 0.03534,0.116614 l -0.0071,0.173153 q 0,0.09894 -0.08834,0.272099 -0.08834,0.16962 -0.226161,0.16962 -0.08481,0 -0.134282,-0.05654 -0.01767,-0.01767 -0.05301,-0.07067 -0.109547,-0.159019 -0.148418,-0.39578 z m 0.0318,-0.816296 q -0.445253,0.406381 -0.5654,0.929376 0.356909,-0.307436 0.5654,-0.929376 z m 1.515975,0.448786 q 0,0.427584 -0.247362,0.759756 -0.08834,0.11308 -0.19789,0.11308 -0.106012,0 -0.16962,-0.05301 -0.229694,-0.190823 -0.229694,-0.653744 0,-0.321571 0.173154,-0.819829 0.01414,-0.03534 0.02474,-0.04241 0.0106,-0.0106 0.03534,-0.0106 0.02827,0 0.06714,-0.03534 0.03887,-0.03887 0.127215,-0.03887 0.09188,0 0.183755,0.06714 0.09188,0.06714 0.134283,0.180221 0.09895,0.265032 0.09895,0.533596 z m -0.293301,-0.229693 q 0,-0.325105 -0.08128,-0.325105 -0.03887,0 -0.07067,0.06007 -0.14135,0.335707 -0.14135,0.802161 0,0.116614 0.0035,0.176688 0.289767,-0.222626 0.289767,-0.713817 z"
         id="text2"
         aria-label="Dao" />
    </g>
  </g>
</svg>
