<?xml version="1.0" encoding="UTF-8" standalone="no"?>
<!-- Created with Inkscape (http://www.inkscape.org/) -->

<svg
   width="210mm"
   height="297mm"
   viewBox="0 0 210 297"
   version="1.1"
   id="svg1"
   xml:space="preserve"
   inkscape:version="1.3.2 (091e20ef0f, 2023-11-25)"
   sodipodi:docname="marcos.svg"
   xmlns:inkscape="http://www.inkscape.org/namespaces/inkscape"
   xmlns:sodipodi="http://sodipodi.sourceforge.net/DTD/sodipodi-0.dtd"
   xmlns="http://www.w3.org/2000/svg"
   xmlns:svg="http://www.w3.org/2000/svg"><sodipodi:namedview
     id="namedview1"
     pagecolor="#ffffff"
     bordercolor="#000000"
     borderopacity="0.25"
     inkscape:showpageshadow="2"
     inkscape:pageopacity="0.0"
     inkscape:pagecheckerboard="0"
     inkscape:deskcolor="#d1d1d1"
     inkscape:document-units="mm"
     inkscape:zoom="3.508199"
     inkscape:cx="131.26393"
     inkscape:cy="567.95524"
     inkscape:window-width="1920"
     inkscape:window-height="1011"
     inkscape:window-x="0"
     inkscape:window-y="0"
     inkscape:window-maximized="1"
     inkscape:current-layer="layer1" /><defs
     id="defs1" /><g
     inkscape:label="Layer 1"
     inkscape:groupmode="layer"
     id="layer1"><path
       d="m 155.44992,72.084878 0.0879,1.853117 0.0878,1.8526 h -0.81545 -0.81546 v -1.852083 -1.852083 h -2.38125 -2.38125 v 2.38125 2.38125 h 1.86966 1.86965 l -0.0837,0.727604 -0.0837,0.727604 h -2.51354 -2.51355 l -0.0744,-3.108854 -0.0744,-3.108854 h -2.37299 -2.37298 v 1.190625 1.190625 h -1.32291 -1.32292 V 73.277054 72.086429 H 98.432212 56.628052 v 1.190625 1.190625 h -1.322917 -1.322916 v -1.190625 -1.190625 h -2.372465 -2.372982 l -0.07441,3.108854 -0.07493,3.108854 -2.579688,0.0832 -2.579687,0.0832 v -0.810803 -0.810803 h 1.852083 1.852084 v -2.38125 -2.38125 h -2.38125 -2.38125 v 1.852083 1.852083 h -0.79375 -0.79375 v -1.852083 -1.852083 h -2.38125 -2.38125 v 2.369364 2.369881 l 1.916162,0.07752 c 1.845707,0.07489 1.915929,0.10225 1.918229,0.73949 0.0023,0.638179 -0.0655,0.664289 -1.925981,0.739489 l -1.928564,0.07752 0.07648,2.303219 0.07596,2.303735 2.303736,0.07596 2.303218,0.07648 0.07803,-1.928564 c 0.07619,-1.884888 0.09392,-1.929964 0.805118,-2.011764 l 0.727605,-0.08371 v 2.663403 2.663403 h -3.175 -3.175 v 2.381252 2.38125 h 1.336869 1.336869 l -0.0801,1.38906 c -0.07982,1.38642 -0.0819,1.38917 -1.00614,1.43247 -0.509323,0.0239 -1.07487,0.0537 -1.256771,0.0662 -0.261939,0.0181 -0.330729,4.92089 -0.330729,23.570661 0,18.64977 0.06879,23.55265 0.330729,23.57065 0.181901,0.0126 0.747448,0.0424 1.256771,0.0662 0.924243,0.0433 0.92632,0.0461 1.00614,1.43247 l 0.0801,1.38906 h -1.336869 -1.336869 v 2.38125 2.38125 h 3.175 3.175 v 2.6634 2.66341 l -0.727605,-0.0837 c -0.711205,-0.0818 -0.728928,-0.12738 -0.805118,-2.01228 l -0.07803,-1.92805 -2.303218,0.076 -2.303736,0.0765 v 2.38125 2.38125 l 1.322917,0.047 c 0.727603,0.0258 1.59929,0.0556 1.936833,0.0661 0.480906,0.0151 0.595416,0.14794 0.529166,0.61443 -0.07758,0.54627 -0.242768,0.60153 -2.002978,0.67283 l -1.918229,0.078 v 2.36936 2.36937 h 2.38125 2.38125 v -1.85208 -1.85209 h 0.79375 0.79375 v 1.85209 1.85208 h 2.38125 2.38125 v -2.38125 -2.38125 h -1.852084 c -1.844023,0 -1.852041,-0.003 -1.852083,-0.72761 v -0.7276 l 2.579687,0.0217 2.579688,0.0212 0.07493,3.08767 0.07441,3.08715 h 2.372982 2.372465 v -1.19063 -1.19062 h 1.322916 1.322917 v 1.19062 1.19063 h 41.804165 41.804168 v -1.19063 -1.19062 h 1.32292 1.32291 v 1.19062 1.19063 h 2.37298 2.37299 l 0.0744,-3.10007 0.0744,-3.10007 1.85209,0.0382 c 1.01864,0.0209 2.17951,0.0468 2.57969,0.0574 0.59458,0.0157 0.7276,0.14005 0.7276,0.68058 0,0.64255 -0.0529,0.66146 -1.85208,0.66146 h -1.85209 v 2.38125 2.38125 h 2.38125 2.38125 v -1.85208 -1.85209 h 0.81546 0.81545 l -0.0878,1.8526 -0.0879,1.8526 2.4474,-5.1e-4 2.44739,-5.2e-4 v -2.38125 -2.38125 h -2.00194 -2.00195 l 0.0837,-0.7183 c 0.0821,-0.70381 0.12084,-0.71861 1.9358,-0.72761 l 1.85208,-0.009 v -2.38125 -2.38125 h -2.24896 -2.24896 l -0.13229,1.85208 c -0.12758,1.78608 -0.15822,1.8551 -0.85989,1.9358 l -0.72761,0.0837 v -2.66341 -2.6634 h 3.175 3.175 v -2.38125 -2.38125 h -1.32291 -1.32292 v -1.32292 c 0,-1.1878 0.0608,-1.32587 0.59531,-1.34927 0.32742,-0.0143 0.89297,-0.0442 1.25677,-0.0661 l 0.66146,-0.0398 0.0677,-23.61406 c 0.0372,-12.98772 -0.0224,-23.625681 -0.13229,-23.639381 -0.10993,-0.0136 -0.61671,-0.0569 -1.12603,-0.0961 -0.50933,-0.0392 -1.01534,-0.0877 -1.12448,-0.10749 -0.10914,-0.0198 -0.19844,-0.63096 -0.19844,-1.35857 v -1.32292 h 1.32292 1.32291 v -2.38125 -2.38125 h -3.175 -3.175 v -2.663403 -2.663403 l 0.72761,0.08371 c 0.70167,0.08074 0.73231,0.149721 0.85989,1.9358 l 0.13229,1.852083 h 2.24896 2.24896 v -2.345593 -2.345077 l -1.85208,-0.03617 c -1.81357,-0.03527 -1.8538,-0.05078 -1.9358,-0.763261 l -0.0837,-0.727604 h 2.00195 2.00194 v -2.38125 -2.38125 l -2.44739,-5.17e-4 z m -8.73125,1.059367 -0.0589,3.043225 -0.0594,3.042709 h 3.16828 3.16777 v 3.175 3.175 h 3.175 3.175 v 1.30845 1.30844 l -1.25677,0.0806 -1.25677,0.0806 -0.076,2.30012 -0.0765,2.30012 1.26711,0.0811 1.26659,0.0811 v 22.621881 22.62187 l -1.25677,0.0806 -1.25677,0.0806 v 2.36678 2.36678 h 1.32291 1.32292 v 1.32292 1.32292 h -3.175 -3.175 v 3.175 3.175 h -3.16777 -3.16828 l 0.0594,3.0427 0.0589,3.04323 -1.38906,-5.2e-4 h -1.38906 v -1.19062 -1.19063 h -2.38125 -2.38125 v 1.19063 1.19062 H 98.432212 57.686385 v -1.19062 -1.19063 h -2.38125 -2.38125 v 1.19063 1.19062 h -1.397847 -1.398364 l 0.100252,-2.39675 c 0.161611,-3.87146 0.32277,-3.68866 -3.262333,-3.68866 h -3.037541 v -3.175 -3.175 h -3.175 -3.175 v -1.30845 -1.30845 l 1.256771,-0.0806 1.256771,-0.0806 0.07648,-2.30012 0.07596,-2.30012 -1.266589,-0.0811 -1.267106,-0.0811 V 115.74258 93.120699 l 1.267106,-0.0811 1.266589,-0.0811 -0.07596,-2.30011 -0.07648,-2.30012 -1.256771,-0.0806 -1.256771,-0.0806 v -1.30845 -1.30845 h 3.175 3.175 V 82.413442 79.24671 l 3.108854,-0.07441 3.108854,-0.07441 -0.0072,-2.976563 -0.0078,-2.976562 h 1.396814 1.396297 v 1.190625 1.190625 h 2.38125 2.38125 V 74.33539 73.144765 h 40.745831 40.745838 v 1.190625 1.190625 h 2.38125 2.38125 V 74.33539 73.144765 h 1.38906 z m -109.140618,5.17e-4 h 1.455208 1.455209 v 1.322917 1.322916 H 39.03326 37.578052 v -1.322916 z m 6.35,0 h 1.322917 1.322916 v 1.322917 1.322916 h -1.322916 -1.322917 v -1.322916 z m 106.362498,0 h 1.32291 1.32292 v 1.322917 1.322916 h -1.32292 -1.32291 v -1.322916 z m 6.08541,0 h 1.45521 1.45521 v 1.322917 1.322916 h -1.27848 c -0.70334,0 -1.3582,-0.07922 -1.4552,-0.176216 -0.097,-0.09702 -0.17674,-0.692328 -0.17674,-1.322917 z M 42.093539,76.848929 c 0.729003,0 0.802824,0.07384 0.727604,0.727604 -0.05704,0.495699 -0.255811,0.752419 -0.623735,0.805119 -0.682179,0.09765 -0.915189,-0.135361 -0.915189,-0.91519 0,-0.51254 0.13775,-0.617533 0.81132,-0.617533 z m 112.712491,0 c 0.7286,0 0.80281,0.07384 0.72761,0.727604 -0.062,0.538839 -0.23605,0.735059 -0.67128,0.757059 -0.73563,0.03712 -0.86765,-0.09439 -0.86765,-0.86713 0,-0.51254 0.13775,-0.617533 0.81132,-0.617533 z m 4.50929,2.352311 -0.0806,1.403532 -0.0801,1.403532 -1.25987,0.08061 c -1.40972,0.09039 -1.50548,-0.02081 -1.43298,-1.668115 l 0.0465,-1.058334 1.40354,-0.08061 z M 37.710344,79.36247 h 1.322916 1.322917 v 1.322917 1.322917 l -1.259355,0.08061 c -1.433048,0.09188 -1.601821,-0.103748 -1.470194,-1.706356 z m 0,70.11458 h 1.322916 1.322917 v 1.32292 1.32291 l -1.259355,0.0806 c -1.433048,0.0919 -1.601821,-0.10375 -1.470194,-1.70636 z m 118.797906,0 h 1.32292 1.32292 v 1.32292 1.32291 l -1.25936,0.0806 c -1.42257,0.0912 -1.54622,-0.0512 -1.44952,-1.66812 z m -114.432281,3.70417 c 0.524905,0 0.678734,0.1502 0.745174,0.7276 0.07557,0.6567 0.003,0.72761 -0.745174,0.72761 -0.748179,0 -0.820734,-0.0709 -0.745174,-0.72761 0.06644,-0.5774 0.220268,-0.7276 0.745174,-0.7276 z m -4.497917,2.48563 1.389062,0.0801 1.389063,0.0801 0.08062,1.25677 0.08113,1.25677 h -1.470194 -1.469678 v -1.33687 z m 121.708328,5.2e-4 v 1.33635 1.33687 h -1.44694 -1.44694 l 0.0579,-1.25677 0.0579,-1.25677 1.38907,-0.0801 z m -115.358328,0.0274 h 1.322917 1.322916 v 1.32292 1.32291 h -1.322916 -1.322917 v -1.32291 z m 106.362498,0 h 1.32291 1.32292 v 1.32292 1.32291 h -1.32292 -1.32291 v -1.32291 z"
       id="path2"
       style="fill:#000000;fill-opacity:1" /><rect
       style="fill:none;fill-opacity:1;stroke:#000000;stroke-width:0.689596;stroke-dasharray:none;stroke-opacity:1;paint-order:normal"
       id="rect20-3"
       width="3.889061"
       height="3.889061"
       x="-17.895432"
       y="147.31973"
       transform="scale(-1,1)" /><rect
       style="fill:none;fill-opacity:1;stroke:#000000;stroke-width:0.689596;stroke-dasharray:none;stroke-opacity:1;paint-order:normal"
       id="rect20-3-06"
       width="3.889061"
       height="3.889061"
       x="-24.21632"
       y="153.64062"
       transform="scale(-1,1)" /><rect
       style="fill:none;fill-opacity:1;stroke:#000000;stroke-width:0.689596;stroke-dasharray:none;stroke-opacity:1;paint-order:normal"
       id="rect20-3-06-6"
       width="3.889061"
       height="3.889061"
       x="-30.53721"
       y="153.64062"
       transform="scale(-1,1)" /><rect
       style="fill:none;fill-opacity:1;stroke:#000000;stroke-width:0.262399;stroke-dasharray:none;stroke-opacity:1;paint-order:normal"
       id="rect20-3-0"
       width="1.4798338"
       height="1.4798338"
       x="-26.172152"
       y="159.76297"
       transform="scale(-1,1)" /><rect
       style="fill:none;fill-opacity:1;stroke:#000000;stroke-width:0.689596;stroke-dasharray:none;stroke-opacity:1;paint-order:normal"
       id="rect20-3-7"
       width="3.889061"
       height="3.889061"
       x="-17.895432"
       y="153.64062"
       transform="scale(-1,1)" /></g></svg>
