<?xml version="1.0" encoding="UTF-8" standalone="no"?>
<!-- Created with Inkscape (http://www.inkscape.org/) -->

<svg
   width="108"
   height="108"
   viewBox="0 0 108 108"
   version="1.1"
   id="svg1"
   inkscape:version="1.3.2 (091e20ef0f, 2023-11-25)"
   sodipodi:docname="foreground.svg"
   inkscape:export-filename="logo.png"
   inkscape:export-xdpi="96"
   inkscape:export-ydpi="96"
   xmlns:inkscape="http://www.inkscape.org/namespaces/inkscape"
   xmlns:sodipodi="http://sodipodi.sourceforge.net/DTD/sodipodi-0.dtd"
   xmlns="http://www.w3.org/2000/svg"
   xmlns:svg="http://www.w3.org/2000/svg">
  <sodipodi:namedview
     id="namedview1"
     pagecolor="#ffffff"
     bordercolor="#000000"
     borderopacity="0.25"
     inkscape:showpageshadow="2"
     inkscape:pageopacity="0.0"
     inkscape:pagecheckerboard="0"
     inkscape:deskcolor="#d1d1d1"
     inkscape:document-units="px"
     inkscape:zoom="3.4624462"
     inkscape:cx="68.881937"
     inkscape:cy="68.30431"
     inkscape:window-width="1920"
     inkscape:window-height="1011"
     inkscape:window-x="0"
     inkscape:window-y="0"
     inkscape:window-maximized="1"
     inkscape:current-layer="g2" />
  <defs
     id="defs1" />
  <g
     inkscape:label="Layer 1"
     inkscape:groupmode="layer"
     id="layer1">
    <g
       id="g2">
      <g
         id="g1">
        <path
           style="font-size:43.0602px;font-family:'Ma Shan Zheng';-inkscape-font-specification:'Ma Shan Zheng, Normal';stroke-width:1.28327"
           d="m 41.725609,43.739323 q 1.025004,-0.368996 1.558005,-0.368996 0.574,0 1.229998,0.451 0.533003,0.410003 0.656005,0.656001 0.163994,0.24601 0.327987,1.394003 0.08202,0.368995 0.122986,0.574001 0.08197,0.492 -0.533001,0.861003 -0.533,0.24601 -1.066004,0.778998 -0.492,0.533001 -1.066,0.984004 -0.41,0.28698 -0.492001,0.492 -0.04101,0.163994 0.04101,0.656001 0.163994,0.737998 0.205002,1.476 0.04101,0.738002 0.451004,1.435004 0.409999,0.656001 0.860999,1.599001 0.491999,0.902003 1.189001,2.050001 0.697002,1.148005 0.574001,1.558004 -0.122986,0.24601 0.08202,0.368995 0.246009,0.08202 1.394002,0.368995 1.599001,0.327988 3.198002,0.984001 1.927005,0.820002 5.371008,1.681001 l 1.558001,0.410003 q 1.066004,0.24601 7.052009,0.327988 5.986008,0.08202 6.765011,0.205002 0.533,0.04101 0.656001,0.122985 0.163994,0.08202 0.163994,0.368995 0,0.41 -0.697002,0.697002 -0.697001,0.327987 -0.943004,0.327987 -0.368995,0 -1.885998,1.312004 -1.517005,1.352998 -1.845004,1.926999 -0.205001,0.287017 -0.984003,0.287017 -0.778999,0 -2.132002,-0.205001 -1.312003,-0.163994 -1.845003,-0.327988 -1.558001,-0.450999 -4.018005,-0.820002 -1.148001,-0.122986 -2.091005,-0.533001 -0.942999,-0.409999 -4.592004,-2.296002 -2.583001,-1.312003 -4.838008,-1.886003 -1.107,-0.287018 -2.952004,-0.122987 -1.844999,0.122987 -2.378002,0.573998 -0.533001,0.327987 -0.573997,0.492003 0,0.24601 -0.451004,0.696998 -0.41,0.451003 -0.697001,0.615002 -0.368996,0.122985 -0.533001,0.08201 -0.122986,0 -0.368996,-0.287017 -0.409999,-0.368996 -0.409999,-0.574001 0,-0.24601 -0.246003,-0.24601 -0.246001,0 -0.246001,-0.615 0,-1.025001 1.517001,-1.763003 l 1.476,-0.737998 q 0.820003,-0.327987 1.435003,-0.984003 0.615001,-0.697002 0.492,-1.148002 -0.122985,-0.368995 -1.148001,-3.362003 -0.450999,-1.271002 -0.574,-3.116005 -0.122986,-1.845003 0.122985,-2.870004 0.492001,-1.968003 0.41,-2.050004 -0.08202,-0.08202 -1.435,0.656001 -0.984004,0.533 -1.640005,1.148001 -0.655998,0.574001 -0.655998,0.861003 0,0.451 -0.656,-0.122985 -0.082,-0.08202 -0.164002,-0.205002 -0.574001,-0.615001 -0.492,-0.943 0.123001,-0.368995 0.164001,-0.738002 0.041,-0.286979 0.451001,-0.574 0.451,-0.28698 1.845002,-1.025001 2.255002,-1.148001 3.280003,-1.558001 z M 40.700608,35.12931 q 0.327988,-0.082 0.820003,-0.164002 0.574,0 2.009001,0.492001 1.476003,0.492001 1.599001,0.697002 0.451003,0.861001 0.163993,2.050002 -0.286979,1.148002 -1.025001,1.558001 -1.516992,0.820003 -3.279998,-1.926999 -1.393999,-2.255005 -0.286999,-2.706005 z m 10.168015,-1.763003 q 0.122986,-0.368999 0.327988,-0.368999 0.246009,0 1.271002,0.368999 l 1.148001,0.328003 0.779002,-0.368999 q 1.107001,-0.533002 1.107001,-0.205002 0,0.245998 -0.409999,0.697001 -0.24601,0.205001 -0.327988,0.574 -0.041,0.328003 -0.041,1.312003 0,1.312002 -0.24601,1.599001 -0.205001,0.246002 -1.107005,0.123001 -0.573996,-0.082 -0.984,-0.41 -0.368995,-0.328003 -0.901984,-1.312004 -0.943004,-1.640002 -0.615001,-2.337004 z m 7.995009,1.025002 q 0.04101,-0.123001 0.984003,-1.599003 0.984,-1.476001 0.984,-1.599001 0,-0.164002 0.28698,-0.327999 0.287018,-0.205001 0.615001,-0.123001 0.368995,0.082 0.574001,0.082 0.205001,0 0.984004,0.779002 0.778998,0.738 0.901999,0.738 0.163993,0 0.163993,0.615001 -0.04101,1.312002 -1.312002,1.476001 -0.574001,0.082 -0.656001,0.369003 -0.08202,0.287003 -1.107001,0.984001 -0.615001,0.451001 -1.066001,0.820001 -0.450999,0.328002 -0.697002,0.574001 -0.205001,0.205002 -0.122985,0.286999 0.08202,0.082 2.091004,-0.123001 5.576006,-0.492002 6.51901,0.205002 0.246008,0.205001 0.450999,0.696998 0.205002,0.492001 0.205002,0.901999 0,0.492004 -0.574005,0.738002 -0.41,0.24601 -0.696998,0.24601 -0.246009,-0.04101 -1.189001,-0.410003 -0.902003,-0.327987 -1.558005,-0.368995 -0.615001,-0.08202 -2.829003,-0.08202 -3.075005,0 -3.567005,0.122986 -0.368995,0.08201 -0.409999,0.163994 0,0.04101 0.205001,0.246009 0.574001,0.656001 -0.04101,1.558005 l -0.697001,0.984 q -0.492,0.738001 -0.041,0.820002 0.08202,0 0.163994,-0.08202 0.368995,-0.08202 2.706002,0.122986 2.337003,0.163993 2.911003,0.28698 0.943004,0.287017 1.025004,0.738002 0.122986,0.409999 -0.246009,2.419003 -0.205002,1.148001 -0.122986,4.715006 0.04101,2.378004 0,3.239003 0,0.861002 -0.205001,1.845002 -0.574001,2.583006 -2.050005,4.059005 -0.697001,0.779003 -1.107001,0.861003 -0.409999,0.08202 -0.861002,-0.450999 -0.41,-0.451004 -1.107002,-0.943004 -0.656001,-0.492 -0.819998,-0.738002 -0.122987,-0.246009 -0.615001,-0.696998 -0.492004,-0.492 -1.107005,-0.410003 -0.573997,0.08202 -1.025,0.368995 -0.41,0.287018 -1.189002,0.287018 -0.492,0 -0.656002,0.08202 -0.163993,0.08201 -0.205001,0.246009 -0.041,0.368996 -0.451003,0.410003 -0.368996,0.04101 -0.451,-0.287017 -0.122986,-0.24601 -0.492,-0.778998 -0.368995,-0.533005 -0.492,-1.271003 -0.08202,-0.738002 -0.24601,-1.025004 -0.163994,-0.28698 -0.041,-0.943 0.615,-2.091001 0.615,-6.437008 0.04101,-2.214002 0.08202,-2.788002 0.04101,-0.574002 0.24601,-0.738002 0.286979,-0.205002 0.122985,-0.24601 -0.205001,-0.041 0.28698,-0.409999 0.163994,-0.041 0.287018,-0.163994 0.860999,-0.492 1.599001,-1.640002 1.599001,-2.460003 1.476004,-2.747001 -0.041,-0.163995 -2.132006,0.368995 -2.050001,0.491999 -2.419003,0.697001 -0.368996,0.122986 -1.066001,0.368996 -0.697001,0.205001 -1.312003,-0.04101 -0.983999,-0.451001 -0.574,-1.189002 0.246009,-0.41 2.091004,-0.901999 4.223003,-1.148002 5.412009,-1.148002 0.532996,0 1.107,-0.615 0.41,-0.410001 1.353,-1.640001 0.943003,-1.271002 1.107,-1.558004 z m 0.574,10.291013 Q 58.65863,44.395343 57.18263,44.47732 q -1.435004,0.08202 -2.665001,0.410004 -0.738002,0.246009 -0.902004,0.451 -0.163994,0.163993 0.041,0.409999 0.163994,0.287017 0,0.738002 -0.163994,0.409999 -0.122986,0.451 0.041,0.041 1.107001,-0.327988 1.107001,-0.368996 2.214002,-0.287017 1.148005,0.08202 1.476004,0.533 0.327987,0.410003 0.287017,0.902003 l -0.04101,0.533 -2.173005,0.451001 q -2.173002,0.450999 -2.624002,0.409998 -0.410003,-0.08197 -0.615001,0 -0.122986,0.08202 -0.205001,0.902004 -0.08202,0.779002 0.041,0.901999 0.08202,0.04101 1.558001,-0.451 1.476004,-0.491999 2.542005,-0.574 0.697001,-0.122986 0.901999,-0.041 0.205001,0.08202 0.410003,0.368995 0.28698,0.41 0.205001,1.066001 -0.122985,0.533 -0.327987,0.779003 -0.205001,0.246009 -0.697002,0.327987 -0.491999,0.08202 -0.860999,0.287017 l -1.107004,0.451 q -0.737998,0.246009 -0.943,0.533 -0.287017,0.41 -1.681001,0 -0.287018,-0.08202 -0.287018,0.122986 0.041,0.205001 0.08202,0.942999 0,0.492001 0.041,0.656002 0.08201,0.122986 0.368995,0.122986 0.410003,0 0.820003,-0.163994 0.450999,-0.205001 2.419003,-0.368996 1.435,-0.122985 1.804003,-0.08202 0.368995,0 0.778998,0.24601 l 0.615001,0.327987 0.163994,-0.779003 q 0.163994,-0.819998 0.08202,-3.116001 -0.041,-2.337003 -0.041,-4.551008 0,-1.640002 -0.08202,-1.927 -0.08202,-0.327987 -0.327987,-0.451004 z"
           id="text1"
           aria-label="é“" />
        <path
           style="font-size:14.027px;font-family:'Ma Shan Zheng';-inkscape-font-specification:'Ma Shan Zheng, Normal';stroke-width:0.418031"
           d="m 46.420538,69.433444 q 0,-0.173632 0.146911,-0.267138 0.761287,-0.507522 2.150298,-0.841421 0.574306,-0.120188 0.948272,-0.120188 1.896537,0 2.737958,2.323926 0.29382,0.828068 0.29382,1.749622 0,1.389014 -0.734577,2.804742 -0.734574,1.415724 -1.509215,2.28386 -0.427389,0.454098 -0.908202,0.454098 -0.480813,0 -0.74793,-0.373984 -0.2671,-0.373985 -0.2671,-0.948268 0,-0.587661 0.213695,-1.308878 0.213695,-0.72122 0.667793,-0.908201 -0.06678,0.3072 -0.06678,0.654437 0,0.333883 0.227037,0.828068 0.240416,0.494169 0.560949,0.494169 0.320543,0 0.52088,-0.373984 0.828064,-1.495862 0.828064,-3.405755 0,-2.270506 -1.188673,-2.938299 -0.347263,-0.186974 -0.667797,-0.186974 -0.320542,0 -0.694507,0.186974 0.106848,0.574302 0.106848,1.455794 0,0.868131 -0.3072,2.791381 -0.293821,1.909894 -0.293821,2.911586 V 77.1264 q 0,0.347263 -0.16029,0.454103 -0.16029,0.106847 -0.333884,0.106847 -0.494169,0 -0.694507,-1.82976 -0.08012,-0.734574 -0.133568,-0.988335 0.04006,-0.01322 0.120189,-0.01322 0.240416,0 0.56095,0.347263 v -0.347267 q -0.01323,-1.055115 0.280479,-3.846497 0.01322,-0.106847 0.01322,-0.387322 0,-0.29382 -0.05344,-0.601017 -0.09351,0.05344 -0.373984,0.280479 -0.654437,0.534236 -0.934912,0.534236 -0.267137,0 -0.267137,-0.467455 l 0.01322,-0.414036 z m 9.309053,6.31734 q -1.095183,1.963317 -1.669489,1.963317 -0.414032,0 -0.747932,-0.507522 -0.09351,-0.133569 -0.200352,-0.414036 -0.106848,-0.29382 -0.267099,-0.534232 -0.14691,-0.240416 -0.14691,-0.641084 0,-0.414036 0.160289,-0.734578 1.095182,-2.163655 2.310573,-2.965009 0.160252,-0.120189 0.373947,-0.120189 0.213694,0 0.534232,0.240416 0.186973,0.186973 0.227036,0.320542 0.06678,0.29382 0.06678,0.360604 0.467455,0.160253 0.467455,0.58766 0,0.293821 -0.16029,1.335591 -0.160251,1.028405 -0.186973,1.535928 0,0.280479 0.186973,0.280479 0.213695,0 0.761288,-0.747931 0.560951,-0.74793 0.641084,-0.74793 0.133568,0 0.133568,0.440745 l -0.02683,0.654437 q 0,0.373947 -0.333883,1.028405 -0.333884,0.641084 -0.854782,0.641084 -0.320542,0 -0.507523,-0.213694 -0.06678,-0.06678 -0.200353,-0.2671 -0.414035,-0.601016 -0.560949,-1.495861 z m 0.120188,-3.085213 q -1.682845,1.535929 -2.136945,3.512602 1.348948,-1.161962 2.136945,-3.512602 z m 5.72967,1.696199 q 0,1.616066 -0.934911,2.871519 -0.333884,0.427389 -0.747932,0.427389 -0.400674,0 -0.641083,-0.200353 -0.868135,-0.72122 -0.868135,-2.470843 0,-1.215386 0.654441,-3.098567 0.05344,-0.133568 0.09351,-0.160289 0.04007,-0.04007 0.133568,-0.04007 0.106847,0 0.253758,-0.133569 0.14691,-0.14691 0.480812,-0.14691 0.347263,0 0.694507,0.253758 0.347263,0.253757 0.507526,0.68115 0.373984,1.001696 0.373984,2.016741 z M 60.47091,73.493639 q 0,-1.228743 -0.3072,-1.228743 -0.14691,0 -0.267099,0.227036 -0.534237,1.268814 -0.534237,3.03179 0,0.440745 0.01322,0.667797 1.095183,-0.841421 1.095183,-2.697892 z"
           id="text2"
           aria-label="Dao" />
      </g>
    </g>
  </g>
</svg>
