<?xml version="1.0" encoding="UTF-8" standalone="no"?>
<!-- Created with Inkscape (http://www.inkscape.org/) -->

<svg
   width="100"
   height="100"
   viewBox="0 0 100 99.999999"
   version="1.1"
   id="svg1"
   xml:space="preserve"
   inkscape:version="1.3.2 (091e20ef0f, 2023-11-25)"
   sodipodi:docname="boton1.svg"
   xmlns:inkscape="http://www.inkscape.org/namespaces/inkscape"
   xmlns:sodipodi="http://sodipodi.sourceforge.net/DTD/sodipodi-0.dtd"
   xmlns="http://www.w3.org/2000/svg"
   xmlns:svg="http://www.w3.org/2000/svg"><sodipodi:namedview
     id="namedview1"
     pagecolor="#ffffff"
     bordercolor="#000000"
     borderopacity="0.25"
     inkscape:showpageshadow="2"
     inkscape:pageopacity="0.0"
     inkscape:pagecheckerboard="false"
     inkscape:deskcolor="#d1d1d1"
     inkscape:document-units="px"
     inkscape:zoom="5.7752286"
     inkscape:cx="52.898339"
     inkscape:cy="57.573479"
     inkscape:window-width="1920"
     inkscape:window-height="1011"
     inkscape:window-x="0"
     inkscape:window-y="0"
     inkscape:window-maximized="1"
     inkscape:current-layer="layer8" /><defs
     id="defs1" /><g
     inkscape:groupmode="layer"
     id="layer2"
     inkscape:label="Fondo"
     style="display:inline" /><g
     inkscape:groupmode="layer"
     id="layer8"
     inkscape:label="Botones"
     style="display:inline"><path
       id="path1-2"
       style="fill:#bf9100;stroke-width:0.15119"
       d="M 82.89221,59.66588 A 32.892207,17.222346 0 0 1 50,76.88821 32.892207,17.222346 0 0 1 17.1078,59.66588 32.892207,17.222346 0 0 1 50,42.44353 32.892207,17.222346 0 0 1 82.89221,59.66588 Z" /><path
       id="rect2"
       style="fill:#bf9100;stroke-width:0.15119"
       d="M 17.1078,59.66588 H 82.89221 V 48.91418 H 17.1078 Z" /><path
       id="path1"
       style="fill:#ffd700;stroke-width:0.15119"
       d="M 82.89221,48.91418 A 32.892207,17.222346 0 0 1 50,66.13653 32.892207,17.222346 0 0 1 17.1078,48.91418 32.892207,17.222346 0 0 1 50,31.69185 32.892207,17.222346 0 0 1 82.89221,48.91418 Z" /><path
       id="path1-7-2"
       style="fill:#bf9100;stroke-width:0.1255"
       d="M 78.65274,42.44352 A 28.652734,13.622615 0 0 1 50,56.06614 28.652734,13.622615 0 0 1 21.34727,42.44352 28.652734,13.622615 0 0 1 50,28.82091 28.652734,13.622615 0 0 1 78.65274,42.44352 Z" /><path
       id="rect3"
       style="fill:#bf9100;stroke-width:0.159388"
       d="m 21.34727,36.73443 h 57.30547 v 5.70909 H 21.34727 Z" /><path
       id="path1-7"
       style="fill:#ffd700;stroke-width:0.1255"
       d="M 78.65274,36.73443 A 28.652734,13.622615 0 0 1 50,50.35704 28.652734,13.622615 0 0 1 21.34727,36.73443 28.652734,13.622615 0 0 1 50,23.1118 28.652734,13.622615 0 0 1 78.65274,36.73443 Z" /><path
       d="M 53.498137,45.457366 V 28.011475 h -2.816265 q -0.149537,0.996908 -0.623068,1.669819 -0.473531,0.672914 -1.171367,1.096601 -0.672913,0.398761 -1.545207,0.573222 -0.847372,0.149535 -1.769512,0.124614 v 2.666728 h 4.386395 v 11.314907 z"
       id="text1"
       style="font-weight:bold;font-size:24.9227px;font-family:'Helvetica Neue';-inkscape-font-specification:'Helvetica Neue, Bold';fill:#f9f9f9;stroke-width:0.142812"
       aria-label="1" /></g><g
     inkscape:label="Iconos"
     inkscape:groupmode="layer"
     id="layer1" /></svg>
