<?xml version="1.0" encoding="UTF-8" standalone="no"?>
<!-- Created with Inkscape (http://www.inkscape.org/) -->

<svg
   width="100"
   height="100"
   viewBox="0 0 100 99.999999"
   version="1.1"
   id="svg1"
   xml:space="preserve"
   inkscape:version="1.3.2 (091e20ef0f, 2023-11-25)"
   sodipodi:docname="boton6.svg"
   xmlns:inkscape="http://www.inkscape.org/namespaces/inkscape"
   xmlns:sodipodi="http://sodipodi.sourceforge.net/DTD/sodipodi-0.dtd"
   xmlns="http://www.w3.org/2000/svg"
   xmlns:svg="http://www.w3.org/2000/svg"><sodipodi:namedview
     id="namedview1"
     pagecolor="#ffffff"
     bordercolor="#000000"
     borderopacity="0.25"
     inkscape:showpageshadow="2"
     inkscape:pageopacity="0.0"
     inkscape:pagecheckerboard="false"
     inkscape:deskcolor="#d1d1d1"
     inkscape:document-units="px"
     inkscape:zoom="4.0837033"
     inkscape:cx="45.17958"
     inkscape:cy="67.2184"
     inkscape:window-width="1920"
     inkscape:window-height="1011"
     inkscape:window-x="0"
     inkscape:window-y="0"
     inkscape:window-maximized="1"
     inkscape:current-layer="layer8" /><defs
     id="defs1" /><g
     inkscape:groupmode="layer"
     id="layer2"
     inkscape:label="Fondo"
     style="display:inline" /><g
     inkscape:groupmode="layer"
     id="layer8"
     inkscape:label="Botones"
     style="display:inline"><path
       id="path1-2"
       style="fill:#bf9100;stroke-width:0.15119"
       d="M 82.89221,59.66588 A 32.892207,17.222346 0 0 1 50,76.88821 32.892207,17.222346 0 0 1 17.1078,59.66588 32.892207,17.222346 0 0 1 50,42.44353 32.892207,17.222346 0 0 1 82.89221,59.66588 Z" /><path
       id="rect2"
       style="fill:#bf9100;stroke-width:0.15119"
       d="M 17.1078,59.66588 H 82.89221 V 48.91418 H 17.1078 Z" /><path
       id="path1"
       style="fill:#ffd700;stroke-width:0.15119"
       d="M 82.89221,48.91418 A 32.892207,17.222346 0 0 1 50,66.13653 32.892207,17.222346 0 0 1 17.1078,48.91418 32.892207,17.222346 0 0 1 50,31.69185 32.892207,17.222346 0 0 1 82.89221,48.91418 Z" /><path
       id="path1-7-2"
       style="fill:#bf9100;stroke-width:0.1255"
       d="M 78.65274,42.44352 A 28.652734,13.622615 0 0 1 50,56.06614 28.652734,13.622615 0 0 1 21.34727,42.44352 28.652734,13.622615 0 0 1 50,28.82091 28.652734,13.622615 0 0 1 78.65274,42.44352 Z" /><path
       id="rect3"
       style="fill:#bf9100;stroke-width:0.159388"
       d="m 21.34727,36.73443 h 57.30547 v 5.70909 H 21.34727 Z" /><path
       id="path1-7"
       style="fill:#ffd700;stroke-width:0.1255"
       d="M 78.65274,36.73443 A 28.652734,13.622615 0 0 1 50,50.35704 28.652734,13.622615 0 0 1 21.34727,36.73443 28.652734,13.622615 0 0 1 50,23.1118 28.652734,13.622615 0 0 1 78.65274,36.73443 Z" /><path
       d="m 49.369554,36.410427 q 0.672912,0 1.171366,0.299072 0.523377,0.27415 0.847372,0.747681 0.323995,0.448609 0.473532,1.046753 0.174459,0.573223 0.174459,1.19629 0,0.598145 -0.174459,1.171367 -0.174459,0.573222 -0.523377,1.021831 -0.348918,0.448608 -0.847372,0.722758 -0.473531,0.27415 -1.121521,0.27415 -0.672913,0 -1.19629,-0.27415 -0.523377,-0.27415 -0.897217,-0.722758 -0.348918,-0.473532 -0.5483,-1.046754 -0.174459,-0.598145 -0.174459,-1.196289 0,-0.647991 0.174459,-1.221213 0.174459,-0.598145 0.523377,-1.046753 0.348918,-0.448609 0.872294,-0.697836 0.5483,-0.274149 1.246136,-0.274149 z m 2.542115,-3.912865 h 3.364565 q -0.149537,-1.171366 -0.623068,-2.068584 -0.473531,-0.897217 -1.221212,-1.495362 -0.747681,-0.623067 -1.719667,-0.947062 -0.971985,-0.323995 -2.093506,-0.323995 -1.869203,0 -3.165183,0.822449 -1.295981,0.822449 -2.11843,2.143352 -0.822449,1.29598 -1.19629,2.915956 -0.37384,1.619975 -0.37384,3.239951 0,1.669821 0.299072,3.289797 0.299073,1.595052 1.071676,2.86611 0.772604,1.271058 2.068585,2.068584 1.29598,0.772604 3.264873,0.772604 1.370749,0 2.49227,-0.473531 1.121522,-0.498454 1.919048,-1.345826 0.82245,-0.872295 1.246135,-2.018739 0.448609,-1.171367 0.448609,-2.517193 0,-1.046753 -0.323995,-2.068584 -0.323995,-1.021831 -1.021831,-1.819357 -0.747681,-0.822449 -1.819357,-1.29598 -1.071676,-0.498454 -2.193198,-0.498454 -1.271057,0 -2.243043,0.448608 -0.971985,0.448609 -1.694743,1.495362 l -0.04985,-0.04985 q 0.02492,-0.722759 0.199382,-1.644898 0.174459,-0.92214 0.548299,-1.719667 0.373841,-0.822449 0.996908,-1.370748 0.64799,-0.573222 1.595053,-0.573222 0.92214,0 1.545208,0.64799 0.623067,0.64799 0.797526,1.520284 z"
       id="text1"
       style="font-weight:bold;font-size:24.9227px;font-family:'Helvetica Neue';-inkscape-font-specification:'Helvetica Neue, Bold';fill:#f9f9f9;stroke-width:0.142812"
       aria-label="6" /></g><g
     inkscape:label="Iconos"
     inkscape:groupmode="layer"
     id="layer1" /></svg>
