<?xml version="1.0" encoding="UTF-8" standalone="no"?>
<!-- Created with Inkscape (http://www.inkscape.org/) -->

<svg
   width="100"
   height="100"
   viewBox="0 0 100 99.999999"
   version="1.1"
   id="svg1"
   xml:space="preserve"
   inkscape:version="1.3.2 (091e20ef0f, 2023-11-25)"
   sodipodi:docname="boton5.svg"
   xmlns:inkscape="http://www.inkscape.org/namespaces/inkscape"
   xmlns:sodipodi="http://sodipodi.sourceforge.net/DTD/sodipodi-0.dtd"
   xmlns="http://www.w3.org/2000/svg"
   xmlns:svg="http://www.w3.org/2000/svg"><sodipodi:namedview
     id="namedview1"
     pagecolor="#ffffff"
     bordercolor="#000000"
     borderopacity="0.25"
     inkscape:showpageshadow="2"
     inkscape:pageopacity="0.0"
     inkscape:pagecheckerboard="false"
     inkscape:deskcolor="#d1d1d1"
     inkscape:document-units="px"
     inkscape:zoom="5.7752286"
     inkscape:cx="45.279593"
     inkscape:cy="39.565533"
     inkscape:window-width="1920"
     inkscape:window-height="1011"
     inkscape:window-x="0"
     inkscape:window-y="0"
     inkscape:window-maximized="1"
     inkscape:current-layer="layer8" /><defs
     id="defs1" /><g
     inkscape:groupmode="layer"
     id="layer2"
     inkscape:label="Fondo"
     style="display:inline" /><g
     inkscape:groupmode="layer"
     id="layer8"
     inkscape:label="Botones"
     style="display:inline"><path
       id="path1-2"
       style="fill:#bf9100;stroke-width:0.15119"
       d="M 82.89221,59.66588 A 32.892207,17.222346 0 0 1 50,76.88821 32.892207,17.222346 0 0 1 17.1078,59.66588 32.892207,17.222346 0 0 1 50,42.44353 32.892207,17.222346 0 0 1 82.89221,59.66588 Z" /><path
       id="rect2"
       style="fill:#bf9100;stroke-width:0.15119"
       d="M 17.1078,59.66588 H 82.89221 V 48.91418 H 17.1078 Z" /><path
       id="path1"
       style="fill:#ffd700;stroke-width:0.15119"
       d="M 82.89221,48.91418 A 32.892207,17.222346 0 0 1 50,66.13653 32.892207,17.222346 0 0 1 17.1078,48.91418 32.892207,17.222346 0 0 1 50,31.69185 32.892207,17.222346 0 0 1 82.89221,48.91418 Z" /><path
       id="path1-7-2"
       style="fill:#bf9100;stroke-width:0.1255"
       d="M 78.65274,42.44352 A 28.652734,13.622615 0 0 1 50,56.06614 28.652734,13.622615 0 0 1 21.34727,42.44352 28.652734,13.622615 0 0 1 50,28.82091 28.652734,13.622615 0 0 1 78.65274,42.44352 Z" /><path
       id="rect3"
       style="fill:#bf9100;stroke-width:0.159388"
       d="m 21.34727,36.73443 h 57.30547 v 5.70909 H 21.34727 Z" /><path
       id="path1-7"
       style="fill:#ffd700;stroke-width:0.1255"
       d="M 78.65274,36.73443 A 28.652734,13.622615 0 0 1 50,50.35704 28.652734,13.622615 0 0 1 21.34727,36.73443 28.652734,13.622615 0 0 1 50,23.1118 28.652734,13.622615 0 0 1 78.65274,36.73443 Z" /><path
       d="m 54.703012,30.927432 v -2.915956 h -9.744777 l -1.719666,9.645086 h 3.190106 q 0.523377,-0.722759 1.121521,-1.046754 0.598145,-0.348918 1.545208,-0.348918 0.722758,0 1.271058,0.249227 0.548299,0.249227 0.947062,0.697836 0.398763,0.448609 0.598145,1.046753 0.199382,0.598145 0.199382,1.271058 0,0.64799 -0.224305,1.271058 -0.199381,0.598145 -0.598145,1.071676 -0.37384,0.448609 -0.947062,0.747681 -0.5483,0.27415 -1.246135,0.27415 -1.19629,0 -1.968894,-0.697836 -0.772603,-0.722758 -0.897217,-1.919048 H 42.69027 q 0.02492,1.370749 0.548299,2.417502 0.5483,1.021831 1.445517,1.719667 0.897217,0.697835 2.043661,1.046753 1.171367,0.323995 2.442425,0.323995 1.320903,0.02492 2.49227,-0.423686 1.171367,-0.473531 2.043661,-1.320903 0.897218,-0.847372 1.420594,-1.993816 0.523377,-1.171367 0.523377,-2.517193 0,-1.221212 -0.37384,-2.292888 -0.348918,-1.096599 -1.046754,-1.894126 -0.672913,-0.797526 -1.669821,-1.271057 -0.996908,-0.473532 -2.292888,-0.473532 -1.046754,0 -1.869203,0.323995 -0.822449,0.299073 -1.545207,1.021831 l -0.04985,-0.04985 0.697836,-3.96271 z"
       id="text1"
       style="font-weight:bold;font-size:24.9227px;font-family:'Helvetica Neue';-inkscape-font-specification:'Helvetica Neue, Bold';fill:#f9f9f9;stroke-width:0.142812"
       aria-label="5" /></g><g
     inkscape:label="Iconos"
     inkscape:groupmode="layer"
     id="layer1" /></svg>
