<?xml version="1.0" encoding="UTF-8" standalone="no"?>
<!-- Created with Inkscape (http://www.inkscape.org/) -->

<svg
   width="100"
   height="100"
   viewBox="0 0 100 99.999999"
   version="1.1"
   id="svg1"
   xml:space="preserve"
   inkscape:version="1.3.2 (091e20ef0f, 2023-11-25)"
   sodipodi:docname="boton2.svg"
   xmlns:inkscape="http://www.inkscape.org/namespaces/inkscape"
   xmlns:sodipodi="http://sodipodi.sourceforge.net/DTD/sodipodi-0.dtd"
   xmlns="http://www.w3.org/2000/svg"
   xmlns:svg="http://www.w3.org/2000/svg"><sodipodi:namedview
     id="namedview1"
     pagecolor="#ffffff"
     bordercolor="#000000"
     borderopacity="0.25"
     inkscape:showpageshadow="2"
     inkscape:pageopacity="0.0"
     inkscape:pagecheckerboard="false"
     inkscape:deskcolor="#d1d1d1"
     inkscape:document-units="px"
     inkscape:zoom="11.550457"
     inkscape:cx="49.218831"
     inkscape:cy="29.392776"
     inkscape:window-width="1920"
     inkscape:window-height="1011"
     inkscape:window-x="0"
     inkscape:window-y="0"
     inkscape:window-maximized="1"
     inkscape:current-layer="layer8" /><defs
     id="defs1" /><g
     inkscape:groupmode="layer"
     id="layer2"
     inkscape:label="Fondo"
     style="display:inline" /><g
     inkscape:groupmode="layer"
     id="layer8"
     inkscape:label="Botones"
     style="display:inline"><path
       id="path1-2"
       style="fill:#bf9100;stroke-width:0.15119"
       d="M 82.89221,59.66588 A 32.892207,17.222346 0 0 1 50,76.88821 32.892207,17.222346 0 0 1 17.1078,59.66588 32.892207,17.222346 0 0 1 50,42.44353 32.892207,17.222346 0 0 1 82.89221,59.66588 Z" /><path
       id="rect2"
       style="fill:#bf9100;stroke-width:0.15119"
       d="M 17.1078,59.66588 H 82.89221 V 48.91418 H 17.1078 Z" /><path
       id="path1"
       style="fill:#ffd700;stroke-width:0.15119"
       d="M 82.89221,48.91418 A 32.892207,17.222346 0 0 1 50,66.13653 32.892207,17.222346 0 0 1 17.1078,48.91418 32.892207,17.222346 0 0 1 50,31.69185 32.892207,17.222346 0 0 1 82.89221,48.91418 Z" /><path
       id="path1-7-2"
       style="fill:#bf9100;stroke-width:0.1255"
       d="M 78.65274,42.44352 A 28.652734,13.622615 0 0 1 50,56.06614 28.652734,13.622615 0 0 1 21.34727,42.44352 28.652734,13.622615 0 0 1 50,28.82091 28.652734,13.622615 0 0 1 78.65274,42.44352 Z" /><path
       id="rect3"
       style="fill:#bf9100;stroke-width:0.159388"
       d="m 21.34727,36.73443 h 57.30547 v 5.70909 H 21.34727 Z" /><path
       id="path1-7"
       style="fill:#ffd700;stroke-width:0.1255"
       d="M 78.65274,36.73443 A 28.652734,13.622615 0 0 1 50,50.35704 28.652734,13.622615 0 0 1 21.34727,36.73443 28.652734,13.622615 0 0 1 50,23.1118 28.652734,13.622615 0 0 1 78.65274,36.73443 Z" /><path
       d="m 43.669639,34.591077 h 3.389487 q 0,-0.697835 0.124614,-1.395671 0.149536,-0.722758 0.473531,-1.29598 0.323995,-0.598145 0.847372,-0.947063 0.548299,-0.37384 1.320903,-0.37384 1.146444,0 1.869203,0.722758 0.747681,0.697836 0.747681,1.968893 0,0.797527 -0.373841,1.420594 -0.348918,0.623068 -0.897217,1.121522 -0.523377,0.498454 -1.171367,0.92214 -0.64799,0.398763 -1.221212,0.797526 -1.121522,0.772604 -2.143353,1.520285 -0.996908,0.747681 -1.744589,1.644898 -0.747681,0.872295 -1.196289,1.993816 -0.423686,1.121522 -0.423686,2.641806 H 56.081144 V 42.292192 H 47.83173 q 0.64799,-0.897217 1.495362,-1.57013 0.847372,-0.672913 1.744589,-1.246135 0.897217,-0.598145 1.769512,-1.19629 0.897217,-0.598145 1.595053,-1.320903 0.697835,-0.747681 1.121521,-1.694744 0.423686,-0.947062 0.423686,-2.267965 0,-1.271058 -0.498454,-2.292889 -0.473531,-1.021831 -1.29598,-1.719666 -0.822449,-0.697836 -1.919048,-1.071676 -1.071676,-0.373841 -2.267966,-0.373841 -1.57013,0 -2.791342,0.548299 -1.19629,0.523377 -1.993817,1.495363 -0.797526,0.947062 -1.196289,2.243043 -0.398763,1.271057 -0.348918,2.766419 z"
       id="text1"
       style="font-weight:bold;font-size:24.9227px;font-family:'Helvetica Neue';-inkscape-font-specification:'Helvetica Neue, Bold';fill:#f9f9f9;stroke-width:0.142812"
       aria-label="2" /></g><g
     inkscape:label="Iconos"
     inkscape:groupmode="layer"
     id="layer1" /></svg>
