<?xml version="1.0" encoding="UTF-8" standalone="no"?>
<!-- Created with Inkscape (http://www.inkscape.org/) -->

<svg
   width="100"
   height="100"
   viewBox="0 0 100 99.999999"
   version="1.1"
   id="svg1"
   xml:space="preserve"
   inkscape:version="1.3.2 (091e20ef0f, 2023-11-25)"
   sodipodi:docname="boton3.svg"
   xmlns:inkscape="http://www.inkscape.org/namespaces/inkscape"
   xmlns:sodipodi="http://sodipodi.sourceforge.net/DTD/sodipodi-0.dtd"
   xmlns="http://www.w3.org/2000/svg"
   xmlns:svg="http://www.w3.org/2000/svg"><sodipodi:namedview
     id="namedview1"
     pagecolor="#ffffff"
     bordercolor="#000000"
     borderopacity="0.25"
     inkscape:showpageshadow="2"
     inkscape:pageopacity="0.0"
     inkscape:pagecheckerboard="false"
     inkscape:deskcolor="#d1d1d1"
     inkscape:document-units="px"
     inkscape:zoom="8.1674066"
     inkscape:cx="51.240255"
     inkscape:cy="31.895069"
     inkscape:window-width="1920"
     inkscape:window-height="1011"
     inkscape:window-x="0"
     inkscape:window-y="0"
     inkscape:window-maximized="1"
     inkscape:current-layer="layer8"
     showguides="false" /><defs
     id="defs1" /><g
     inkscape:groupmode="layer"
     id="layer2"
     inkscape:label="Fondo"
     style="display:inline" /><g
     inkscape:groupmode="layer"
     id="layer8"
     inkscape:label="Botones"
     style="display:inline"><path
       id="path1-2"
       style="fill:#bf9100;stroke-width:0.15119"
       d="M 82.89221,59.66588 A 32.892207,17.222346 0 0 1 50,76.88821 32.892207,17.222346 0 0 1 17.1078,59.66588 32.892207,17.222346 0 0 1 50,42.44353 32.892207,17.222346 0 0 1 82.89221,59.66588 Z" /><path
       id="rect2"
       style="fill:#bf9100;stroke-width:0.15119"
       d="M 17.1078,59.66588 H 82.89221 V 48.91418 H 17.1078 Z" /><path
       id="path1"
       style="fill:#ffd700;stroke-width:0.15119"
       d="M 82.89221,48.91418 A 32.892207,17.222346 0 0 1 50,66.13653 32.892207,17.222346 0 0 1 17.1078,48.91418 32.892207,17.222346 0 0 1 50,31.69185 32.892207,17.222346 0 0 1 82.89221,48.91418 Z" /><path
       id="path1-7-2"
       style="fill:#bf9100;stroke-width:0.1255"
       d="M 78.65274,42.44352 A 28.652734,13.622615 0 0 1 50,56.06614 28.652734,13.622615 0 0 1 21.34727,42.44352 28.652734,13.622615 0 0 1 50,28.82091 28.652734,13.622615 0 0 1 78.65274,42.44352 Z" /><path
       id="rect3"
       style="fill:#bf9100;stroke-width:0.159388"
       d="m 21.34727,36.73443 h 57.30547 v 5.70909 H 21.34727 Z" /><path
       id="path1-7"
       style="fill:#ffd700;stroke-width:0.1255"
       d="M 78.65274,36.73443 A 28.652734,13.622615 0 0 1 50,50.35704 28.652734,13.622615 0 0 1 21.34727,36.73443 28.652734,13.622615 0 0 1 50,23.1118 28.652734,13.622615 0 0 1 78.65274,36.73443 Z" /><path
       d="m 48.754527,35.077059 v 2.492271 q 0.64799,0 1.345826,0.04984 0.722758,0.02492 1.320903,0.27415 0.598145,0.224304 0.971985,0.747681 0.398764,0.523376 0.398764,1.520284 0,1.271058 -0.82245,2.018739 -0.822449,0.722759 -2.018738,0.722759 -0.772604,0 -1.345826,-0.27415 -0.5483,-0.27415 -0.92214,-0.722758 Q 47.30901,41.432348 47.109629,40.809281 46.910247,40.16129 46.885324,39.463455 H 43.52076 q -0.02492,1.520285 0.423686,2.691652 0.473531,1.171366 1.320903,1.993816 0.847372,0.797526 2.043661,1.221212 1.221213,0.423686 2.691652,0.423686 1.271058,0 2.442425,-0.373841 1.171367,-0.37384 2.068584,-1.096598 0.897217,-0.722759 1.420594,-1.794435 0.548299,-1.071676 0.548299,-2.442425 0,-1.495362 -0.822449,-2.567038 -0.822449,-1.071676 -2.267966,-1.395671 v -0.04984 q 1.221213,-0.348918 1.819358,-1.320904 0.623067,-0.971985 0.623067,-2.243043 0,-1.171367 -0.523377,-2.068584 -0.523376,-0.897217 -1.370748,-1.520285 -0.822449,-0.623067 -1.869203,-0.92214 -1.046753,-0.323995 -2.093507,-0.323995 -1.345826,0 -2.442424,0.448609 -1.096599,0.423686 -1.894126,1.221212 -0.772603,0.797527 -1.221212,1.919048 -0.423686,1.096599 -0.473531,2.442425 h 3.364564 q -0.02492,-1.345826 0.647991,-2.21812 0.697835,-0.897218 2.043661,-0.897218 0.971985,0 1.719666,0.598145 0.747681,0.598145 0.747681,1.719667 0,0.747681 -0.37384,1.196289 -0.348918,0.448609 -0.92214,0.697836 -0.548299,0.224304 -1.19629,0.274149 -0.64799,0.04985 -1.221212,0 z"
       id="text1"
       style="font-weight:bold;font-size:24.9227px;font-family:'Helvetica Neue';-inkscape-font-specification:'Helvetica Neue, Bold';fill:#f9f9f9;stroke-width:0.142812"
       aria-label="3" /></g><g
     inkscape:label="Iconos"
     inkscape:groupmode="layer"
     id="layer1" /></svg>
