<?xml version="1.0" encoding="UTF-8" standalone="no"?>
<!-- Created with Inkscape (http://www.inkscape.org/) -->

<svg
   width="100"
   height="100"
   viewBox="0 0 100 99.999999"
   version="1.1"
   id="svg1"
   xml:space="preserve"
   inkscape:version="1.3.2 (091e20ef0f, 2023-11-25)"
   sodipodi:docname="boton8.svg"
   xmlns:inkscape="http://www.inkscape.org/namespaces/inkscape"
   xmlns:sodipodi="http://sodipodi.sourceforge.net/DTD/sodipodi-0.dtd"
   xmlns="http://www.w3.org/2000/svg"
   xmlns:svg="http://www.w3.org/2000/svg"><sodipodi:namedview
     id="namedview1"
     pagecolor="#ffffff"
     bordercolor="#000000"
     borderopacity="0.25"
     inkscape:showpageshadow="2"
     inkscape:pageopacity="0.0"
     inkscape:pagecheckerboard="false"
     inkscape:deskcolor="#d1d1d1"
     inkscape:document-units="px"
     inkscape:zoom="4.0837033"
     inkscape:cx="45.17958"
     inkscape:cy="67.2184"
     inkscape:window-width="1920"
     inkscape:window-height="1011"
     inkscape:window-x="0"
     inkscape:window-y="0"
     inkscape:window-maximized="1"
     inkscape:current-layer="layer8" /><defs
     id="defs1" /><g
     inkscape:groupmode="layer"
     id="layer2"
     inkscape:label="Fondo"
     style="display:inline" /><g
     inkscape:groupmode="layer"
     id="layer8"
     inkscape:label="Botones"
     style="display:inline"><path
       id="path1-2"
       style="fill:#bf9100;stroke-width:0.15119"
       d="M 82.89221,59.66588 A 32.892207,17.222346 0 0 1 50,76.88821 32.892207,17.222346 0 0 1 17.1078,59.66588 32.892207,17.222346 0 0 1 50,42.44353 32.892207,17.222346 0 0 1 82.89221,59.66588 Z" /><path
       id="rect2"
       style="fill:#bf9100;stroke-width:0.15119"
       d="M 17.1078,59.66588 H 82.89221 V 48.91418 H 17.1078 Z" /><path
       id="path1"
       style="fill:#ffd700;stroke-width:0.15119"
       d="M 82.89221,48.91418 A 32.892207,17.222346 0 0 1 50,66.13653 32.892207,17.222346 0 0 1 17.1078,48.91418 32.892207,17.222346 0 0 1 50,31.69185 32.892207,17.222346 0 0 1 82.89221,48.91418 Z" /><path
       id="path1-7-2"
       style="fill:#bf9100;stroke-width:0.1255"
       d="M 78.65274,42.44352 A 28.652734,13.622615 0 0 1 50,56.06614 28.652734,13.622615 0 0 1 21.34727,42.44352 28.652734,13.622615 0 0 1 50,28.82091 28.652734,13.622615 0 0 1 78.65274,42.44352 Z" /><path
       id="rect3"
       style="fill:#bf9100;stroke-width:0.159388"
       d="m 21.34727,36.73443 h 57.30547 v 5.70909 H 21.34727 Z" /><path
       id="path1-7"
       style="fill:#ffd700;stroke-width:0.1255"
       d="M 78.65274,36.73443 A 28.652734,13.622615 0 0 1 50,50.35704 28.652734,13.622615 0 0 1 21.34727,36.73443 28.652734,13.622615 0 0 1 50,23.1118 28.652734,13.622615 0 0 1 78.65274,36.73443 Z" /><path
       d="m 46.528366,32.746789 q 0,-0.598144 0.199381,-1.046753 0.224305,-0.448609 0.598145,-0.747681 0.373841,-0.299072 0.847372,-0.448609 0.498454,-0.174458 1.021831,-0.174458 0.822449,0 1.320903,0.249227 0.523376,0.249227 0.797526,0.623067 0.299073,0.373841 0.398763,0.797526 0.09969,0.398764 0.09969,0.747681 0,1.121522 -0.747681,1.719667 -0.747681,0.573222 -1.869202,0.573222 -1.071677,0 -1.869203,-0.573222 -0.797526,-0.598145 -0.797526,-1.719667 z m -3.215029,-0.323995 q 0,1.295981 0.64799,2.267966 0.647991,0.971985 1.919048,1.320903 v 0.04985 q -1.57013,0.37384 -2.442424,1.495362 -0.847372,1.121521 -0.847372,2.791342 0,1.420594 0.548299,2.442425 0.573222,1.021831 1.495362,1.694744 0.947063,0.672913 2.11843,0.971985 1.19629,0.323995 2.467347,0.323995 1.221213,0 2.39258,-0.323995 1.171367,-0.348918 2.093506,-1.021831 0.92214,-0.672913 1.47044,-1.694743 0.573222,-1.021831 0.573222,-2.417502 0,-1.644899 -0.847372,-2.76642 -0.847372,-1.146444 -2.417502,-1.495362 v -0.04985 q 1.271058,-0.423686 1.894125,-1.395671 0.647991,-0.971985 0.647991,-2.267966 0,-0.64799 -0.299073,-1.445516 -0.299072,-0.82245 -0.996908,-1.520285 -0.672913,-0.722758 -1.794434,-1.221212 -1.121522,-0.498454 -2.741497,-0.498454 -1.071677,0 -2.11843,0.299072 -1.046753,0.299072 -1.894125,0.897217 -0.822449,0.598145 -1.345826,1.495362 -0.523377,0.897217 -0.523377,2.068584 z m 2.816265,7.75096 q 0,-1.345825 0.897218,-2.043661 0.897217,-0.722758 2.193197,-0.722758 0.623068,0 1.146445,0.199381 0.548299,0.199382 0.947062,0.573222 0.423686,0.373841 0.64799,0.897218 0.249227,0.498454 0.249227,1.121521 0,0.64799 -0.224304,1.19629 -0.224304,0.548299 -0.64799,0.947062 -0.398763,0.373841 -0.947063,0.598145 -0.523376,0.199382 -1.171367,0.199382 -0.623067,0 -1.196289,-0.199382 -0.573222,-0.224304 -0.996908,-0.598145 -0.398764,-0.398763 -0.647991,-0.947062 -0.249227,-0.5483 -0.249227,-1.221213 z"
       id="text1"
       style="font-weight:bold;font-size:24.9227px;font-family:'Helvetica Neue';-inkscape-font-specification:'Helvetica Neue, Bold';fill:#f9f9f9;stroke-width:0.142812"
       aria-label="8" /></g><g
     inkscape:label="Iconos"
     inkscape:groupmode="layer"
     id="layer1" /></svg>
