<?xml version="1.0" encoding="UTF-8" standalone="no"?>
<!-- Created with Inkscape (http://www.inkscape.org/) -->

<svg
   version="1.1"
   id="svg1"
   width="337"
   height="500"
   viewBox="0 0 337.00001 499.99999"
   xmlns="http://www.w3.org/2000/svg"
   xmlns:svg="http://www.w3.org/2000/svg">
  <defs
     id="defs1" />
  <g
     id="g1">
    <g
       id="g243"
       transform="matrix(0.98461379,0,0,0.98461379,-563.27785,-118.22195)">
      <path
         id="path233"
         d="m 907.22931,570.33335 c -0.048,28.04667 -22.728,50.72533 -50.77733,50.77867 H 629.62532 c -28.04534,-0.0533 -50.72533,-22.732 -50.77467,-50.77867 V 177.62536 c 0.0493,-28.04667 22.72933,-50.73467 50.77467,-50.78667 h 226.82666 c 28.04933,0.052 50.72933,22.74 50.77733,50.78667 l 0.009,392.70799 z m 6.772,0 V 177.62536 c 0,-31.792 -25.764,-57.556 -57.54933,-57.556 H 629.62532 c -31.78133,0 -57.54533,25.764 -57.54533,57.556 v 392.70799 c 0,31.78267 25.764,57.54933 57.54533,57.54933 h 226.82666 c 31.78533,0 57.54933,-25.76666 57.55866,-57.54933 h -0.009"
         style="fill:#211d1d;fill-opacity:1;fill-rule:nonzero;stroke:none;stroke-width:0.133333" />
      <path
         id="path234"
         d="m 748.38265,400.90402 c -0.37734,-4.52 -0.816,-9.036 -1.368,-13.51867 -0.176,-1.448 -0.39734,-2.88933 -0.59467,-4.332 9.18667,-1.46133 18.39733,-2.744 27.648,-3.73466 4.688,-0.50267 9.97067,-0.48267 14.87733,-1.32 -0.112,1.048 -0.21466,2.096 -0.27466,3.15066 -0.32,5.604 0.43333,11.836 -0.288,17.44667 -13.23467,-0.536 -27.36,1.204 -40,2.308 z m -4.116,-32.80666 c -0.624,-4.40667 -1.91067,-8.824 -2.83734,-13.23467 12.28667,-1.45733 24.31734,-3.09067 36.66134,-3.87067 0.32133,-0.10266 0.64133,-0.20266 0.96666,-0.30133 3.424,-1.02133 6.97867,-1.65333 10.31734,-1.084 2.056,0.35333 4.03066,1.14667 5.83866,2.61467 0.72134,0.58266 -3.70933,12.94666 -4.72,16.996 -6.10133,-0.71067 -13.18533,0.824 -18.86266,1.38933 -8.86267,0.88533 -17.72,1.85066 -26.564,2.91333 -0.268,-1.80933 -0.54134,-3.61466 -0.8,-5.42266 z m -9.11467,-5.53734 c -0.252,4.07334 -0.42933,8.14533 -0.57867,12.21867 -8.63599,0.97333 -25.95199,2.21866 -35.59333,7.792 -0.72133,-4.93867 -1.48133,-9.868 -2.396,-14.75733 -0.61866,-3.3 -2.12,-6.516 -4.20666,-9.36267 14.26533,1.79867 30.472,-1.2 44.07066,-2.97333 -0.592,2.32533 -1.144,4.656 -1.296,7.08266 z m -32.60133,45.15733 c -0.13867,-2.02933 -0.528,-4.212 -0.90267,-6.65466 -0.516,-3.38934 -0.99866,-6.788 -1.48133,-10.19334 3.452,-0.44266 6.94,-1.296 10.15333,-1.83066 7.97734,-1.32267 15.956,-2.65467 23.92933,-3.988 -0.11866,5.71333 0.0693,11.42533 0.33734,17.14266 -10.73467,1.116 -21.77067,2.71734 -32.036,5.524 z m 111.91066,26.81867 c -0.31733,0.0267 -55.95866,4.344 -65.14933,5.868 0.0427,-5.388 0.096,-10.77733 0.10267,-16.16667 0.004,-3.80533 -0.10934,-7.61733 -0.272,-11.428 13.23466,-1.25333 29.26266,-1.148 42.39466,-5.77333 2.42934,-0.856 4.75467,-1.89067 6.956,-3.11467 0.78667,-1.14 1.404,-2.336 1.904,-3.57333 1.88534,-4.65733 9.06934,-52.72933 5.61334,-56.184 -0.476,-0.47466 -0.97467,-0.88266 -1.484,-1.25866 -0.0893,-0.27467 -0.24267,-0.52267 -0.46934,-0.70134 -4.73733,-3.752 -10.18266,-3.62933 -15.77333,-2.85333 -0.58267,-0.052 -1.16,-0.11467 -1.732,-0.19867 -0.68133,-0.0987 -1.32267,-0.0813 -1.93733,-0.016 0.96133,-3.02533 1.504,-6.20933 2.32,-9.42933 1.28666,-5.064 2.996,-9.99333 4.54933,-14.976 11.23467,0.0827 22.85733,-1.87733 33.45733,-3.616 0.276,-1.32667 0.54267,-2.64533 0.784,-3.95867 0.66134,-3.62 1.28267,-7.03866 2.02,-10.384 -10.28533,0.86667 -21.356,1.36267 -32.26,2.58134 1.40134,-5.92134 2.86934,-11.82534 4.436,-17.704 0.82,-3.07067 1.64267,-5.43734 1.90134,-7.72667 -3.21067,-0.58667 -6.404,-1.45733 -9.74934,-2.04533 -1.32,-0.232 -2.576,-0.51867 -3.836,-0.80267 -4.88533,8.58133 -5.89866,22.328 -7.512,30.51333 -5.03333,1.012 -9.93333,2.308 -14.576,4.01067 -1.49066,0.54933 -2.12533,2.77467 -0.47333,3.62667 4.16,2.14266 8.62933,3.51866 13.26133,4.37466 -0.34,3.59734 -0.536,7.21067 -0.65466,10.90267 -0.16534,5.23733 -0.816,11.00267 0.16933,16.23733 -0.708,0.0587 -1.416,0.10134 -2.12,0.11467 -16.81067,0.27467 -33.21867,3.696 -49.872,5.872 -8.06933,1.05467 -16.13333,2.44667 -24.236,3.28267 1.04,-9.43467 -1.12133,-19.872 -2.35066,-28.924 4.96266,-0.348 9.81866,-1.356 14.65866,-3.812 1.484,-0.75334 1.424,-3.08534 0,-3.85467 -5.432,-2.93333 -11.06933,-4.37467 -16.87466,-5.21067 -0.476,-2.47733 -0.964,-4.94933 -1.42134,-7.42533 -0.94533,-5.09467 -0.70133,-10.16 -2.056,-14.83467 -4.312,0.52667 -8.768,0.66534 -12.98666,0.22534 -1.388,6.284 0.016,13.86133 1.71333,20.73866 -9.45333,0.60134 -15.328,1.38134 -22.476,1.53734 0.616,2.708 1.22667,5.41466 1.82533,8.12533 0.292,1.30667 0.576,2.712 0.784,4.15067 6.69467,1.49333 9.63067,-0.67867 23.51334,0.284 1.48,5.14666 3.30266,10.216 5.03466,15.26666 1.62,4.71467 2.48934,9.57467 3.93334,14.272 -1.03067,0.0573 -2.05867,0.12 -3.09467,0.14934 -1.06267,0.0293 -6.88933,-1.17334 -10.59467,-0.73734 -1.948,-0.82 -3.97466,-1.35866 -6.028,-1.51066 -1.92,-0.14267 -2.776,2.416 -1.52133,3.66666 3.528,3.51467 9.304,5.41467 10.64667,10.648 0.41333,1.59467 0.65466,3.25334 0.81733,4.94667 1.312,2.608 2.132,5.83866 2.59067,9.416 1.26,9.88533 5.17066,40.988 6.01466,41.60933 1.30267,0.96 23.36,-5.468 40.81067,-3.92 0.0853,2.19467 0.15733,4.38933 0.19066,6.58533 0.1,7.112 0.0667,14.22934 -0.009,21.35067 -12.60266,2.14933 -57.97333,11.25333 -68.15866,12.82 -0.168,-0.96133 0.20533,-0.42533 0.0467,-1.388 -1.13466,-6.87067 -2.04266,-13.72267 -2.20266,-20.54667 -0.0493,-2.12533 -2.72667,-2.22133 -3.46134,-0.46666 -3.332,7.96133 -4.688,15.65466 -5.032,23.39333 -5.23866,1.148 -10.46933,2.30533 -15.65733,3.628 -1.64667,0.42267 -1.62,2.85867 0,3.296 5.104,1.37467 10.368,1.46 15.61467,0.93867 0.24133,7.948 1.21333,16.05066 1.92666,24.65333 0.848,10.2 2.15067,20.28 3.724,30.39333 1.52667,9.80267 1.83734,20.97333 6.38667,29.85067 2.176,4.248 9.492,3.444 10.42133,-1.36267 1.55734,-8.05733 -0.59466,-15.79067 -1.91866,-23.82667 -1.91734,-11.628 -3.90667,-23.27866 -4.61467,-35.05466 -0.53867,-8.88267 -2.168,-17.8 -3.76533,-26.70667 0.38,-0.0827 45.112,-4.54266 66.54266,-8.152 -0.0773,4.892 -0.15733,9.78134 -0.22,14.66934 -0.0587,4.496 -0.34,9.19333 -0.548,13.94666 -2.132,0.55067 -4.27466,1.06534 -6.42666,1.53467 -15.83067,3.436 -33.70934,2.80667 -48.964,8.104 -0.21734,-0.0507 -0.42934,-0.10667 -0.65067,-0.14933 -0.75067,-0.156 -1.38267,0.58533 -0.996,1.292 0.0667,0.12 0.13867,0.20533 0.20267,0.32133 0,0.46267 0.284,0.88933 0.75066,1.17067 9.21067,14.31199 50.23867,1.51733 55.912,0.136 0.224,7.08 1.19067,14.01066 3.90533,20.31199 1.12934,2.62134 5.76134,2.61067 6.89334,0 3.25866,-7.50133 3.98933,-15.81599 4.068,-24.17733 0.236,-0.0693 0.47333,-0.13866 0.712,-0.212 2.03866,-0.248 22.99333,-4.88933 28.13733,-10.06666 2.78133,3.85066 5.928,7.33333 9.87867,9.22666 1.456,0.69867 3.356,0.46267 4.18266,-1.09466 1.24667,-2.34267 1.62667,-4.80267 1.408,-7.272 -2.91866,-3.508 -15.856,-20.42534 -16.084,-21.63867 -5.036,-0.96 -9.61066,4.44933 -6.81066,9.46533 -0.0267,0.0107 -0.052,0.02 -0.0787,0.032 0.492,0.688 1.53733,2.316 1.54667,2.39467 -10.43067,4.50933 -16.69867,5.68267 -23.03734,6.48933 -0.0267,-1.80133 -0.036,-3.59066 -0.012,-5.348 0.0893,-7.14133 0.18134,-14.28266 0.25334,-21.424 20.532,-3.30266 41.14533,-6.19866 61.69466,-9.25733 1.336,1.68267 12.216,9.44533 13.56934,10.14267 -1.85867,4.424 -2.12667,10.004 -2.66534,14.26 -1.464,11.53066 -2.08933,23.152 -3.30266,34.71333 -0.65067,6.19866 -2.212,22.38533 -11.36267,21.10266 -3.428,-0.48266 -10.42533,-2.26133 -12.084,-5.448 -2.39067,-4.60933 -4.69467,-9.27733 -8.324,-13.00266 -1.048,-1.08133 -3.144,-0.31467 -3.056,1.26533 0.57867,10.33867 5.27733,24.852 15.33467,29.212 8.29733,3.59867 16.17866,2.10667 22.05066,-3.01067 2.47334,-6.39466 4.152,-12.99066 5.60134,-19.936 2.86,-13.68799 4.95333,-63.89599 5.11333,-65.11066 -1.27867,-3.44133 -15.89733,-12.43733 -17.32667,-12.328"
         style="fill:#b62323;fill-opacity:1;fill-rule:nonzero;stroke:none;stroke-width:0.133333" />
      <path
         id="path235"
         d="m 657.32398,250.11602 c 26.11067,5.052 54.82,-0.69466 80.86267,-4.63466 16.236,-2.456 32.40266,-5.45867 48.54266,-8.464 11.78,-2.192 25.11334,-3.53067 36.71734,-7.76267 0.196,-5.70533 0.516,-11.34933 1.192,-16.92 -12.108,-0.136 -24.612,4.01734 -36.25867,6.81067 -15.956,3.82533 -32.588,6.18533 -48.748,9.144 -26.97466,4.936 -56.93066,7.27733 -82.308,17.85066 -1.66666,0.69334 -2.24133,3.544 0,3.976"
         style="fill:#11100e;fill-opacity:1;fill-rule:nonzero;stroke:none;stroke-width:0.133333" />
      <path
         id="path236"
         d="m 686.50932,200.49203 c 19.75333,-2.06 39.376,-6.83067 58.81599,-10.384 10.39734,-1.90134 24.72534,-2.28534 36.736,-4.968 l -1.09733,-13.384 c -12.98933,0.56533 -27.99867,4.95866 -38.66,6.936 -19.672,3.64666 -40.98,8.53333 -57.48666,18.07066 -2.136,1.23734 -1.10534,4.024 1.692,3.72934"
         style="fill:#11100e;fill-opacity:1;fill-rule:nonzero;stroke:none;stroke-width:0.133333" />
      <path
         id="path237"
         d="m 683.97998,222.28403 c 6.57334,-0.94 13.93334,0.24133 20.70667,-0.44267 9.6,-0.96933 19.10933,-2.61867 28.62133,-4.22133 16.92,-2.85334 35.476,-4.61867 52.25867,-9.59334 0.0227,-2.87466 0.12533,-5.76133 0.416,-8.7 0.16133,-1.63333 0.33733,-3.64266 0.612,-5.78266 -17.38,2.95466 -34.77334,7.04133 -52.104,10.328 -10.55333,2.00266 -20.944,4.14533 -31.272,7.12 -7.968,2.29733 -12.71467,6.488 -19.75733,10.06133 -0.74,0.37467 -0.17467,1.332 0.51866,1.23067"
         style="fill:#11100e;fill-opacity:1;fill-rule:nonzero;stroke:none;stroke-width:0.133333" />
    </g>
  </g>
</svg>
