<?xml version="1.0" encoding="UTF-8" standalone="no"?>
<!-- Created with Inkscape (http://www.inkscape.org/) -->

<svg
   version="1.1"
   id="svg1"
   width="337"
   height="500"
   viewBox="0 0 337.00001 499.99999"
   xmlns="http://www.w3.org/2000/svg"
   xmlns:svg="http://www.w3.org/2000/svg">
  <defs
     id="defs1" />
  <g
     id="g1"
     transform="translate(-1041)">
    <g
       id="g240"
       transform="matrix(0.9846112,0,0,0.9846112,-277.94581,-121.68353)">
      <path
         id="path2"
         d="m 1674.72,573.85068 c -0.053,28.04667 -22.7334,50.724 -50.7867,50.77867 h -226.8267 c -28.04,-0.0547 -50.72,-22.732 -50.7733,-50.77867 V 181.14269 c 0.053,-28.048 22.7333,-50.736 50.7733,-50.788 h 226.8267 c 28.0533,0.052 50.7333,22.74 50.7867,50.788 z m 6.7733,0 V 181.14269 c 0,-31.79333 -25.7733,-57.55733 -57.56,-57.55733 h -226.8267 c -31.7733,0 -57.5466,25.764 -57.5466,57.55733 v 392.70799 c 0,31.78267 25.7733,57.54934 57.5466,57.54934 h 226.8267 c 31.7867,0 57.56,-25.76667 57.56,-57.54934 v 0"
         style="fill:#211d1d;fill-opacity:1;fill-rule:nonzero;stroke:none;stroke-width:0.133333" />
      <path
         id="path3"
         d="m 1638.1733,511.55202 c 1.9467,3.59066 1.3733,8.33733 -0.9733,12.29333 -2.5334,4.27867 -8.2534,8.06 -12.88,9.92667 -5.1334,2.06533 -7.4267,2.24266 -7.4134,2.30266 -0.027,-0.0347 1.7467,-1.44533 5.88,-4.46666 14.0534,-9.72134 10.0534,-24.96667 -10.2666,-16.47867 -4.6,2.23733 -6.76,2.988 -6.76,2.97067 0.027,0.02 1.36,-1.79067 5.6133,-5.364 17.44,-13.752 25.8133,-3.04134 26.8,-1.184 z m 0,49.88 c -2.1467,3.46533 -6.5467,5.35066 -11.1467,5.296 -4.9733,-0.0547 -11.1066,-3.11467 -15.04,-6.192 -4.36,-3.408 -5.6533,-5.30667 -5.6933,-5.26267 0.013,-0.044 2.12,0.78533 6.8133,2.856 15.44,7.30933 26.64,-3.78667 9.1334,-17.136 -4.24,-2.864 -5.9734,-4.36 -5.96,-4.36533 0,0.028 2.24,0.28266 7.4533,2.17866 20.6267,8.224 15.5467,20.83067 14.44,22.62534 z m -43.2133,24.92533 c -4.0667,-0.12133 -7.9067,-2.988 -10.16,-6.99333 -2.4267,-4.33867 -2.8534,-11.17867 -2.1467,-16.11734 0.7733,-5.47866 1.76,-7.55733 1.7067,-7.57066 0.04,-0.008 0.3733,2.23066 0.9333,7.32133 1.3867,17.032 16.6,21.18267 19.4,-0.652 0.36,-5.10133 0.8,-7.352 0.8133,-7.34 -0.04,0.009 0.8667,2.076 1.84,7.548 3.1867,21.96933 -10.28,23.86667 -12.3866,23.804 z m -16.3867,-26.136 c -17.4267,13.748 -25.8,3.04267 -26.8,1.17867 -1.9333,-3.584 -1.3733,-8.33334 0.9733,-12.28667 2.5467,-4.284 8.2534,-8.06133 12.88,-9.92933 5.1467,-2.06667 7.4267,-2.24534 7.4134,-2.304 0.027,0.0373 -1.7467,1.448 -5.88,4.46666 -14.0534,9.724 -10.04,24.972 10.28,16.48134 4.5866,-2.23734 6.76,-2.98934 6.76,-2.97467 -0.027,-0.0173 -1.36,1.79333 -5.6267,5.368 z m -26.7867,-48.696 c 2.1467,-3.468 6.5467,-5.35333 11.1334,-5.30133 4.9733,0.06 11.1066,3.116 15.04,6.196 4.36,3.408 5.6533,5.308 5.7066,5.25733 -0.027,0.0507 -2.1333,-0.77867 -6.8133,-2.85067 -15.44,-7.30666 -26.64,3.788 -9.1333,17.13734 4.2266,2.86133 5.96,4.356 5.9466,4.36533 0.013,-0.0347 -2.2266,-0.288 -7.4533,-2.18267 -20.6267,-8.21866 -15.5333,-20.828 -14.4267,-22.62133 z m 61.16,24.95067 c 0,1.836 -0.28,3.60533 -0.7866,5.27466 0.4266,0.184 0.8666,0.44667 1.2933,0.85867 1.8667,1.808 3.68,3.62933 5.5333,5.448 1.3867,1.356 2.16,3.508 3.9067,4.36667 0.8533,0.42533 0.093,1.748 -0.76,1.29066 -3.9467,-2.13466 -9.24,-3.284 -13.2267,-5.20533 -0.1466,-0.068 -0.2666,-0.15733 -0.3866,-0.24 -2.8134,3.21467 -6.7334,5.41867 -11.1734,6.00533 0.68,1.788 -3.2666,11.97734 -2.6933,14.11467 -1.8,-3.15333 -3.9333,-12.52133 -3.1333,-14.27333 -3.7334,-0.732 -7.04,-2.61334 -9.56,-5.25867 -0.4934,-0.532 -13.6134,5.89733 -13.6134,5.89733 0,0 7.4,-10.40533 9.5067,-11.676 0.12,-0.0733 0.24,-0.11333 0.3467,-0.168 -0.76,-2.00266 -1.2,-4.16266 -1.2,-6.43466 0,-1.916 0.3066,-3.756 0.8666,-5.48934 -0.9866,3.03867 -9.8933,-9.164 -10.2133,-10.324 0.12,0.41067 12.8667,2.78 14.2267,3.51334 0.6533,-0.67867 8.6933,-5.73467 8.7066,-5.11334 0,-0.036 -0.013,-0.06 -0.013,-0.0987 -0.093,-2.49067 0.1467,-10.14 2.2933,-13.08534 1.2667,-1.74266 4.4667,10.404 4.4267,12.79467 4.5733,0.592 8.6,2.88133 11.4133,6.232 1.2667,-0.95467 2.3867,-1.12267 3.9467,-1.564 0.64,-0.18 10.92,-3.48667 10.4533,-2.84133 -0.88,1.2 -1.9733,2.212 -3.1066,3.216 -3.3467,2.95333 -8.1067,6.684 -8.2267,6.41733 0.7467,1.97333 1.1733,4.10267 1.1733,6.34267 z m -17.96,-49.87733 c 4.08,0.12266 7.9067,2.988 10.16,6.99333 2.44,4.33733 2.8534,11.176 2.16,16.12 -0.7733,5.48 -1.7733,7.55733 -1.7066,7.568 -0.053,0.009 -0.3867,-2.23067 -0.9334,-7.32534 -1.4,-17.02933 -16.6,-21.17599 -19.4133,0.65867 -0.36,5.09867 -0.7867,7.34533 -0.8,7.33733 0.027,-0.0133 -0.88,-2.07733 -1.84,-7.54533 -3.1867,-21.97466 10.2667,-23.86933 12.3733,-23.80666 z m -0.013,-3.11867 c -29.2667,0.048 -52.9467,23.72533 -53,52.99466 0.053,29.27067 23.7333,52.95067 53,53.00267 29.2667,-0.052 52.9467,-23.732 53,-53.00267 -0.053,-29.26933 -23.7333,-52.94666 -53,-52.99466"
         style="fill:#276952;fill-opacity:1;fill-rule:nonzero;stroke:none;stroke-width:0.133333" />
      <path
         id="path4"
         d="m 1594.9733,597.77468 c -33.8533,0 -61.2933,-27.44533 -61.3067,-61.3 0,-33.84933 27.4534,-61.29333 61.3067,-61.29333 33.8533,0 61.2933,27.444 61.3067,61.29333 -0.013,33.85467 -27.4534,61.3 -61.3067,61.3 z m 0,-133.18933 c -39.6933,0 -71.8933,32.18667 -71.8933,71.89467 0,39.70266 32.2,71.89333 71.8933,71.89333 39.7067,0 71.8933,-32.19067 71.8933,-71.89333 0,-39.708 -32.1866,-71.89467 -71.8933,-71.89467"
         style="fill:#276952;fill-opacity:1;fill-rule:nonzero;stroke:none;stroke-width:0.133333" />
      <path
         id="path5"
         d="m 1594.9733,524.03335 c -6.8667,0.0173 -12.4267,5.57467 -12.44,12.44267 0.013,6.868 5.5733,12.43466 12.44,12.44266 6.8667,-0.008 12.44,-5.57466 12.44,-12.44266 0,-6.868 -5.5733,-12.42534 -12.44,-12.44267"
         style="fill:#276952;fill-opacity:1;fill-rule:nonzero;stroke:none;stroke-width:0.133333" />
      <path
         id="path6"
         d="m 1584.4533,517.95068 c 0.013,0.008 0.44,-2.23866 0.8,-7.33733 2.8133,-21.83466 18.0133,-17.688 19.4133,-0.65867 0.5467,5.09467 0.88,7.33467 0.9334,7.32534 -0.067,-0.0107 0.9333,-2.088 1.7066,-7.568 0.6934,-4.944 0.28,-11.78267 -2.16,-16.12 -2.2533,-4.00533 -6.08,-6.87067 -10.16,-6.99333 -2.1066,-0.0627 -15.56,1.832 -12.3733,23.80666 0.96,5.468 1.8667,7.532 1.84,7.54533"
         style="fill:#ffffff;fill-opacity:1;fill-rule:nonzero;stroke:none;stroke-width:0.133333" />
      <path
         id="path7"
         d="m 1566.2133,534.14668 c 5.2267,1.89467 7.4667,2.148 7.4533,2.18267 0.013,-0.009 -1.72,-1.504 -5.9466,-4.36533 -17.5067,-13.34934 -6.3067,-24.444 9.1333,-17.13734 4.68,2.072 6.7867,2.90134 6.8133,2.85067 -0.053,0.0507 -1.3466,-1.84933 -5.7066,-5.25733 -3.9334,-3.08 -10.0667,-6.136 -15.04,-6.196 -4.5867,-0.052 -8.9867,1.83333 -11.1334,5.30133 -1.1066,1.79333 -6.2,14.40267 14.4267,22.62133"
         style="fill:#ffffff;fill-opacity:1;fill-rule:nonzero;stroke:none;stroke-width:0.133333" />
      <path
         id="path8"
         d="m 1577.44,557.82802 c -20.32,8.49066 -24.3334,-6.75734 -10.28,-16.48134 4.1333,-3.01866 5.9066,-4.42933 5.88,-4.46666 0.013,0.0587 -2.2667,0.23733 -7.4134,2.304 -4.6266,1.868 -10.3333,5.64533 -12.88,9.92933 -2.3466,3.95333 -2.9066,8.70267 -0.9733,12.28667 1,1.864 9.3733,12.56933 26.8,-1.17867 4.2667,-3.57467 5.6,-5.38533 5.6267,-5.368 0,-0.0147 -2.1734,0.73733 -6.76,2.97467"
         style="fill:#ffffff;fill-opacity:1;fill-rule:nonzero;stroke:none;stroke-width:0.133333" />
      <path
         id="path9"
         d="m 1605.5066,555.00535 c -0.013,-0.012 -0.4533,2.23867 -0.8133,7.34 -2.8,21.83467 -18.0133,17.684 -19.4,0.652 -0.56,-5.09067 -0.8933,-7.32933 -0.9333,-7.32133 0.053,0.0133 -0.9334,2.092 -1.7067,7.57066 -0.7067,4.93867 -0.28,11.77867 2.1467,16.11734 2.2533,4.00533 6.0933,6.872 10.16,6.99333 2.1066,0.0627 15.5733,-1.83467 12.3866,-23.804 -0.9733,-5.472 -1.88,-7.53867 -1.84,-7.548"
         style="fill:#ffffff;fill-opacity:1;fill-rule:nonzero;stroke:none;stroke-width:0.133333" />
      <path
         id="path10"
         d="m 1623.7333,538.80668 c -5.2133,-1.896 -7.4533,-2.15066 -7.4533,-2.17866 -0.013,0.005 1.72,1.50133 5.96,4.36533 17.5066,13.34933 6.3066,24.44533 -9.1334,17.136 -4.6933,-2.07067 -6.8,-2.9 -6.8133,-2.856 0.04,-0.044 1.3333,1.85467 5.6933,5.26267 3.9334,3.07733 10.0667,6.13733 15.04,6.192 4.6,0.0547 9,-1.83067 11.1467,-5.296 1.1067,-1.79467 6.1867,-14.40134 -14.44,-22.62534"
         style="fill:#ffffff;fill-opacity:1;fill-rule:nonzero;stroke:none;stroke-width:0.133333" />
      <path
         id="path11"
         d="m 1611.3733,512.73602 c -4.2533,3.57333 -5.5867,5.384 -5.6133,5.364 0,0.0173 2.16,-0.73334 6.76,-2.97067 20.32,-8.488 24.32,6.75733 10.2666,16.47867 -4.1333,3.02133 -5.9066,4.432 -5.88,4.46666 -0.013,-0.06 2.28,-0.23733 7.4134,-2.30266 4.6266,-1.86667 10.3466,-5.648 12.88,-9.92667 2.3466,-3.956 2.92,-8.70267 0.9733,-12.29333 -0.9867,-1.85734 -9.36,-12.568 -26.8,1.184"
         style="fill:#ffffff;fill-opacity:1;fill-rule:nonzero;stroke:none;stroke-width:0.133333" />
      <path
         id="path12"
         d="m 1594.9733,548.91868 c -6.8667,-0.008 -12.4267,-5.57466 -12.44,-12.44266 0.013,-6.868 5.5733,-12.42534 12.44,-12.44267 6.8667,0.0173 12.44,5.57467 12.44,12.44267 0,6.868 -5.5733,12.43466 -12.44,12.44266 z m 28.1333,-28.41866 c 0.4667,-0.64534 -9.8133,2.66133 -10.4533,2.84133 -1.56,0.44133 -2.68,0.60933 -3.9467,1.564 -2.8133,-3.35067 -6.84,-5.64 -11.4133,-6.232 0.04,-2.39067 -3.16,-14.53733 -4.4267,-12.79467 -2.1466,2.94534 -2.3866,10.59467 -2.2933,13.08534 0,0.0387 0.013,0.0627 0.013,0.0987 -0.013,-0.62133 -8.0533,4.43467 -8.7066,5.11334 -1.36,-0.73334 -14.1067,-3.10267 -14.2267,-3.51334 0.32,1.16 9.2267,13.36267 10.2133,10.324 -0.56,1.73334 -0.8666,3.57334 -0.8666,5.48934 0,2.272 0.44,4.432 1.2,6.43466 -0.1067,0.0547 -0.2267,0.0947 -0.3467,0.168 -2.1067,1.27067 -9.5067,11.676 -9.5067,11.676 0,0 13.12,-6.42933 13.6134,-5.89733 2.52,2.64533 5.8266,4.52667 9.56,5.25867 -0.8,1.752 1.3333,11.12 3.1333,14.27333 -0.5733,-2.13733 3.3733,-12.32667 2.6933,-14.11467 4.44,-0.58666 8.36,-2.79066 11.1734,-6.00533 0.12,0.0827 0.24,0.172 0.3866,0.24 3.9867,1.92133 9.28,3.07067 13.2267,5.20533 0.8533,0.45734 1.6133,-0.86533 0.76,-1.29066 -1.7467,-0.85867 -2.52,-3.01067 -3.9067,-4.36667 -1.8533,-1.81867 -3.6666,-3.64 -5.5333,-5.448 -0.4267,-0.412 -0.8667,-0.67467 -1.2933,-0.85867 0.5066,-1.66933 0.7866,-3.43866 0.7866,-5.27466 0,-2.24 -0.4266,-4.36934 -1.1733,-6.34267 0.12,0.26667 4.88,-3.464 8.2267,-6.41733 1.1333,-1.004 2.2266,-2.016 3.1066,-3.216"
         style="fill:#ffffff;fill-opacity:1;fill-rule:nonzero;stroke:none;stroke-width:0.133333" />
      <path
         id="path13"
         d="m 1594.9733,589.47735 c -29.2667,-0.052 -52.9467,-23.732 -53,-53.00267 0.053,-29.26933 23.7333,-52.94666 53,-52.99466 29.2667,0.048 52.9467,23.72533 53,52.99466 -0.053,29.27067 -23.7333,52.95067 -53,53.00267 z m 0,-114.296 c -33.8533,0 -61.3067,27.444 -61.3067,61.29333 0.013,33.85467 27.4534,61.3 61.3067,61.3 33.8533,0 61.2933,-27.44533 61.3067,-61.3 -0.013,-33.84933 -27.4534,-61.29333 -61.3067,-61.29333"
         style="fill:#ffffff;fill-opacity:1;fill-rule:nonzero;stroke:none;stroke-width:0.133333" />
      <path
         id="path14"
         d="m 1542.4,408.74269 c -4.9734,-0.0547 -11.1067,-3.116 -15.04,-6.192 -4.36,-3.408 -5.6534,-5.30667 -5.6934,-5.264 0.013,-0.0427 2.12,0.78533 6.8,2.856 15.4534,7.31066 26.64,-3.78667 9.1334,-17.136 -4.24,-2.864 -5.96,-4.36 -5.9467,-4.364 -0.013,0.028 2.2267,0.28133 7.4533,2.17866 20.6134,8.224 15.5334,20.82934 14.4267,22.62534 -2.1467,3.464 -6.5333,5.35066 -11.1333,5.296 z m -32.0667,19.628 c -4.08,-0.12 -7.9067,-2.98667 -10.16,-6.992 -2.44,-4.33867 -2.8533,-11.18 -2.16,-16.11867 0.7733,-5.47867 1.7733,-7.55733 1.7067,-7.56933 0.053,-0.009 0.3866,2.22933 0.9333,7.32133 1.4,17.03067 16.6,21.18267 19.4133,-0.65333 0.36,-5.10134 0.7867,-7.35067 0.8,-7.33867 -0.027,0.009 0.8667,2.07467 1.84,7.54667 3.1867,21.96933 -10.2666,23.86666 -12.3733,23.804 z m -16.3867,-26.136 c -17.44,13.748 -25.8133,3.044 -26.8133,1.18 -1.9333,-3.58534 -1.36,-8.33467 0.9867,-12.28934 2.5333,-4.28266 8.2533,-8.06 12.88,-9.928 5.1333,-2.06533 7.4266,-2.244 7.4,-2.304 0.04,0.0387 -1.7334,1.448 -5.8667,4.46667 -14.0533,9.72533 -10.04,24.97333 10.2667,16.48267 4.6,-2.23867 6.76,-2.99067 6.76,-2.976 -0.027,-0.016 -1.36,1.79466 -5.6134,5.368 z m -26.7866,-48.696 c 2.1333,-3.468 6.5333,-5.352 11.1333,-5.3 4.9733,0.0587 11.1067,3.116 15.04,6.19467 4.3467,3.408 5.6533,5.308 5.6933,5.25866 -0.013,0.0493 -2.12,-0.77866 -6.8,-2.852 -15.4533,-7.30666 -26.6533,3.78934 -9.1466,17.13733 4.24,2.86134 5.9733,4.356 5.96,4.36534 0,-0.0333 -2.24,-0.28667 -7.4534,-2.18134 -20.6266,-8.21866 -15.5466,-20.82799 -14.4266,-22.62266 z m 43.2,-24.92533 c 4.0666,0.12133 7.9066,2.98666 10.16,6.992 2.44,4.33866 2.8533,11.176 2.1466,16.12 -0.7733,5.48 -1.76,7.55866 -1.7066,7.568 -0.04,0.0107 -0.3734,-2.23067 -0.92,-7.324 -1.4,-17.02934 -16.6134,-21.17734 -19.4134,0.65733 -0.36,5.1 -0.8,7.34667 -0.8,7.33733 0.027,-0.0133 -0.88,-2.07733 -1.84,-7.54533 -3.2,-21.97333 10.2667,-23.868 12.3734,-23.80533 z m 17.96,49.87733 c 0,1.836 -0.28,3.604 -0.8,5.27466 0.44,0.18267 0.88,0.44534 1.3066,0.85734 1.8534,1.80933 3.68,3.63066 5.52,5.44933 1.3867,1.35467 2.1734,3.508 3.9067,4.36667 0.8533,0.42533 0.093,1.748 -0.7467,1.28933 -3.9466,-2.13467 -9.24,-3.28267 -13.24,-5.20533 -0.1466,-0.068 -0.2533,-0.15734 -0.3866,-0.24 -2.8,3.216 -6.72,5.41866 -11.16,6.00533 0.6666,1.78933 -3.2667,11.97867 -2.6934,14.116 -1.8133,-3.15467 -3.9333,-12.52133 -3.1333,-14.27467 -3.7333,-0.732 -7.04,-2.61333 -9.56,-5.25733 -0.5067,-0.53333 -13.6133,5.89733 -13.6133,5.89733 0,0 7.4,-10.40533 9.4933,-11.67733 0.12,-0.072 0.24,-0.11333 0.36,-0.168 -0.7733,-2.00267 -1.2133,-4.16267 -1.2133,-6.43333 0,-1.916 0.3066,-3.75867 0.8666,-5.48934 -0.9733,3.03734 -9.8933,-9.16533 -10.2,-10.32399 0.1067,0.40933 12.8534,2.77866 14.2134,3.512 0.6533,-0.67867 8.7066,-5.73334 8.72,-5.112 0,-0.036 -0.013,-0.06 -0.013,-0.0987 -0.1066,-2.492 0.1334,-10.14 2.28,-13.08667 1.28,-1.74266 4.4667,10.404 4.44,12.79467 4.5734,0.59333 8.6,2.88133 11.4134,6.23333 1.2666,-0.95466 2.3733,-1.12266 3.9466,-1.564 0.64,-0.18133 10.9067,-3.48666 10.44,-2.84266 -0.8666,1.2 -1.9733,2.212 -3.1066,3.21733 -3.3467,2.952 -8.0934,6.68266 -8.2134,6.41733 0.7467,1.97333 1.1734,4.10267 1.1734,6.34267 z m -1.5734,-23.74133 c 17.4267,-13.752 25.8,-3.04134 26.8,-1.184 1.9334,3.59066 1.36,8.33866 -0.9866,12.29466 -2.5334,4.27734 -8.24,8.06 -12.8667,9.92533 -5.1333,2.06667 -7.4267,2.244 -7.4133,2.30267 -0.027,-0.0347 1.7333,-1.444 5.88,-4.46667 14.0533,-9.72133 10.04,-24.96666 -10.28,-16.47866 -4.5867,2.23867 -6.76,2.98933 -6.76,2.97067 0.04,0.0213 1.3733,-1.78934 5.6266,-5.364 z m -16.4,-29.25467 c -29.2666,0.0467 -52.96,23.72533 -53.0133,52.99466 0.053,29.26934 23.7467,52.95067 53.0133,53.00267 29.2667,-0.052 52.9467,-23.73333 53,-53.00267 -0.053,-29.26933 -23.7333,-52.94799 -53,-52.99466"
         style="fill:#b62323;fill-opacity:1;fill-rule:nonzero;stroke:none;stroke-width:0.133333" />
      <path
         id="path15"
         d="m 1510.3466,439.78802 c -33.8666,0 -61.2933,-27.444 -61.3066,-61.29867 0,-33.85066 27.44,-61.29333 61.3066,-61.29333 33.8534,0 61.2934,27.44267 61.2934,61.29333 0,33.85467 -27.44,61.29867 -61.2934,61.29867 z m 71.8934,-61.29333 c 0,-39.70933 -32.1867,-71.89467 -71.8934,-71.89467 -39.7066,0 -71.8933,32.18534 -71.8933,71.89467 0,39.70133 32.1867,71.89333 71.8933,71.89333 39.7067,0 71.8934,-32.192 71.8934,-71.89333"
         style="fill:#b62323;fill-opacity:1;fill-rule:nonzero;stroke:none;stroke-width:0.133333" />
      <path
         id="path16"
         d="m 1510.3466,366.04802 c -6.8666,0.016 -12.44,5.57333 -12.4533,12.44267 0.013,6.868 5.5867,12.43333 12.4533,12.44133 6.8667,-0.008 12.4267,-5.57333 12.44,-12.44133 -0.013,-6.86934 -5.5733,-12.42667 -12.44,-12.44267"
         style="fill:#b62323;fill-opacity:1;fill-rule:nonzero;stroke:none;stroke-width:0.133333" />
      <path
         id="path17"
         d="m 1499.8266,359.96402 c 0,0.009 0.44,-2.23733 0.8,-7.33733 2.8,-21.83467 18.0134,-17.68667 19.4134,-0.65733 0.5466,5.09333 0.88,7.33466 0.92,7.324 -0.053,-0.009 0.9333,-2.088 1.7066,-7.568 0.7067,-4.944 0.2934,-11.78134 -2.1466,-16.12 -2.2534,-4.00534 -6.0934,-6.87067 -10.16,-6.992 -2.1067,-0.0627 -15.5734,1.832 -12.3734,23.80533 0.96,5.468 1.8667,7.532 1.84,7.54533"
         style="fill:#ffffff;fill-opacity:1;fill-rule:nonzero;stroke:none;stroke-width:0.133333" />
      <path
         id="path18"
         d="m 1481.5866,376.16135 c 5.2134,1.89467 7.4534,2.148 7.4534,2.18134 0.013,-0.009 -1.72,-1.504 -5.96,-4.36534 -17.5067,-13.34799 -6.3067,-24.44399 9.1466,-17.13733 4.68,2.07334 6.7867,2.90134 6.8,2.852 -0.04,0.0493 -1.3466,-1.85066 -5.6933,-5.25866 -3.9333,-3.07867 -10.0667,-6.136 -15.04,-6.19467 -4.6,-0.052 -9,1.832 -11.1333,5.3 -1.12,1.79467 -6.2,14.404 14.4266,22.62266"
         style="fill:#ffffff;fill-opacity:1;fill-rule:nonzero;stroke:none;stroke-width:0.133333" />
      <path
         id="path19"
         d="m 1492.8,399.84269 c -20.3067,8.49066 -24.32,-6.75734 -10.2667,-16.48267 4.1333,-3.01867 5.9067,-4.428 5.8667,-4.46667 0.027,0.06 -2.2667,0.23867 -7.4,2.304 -4.6267,1.868 -10.3467,5.64534 -12.88,9.928 -2.3467,3.95467 -2.92,8.704 -0.9867,12.28934 1,1.864 9.3733,12.568 26.8133,-1.18 4.2534,-3.57334 5.5867,-5.384 5.6134,-5.368 0,-0.0147 -2.16,0.73733 -6.76,2.976"
         style="fill:#ffffff;fill-opacity:1;fill-rule:nonzero;stroke:none;stroke-width:0.133333" />
      <path
         id="path20"
         d="m 1520.8666,397.02002 c -0.013,-0.012 -0.44,2.23733 -0.8,7.33867 -2.8133,21.836 -18.0133,17.684 -19.4133,0.65333 -0.5467,-5.092 -0.88,-7.33067 -0.9333,-7.32133 0.067,0.012 -0.9334,2.09066 -1.7067,7.56933 -0.6933,4.93867 -0.28,11.78 2.16,16.11867 2.2533,4.00533 6.08,6.872 10.16,6.992 2.1067,0.0627 15.56,-1.83467 12.3733,-23.804 -0.9733,-5.472 -1.8666,-7.53734 -1.84,-7.54667"
         style="fill:#ffffff;fill-opacity:1;fill-rule:nonzero;stroke:none;stroke-width:0.133333" />
      <path
         id="path21"
         d="m 1539.1066,380.82135 c -5.2266,-1.89733 -7.4666,-2.15066 -7.4533,-2.17866 -0.013,0.004 1.7067,1.5 5.9467,4.364 17.5066,13.34933 6.32,24.44666 -9.1334,17.136 -4.68,-2.07067 -6.7866,-2.89867 -6.8,-2.856 0.04,-0.0427 1.3334,1.856 5.6934,5.264 3.9333,3.076 10.0666,6.13733 15.04,6.192 4.6,0.0547 8.9866,-1.832 11.1333,-5.296 1.1067,-1.796 6.1867,-14.40134 -14.4267,-22.62534"
         style="fill:#ffffff;fill-opacity:1;fill-rule:nonzero;stroke:none;stroke-width:0.133333" />
      <path
         id="path22"
         d="m 1527.88,357.14269 c 20.32,-8.488 24.3333,6.75733 10.28,16.47866 -4.1467,3.02267 -5.9067,4.432 -5.88,4.46667 -0.013,-0.0587 2.28,-0.236 7.4133,-2.30267 4.6267,-1.86533 10.3333,-5.64799 12.8667,-9.92533 2.3466,-3.956 2.92,-8.704 0.9866,-12.29466 -1,-1.85734 -9.3733,-12.568 -26.8,1.184 -4.2533,3.57466 -5.5866,5.38533 -5.6266,5.364 0,0.0187 2.1733,-0.732 6.76,-2.97067"
         style="fill:#ffffff;fill-opacity:1;fill-rule:nonzero;stroke:none;stroke-width:0.133333" />
      <path
         id="path23"
         d="m 1510.3466,390.93202 c -6.8666,-0.008 -12.44,-5.57333 -12.4533,-12.44133 0.013,-6.86934 5.5867,-12.42667 12.4533,-12.44267 6.8667,0.016 12.4267,5.57333 12.44,12.44267 -0.013,6.868 -5.5733,12.43333 -12.44,12.44133 z m 28.12,-28.41866 c 0.4667,-0.644 -9.8,2.66133 -10.44,2.84266 -1.5733,0.44134 -2.68,0.60934 -3.9466,1.564 -2.8134,-3.352 -6.84,-5.64 -11.4134,-6.23333 0.027,-2.39067 -3.16,-14.53733 -4.44,-12.79467 -2.1466,2.94667 -2.3866,10.59467 -2.28,13.08667 0,0.0387 0.013,0.0627 0.013,0.0987 -0.013,-0.62134 -8.0667,4.43333 -8.72,5.112 -1.36,-0.73334 -14.1067,-3.10267 -14.2134,-3.512 0.3067,1.15866 9.2267,13.36133 10.2,10.32399 -0.56,1.73067 -0.8666,3.57334 -0.8666,5.48934 0,2.27066 0.44,4.43066 1.2133,6.43333 -0.12,0.0547 -0.24,0.096 -0.36,0.168 -2.0933,1.272 -9.4933,11.67733 -9.4933,11.67733 0,0 13.1066,-6.43066 13.6133,-5.89733 2.52,2.644 5.8267,4.52533 9.56,5.25733 -0.8,1.75334 1.32,11.12 3.1333,14.27467 -0.5733,-2.13733 3.36,-12.32667 2.6934,-14.116 4.44,-0.58667 8.36,-2.78933 11.16,-6.00533 0.1333,0.0827 0.24,0.172 0.3866,0.24 4,1.92266 9.2934,3.07066 13.24,5.20533 0.84,0.45867 1.6,-0.864 0.7467,-1.28933 -1.7333,-0.85867 -2.52,-3.012 -3.9067,-4.36667 -1.84,-1.81867 -3.6666,-3.64 -5.52,-5.44933 -0.4266,-0.412 -0.8666,-0.67467 -1.3066,-0.85734 0.52,-1.67066 0.8,-3.43866 0.8,-5.27466 0,-2.24 -0.4267,-4.36934 -1.1734,-6.34267 0.12,0.26533 4.8667,-3.46533 8.2134,-6.41733 1.1333,-1.00533 2.24,-2.01733 3.1066,-3.21733"
         style="fill:#ffffff;fill-opacity:1;fill-rule:nonzero;stroke:none;stroke-width:0.133333" />
      <path
         id="path24"
         d="m 1510.3466,431.49202 c -29.2666,-0.052 -52.96,-23.73333 -53.0133,-53.00267 0.053,-29.26933 23.7467,-52.94799 53.0133,-52.99466 29.2667,0.0467 52.9467,23.72533 53,52.99466 -0.053,29.26934 -23.7333,52.95067 -53,53.00267 z m 0,-114.296 c -33.8666,0 -61.3066,27.44267 -61.3066,61.29333 0.013,33.85467 27.44,61.29867 61.3066,61.29867 33.8534,0 61.2934,-27.444 61.2934,-61.29867 0,-33.85066 -27.44,-61.29333 -61.2934,-61.29333"
         style="fill:#ffffff;fill-opacity:1;fill-rule:nonzero;stroke:none;stroke-width:0.133333" />
      <path
         id="path25"
         d="m 1462.2666,245.11469 c -4.9733,-0.0547 -11.1066,-3.11467 -15.0266,-6.192 -4.36,-3.40933 -5.6667,-5.30666 -5.7067,-5.26266 0.013,-0.044 2.12,0.78533 6.8133,2.856 15.44,7.30933 26.64,-3.788 9.1334,-17.13734 -4.24,-2.864 -5.9734,-4.35866 -5.96,-4.364 0,0.028 2.24,0.28267 7.4666,2.17867 20.6134,8.224 15.5334,20.82933 14.4267,22.62533 -2.1467,3.464 -6.5467,5.35067 -11.1467,5.296 z m -32.0666,19.628 c -4.0667,-0.12 -7.9067,-2.98667 -10.16,-6.992 -2.4267,-4.34 -2.8534,-11.18 -2.1467,-16.11867 0.7733,-5.47866 1.76,-7.55599 1.7067,-7.56933 0.04,-0.008 0.3733,2.22934 0.9333,7.32133 1.3867,17.03067 16.6,21.18134 19.4133,-0.65333 0.3467,-5.10133 0.7867,-7.35066 0.8,-7.33866 -0.04,0.009 0.8667,2.076 1.84,7.54799 3.1867,21.968 -10.28,23.86667 -12.3866,23.80267 z m -16.3734,-26.136 c -17.44,13.748 -25.8133,3.044 -26.8133,1.18 -1.9333,-3.58533 -1.36,-8.33466 0.9733,-12.288 2.5467,-4.28266 8.2534,-8.06 12.88,-9.92933 5.1467,-2.06533 7.44,-2.244 7.4134,-2.304 0.027,0.0387 -1.7467,1.44933 -5.88,4.46667 -14.0534,9.72533 -10.04,24.97333 10.28,16.48266 4.6,-2.23866 6.76,-2.98933 6.76,-2.97466 -0.027,-0.0173 -1.36,1.792 -5.6134,5.36666 z m -26.8,-48.69466 c 2.1467,-3.468 6.5467,-5.35334 11.1334,-5.30134 4.9733,0.0587 11.12,3.116 15.04,6.19467 4.36,3.40933 5.6533,5.30933 5.7066,5.25867 -0.027,0.0507 -2.1333,-0.77867 -6.8133,-2.85067 -15.44,-7.308 -26.64,3.788 -9.1333,17.136 4.2266,2.86267 5.96,4.356 5.9466,4.36667 0.013,-0.036 -2.2266,-0.288 -7.4533,-2.18267 -20.6267,-8.21867 -15.5333,-20.828 -14.4267,-22.62133 z m 43.2,-24.92667 c 4.08,0.12267 7.9067,2.98667 10.16,6.992 2.44,4.33733 2.8534,11.17733 2.16,16.12133 -0.7733,5.47867 -1.7733,7.55734 -1.7066,7.56667 -0.053,0.0107 -0.3867,-2.22933 -0.9334,-7.324 -1.4,-17.02933 -16.6,-21.17733 -19.4133,0.65867 -0.36,5.09866 -0.7867,7.34533 -0.8,7.336 0.04,-0.012 -0.8667,-2.07734 -1.84,-7.54534 -3.1867,-21.97466 10.2667,-23.868 12.3733,-23.80533 z m 17.96,49.87733 c 0,1.836 -0.28,3.60534 -0.7866,5.27467 0.44,0.184 0.8666,0.44667 1.2933,0.85867 1.8667,1.808 3.68,3.62933 5.5333,5.448 1.3867,1.35466 2.16,3.50666 3.9067,4.36666 0.8533,0.42534 0.093,1.748 -0.76,1.28934 -3.9467,-2.13334 -9.24,-3.28267 -13.2267,-5.20534 -0.1466,-0.068 -0.2666,-0.15733 -0.3866,-0.24 -2.8134,3.216 -6.7334,5.42 -11.1734,6.00667 0.68,1.788 -3.2666,11.97733 -2.6933,14.11466 -1.8,-3.15466 -3.9333,-12.52266 -3.1333,-14.27333 -3.72,-0.73333 -7.0267,-2.61333 -9.5467,-5.25866 -0.5067,-0.532 -13.6267,5.89866 -13.6267,5.89866 0,0 7.4134,-10.40666 9.5067,-11.67866 0.12,-0.072 0.24,-0.11334 0.3467,-0.168 -0.76,-2.00134 -1.2,-4.16267 -1.2,-6.43334 0,-1.916 0.3066,-3.75733 0.8666,-5.48933 -0.9866,3.03733 -9.8933,-9.16533 -10.2133,-10.324 0.12,0.41067 12.8667,2.77867 14.2267,3.512 0.6533,-0.67867 8.6933,-5.73333 8.7066,-5.112 0,-0.036 -0.013,-0.0587 -0.013,-0.1 -0.093,-2.49067 0.1467,-10.13867 2.2933,-13.084 1.2667,-1.74267 4.4667,10.404 4.44,12.79333 4.56,0.592 8.5867,2.88134 11.4134,6.232 1.2533,-0.95333 2.3733,-1.12133 3.9333,-1.56266 0.64,-0.18134 10.92,-3.48667 10.4533,-2.84134 -0.8666,1.2 -1.9733,2.21067 -3.1066,3.216 -3.3467,2.95334 -8.1067,6.68267 -8.2267,6.41734 0.7467,1.97333 1.1733,4.10266 1.1733,6.34266 z m -1.5733,-23.74133 c 17.44,-13.752 25.8133,-3.04133 26.8133,-1.18267 1.9334,3.59067 1.36,8.33734 -0.9866,12.29334 -2.5334,4.27733 -8.24,8.06 -12.88,9.92666 -5.1334,2.06667 -7.4267,2.24267 -7.4,2.30267 -0.04,-0.036 1.7333,-1.44533 5.8666,-4.46667 14.0534,-9.72133 10.0534,-24.968 -10.2666,-16.48 -4.6,2.23867 -6.76,2.98934 -6.76,2.97067 0.027,0.0213 1.36,-1.78933 5.6133,-5.364 z m -16.4,-29.25467 c -29.2667,0.048 -52.9467,23.72534 -53,52.99467 0.053,29.27066 23.7333,52.95066 53,53.00266 29.2667,-0.052 52.9467,-23.732 53,-53.00266 -0.053,-29.26933 -23.7333,-52.94667 -53,-52.99467"
         style="fill:#276952;fill-opacity:1;fill-rule:nonzero;stroke:none;stroke-width:0.133333" />
      <path
         id="path26"
         d="m 1430.2133,276.16136 c -33.8533,0 -61.28,-27.444 -61.2933,-61.3 0,-33.85067 27.44,-61.29333 61.2933,-61.29333 33.8533,0 61.2933,27.44266 61.3067,61.29333 -0.013,33.856 -27.4534,61.3 -61.3067,61.3 z m 71.8933,-61.296 c 0,-39.70667 -32.1733,-71.89333 -71.8933,-71.89333 -39.6933,0 -71.88,32.18666 -71.88,71.89333 0,39.70266 32.1867,71.89466 71.88,71.89466 39.72,0 71.8933,-32.192 71.8933,-71.89466"
         style="fill:#276952;fill-opacity:1;fill-rule:nonzero;stroke:none;stroke-width:0.133333" />
      <path
         id="path27"
         d="m 1430.2133,202.42003 c -6.8667,0.0173 -12.4267,5.57466 -12.44,12.44266 0.013,6.868 5.5733,12.43467 12.44,12.44267 6.8667,-0.008 12.44,-5.57467 12.44,-12.44267 0,-6.868 -5.5733,-12.42533 -12.44,-12.44266"
         style="fill:#276952;fill-opacity:1;fill-rule:nonzero;stroke:none;stroke-width:0.133333" />
      <path
         id="path28"
         d="m 1419.6933,196.33603 c 0.013,0.009 0.44,-2.23734 0.8,-7.336 2.8133,-21.836 18.0133,-17.688 19.4133,-0.65867 0.5467,5.09467 0.88,7.33467 0.9334,7.324 -0.067,-0.009 0.9333,-2.088 1.7066,-7.56667 0.6934,-4.944 0.28,-11.784 -2.16,-16.12133 -2.2533,-4.00533 -6.08,-6.86933 -10.16,-6.992 -2.1066,-0.0627 -15.56,1.83067 -12.3733,23.80533 0.9733,5.468 1.88,7.53334 1.84,7.54534"
         style="fill:#ffffff;fill-opacity:1;fill-rule:nonzero;stroke:none;stroke-width:0.133333" />
      <path
         id="path29"
         d="m 1401.4533,212.53336 c 5.2267,1.89467 7.4667,2.14667 7.4533,2.18267 0.013,-0.0107 -1.72,-1.504 -5.9466,-4.36667 -17.5067,-13.348 -6.3067,-24.444 9.1333,-17.136 4.68,2.072 6.7867,2.90133 6.8133,2.85067 -0.053,0.0507 -1.3466,-1.84934 -5.7066,-5.25867 -3.92,-3.07867 -10.0667,-6.136 -15.04,-6.19467 -4.5867,-0.052 -8.9867,1.83334 -11.1334,5.30134 -1.1066,1.79333 -6.2,14.40266 14.4267,22.62133"
         style="fill:#ffffff;fill-opacity:1;fill-rule:nonzero;stroke:none;stroke-width:0.133333" />
      <path
         id="path30"
         d="m 1412.68,236.21469 c -20.32,8.49067 -24.3334,-6.75733 -10.28,-16.48266 4.1333,-3.01734 5.9066,-4.428 5.88,-4.46667 0.027,0.06 -2.2667,0.23867 -7.4134,2.304 -4.6266,1.86933 -10.3333,5.64667 -12.88,9.92933 -2.3333,3.95334 -2.9066,8.70267 -0.9733,12.288 1,1.864 9.3733,12.568 26.8133,-1.18 4.2534,-3.57466 5.5867,-5.384 5.6134,-5.36666 0,-0.0147 -2.16,0.736 -6.76,2.97466"
         style="fill:#ffffff;fill-opacity:1;fill-rule:nonzero;stroke:none;stroke-width:0.133333" />
      <path
         id="path31"
         d="m 1440.7466,233.39203 c -0.013,-0.012 -0.4533,2.23733 -0.8,7.33866 -2.8133,21.83467 -18.0266,17.684 -19.4133,0.65333 -0.56,-5.09199 -0.8933,-7.32933 -0.9333,-7.32133 0.053,0.0133 -0.9334,2.09067 -1.7067,7.56933 -0.7067,4.93867 -0.28,11.77867 2.1467,16.11867 2.2533,4.00533 6.0933,6.872 10.16,6.992 2.1066,0.064 15.5733,-1.83467 12.3866,-23.80267 -0.9733,-5.47199 -1.88,-7.53866 -1.84,-7.54799"
         style="fill:#ffffff;fill-opacity:1;fill-rule:nonzero;stroke:none;stroke-width:0.133333" />
      <path
         id="path32"
         d="m 1458.9866,217.19336 c -5.2266,-1.896 -7.4666,-2.15067 -7.4666,-2.17867 -0.013,0.005 1.72,1.5 5.96,4.364 17.5066,13.34934 6.3066,24.44667 -9.1334,17.13734 -4.6933,-2.07067 -6.8,-2.9 -6.8133,-2.856 0.04,-0.044 1.3467,1.85333 5.7067,5.26266 3.92,3.07733 10.0533,6.13733 15.0266,6.192 4.6,0.0547 9,-1.832 11.1467,-5.296 1.1067,-1.796 6.1867,-14.40133 -14.4267,-22.62533"
         style="fill:#ffffff;fill-opacity:1;fill-rule:nonzero;stroke:none;stroke-width:0.133333" />
      <path
         id="path33"
         d="m 1447.76,193.51469 c 20.32,-8.488 24.32,6.75867 10.2666,16.48 -4.1333,3.02134 -5.9066,4.43067 -5.8666,4.46667 -0.027,-0.06 2.2666,-0.236 7.4,-2.30267 4.64,-1.86666 10.3466,-5.64933 12.88,-9.92666 2.3466,-3.956 2.92,-8.70267 0.9866,-12.29334 -1,-1.85866 -9.3733,-12.56933 -26.8133,1.18267 -4.2533,3.57467 -5.5867,5.38533 -5.6133,5.364 0,0.0187 2.16,-0.732 6.76,-2.97067"
         style="fill:#ffffff;fill-opacity:1;fill-rule:nonzero;stroke:none;stroke-width:0.133333" />
      <path
         id="path34"
         d="m 1430.2133,227.30536 c -6.8667,-0.008 -12.4267,-5.57467 -12.44,-12.44267 0.013,-6.868 5.5733,-12.42533 12.44,-12.44266 6.8667,0.0173 12.44,5.57466 12.44,12.44266 0,6.868 -5.5733,12.43467 -12.44,12.44267 z m 28.1333,-28.41867 c 0.4667,-0.64533 -9.8133,2.66 -10.4533,2.84134 -1.56,0.44133 -2.68,0.60933 -3.9333,1.56266 -2.8267,-3.35066 -6.8534,-5.64 -11.4134,-6.232 0.027,-2.38933 -3.1733,-14.536 -4.44,-12.79333 -2.1466,2.94533 -2.3866,10.59333 -2.2933,13.084 0,0.0413 0.013,0.064 0.013,0.1 -0.013,-0.62133 -8.0533,4.43333 -8.7066,5.112 -1.36,-0.73333 -14.1067,-3.10133 -14.2267,-3.512 0.32,1.15867 9.2267,13.36133 10.2133,10.324 -0.56,1.732 -0.8666,3.57333 -0.8666,5.48933 0,2.27067 0.44,4.432 1.2,6.43334 -0.1067,0.0547 -0.2267,0.096 -0.3467,0.168 -2.0933,1.272 -9.5067,11.67866 -9.5067,11.67866 0,0 13.12,-6.43066 13.6267,-5.89866 2.52,2.64533 5.8267,4.52533 9.5467,5.25866 -0.8,1.75067 1.3333,11.11867 3.1333,14.27333 -0.5733,-2.13733 3.3733,-12.32666 2.6933,-14.11466 4.44,-0.58667 8.36,-2.79067 11.1734,-6.00667 0.12,0.0827 0.24,0.172 0.3866,0.24 3.9867,1.92267 9.28,3.072 13.2267,5.20534 0.8533,0.45866 1.6133,-0.864 0.76,-1.28934 -1.7467,-0.86 -2.52,-3.012 -3.9067,-4.36666 -1.8533,-1.81867 -3.6666,-3.64 -5.5333,-5.448 -0.4267,-0.412 -0.8533,-0.67467 -1.2933,-0.85867 0.5066,-1.66933 0.7866,-3.43867 0.7866,-5.27467 0,-2.24 -0.4266,-4.36933 -1.1733,-6.34266 0.12,0.26533 4.88,-3.464 8.2267,-6.41734 1.1333,-1.00533 2.24,-2.016 3.1066,-3.216"
         style="fill:#ffffff;fill-opacity:1;fill-rule:nonzero;stroke:none;stroke-width:0.133333" />
      <path
         id="path35"
         d="m 1430.2133,267.86402 c -29.2667,-0.052 -52.9467,-23.732 -53,-53.00266 0.053,-29.26933 23.7333,-52.94667 53,-52.99467 29.2667,0.048 52.9467,23.72534 53,52.99467 -0.053,29.27066 -23.7333,52.95066 -53,53.00266 z m 0,-114.29599 c -33.8533,0 -61.2933,27.44266 -61.2933,61.29333 0.013,33.856 27.44,61.3 61.2933,61.3 33.8533,0 61.2933,-27.444 61.3067,-61.3 -0.013,-33.85067 -27.4534,-61.29333 -61.3067,-61.29333"
         style="fill:#ffffff;fill-opacity:1;fill-rule:nonzero;stroke:none;stroke-width:0.133333" />
    </g>
  </g>
</svg>
