<?xml version="1.0" encoding="UTF-8" standalone="no"?>
<!-- Created with Inkscape (http://www.inkscape.org/) -->

<svg
   version="1.1"
   id="svg1"
   width="337"
   height="500"
   viewBox="0 0 337.00001 499.99999"
   xmlns="http://www.w3.org/2000/svg"
   xmlns:svg="http://www.w3.org/2000/svg">
  <defs
     id="defs1" />
  <g
     id="g1"
     transform="translate(-2082)">
    <g
       id="g248"
       transform="matrix(0.98461379,0,0,0.98461379,963.27919,-718.1248)">
      <path
         id="path229"
         d="m 1471.3466,1179.6105 c -0.04,28.0479 -22.72,50.7266 -50.7733,50.7787 H 1193.748 c -28.0467,-0.052 -50.724,-22.7308 -50.7734,-50.7787 V 786.90401 c 0.049,-28.04666 22.7267,-50.73466 50.7734,-50.78666 h 226.8253 c 28.0533,0.052 50.7333,22.74 50.7733,50.78666 l 0.013,392.70649 z m 6.7734,0 V 786.90401 c 0,-31.79333 -25.76,-57.55733 -57.5467,-57.55733 H 1193.748 c -31.78,0 -57.5454,25.764 -57.5454,57.55733 v 392.70649 c 0,31.7839 25.7654,57.5495 57.5454,57.5495 h 226.8253 c 31.7867,0 57.5467,-25.7656 57.56,-57.5495 h -0.013"
         style="fill:#211d1d;fill-opacity:1;fill-rule:nonzero;stroke:none;stroke-width:0.133333" />
      <path
         id="path230"
         d="m 1319.3573,1022.196 c -0.3787,-4.5227 -0.8187,-9.036 -1.3707,-13.5213 -0.176,-1.4494 -0.396,-2.8867 -0.5946,-4.3307 9.188,-1.46 18.3946,-2.7453 27.648,-3.7333 4.6933,-0.5027 9.9733,-0.4827 14.88,-1.31869 -0.12,1.04399 -0.2134,2.09599 -0.28,3.15069 -0.32,5.5986 0.44,11.8346 -0.28,17.4453 -13.24,-0.5347 -27.3654,1.2027 -40.0027,2.308 z m -4.116,-32.80933 c -0.6253,-4.40666 -1.9133,-8.82133 -2.8373,-13.23066 12.2853,-1.45867 24.316,-3.09467 36.6626,-3.872 0.32,-0.10134 0.64,-0.204 0.96,-0.30134 3.4267,-1.024 6.9867,-1.652 10.32,-1.084 2.0534,0.35067 4.0267,1.14667 5.84,2.612 0.72,0.584 -3.7066,12.95067 -4.72,16.996 -6.1066,-0.70666 -13.1866,0.824 -18.8666,1.39334 -8.8534,0.88266 -17.7174,1.848 -26.56,2.90933 -0.268,-1.80533 -0.5414,-3.61467 -0.7987,-5.42267 z m -9.116,-5.53466 c -0.252,4.06933 -0.4293,8.14266 -0.5787,12.21866 -8.636,0.968 -25.9533,2.216 -35.5933,7.79063 -0.72,-4.93729 -1.48,-9.86529 -2.3973,-14.75596 -0.6187,-3.30267 -2.1187,-6.51867 -4.2054,-9.36267 14.2667,1.79867 30.4734,-1.2 44.0694,-2.976 -0.592,2.32667 -1.1427,4.656 -1.2947,7.08534 z m -32.6,45.15469 c -0.14,-2.028 -0.5307,-4.208 -0.9027,-6.652 -0.5173,-3.388 -1,-6.7907 -1.4813,-10.1934 3.4493,-0.4426 6.9387,-1.296 10.152,-1.832 7.9773,-1.324 15.956,-2.656 23.9293,-3.9893 -0.12,5.712 0.069,11.428 0.336,17.1427 -10.7346,1.1173 -21.7693,2.7173 -32.0333,5.524 z m 111.9147,26.8213 c -0.32,0.024 -55.964,4.3453 -65.1547,5.8693 0.043,-5.388 0.095,-10.7773 0.1027,-16.1693 0,-3.8027 -0.1094,-7.6133 -0.2707,-11.4307 13.2293,-1.2493 29.256,-1.1466 42.3893,-5.768 2.44,-0.8586 4.76,-1.8946 6.96,-3.1186 0.7867,-1.14 1.4,-2.3374 1.9067,-3.5694 1.88,-4.6626 9.0667,-52.73196 5.6133,-56.18396 -0.48,-0.476 -0.9733,-0.88533 -1.48,-1.26267 -0.093,-0.27466 -0.2533,-0.52 -0.48,-0.70133 -4.7333,-3.752 -10.1733,-3.62667 -15.7733,-2.85067 -0.5733,-0.056 -1.16,-0.11866 -1.7333,-0.20133 -0.68,-0.0947 -1.32,-0.0813 -1.9334,-0.0133 0.96,-3.024 1.5067,-6.208 2.32,-9.432 1.2934,-5.06534 3,-9.99067 4.5467,-14.976 11.24,0.0853 22.8667,-1.876 33.4667,-3.61334 0.2666,-1.32666 0.5333,-2.64933 0.7733,-3.95866 0.6667,-3.624 1.2933,-7.04 2.0267,-10.38267 -10.2934,0.86133 -21.36,1.36133 -32.2667,2.57733 1.4,-5.91733 2.88,-11.82266 4.44,-17.69999 0.8267,-3.076 1.64,-5.43867 1.9067,-7.72667 -3.2134,-0.59067 -6.4134,-1.46133 -9.76,-2.04933 -1.32,-0.232 -2.5734,-0.52 -3.8267,-0.804 -4.8933,8.58533 -5.8933,22.33333 -7.52,30.51599 -5.0267,1.01467 -9.9333,2.308 -14.5733,4.01334 -1.4934,0.544 -2.12,2.77333 -0.4667,3.624 4.16,2.14133 8.6267,3.516 13.2533,4.37733 -0.3333,3.596 -0.5333,7.20933 -0.6533,10.89867 -0.16,5.24 -0.8133,11.00666 0.1733,16.23866 -0.7066,0.06 -1.4133,0.104 -2.12,0.11334 -16.8133,0.27466 -33.22,3.69733 -49.8733,5.876 -8.0693,1.05466 -16.1333,2.44266 -24.236,3.28266 1.0413,-9.43733 -1.1213,-19.87333 -2.3507,-28.92533 4.9627,-0.34933 9.8187,-1.35733 14.6587,-3.816 1.484,-0.75067 1.424,-3.08533 0,-3.85067 -5.432,-2.93333 -11.0693,-4.37733 -16.8733,-5.21333 -0.4774,-2.47333 -0.9667,-4.94667 -1.424,-7.42533 -0.9454,-5.092 -0.7,-10.156 -2.0547,-14.83467 -4.312,0.528 -8.768,0.664 -12.9867,0.228 -1.3893,6.28533 0.017,13.85867 1.712,20.73867 -9.4533,0.59866 -15.3266,1.38266 -22.4746,1.53466 0.616,2.71067 1.2266,5.41734 1.8253,8.12934 0.2907,1.30266 0.576,2.71066 0.784,4.14933 6.6933,1.49067 9.6293,-0.68133 23.512,0.28133 1.4827,5.14667 3.3027,10.21867 5.036,15.268 1.62,4.71334 2.488,9.57467 3.9333,14.27467 -1.0306,0.056 -2.06,0.116 -3.0933,0.14533 -1.0653,0.0333 -6.8907,-1.17066 -10.596,-0.73733 -1.9467,-0.81733 -3.9747,-1.356 -6.0267,-1.50667 -1.9213,-0.14666 -2.7786,2.412 -1.5226,3.66534 3.528,3.51333 9.304,5.41466 10.6466,10.64666 0.412,1.59467 0.6547,3.256 0.816,4.944 1.312,2.60934 2.1334,5.84 2.5907,9.41734 1.2613,9.88796 5.172,40.98796 6.016,41.61066 1.3013,0.9573 23.3613,-5.4654 40.8107,-3.9187 0.085,2.1947 0.1573,4.3907 0.1906,6.5827 0.099,7.1146 0.067,14.232 -0.011,21.3493 -12.6014,2.1507 -57.9707,11.256 -68.1574,12.8253 -0.1693,-0.9626 0.2054,-0.4293 0.045,-1.3893 -1.132,-6.8693 -2.0427,-13.7267 -2.2014,-20.5467 -0.049,-2.1253 -2.728,-2.2253 -3.4613,-0.4693 -3.3333,7.964 -4.6867,15.6587 -5.0307,23.3973 -5.2413,1.148 -10.472,2.3 -15.6573,3.6267 -1.648,0.42 -1.6213,2.856 0,3.2933 5.104,1.3774 10.3667,1.464 15.6147,0.9414 0.24,7.9453 1.2133,16.0506 1.9253,24.6533 0.848,10.2 2.1493,20.2796 3.724,30.3891 1.5267,9.803 1.8387,20.9786 6.3867,29.852 2.176,4.2505 9.492,3.4442 10.4213,-1.3599 1.5573,-8.0599 -0.596,-15.788 -1.9173,-23.8307 -1.9187,-11.6229 -3.908,-23.2786 -4.6147,-35.0505 -0.5387,-8.884 -2.1693,-17.8 -3.7667,-26.7067 0.38,-0.081 45.112,-4.5413 66.5414,-8.152 -0.076,4.8907 -0.156,9.78 -0.2187,14.6694 -0.059,4.496 -0.34,9.1933 -0.548,13.9492 -2.132,0.5478 -4.2747,1.0641 -6.4267,1.5292 -15.8306,3.4374 -33.7093,2.8082 -48.9626,8.1068 -0.2187,-0.051 -0.4294,-0.1052 -0.652,-0.1522 -0.7507,-0.1521 -1.3827,0.588 -0.996,1.2964 0.067,0.1156 0.14,0.2036 0.2026,0.3172 0,0.464 0.2854,0.889 0.7494,1.1734 9.212,14.312 50.24,1.5172 55.9133,0.1318 0.224,7.0812 1.1907,14.0146 3.9053,20.3171 1.1294,2.6215 5.7627,2.612 6.892,0 3.26,-7.5009 3.9907,-15.8213 4.0694,-24.1812 0.236,-0.067 0.4746,-0.1401 0.712,-0.2093 2.04,-0.248 22.992,-4.8891 28.1386,-10.0704 2.7734,3.8532 5.92,7.3333 9.88,9.2308 1.4534,0.6968 3.3467,0.4609 4.1734,-1.0964 1.2533,-2.3411 1.6266,-4.8036 1.4133,-7.2744 -2.92,-3.5067 -15.8533,-20.4254 -16.08,-21.6374 -5.04,-0.956 -9.6133,4.4534 -6.8133,9.4654 -0.027,0.01 -0.053,0.023 -0.08,0.032 0.4933,0.688 1.5333,2.3173 1.5466,2.3933 -10.4293,4.5107 -16.6986,5.688 -23.036,6.4933 -0.027,-1.804 -0.035,-3.5893 -0.013,-5.3533 0.091,-7.14 0.1827,-14.28 0.256,-21.4187 20.5267,-3.3026 41.14,-6.2013 61.7,-9.26 1.3333,1.6854 12.2133,9.4454 13.56,10.1427 -1.8533,4.4253 -2.12,10.004 -2.6667,14.2587 -1.4666,11.532 -2.08,23.1573 -3.2933,34.7182 -0.6533,6.1948 -2.2133,22.3855 -11.3733,21.0991 -3.4267,-0.4839 -10.4134,-2.26 -12.08,-5.4495 -2.3867,-4.6042 -4.6934,-9.2734 -8.32,-13.0026 -1.0534,-1.0771 -3.1467,-0.311 -3.0534,1.2666 0.5734,10.3375 5.2667,24.8522 15.3334,29.212 8.2933,3.5974 16.1733,2.1068 22.0533,-3.012 2.4667,-6.3932 4.1467,-12.9854 5.6,-19.9317 2.8533,-13.6871 4.9467,-63.8975 5.1067,-65.1108 -1.28,-3.444 -15.8934,-12.44 -17.32,-12.328"
         style="fill:#b62323;fill-opacity:1;fill-rule:nonzero;stroke:none;stroke-width:0.133333" />
      <path
         id="path231"
         d="m 1264.3386,870.24668 c 14.7734,-9.16267 24.2,-29.164 31.1707,-44.24 0.8467,-1.83067 0.9467,-3.59734 0.608,-5.21334 -0.9787,-0.33733 -1.9733,-0.62933 -2.9947,-0.83333 -3.828,-0.76133 -7.756,-1.336 -11.7173,-1.66667 -14.64,28.82267 -29.3867,60.508 -63.252,69.59734 -0.248,0.0653 -0.1413,0.432 0.1053,0.37866 17.2987,-3.68266 31.1054,-8.73466 46.08,-18.02266"
         style="fill:#11100e;fill-opacity:1;fill-rule:nonzero;stroke:none;stroke-width:0.133333" />
      <path
         id="path232"
         d="m 1347.6666,841.64401 c -13.7866,-12.956 -35.072,-53.792 -53.5213,-59.3 -14.5707,-4.352 -23.2173,-11.86933 -39.3533,-10.70133 -1.1254,0.0773 -1.5147,1.82666 -0.2814,2.072 7.488,1.48666 15.512,3.79866 22.5054,6.91066 19.6533,8.73867 31.756,29.73067 42.8853,47.04534 7.0693,11.00133 26.8187,49.15066 41.832,49.15066 0.013,0 52.0667,0 52.0667,0 -1.0667,-1.26666 -8.2667,-6.75066 -9.8534,-7.036 -23.56,-4.204 -39.0933,-11.98666 -56.28,-28.14133"
         style="fill:#11100e;fill-opacity:1;fill-rule:nonzero;stroke:none;stroke-width:0.133333" />
    </g>
  </g>
</svg>
