<?xml version="1.0" encoding="UTF-8" standalone="no"?>
<!-- Created with Inkscape (http://www.inkscape.org/) -->

<svg
   version="1.1"
   id="svg1"
   width="337"
   height="500"
   viewBox="0 0 337.00001 499.99999"
   xmlns="http://www.w3.org/2000/svg"
   xmlns:svg="http://www.w3.org/2000/svg">
  <defs
     id="defs1" />
  <g
     id="g1"
     transform="translate(-2776)">
    <g
       id="g245"
       transform="matrix(0.98461114,0,0,0.98461114,2775.9999,-665.60896)">
      <path
         id="path170"
         d="m 335.15066,1126.2772 c -0.0493,28.0468 -22.72933,50.7255 -50.77867,50.7787 H 57.545865 C 29.499999,1177.0027 6.8208398,1154.324 6.7708398,1126.2772 V 733.56935 c 0.05,-28.04667 22.7291592,-50.73334 50.7750252,-50.78667 H 284.37199 c 28.04934,0.0533 50.72933,22.74 50.77867,50.78667 l 0.0107,392.70785 z m 6.77066,0 V 733.56935 c 0,-31.792 -25.76399,-57.55734 -57.54933,-57.55734 H 57.545865 C 25.764533,676.01201 0,701.77735 0,733.56935 v 392.70785 c 0,31.7839 25.764533,57.5495 57.545865,57.5495 H 284.37199 c 31.78534,0 57.54933,-25.7656 57.56,-57.5495 h -0.0107"
         style="fill:#211d1d;fill-opacity:1;fill-rule:nonzero;stroke:none;stroke-width:0.133333" />
      <path
         id="path171"
         d="m 151.168,1013.3853 c -4.748,-8.444 -5.55467,-21.75729 -4.19334,-31.37196 1.508,-10.66133 3.44267,-14.704 3.32,-14.732 0.096,-0.016 0.74667,4.34133 1.81467,14.24933 2.71067,33.15063 32.30933,41.22663 37.77867,-1.27333 0.69733,-9.92667 1.53333,-14.304 1.56,-14.284 -0.0587,0.0227 1.69333,4.04267 3.58133,14.692 6.212,42.75996 -19.98933,46.45336 -24.09467,46.32796 -7.92533,-0.2346 -15.384,-5.812 -19.76666,-13.608 z m -12.12134,-37.25596 c -33.92693,26.75466 -50.225862,5.916 -52.169062,2.29333 -3.755733,-6.97866 -2.6588,-16.22266 1.9036,-23.91866 4.9396,-8.33467 16.061462,-15.688 25.070402,-19.31734 9.99106,-4.02666 14.4572,-4.37466 14.41813,-4.48933 0.0625,0.072 -3.38533,2.816 -11.43227,8.69067 -27.351462,18.928 -19.546262,48.60266 19.99187,32.084 8.94667,-4.35867 13.15333,-5.824 13.15067,-5.79334 -0.0493,-0.036 -2.65467,3.49067 -10.93334,10.45067 z M 86.910398,881.35068 c 4.165066,-6.752 12.725066,-10.41867 21.668262,-10.32 9.6864,0.116 21.61827,6.068 29.26534,12.05733 8.48266,6.64 11.016,10.332 11.09466,10.24 -0.0333,0.092 -4.132,-1.52 -13.244,-5.55733 -30.06493,-14.22267 -51.858662,7.37466 -17.7868,33.36133 8.24574,5.56533 11.6208,8.47733 11.5916,8.49466 0.01,-0.0667 -4.34786,-0.55866 -14.51453,-4.24933 -40.138532,-15.99867 -30.237065,-40.54 -28.074532,-44.02666 z m 84.086932,-48.51334 c 7.928,0.23734 15.38667,5.81467 19.76667,13.60667 4.748,8.44667 5.55733,21.75467 4.196,31.372 -1.508,10.672 -3.44267,14.71333 -3.32267,14.732 -0.0933,0.016 -0.744,-4.34133 -1.812,-14.25333 -2.71467,-33.15067 -32.31467,-41.22 -37.77867,1.27733 -0.70133,9.924 -1.53466,14.30133 -1.56,14.28267 0.056,-0.024 -1.69333,-4.044 -3.58133,-14.68667 -6.212,-42.76667 19.988,-46.45733 24.092,-46.33067 z m 31.88666,50.86667 c 33.92667,-26.76267 50.22667,-5.91733 52.17067,-2.30133 3.75867,6.98266 2.66133,16.23066 -1.90133,23.92266 -4.94267,8.332 -16.06134,15.692 -25.07334,19.32133 -9.99066,4.02667 -14.45733,4.368 -14.41466,4.484 -0.0627,-0.0707 3.38533,-2.812 11.432,-8.692 27.352,-18.92133 19.54533,-48.59599 -19.99467,-32.07866 -8.94666,4.356 -13.156,5.81733 -13.148,5.78667 0.0453,0.0413 2.65467,-3.484 10.92933,-10.44267 z m -32.53866,108.32533 c -3.51067,-6.14133 -7.656,-24.38133 -6.09867,-27.78533 -7.26133,-1.42534 -13.70133,-5.088 -18.604,-10.23867 -0.97466,-1.02933 -26.51093,11.47733 -26.51093,11.47733 0,0 14.4136,-20.24933 18.50027,-22.71866 0.23066,-0.14267 0.46266,-0.22534 0.692,-0.33067 -1.49867,-3.89467 -2.35067,-8.10667 -2.35867,-12.52 0.008,-3.73333 0.60133,-7.316 1.68267,-10.68533 -1.89334,5.912 -19.25067,-17.84 -19.84854,-20.09467 0.20787,0.8 25.01654,5.40933 27.66454,6.84133 1.27333,-1.32133 16.924,-11.15866 16.96666,-9.95466 0,-0.0707 -0.0427,-0.116 -0.0427,-0.192 -0.17867,-4.852 0.27733,-19.73467 4.46266,-25.47067 2.47067,-3.388 8.696,20.25334 8.636,24.904 8.88667,1.152 16.72267,5.608 22.224,12.13067 2.45333,-1.86134 4.62133,-2.18534 7.66667,-3.044 1.24666,-0.35067 21.23733,-6.78533 20.336,-5.536 -1.69334,2.34133 -3.84267,4.30533 -6.05734,6.26266 -6.50666,5.748 -15.764,13.00667 -15.99733,12.49467 1.45067,3.84133 2.28,7.98533 2.28,12.344 0,3.57333 -0.54267,7.01467 -1.53333,10.26533 0.84666,0.356 1.696,0.86534 2.52133,1.66934 3.62133,3.51733 7.168,7.06666 10.76933,10.604 2.688,2.636 4.21467,6.83333 7.59334,8.50133 1.67333,0.82667 0.192,3.404 -1.46134,2.50667 -7.68266,-4.152 -17.99466,-6.384 -25.76133,-10.12667 -0.284,-0.136 -0.50133,-0.31067 -0.75333,-0.46933 -5.45467,6.26133 -13.08533,10.544 -21.73333,11.68933 1.31466,3.47867 -6.35734,23.312 -5.23467,27.476 z m 84.68,-13.54667 c -4.16934,6.744 -12.72534,10.41867 -21.672,10.312 -9.68667,-0.108 -21.61867,-6.06666 -29.26267,-12.05066 -8.48266,-6.63867 -11.01866,-10.33467 -11.09466,-10.24667 0.0293,-0.088 4.12933,1.52533 13.24399,5.55867 30.06267,14.22533 51.85867,-7.36934 17.78267,-33.356 -8.244,-5.56934 -11.62,-8.48267 -11.58667,-8.49334 -0.0107,0.06 4.34667,0.552 14.50934,4.24267 40.14,16.004 30.23866,40.53867 28.08,44.03333 z m 19.088,-48.576 C 274.01466,872.94001 227.93466,826.86401 170.968,826.76001 c -56.96747,0.104 -103.064402,46.18 -103.163868,103.14666 0.09947,56.97067 46.196398,103.06403 103.163868,103.16263 56.96666,-0.099 103.04666,-46.19196 103.14533,-103.16263"
         style="fill:#b62323;fill-opacity:1;fill-rule:nonzero;stroke:none;stroke-width:0.133333" />
      <path
         id="path172"
         d="m 288.28266,846.98268 c 3.076,3.88133 1.55867,9.512 -2.33067,11.856 -4.10933,2.49333 -8.79066,1.26266 -11.47866,-2.06667 -2.56134,-3.41067 -1.69467,-8.60133 1.90933,-11.57467 3.60533,-2.97066 8.94133,-2.18133 11.9,1.78534 z m 13.25867,22.98266 c 2.29066,4.396 -0.10534,9.58934 -4.43334,11.20934 -4.428,1.66 -8.93066,-0.35467 -10.94,-4.12934 -1.852,-3.83866 -0.02,-8.79333 4.06934,-11.056 4.09066,-2.256 9.16133,-0.48533 11.304,3.976 z m 8.79733,25.032 c 1.35867,4.77067 -1.68,9.36667 -6.37067,10.18667 -4.516,0.784 -8.85466,-1.968 -10.048,-6.06667 -1.07466,-4.12666 1.736,-8.68533 6.05334,-10.11333 4.556,-1.50133 9.11866,1.20667 10.36533,5.99333 z m 4.036,26.21467 c 0.252,4.93466 -3.35467,8.896 -8.02667,8.844 -4.67466,-0.0507 -8.65466,-3.548 -8.86666,-7.812 -0.0733,-4.28267 3.17066,-8.204 7.74266,-8.81867 4.69067,-0.624 9.03467,2.836 9.15067,7.78667 z m -0.75067,26.504 c -0.736,4.88933 -5.07333,8.12 -9.656,7.21466 -4.58933,-0.90533 -7.796,-5.05866 -7.14533,-9.27333 0.75733,-4.20667 4.312,-7.51867 9.10533,-7.27067 4.54,0.21734 8.53334,4.44667 7.696,9.32934 z m -5.584,25.95733 c -1.688,4.65067 -6.59466,7.00533 -10.932,5.26667 -4.33866,-1.74134 -6.67866,-6.39467 -5.20133,-10.396 1.204,-4.08534 5.64,-6.584 10.22267,-5.48667 4.50933,1.07467 7.31733,5.87333 5.91066,10.616 z m -10.35066,24.45867 c -2.464,4.28399 -7.812,5.63869 -11.73734,3.13869 -3.96266,-2.51736 -5.30533,-7.47336 -3.17066,-11.16003 1.84266,-3.84933 6.808,-5.412 11.076,-3.50133 4.26533,1.90667 5.99066,7.072 3.832,11.52267 z m -14.716,22.09069 c -3.07467,3.8666 -8.71734,4.1013 -12.08,0.9586 -3.472,-3.2306 -3.74934,-8.236 -1.1,-11.5786 2.548,-3.4214 7.74266,-4.0294 11.584,-1.3694 3.84133,2.6627 4.56533,8.0347 1.596,11.9894 z m -18.49334,19.024 c -3.63333,3.3573 -9.32266,2.432 -12.03066,-1.2414 -2.84667,-3.8453 -2.10667,-8.6893 1.01466,-11.608 3.15067,-2.8746 8.388,-2.5026 11.67734,0.816 3.29333,3.3174 3.004,8.712 -0.66134,12.0334 z m -21.65866,15.3226 c -4.14934,2.7134 -9.59467,0.7134 -11.58134,-3.3986 -2.092,-4.2987 -0.45333,-8.8774 3.104,-11.2534 3.644,-2.22 8.73867,-0.8706 11.36667,2.9947 2.62933,3.8653 1.34267,9.0947 -2.88933,11.6573 z m -24.11067,11.0787 c -4.60533,1.8373 -9.512,-0.9093 -10.74133,-5.432 -1.224,-4.5 1.16,-8.92 5.11466,-10.5333 4.00267,-1.472 8.77734,0.844 10.64134,5.108 1.87866,4.2973 -0.36667,9.1546 -5.01467,10.8573 z m -25.74133,6.4373 c -4.88533,0.7787 -9.15867,-2.4706 -9.54533,-7.244 -0.364,-4.5426 2.75466,-8.8093 6.96933,-9.4853 4.228,-0.576 8.47333,2.4867 9.49867,6.936 1.06799,4.6613 -2.016,9.108 -6.92267,9.7933 z m -26.46267,1.6347 c -4.93466,-0.24 -8.54533,-4.2307 -8.06933,-8.8787 0.48,-4.648 4.32133,-8.2586 8.58533,-8.036 4.26534,0.392 7.87867,3.7254 8.07334,8.4574 0.192,4.6066 -3.64934,8.872 -8.58934,8.4573 z m -16.328,-10 c -0.64533,4.5493 -5.19333,7.9453 -10.01066,6.844 -4.79734,-1.224 -7.6008,-5.868 -6.276,-10.348 1.33066,-4.48 5.75333,-7.264 9.88266,-6.192 4.14934,0.9613 7.08134,4.9947 6.404,9.696 z m -24.2136,-6.0533 c -1.50413,4.42 -6.49626,6.648 -11.13173,4.9173 -4.4636,-2.1333 -6.34427,-7.2547 -4.212,-11.4133 2.136,-4.1547 6.9828,-6.036 10.81773,-4.1734 4.00054,1.4694 6.03027,6.24 4.526,10.6694 z m -22.6864,-10.424 c -2.29426,4.0693 -7.587996,5.2986 -11.809329,2.7213 -4.0896,-2.7747 -4.8896,-8.3013 -2.055733,-11.9587 2.885866,-3.736 7.894266,-4.5386 11.418662,-2.1426 3.65267,2.2053 4.74067,7.3106 2.4464,11.38 z M 51.657865,929.90667 c 0,-65.87999 53.409335,-119.29066 119.310135,-119.29066 65.87999,0 119.29199,53.41067 119.30533,119.29066 -0.0133,65.90134 -53.42534,119.30933 -119.30533,119.30933 -65.9008,0 -119.300801,-53.40799 -119.310135,-119.30933 z m 31.232266,102.91463 c -3.002133,3.5814 -8.410933,3.7987 -12.064133,0.4667 -3.619733,-3.3627 -3.2828,-9.0587 0.1428,-12.1067 3.550933,-3.1746 8.505733,-2.936 11.6432,-0.043 3.164533,2.8613 3.280133,8.1026 0.278133,11.6826 z m -17.409466,-17.908 c -3.607733,2.9707 -8.943733,2.1814 -11.902533,-1.7826 -3.075067,-3.8854 -1.5568,-9.512 2.330667,-11.86 4.109999,-2.49203 8.791199,-1.2574 11.479199,2.0666 2.562,3.416 1.695334,8.6027 -1.907333,11.576 z M 40.320799,990.14934 c -2.290533,-4.396 0.106267,-9.59067 4.433333,-11.20933 4.4276,-1.66134 8.929733,0.34933 10.9396,4.12533 1.852133,3.84133 0.02027,8.79467 -4.0692,11.056 -4.089067,2.26 -9.160933,0.488 -11.303733,-3.972 z m -8.797333,-25.036 c -1.358933,-4.76667 1.6792,-9.36267 6.370266,-10.18267 4.5172,-0.784 8.8536,1.964 10.048,6.06534 1.073867,4.12666 -1.736,8.68266 -6.053733,10.11066 -4.5552,1.504 -9.117733,-1.204 -10.364533,-5.99333 z m -4.037067,-26.21333 c -0.2504,-4.936 3.356267,-8.89467 8.0272,-8.844 4.674933,0.052 8.655733,3.54933 8.867067,7.81333 0.0724,4.27867 -3.170267,8.2 -7.742667,8.816 -4.691066,0.628 -9.034933,-2.83733 -9.1516,-7.78533 z m 0.751067,-26.50267 c 0.736533,-4.89333 5.074533,-8.12 9.656266,-7.21333 4.589067,0.90533 7.7964,5.05733 7.145334,9.27333 -0.757867,4.20533 -4.310934,7.51867 -9.1052,7.27067 -4.539067,-0.22267 -8.533333,-4.45067 -7.6964,-9.33067 z m 5.583333,-25.956 c 1.6896,-4.652 6.5964,-7.00533 10.933333,-5.26666 4.3376,1.736 6.678133,6.39333 5.201067,10.39466 -1.2036,4.08667 -5.640667,6.58534 -10.222933,5.488 -4.509334,-1.076 -7.316133,-5.87866 -5.911467,-10.616 z m 10.3516,-24.46133 c 2.463067,-4.28533 7.812533,-5.63733 11.7364,-3.14133 3.9652,2.52 5.306799,7.47466 3.170933,11.16133 -1.841733,3.84933 -6.807333,5.41333 -11.075067,3.50533 -4.265599,-1.908 -5.991066,-7.07333 -3.832266,-11.52533 z m 14.7156,-22.092 c 3.075066,-3.864 8.717733,-4.10267 12.080799,-0.95867 3.4708,3.23067 3.748933,8.23867 1.100934,11.57867 -2.549467,3.424 -7.742667,4.02933 -11.5848,1.368 -3.841733,-2.65867 -4.5656,-8.03333 -1.596933,-11.988 z m 18.494266,-19.02267 c 3.633333,-3.356 9.323466,-2.43333 12.031333,1.23867 2.846266,3.84667 2.1052,8.69333 -1.0152,11.612 -3.151067,2.876 -8.388,2.50267 -11.6776,-0.816 -3.292133,-3.31867 -3.0052,-8.71467 0.661467,-12.03467 z m 21.658399,-15.32133 c 4.148936,-2.71333 9.593736,-0.71333 11.580666,3.396 2.09267,4.30133 0.4532,8.88 -3.10413,11.25467 -3.6432,2.22133 -8.738002,0.86933 -11.366136,-2.996 -2.628133,-3.864 -1.342266,-9.092 2.8896,-11.65467 z m 24.110396,-11.08 c 4.60574,-1.836 9.512,0.912 10.74094,5.43067 1.224,4.5 -1.15974,8.92 -5.11334,10.53333 -4.0036,1.472 -8.77813,-0.84 -10.64266,-5.108 -1.87814,-4.29733 0.36706,-9.15467 5.01506,-10.856 z m 25.74094,-6.43733 c 4.88666,-0.77734 9.15866,2.46933 9.54533,7.244 0.364,4.54133 -2.75333,8.81066 -6.96933,9.488 -4.228,0.57466 -8.47334,-2.49067 -9.49867,-6.94134 -1.068,-4.65733 2.01733,-9.10666 6.92267,-9.79066 z m 26.46266,-1.63734 c 4.936,0.24534 8.54667,4.232 8.06934,8.88134 -0.47867,4.648 -4.32,8.25866 -8.58534,8.03866 -4.26533,-0.392 -7.87866,-3.728 -8.07333,-8.45866 -0.192,-4.60667 3.65067,-8.872 8.58933,-8.46134 z m 16.328,10.00134 c 0.64534,-4.54934 5.19467,-7.944 10.012,-6.84 4.796,1.22266 7.6,5.86533 6.27467,10.344 -1.32934,4.48266 -5.75334,7.26666 -9.88267,6.192 -4.148,-0.95867 -7.08133,-4.992 -6.404,-9.696 z m 24.21467,6.05733 c 1.504,-4.42 6.496,-6.652 11.132,-4.92 4.46266,2.136 6.34266,7.25333 4.21066,11.412 -2.13466,4.15867 -6.98133,6.03733 -10.81733,4.172 -4,-1.468 -6.03067,-6.23733 -4.52533,-10.664 z m 22.68666,10.42 c 2.29334,-4.06933 7.58667,-5.3 11.808,-2.72133 4.08934,2.77333 4.89067,8.30266 2.05734,11.95733 -2.88667,3.73733 -7.89467,4.544 -11.42,2.148 -3.65334,-2.20667 -4.74,-7.31067 -2.44534,-11.384 z m 20.388,14.42133 c 3.00134,-3.58133 8.41067,-3.8 12.064,-0.46666 3.62,3.36666 3.28267,9.05866 -0.14266,12.10666 -3.55067,3.17334 -8.50667,2.93467 -11.644,0.0467 -3.164,-2.86667 -3.27867,-8.104 -0.27734,-11.68667 z M 170.968,778.14401 c -83.826802,0 -151.775867,67.94533 -151.775867,151.776 0,83.81869 67.949065,151.77599 151.775867,151.77599 83.82533,0 151.77466,-67.9573 151.77466,-151.77599 0,-83.83067 -67.94933,-151.776 -151.77466,-151.776"
         style="fill:#276952;fill-opacity:1;fill-rule:nonzero;stroke:none;stroke-width:0.133333" />
      <path
         id="path173"
         d="m 170.948,945.66267 c -8.68267,0 -15.73734,-7.068 -15.73734,-15.756 0,-8.67866 7.044,-15.72266 15.74667,-15.75066 8.70133,0.028 15.74667,7.072 15.74667,15.75733 0,8.68133 -7.064,15.74933 -15.756,15.74933 z m 0.012,-39.96933 h -0.003 c -13.36267,0.0333 -24.19333,10.84933 -24.21067,24.22 0.0173,13.36667 10.848,24.19733 24.21334,24.21467 13.368,-0.0173 24.20533,-10.848 24.21466,-24.21467 -0.009,-13.37067 -10.84666,-24.18667 -24.21466,-24.22"
         style="fill:#b62323;fill-opacity:1;fill-rule:nonzero;stroke:none;stroke-width:0.133333" />
      <path
         id="path174"
         d="m 150.48666,893.85468 c 0.0253,0.0187 0.85867,-4.35867 1.56,-14.28267 5.464,-42.49733 35.064,-34.428 37.77867,-1.27733 1.068,9.912 1.71867,14.26933 1.812,14.25333 -0.12,-0.0187 1.81467,-4.06 3.32267,-14.732 1.36133,-9.61733 0.552,-22.92533 -4.196,-31.372 -4.38,-7.792 -11.83867,-13.36933 -19.76667,-13.60667 -4.104,-0.12666 -30.304,3.564 -24.092,46.33067 1.888,10.64267 3.63733,14.66267 3.58133,14.68667"
         style="fill:#ffffff;fill-opacity:1;fill-rule:nonzero;stroke:none;stroke-width:0.133333" />
      <path
         id="path175"
         d="m 114.98493,925.37734 c 10.16667,3.69067 14.5244,4.18267 14.51453,4.24933 0.0292,-0.0173 -3.34586,-2.92933 -11.5916,-8.49466 -34.071862,-25.98667 -12.27813,-47.584 17.7868,-33.36133 9.112,4.03733 13.21067,5.64933 13.244,5.55733 -0.0787,0.092 -2.612,-3.6 -11.09466,-10.24 -7.64707,-5.98933 -19.57894,-11.94133 -29.26534,-12.05733 -8.943196,-0.0987 -17.503196,3.568 -21.668262,10.32 -2.162533,3.48666 -12.064,28.02799 28.074532,44.02666"
         style="fill:#ffffff;fill-opacity:1;fill-rule:nonzero;stroke:none;stroke-width:0.133333" />
      <path
         id="path176"
         d="m 136.82933,971.47201 c -39.538132,16.51866 -47.343332,-13.156 -19.99187,-32.084 8.04694,-5.87467 11.4948,-8.61867 11.43227,-8.69067 0.0391,0.11467 -4.42707,0.46267 -14.41813,4.48933 -9.00894,3.62934 -20.130802,10.98267 -25.070402,19.31734 -4.5624,7.696 -5.659333,16.94 -1.9036,23.91866 1.9432,3.62267 18.242132,24.46133 52.169062,-2.29333 8.27867,-6.96 10.884,-10.48667 10.93334,-10.45067 0.003,-0.0307 -4.204,1.43467 -13.15067,5.79334"
         style="fill:#ffffff;fill-opacity:1;fill-rule:nonzero;stroke:none;stroke-width:0.133333" />
      <path
         id="path177"
         d="m 195.02933,980.66534 c -1.888,-10.64933 -3.64,-14.66933 -3.58133,-14.692 -0.0267,-0.02 -0.86267,4.35733 -1.56,14.284 -5.46934,42.49996 -35.068,34.42396 -37.77867,1.27333 -1.068,-9.908 -1.71867,-14.26533 -1.81467,-14.24933 0.12267,0.028 -1.812,4.07067 -3.32,14.732 -1.36133,9.61467 -0.55466,22.92796 4.19334,31.37196 4.38266,7.796 11.84133,13.3734 19.76666,13.608 4.10534,0.1254 30.30667,-3.568 24.09467,-46.32796"
         style="fill:#ffffff;fill-opacity:1;fill-rule:nonzero;stroke:none;stroke-width:0.133333" />
      <path
         id="path178"
         d="m 226.94533,934.44934 c -10.16267,-3.69067 -14.52,-4.18267 -14.50934,-4.24267 -0.0333,0.0107 3.34267,2.924 11.58667,8.49334 34.076,25.98666 12.28,47.58133 -17.78267,33.356 -9.11466,-4.03334 -13.21466,-5.64667 -13.24399,-5.55867 0.076,-0.088 2.612,3.608 11.09466,10.24667 7.644,5.984 19.576,11.94266 29.26267,12.05066 8.94666,0.10667 17.50266,-3.568 21.672,-10.312 2.15866,-3.49466 12.06,-28.02933 -28.08,-44.03333"
         style="fill:#ffffff;fill-opacity:1;fill-rule:nonzero;stroke:none;stroke-width:0.133333" />
      <path
         id="path179"
         d="m 205.10266,888.36001 c 39.54,-16.51733 47.34667,13.15733 19.99467,32.07866 -8.04667,5.88 -11.49467,8.62134 -11.432,8.692 -0.0427,-0.116 4.424,-0.45733 14.41466,-4.484 9.012,-3.62933 20.13067,-10.98933 25.07334,-19.32133 4.56266,-7.692 5.66,-16.94 1.90133,-23.92266 -1.944,-3.616 -18.244,-24.46134 -52.17067,2.30133 -8.27466,6.95867 -10.88399,10.484 -10.92933,10.44267 -0.008,0.0307 4.20134,-1.43067 13.148,-5.78667"
         style="fill:#ffffff;fill-opacity:1;fill-rule:nonzero;stroke:none;stroke-width:0.133333" />
      <path
         id="path180"
         d="m 170.96,954.12801 c -13.36534,-0.0173 -24.196,-10.848 -24.21334,-24.21467 0.0173,-13.37067 10.848,-24.18667 24.21067,-24.22 h 0.003 c 13.368,0.0333 24.20533,10.84933 24.21466,24.22 -0.009,13.36667 -10.84666,24.19733 -24.21466,24.21467 z m 26.35333,-1.264 c 0.252,0.15866 0.46933,0.33333 0.75333,0.46933 7.76667,3.74267 18.07867,5.97467 25.76133,10.12667 1.65334,0.89733 3.13467,-1.68 1.46134,-2.50667 -3.37867,-1.668 -4.90534,-5.86533 -7.59334,-8.50133 -3.60133,-3.53734 -7.148,-7.08667 -10.76933,-10.604 -0.82533,-0.804 -1.67467,-1.31334 -2.52133,-1.66934 0.99066,-3.25066 1.53333,-6.692 1.53333,-10.26533 0,-4.35867 -0.82933,-8.50267 -2.28,-12.344 0.23333,0.512 9.49067,-6.74667 15.99733,-12.49467 2.21467,-1.95733 4.364,-3.92133 6.05734,-6.26266 0.90133,-1.24933 -19.08934,5.18533 -20.336,5.536 -3.04534,0.85866 -5.21334,1.18266 -7.66667,3.044 -5.50133,-6.52267 -13.33733,-10.97867 -22.224,-12.13067 0.06,-4.65066 -6.16533,-28.292 -8.636,-24.904 -4.18533,5.736 -4.64133,20.61867 -4.46266,25.47067 0,0.076 0.0427,0.12133 0.0427,0.192 -0.0427,-1.204 -15.69333,8.63333 -16.96666,9.95466 -2.648,-1.432 -27.45667,-6.04133 -27.66454,-6.84133 0.59787,2.25467 17.9552,26.00667 19.84854,20.09467 -1.08134,3.36933 -1.67467,6.952 -1.68267,10.68533 0.008,4.41333 0.86,8.62533 2.35867,12.52 -0.22934,0.10533 -0.46134,0.188 -0.692,0.33067 -4.08667,2.46933 -18.50027,22.71866 -18.50027,22.71866 0,0 25.53627,-12.50666 26.51093,-11.47733 4.90267,5.15067 11.34267,8.81333 18.604,10.23867 -1.55733,3.404 2.588,21.644 6.09867,27.78533 -1.12267,-4.164 6.54933,-23.99733 5.23467,-27.476 8.648,-1.14533 16.27866,-5.428 21.73333,-11.68933"
         style="fill:#ffffff;fill-opacity:1;fill-rule:nonzero;stroke:none;stroke-width:0.133333" />
      <path
         id="path181"
         d="M 67.804132,929.90667 C 67.903598,872.94001 114.00053,826.86401 170.968,826.76001 c 56.96666,0.104 103.04666,46.18 103.14533,103.14666 -0.0987,56.97067 -46.17867,103.06403 -103.14533,103.16263 -56.96747,-0.099 -103.064402,-46.19196 -103.163868,-103.16263 z m 222.469198,0 C 290.25999,864.02668 236.84799,810.61601 170.968,810.61601 c -65.9008,0 -119.310135,53.41067 -119.310135,119.29066 0.0093,65.90134 53.409335,119.30933 119.310135,119.30933 65.87999,0 119.29199,-53.40799 119.30533,-119.30933"
         style="fill:#ffffff;fill-opacity:1;fill-rule:nonzero;stroke:none;stroke-width:0.133333" />
      <path
         id="path182"
         d="m 35.933866,921.72801 c 4.794266,0.248 8.347333,-3.06534 9.1052,-7.27067 0.651066,-4.216 -2.556267,-8.368 -7.145334,-9.27333 -4.581733,-0.90667 -8.919733,2.32 -9.656266,7.21333 -0.836933,4.88 3.157333,9.108 7.6964,9.33067"
         style="fill:#ffffff;fill-opacity:1;fill-rule:nonzero;stroke:none;stroke-width:0.133333" />
      <path
         id="path183"
         d="m 39.732266,897.05734 c 4.582266,1.09734 9.019333,-1.40133 10.222933,-5.488 1.477066,-4.00133 -0.863467,-8.65866 -5.201067,-10.39466 -4.336933,-1.73867 -9.243733,0.61466 -10.933333,5.26666 -1.404666,4.73734 1.402133,9.54 5.911467,10.616"
         style="fill:#ffffff;fill-opacity:1;fill-rule:nonzero;stroke:none;stroke-width:0.133333" />
      <path
         id="path184"
         d="m 48.004665,873.50534 c 4.267734,1.908 9.233334,0.344 11.075067,-3.50533 2.135866,-3.68667 0.794267,-8.64133 -3.170933,-11.16133 -3.923867,-2.496 -9.273333,-1.144 -11.7364,3.14133 -2.1588,4.452 -0.433333,9.61733 3.832266,11.52533"
         style="fill:#ffffff;fill-opacity:1;fill-rule:nonzero;stroke:none;stroke-width:0.133333" />
      <path
         id="path185"
         d="m 60.484932,851.87601 c 3.842133,2.66133 9.035333,2.056 11.5848,-1.368 2.647999,-3.34 2.369866,-8.348 -1.100934,-11.57867 -3.363066,-3.144 -9.005733,-2.90533 -12.080799,0.95867 -2.968667,3.95467 -2.2448,9.32933 1.596933,11.988"
         style="fill:#ffffff;fill-opacity:1;fill-rule:nonzero;stroke:none;stroke-width:0.133333" />
      <path
         id="path186"
         d="m 88.398398,833.71601 c 3.1204,-2.91867 3.861466,-7.76533 1.0152,-11.612 -2.707867,-3.672 -8.398,-4.59467 -12.031333,-1.23867 -3.666667,3.32 -3.9536,8.716 -0.661467,12.03467 3.2896,3.31867 8.526533,3.692 11.6776,0.816"
         style="fill:#ffffff;fill-opacity:1;fill-rule:nonzero;stroke:none;stroke-width:0.133333" />
      <path
         id="path187"
         d="m 107.5172,820.19468 c 3.55733,-2.37467 5.1968,-6.95334 3.10413,-11.25467 -1.98693,-4.10933 -7.43173,-6.10933 -11.580666,-3.396 -4.231866,2.56267 -5.517733,7.79067 -2.8896,11.65467 2.628134,3.86533 7.722936,5.21733 11.366136,2.996"
         style="fill:#ffffff;fill-opacity:1;fill-rule:nonzero;stroke:none;stroke-width:0.133333" />
      <path
         id="path188"
         d="m 128.77866,810.42801 c 3.9536,-1.61333 6.33734,-6.03333 5.11334,-10.53333 -1.22894,-4.51867 -6.1352,-7.26667 -10.74094,-5.43067 -4.648,1.70133 -6.8932,6.55867 -5.01506,10.856 1.86453,4.268 6.63906,6.58 10.64266,5.108"
         style="fill:#ffffff;fill-opacity:1;fill-rule:nonzero;stroke:none;stroke-width:0.133333" />
      <path
         id="path189"
         d="m 151.468,804.75868 c 4.216,-0.67734 7.33333,-4.94667 6.96933,-9.488 -0.38667,-4.77467 -4.65867,-8.02134 -9.54533,-7.244 -4.90534,0.684 -7.99067,5.13333 -6.92267,9.79066 1.02533,4.45067 5.27067,7.516 9.49867,6.94134"
         style="fill:#ffffff;fill-opacity:1;fill-rule:nonzero;stroke:none;stroke-width:0.133333" />
      <path
         id="path190"
         d="m 174.83866,803.30934 c 4.26534,0.22 8.10667,-3.39066 8.58534,-8.03866 0.47733,-4.64934 -3.13334,-8.636 -8.06934,-8.88134 -4.93866,-0.41066 -8.78133,3.85467 -8.58933,8.46134 0.19467,4.73066 3.808,8.06666 8.07333,8.45866"
         style="fill:#ffffff;fill-opacity:1;fill-rule:nonzero;stroke:none;stroke-width:0.133333" />
      <path
         id="path191"
         d="m 198.08666,806.08668 c 4.12933,1.07466 8.55333,-1.70934 9.88267,-6.192 1.32533,-4.47867 -1.47867,-9.12134 -6.27467,-10.344 -4.81733,-1.104 -9.36666,2.29066 -10.012,6.84 -0.67733,4.704 2.256,8.73733 6.404,9.696"
         style="fill:#ffffff;fill-opacity:1;fill-rule:nonzero;stroke:none;stroke-width:0.133333" />
      <path
         id="path192"
         d="m 220.42266,813.11201 c 3.836,1.86533 8.68267,-0.0133 10.81733,-4.172 2.132,-4.15867 0.252,-9.276 -4.21066,-11.412 -4.636,-1.732 -9.628,0.5 -11.132,4.92 -1.50534,4.42667 0.52533,9.196 4.52533,10.664"
         style="fill:#ffffff;fill-opacity:1;fill-rule:nonzero;stroke:none;stroke-width:0.133333" />
      <path
         id="path193"
         d="m 241.02933,824.25201 c 3.52533,2.396 8.53333,1.58933 11.42,-2.148 2.83333,-3.65467 2.032,-9.184 -2.05734,-11.95733 -4.22133,-2.57867 -9.51466,-1.348 -11.808,2.72133 -2.29466,4.07333 -1.208,9.17733 2.44534,11.384"
         style="fill:#ffffff;fill-opacity:1;fill-rule:nonzero;stroke:none;stroke-width:0.133333" />
      <path
         id="path194"
         d="m 270.89333,838.92934 c 3.42533,-3.048 3.76266,-8.74 0.14266,-12.10666 -3.65333,-3.33334 -9.06266,-3.11467 -12.064,0.46666 -3.00133,3.58267 -2.88666,8.82 0.27734,11.68667 3.13733,2.888 8.09333,3.12667 11.644,-0.0467"
         style="fill:#ffffff;fill-opacity:1;fill-rule:nonzero;stroke:none;stroke-width:0.133333" />
      <path
         id="path195"
         d="m 274.47333,856.77201 c 2.688,3.32933 7.36933,4.56 11.47866,2.06667 3.88934,-2.344 5.40667,-7.97467 2.33067,-11.856 -2.95867,-3.96667 -8.29467,-4.756 -11.9,-1.78534 -3.604,2.97334 -4.47067,8.164 -1.90933,11.57467"
         style="fill:#ffffff;fill-opacity:1;fill-rule:nonzero;stroke:none;stroke-width:0.133333" />
      <path
         id="path196"
         d="m 286.16799,877.04534 c 2.00934,3.77467 6.512,5.78934 10.94,4.12934 4.328,-1.62 6.724,-6.81334 4.43334,-11.20934 -2.14267,-4.46133 -7.21334,-6.232 -11.304,-3.976 -4.08934,2.26267 -5.92134,7.21734 -4.06934,11.056"
         style="fill:#ffffff;fill-opacity:1;fill-rule:nonzero;stroke:none;stroke-width:0.133333" />
      <path
         id="path197"
         d="m 293.91999,899.11734 c 1.19334,4.09867 5.532,6.85067 10.048,6.06667 4.69067,-0.82 7.72934,-5.416 6.37067,-10.18667 -1.24667,-4.78666 -5.80933,-7.49466 -10.36533,-5.99333 -4.31734,1.428 -7.128,5.98667 -6.05334,10.11333"
         style="fill:#ffffff;fill-opacity:1;fill-rule:nonzero;stroke:none;stroke-width:0.133333" />
      <path
         id="path198"
         d="m 305.22399,913.42534 c -4.572,0.61467 -7.816,4.536 -7.74266,8.81867 0.212,4.264 4.192,7.76133 8.86666,7.812 4.672,0.052 8.27867,-3.90934 8.02667,-8.844 -0.116,-4.95067 -4.46,-8.41067 -9.15067,-7.78667"
         style="fill:#ffffff;fill-opacity:1;fill-rule:nonzero;stroke:none;stroke-width:0.133333" />
      <path
         id="path199"
         d="m 305.92799,938.38667 c -4.79333,-0.248 -8.348,3.064 -9.10533,7.27067 -0.65067,4.21467 2.556,8.368 7.14533,9.27333 4.58267,0.90534 8.92,-2.32533 9.656,-7.21466 0.83734,-4.88267 -3.156,-9.112 -7.696,-9.32934"
         style="fill:#ffffff;fill-opacity:1;fill-rule:nonzero;stroke:none;stroke-width:0.133333" />
      <path
         id="path200"
         d="m 302.12933,963.05734 c -4.58267,-1.09733 -9.01867,1.40133 -10.22267,5.48667 -1.47733,4.00133 0.86267,8.65466 5.20133,10.396 4.33734,1.73866 9.244,-0.616 10.932,-5.26667 1.40667,-4.74267 -1.40133,-9.54133 -5.91066,-10.616"
         style="fill:#ffffff;fill-opacity:1;fill-rule:nonzero;stroke:none;stroke-width:0.133333" />
      <path
         id="path201"
         d="m 293.85733,986.60934 c -4.268,-1.91067 -9.23334,-0.348 -11.076,3.50133 -2.13467,3.68667 -0.792,8.64267 3.17066,11.16003 3.92534,2.5 9.27334,1.1453 11.73734,-3.13869 2.15866,-4.45067 0.43333,-9.616 -3.832,-11.52267"
         style="fill:#ffffff;fill-opacity:1;fill-rule:nonzero;stroke:none;stroke-width:0.133333" />
      <path
         id="path202"
         d="m 281.37733,1008.2333 c -3.84134,-2.66 -9.036,-2.052 -11.584,1.3694 -2.64934,3.3426 -2.372,8.348 1.1,11.5786 3.36266,3.1427 9.00533,2.908 12.08,-0.9586 2.96933,-3.9547 2.24533,-9.3267 -1.596,-11.9894"
         style="fill:#ffffff;fill-opacity:1;fill-rule:nonzero;stroke:none;stroke-width:0.133333" />
      <path
         id="path203"
         d="m 253.46399,1026.3973 c -3.12133,2.9187 -3.86133,7.7627 -1.01466,11.608 2.708,3.6734 8.39733,4.5987 12.03066,1.2414 3.66534,-3.3214 3.95467,-8.716 0.66134,-12.0334 -3.28934,-3.3186 -8.52667,-3.6906 -11.67734,-0.816"
         style="fill:#ffffff;fill-opacity:1;fill-rule:nonzero;stroke:none;stroke-width:0.133333" />
      <path
         id="path204"
         d="m 234.34399,1039.9173 c -3.55733,2.376 -5.196,6.9547 -3.104,11.2534 1.98667,4.112 7.432,6.112 11.58134,3.3986 4.232,-2.5626 5.51866,-7.792 2.88933,-11.6573 -2.628,-3.8653 -7.72267,-5.2147 -11.36667,-2.9947"
         style="fill:#ffffff;fill-opacity:1;fill-rule:nonzero;stroke:none;stroke-width:0.133333" />
      <path
         id="path205"
         d="m 213.08399,1049.6827 c -3.95466,1.6133 -6.33866,6.0333 -5.11466,10.5333 1.22933,4.5227 6.136,7.2693 10.74133,5.432 4.648,-1.7027 6.89333,-6.56 5.01467,-10.8573 -1.864,-4.264 -6.63867,-6.58 -10.64134,-5.108"
         style="fill:#ffffff;fill-opacity:1;fill-rule:nonzero;stroke:none;stroke-width:0.133333" />
      <path
         id="path206"
         d="m 190.39333,1055.356 c -4.21467,0.676 -7.33333,4.9427 -6.96933,9.4853 0.38666,4.7734 4.66,8.0227 9.54533,7.244 4.90667,-0.6853 7.99066,-5.132 6.92267,-9.7933 -1.02534,-4.4493 -5.27067,-7.512 -9.49867,-6.936"
         style="fill:#ffffff;fill-opacity:1;fill-rule:nonzero;stroke:none;stroke-width:0.133333" />
      <path
         id="path207"
         d="m 167.02266,1056.8053 c -4.264,-0.2226 -8.10533,3.388 -8.58533,8.036 -0.476,4.648 3.13467,8.6387 8.06933,8.8787 4.94,0.4147 8.78134,-3.8507 8.58934,-8.4573 -0.19467,-4.732 -3.808,-8.0654 -8.07334,-8.4574"
         style="fill:#ffffff;fill-opacity:1;fill-rule:nonzero;stroke:none;stroke-width:0.133333" />
      <path
         id="path208"
         d="m 143.77466,1054.024 c -4.12933,-1.072 -8.552,1.712 -9.88266,6.192 -1.3248,4.48 1.47866,9.124 6.276,10.348 4.81733,1.1013 9.36533,-2.2947 10.01066,-6.844 0.67734,-4.7013 -2.25466,-8.7347 -6.404,-9.696"
         style="fill:#ffffff;fill-opacity:1;fill-rule:nonzero;stroke:none;stroke-width:0.133333" />
      <path
         id="path209"
         d="m 121.43906,1046.9973 c -3.83493,-1.8626 -8.68173,0.019 -10.81773,4.1734 -2.13227,4.1586 -0.2516,9.28 4.212,11.4133 4.63547,1.7307 9.6276,-0.4973 11.13173,-4.9173 1.50427,-4.4294 -0.52546,-9.2 -4.526,-10.6694"
         style="fill:#ffffff;fill-opacity:1;fill-rule:nonzero;stroke:none;stroke-width:0.133333" />
      <path
         id="path210"
         d="m 100.83226,1035.8627 c -3.524396,-2.396 -8.532796,-1.5934 -11.418662,2.1426 -2.833867,3.6574 -2.033867,9.184 2.055733,11.9587 4.221333,2.5773 9.515069,1.348 11.809329,-2.7213 2.29427,-4.0694 1.20627,-9.1747 -2.4464,-11.38"
         style="fill:#ffffff;fill-opacity:1;fill-rule:nonzero;stroke:none;stroke-width:0.133333" />
      <path
         id="path211"
         d="m 70.968798,1021.1813 c -3.4256,3.048 -3.762533,8.744 -0.1428,12.1067 3.6532,3.332 9.062,3.1147 12.064133,-0.4667 3.002,-3.58 2.8864,-8.8213 -0.278133,-11.6826 -3.137467,-2.8934 -8.092267,-3.132 -11.6432,0.043"
         style="fill:#ffffff;fill-opacity:1;fill-rule:nonzero;stroke:none;stroke-width:0.133333" />
      <path
         id="path212"
         d="m 67.387998,1003.3373 c -2.688,-3.324 -7.3692,-4.55863 -11.479199,-2.0666 -3.887467,2.348 -5.405734,7.9746 -2.330667,11.86 2.9588,3.964 8.2948,4.7533 11.902533,1.7826 3.602667,-2.9733 4.469333,-8.16 1.907333,-11.576"
         style="fill:#ffffff;fill-opacity:1;fill-rule:nonzero;stroke:none;stroke-width:0.133333" />
      <path
         id="path213"
         d="m 55.693732,983.06534 c -2.009867,-3.776 -6.512,-5.78667 -10.9396,-4.12533 -4.327066,1.61866 -6.723866,6.81333 -4.433333,11.20933 2.1428,4.46 7.214666,6.232 11.303733,3.972 4.089467,-2.26133 5.921333,-7.21467 4.0692,-11.056"
         style="fill:#ffffff;fill-opacity:1;fill-rule:nonzero;stroke:none;stroke-width:0.133333" />
      <path
         id="path214"
         d="m 47.941732,960.99601 c -1.1944,-4.10134 -5.5308,-6.84934 -10.048,-6.06534 -4.691066,0.82 -7.729199,5.416 -6.370266,10.18267 1.2468,4.78933 5.809333,7.49733 10.364533,5.99333 4.317733,-1.428 7.1276,-5.984 6.053733,-10.11066"
         style="fill:#ffffff;fill-opacity:1;fill-rule:nonzero;stroke:none;stroke-width:0.133333" />
      <path
         id="path215"
         d="m 36.637999,946.68534 c 4.5724,-0.616 7.815067,-4.53733 7.742667,-8.816 -0.211334,-4.264 -4.192134,-7.76133 -8.867067,-7.81333 -4.670933,-0.0507 -8.2776,3.908 -8.0272,8.844 0.116667,4.948 4.460534,8.41333 9.1516,7.78533"
         style="fill:#ffffff;fill-opacity:1;fill-rule:nonzero;stroke:none;stroke-width:0.133333" />
    </g>
  </g>
</svg>
