<?xml version="1.0" encoding="UTF-8" standalone="no"?>
<!-- Created with Inkscape (http://www.inkscape.org/) -->

<svg
   version="1.1"
   id="svg1"
   width="337"
   height="500"
   viewBox="0 0 337.00001 499.99999"
   xmlns="http://www.w3.org/2000/svg"
   xmlns:svg="http://www.w3.org/2000/svg">
  <defs
     id="defs1" />
  <g
     id="g1"
     transform="translate(-1388)">
    <g
       id="g242"
       transform="matrix(0.98461379,0,0,0.98461379,449.01976,-0.00659455)">
      <path
         id="path219"
         d="m 1288.8053,450.27069 c -0.052,28.04666 -22.7293,50.72533 -50.7787,50.77866 h -226.828 c -28.04529,-0.0533 -50.72262,-22.732 -50.77462,-50.77866 V 57.562696 c 0.052,-28.046666 22.72933,-50.7346652 50.77462,-50.7866652 h 226.828 c 28.0494,0.052 50.7267,22.7399992 50.7787,50.7866652 l 0.01,392.707994 z m 6.7707,0 V 57.562696 c 0,-31.793332 -25.7667,-57.5559984 -57.5494,-57.5559984 h -226.828 c -31.77996,0 -57.54529,25.7626664 -57.54529,57.5559984 V 450.27069 c 0,31.784 25.76533,57.54933 57.54529,57.54933 h 226.828 c 31.7827,0 57.5494,-25.76533 57.56,-57.54933 h -0.011"
         style="fill:#211d1d;fill-opacity:1;fill-rule:nonzero;stroke:none;stroke-width:0.133333" />
      <path
         id="path220"
         d="m 1049.292,106.12403 c -0.976,1.66133 -2.6987,2.632 -4.2987,3.41066 -0.284,0.14267 -0.5653,0.276 -0.836,0.40667 -1.5467,0.73333 -3.1373,1.17333 -4.7507,1.436 -1.5066,0.248 -3.0346,0.34 -4.58,0.36 -4.9546,-0.416 -10.036,0.36133 -14.96,-0.59733 -0.9413,-0.18 -1.8693,-0.42267 -2.7893,-0.752 -1.064,-0.37734 -1.9707,-0.85334 -2.7973,-1.41067 -1.8934,-1.276 -3.3187,-3.02533 -4.7867,-5.23866 1.444,0.0307 2.9173,-0.088 4.312,-0.0133 0.1627,0.009 0.32,0.004 0.4747,0.009 1.8626,0.0707 3.7226,0.0293 5.5866,-0.0453 2.0707,-0.0813 4.1374,-0.188 6.2014,-0.172 1.6413,0.0147 3.2893,-0.012 4.932,-0.0507 0.528,0.0173 1.0546,0.0213 1.584,0.0453 2.2506,0.096 4.5386,0.19867 6.8226,0.236 1.8507,0.0307 3.696,0.0213 5.5174,-0.092 0.02,-10e-4 0.051,-10e-4 0.069,-0.003 1.8253,-0.1 3.8107,0.16267 5.7333,0.11867 -0.5013,0.76 -0.9653,1.55066 -1.4346,2.352 z m -1.588,43.676 c 4.9666,4.712 5.8093,10.17466 -0.66,12.89866 -3.0947,1.308 -13.1587,2.844 -17.504,7.16667 -4.3427,-4.332 -14.3694,-5.96267 -17.4734,-7.16667 -5.7546,-2.22266 -6.1893,-7.57333 -1.456,-12.136 2.8174,-2.71466 7.7507,-6.33466 8.4574,-10.952 0.085,-0.568 0.1093,-1.14933 0.053,-1.748 l 0.7453,-23.32133 c 3.4227,0.31467 6.9867,0.67067 10.4814,0.57733 3.0173,0.04 6.0866,-0.24266 9.0586,-0.51066 l 0.592,23.14933 c -0.063,0.63467 -0.043,1.256 0.049,1.856 0.6653,4.26133 4.9653,7.62533 7.656,10.18667 z m -36.7827,-51.561335 c 0.7867,-1.342666 2.056,-2.230666 3.3587,-2.933333 0.6013,-0.324 1.204,-0.613333 1.7693,-0.882667 1.2533,-0.594666 2.5267,-0.989333 3.8173,-1.261333 1.8134,-0.385333 3.6574,-0.512 5.5147,-0.536 4.6493,0.389333 9.3973,-0.26 14.0253,0.444 1.256,0.188 2.5027,0.466667 3.7334,0.905333 0.6733,0.24 1.28,0.530667 1.8533,0.848 1.852,1.009334 3.2547,2.397333 4.584,4.165333 -1.072,0.02 -2.14,0.06933 -3.1747,0.01733 -0.4706,-0.02667 -0.9386,-0.01733 -1.4093,-0.02533 -1.8533,-0.02933 -3.7187,0.01867 -5.5867,0.096 -1.7546,0.07467 -3.5066,0.150667 -5.26,0.136 -1.6426,-0.01333 -3.288,0.01467 -4.936,0.04933 -0.5293,-0.01867 -1.052,-0.02 -1.58,-0.044 -2.5613,-0.108 -5.1666,-0.224 -7.764,-0.242667 -1.5333,-0.0093 -3.0626,0.004 -4.5746,0.096 -0.3307,0.02 -0.6707,0.02667 -1.012,0.02667 -1.2254,-0.0013 -2.5134,-0.110667 -3.7854,-0.137334 0.144,-0.242666 0.2814,-0.481333 0.4267,-0.721332 z m 0.48,-46.518665 c -4.9627,-4.713334 -5.804,-10.174667 0.6653,-12.902667 3.0934,-1.305333 13.1574,-2.841333 17.4974,-7.162666 4.352,4.329333 14.372,5.96 17.48,7.162666 5.756,2.226667 6.192,7.574667 1.4573,12.138667 -1.7027,1.636 -4.176,3.605333 -6.02,5.92 -1.0107,1.266666 -1.8307,2.641333 -2.2387,4.119999 -0.9026,1.861334 -0.9893,5.196 -0.9893,5.196 l 0.1533,23.541333 c -3.128,-0.292 -6.3653,-0.577333 -9.5413,-0.490667 -3.3427,-0.04267 -6.728,0.305334 -9.9987,0.593334 v -21.604 c -0.064,-1.858666 -0.2733,-3.676 -0.7226,-5.417333 -0.069,-2.202667 -1.1414,-4.181333 -2.5627,-5.942666 -1.6027,-1.986667 -3.6467,-3.7 -5.18,-5.152 z m 45.7867,50.088 c 0,-0.0147 -0.011,-0.0293 -0.017,-0.044 -0.027,-0.0493 -0.04,-0.10667 -0.08,-0.15733 -1.0626,-1.49734 -2.3506,-2.389338 -3.2173,-4.134672 -0.7333,-1.477333 -1.404,-2.826666 -2.3587,-4.118666 -1.6346,-2.218667 -4.1373,-2.866667 -6.5213,-3.134667 V 63.789363 c 3.3427,-4.533334 7.9027,-7.662667 9.7213,-13.529333 1.4,-4.533334 1.5334,-9.550667 -1.868,-12.774667 -3.32,-3.144 -8.2986,-3.794666 -12.3426,-4.501333 -2.272,-0.4 -4.6747,-1.241333 -6.7707,-2.368 -1.012,-0.546666 -1.692,-1.305333 -2.2947,-2.138666 -0.3693,-0.512 -0.7133,-1.053334 -1.0773,-1.593334 -0.2547,-0.369333 -0.5187,-0.734666 -0.8067,-1.093333 -0.292,0.36 -0.552,0.730667 -0.8,1.105333 -0.3533,0.54 -0.6946,1.081334 -1.0706,1.594667 -0.4734,0.645333 -0.9987,1.249333 -1.712,1.752 -2.1894,1.542666 -4.9214,2.112 -7.3707,2.741333 -4.1173,1.054667 -8.8893,1.237333 -12.3387,4.501333 -3.5466,3.362667 -3.0173,8.089333 -1.864,12.774667 0.7467,3.024 2.3507,5.598666 4.5094,7.370666 2.176,1.784 3.8853,3.798667 5.372,6.161333 v 26.581333 c -2.036,0.392 -3.8547,1.213333 -5.5894,2.98 -1.0293,1.056 -1.7226,2.717333 -2.3546,4.118666 -0.8094,1.790667 -2.156,2.641332 -3.22,4.134672 -0.032,0.0507 -0.049,0.108 -0.077,0.15733 -0.01,0.0147 -0.01,0.0293 -0.015,0.044 -0.035,0.068 -0.049,0.14267 -0.067,0.22 -0.011,0.0493 -0.015,0.1 -0.015,0.15467 0,0.0493 0,0.10133 0.015,0.15066 0.017,0.076 0.032,0.15067 0.067,0.224 0.01,0.012 0.01,0.0213 0.015,0.036 0.028,0.0547 0.045,0.112 0.077,0.16 1.064,1.5 2.352,2.38933 3.22,4.136 0.7306,1.476 1.4053,2.82533 2.3546,4.11733 1.424,1.928 3.5054,2.672 5.5894,3.008 v 23.48 c -3.3534,4.664 -8.0334,7.79734 -9.8814,13.764 -1.3986,4.53334 -1.532,9.552 1.864,12.77334 3.3174,3.144 8.3027,3.79333 12.3387,4.50266 2.2773,0.4 4.6787,1.24 6.7747,2.36934 1.012,0.544 1.692,1.304 2.2933,2.13733 0.3747,0.51467 0.7187,1.05067 1.0827,1.592 0.248,0.372 0.5186,0.73733 0.8026,1.09467 0.2907,-0.36134 0.552,-0.73067 0.8014,-1.10667 0.3546,-0.53867 0.696,-1.08 1.0693,-1.59467 0.4667,-0.64533 0.9987,-1.24933 1.7147,-1.75066 2.1826,-1.544 4.92,-2.11334 7.364,-2.74134 4.12,-1.05466 8.8946,-1.23466 12.3426,-4.50266 3.5494,-3.364 3.02,-8.088 1.868,-12.77334 -0.7506,-3.02266 -2.3506,-5.6 -4.5133,-7.37333 -2.096,-1.71467 -3.752,-3.65333 -5.208,-5.904 v -23.84667 c 2.4373,-0.31333 4.5333,-1.096 6.5213,-3.128 1.0374,-1.056 1.7294,-2.71733 2.3587,-4.11733 0.8147,-1.792 2.156,-2.644 3.2173,-4.136 0.04,-0.048 0.053,-0.10533 0.08,-0.16 0.01,-0.0147 0.013,-0.024 0.017,-0.036 0.032,-0.076 0.052,-0.148 0.065,-0.224 0.01,-0.0493 0.012,-0.10133 0.012,-0.15066 0,-0.0547 -0.01,-0.10534 -0.012,-0.15467 -0.013,-0.0773 -0.031,-0.152 -0.065,-0.22"
         style="fill:#276952;fill-opacity:1;fill-rule:nonzero;stroke:none;stroke-width:0.133333" />
      <path
         id="path221"
         d="m 1140.1933,106.12403 c -0.976,1.66133 -2.7013,2.632 -4.2947,3.41066 -0.288,0.14267 -0.5693,0.276 -0.844,0.40667 -1.5466,0.73333 -3.1346,1.17333 -4.744,1.436 -1.5106,0.248 -3.0413,0.34 -4.5826,0.36 -4.956,-0.416 -10.0374,0.36133 -14.9627,-0.59733 -0.94,-0.18 -1.8653,-0.42267 -2.7907,-0.752 -1.0573,-0.37734 -1.9666,-0.85334 -2.7933,-1.41067 -1.8973,-1.276 -3.316,-3.02533 -4.7907,-5.23866 1.448,0.0307 2.9214,-0.088 4.3147,-0.0133 0.156,0.009 0.3213,0.004 0.476,0.009 1.8573,0.0707 3.7187,0.0293 5.584,-0.0453 2.0653,-0.0813 4.136,-0.188 6.196,-0.172 1.6493,0.0147 3.2853,-0.012 4.94,-0.0507 0.52,0.0173 1.0507,0.0213 1.5733,0.0453 2.2614,0.096 4.5494,0.19867 6.836,0.236 1.844,0.0307 3.6894,0.0213 5.5067,-0.092 0.028,-10e-4 0.053,-10e-4 0.081,-0.003 1.8174,-0.1 3.8014,0.16267 5.7254,0.11867 -0.5014,0.76 -0.9614,1.55066 -1.4307,2.352 z m -1.592,43.676 c 4.9667,4.712 5.8067,10.17466 -0.66,12.89866 -3.0947,1.308 -13.1587,2.844 -17.5027,7.16667 -4.344,-4.332 -14.368,-5.96267 -17.4746,-7.16667 -5.76,-2.22266 -6.1934,-7.57333 -1.456,-12.136 2.82,-2.71466 7.7546,-6.33466 8.4613,-10.952 0.085,-0.568 0.1053,-1.14933 0.052,-1.748 l 0.744,-23.32133 c 3.4213,0.31467 6.9827,0.67067 10.484,0.57733 3.0173,0.04 6.0827,-0.24266 9.0613,-0.51066 l 0.5894,23.14933 c -0.064,0.63467 -0.044,1.256 0.048,1.856 0.6653,4.26133 4.964,7.62533 7.6533,10.18667 z M 1101.816,98.238695 c 0.784,-1.342666 2.0653,-2.230666 3.3653,-2.933333 0.5987,-0.324 1.2067,-0.613333 1.7693,-0.882667 1.248,-0.594666 2.5254,-0.989333 3.8147,-1.261333 1.816,-0.385333 3.6587,-0.512 5.5147,-0.536 4.648,0.389333 9.396,-0.26 14.0306,0.444 1.2534,0.188 2.4974,0.466667 3.72,0.905333 0.68,0.24 1.2894,0.530667 1.868,0.848 1.848,1.009334 3.252,2.397333 4.576,4.165333 -1.072,0.02 -2.144,0.06933 -3.1706,0.01733 -0.4747,-0.02667 -0.94,-0.01733 -1.4054,-0.02533 -1.8626,-0.02933 -3.7253,0.01867 -5.588,0.096 -1.7586,0.07467 -3.5133,0.150667 -5.2666,0.136 -1.6387,-0.01333 -3.2867,0.01467 -4.936,0.04933 -0.5254,-0.01867 -1.0547,-0.02 -1.58,-0.044 -2.5614,-0.108 -5.1667,-0.224 -7.7627,-0.242667 -1.5307,-0.0093 -3.0613,0.004 -4.572,0.096 -0.3347,0.02 -0.6707,0.02667 -1.012,0.02667 -1.2293,-0.0013 -2.5133,-0.110667 -3.7853,-0.137334 0.1386,-0.242666 0.2813,-0.481333 0.42,-0.721332 z m 0.4853,-46.518665 c -4.9627,-4.713334 -5.8053,-10.174667 0.6627,-12.902667 3.0933,-1.305333 13.1573,-2.841333 17.5013,-7.162666 4.3467,4.329333 14.3747,5.96 17.476,7.162666 5.7587,2.226667 6.196,7.574667 1.4573,12.138667 -1.7013,1.636 -4.172,3.605333 -6.0133,5.92 -1.0187,1.266666 -1.836,2.641333 -2.248,4.119999 -0.9027,1.861334 -0.9787,5.196 -0.9787,5.196 l 0.152,23.541333 c -3.1333,-0.292 -6.368,-0.577333 -9.5493,-0.490667 -3.3387,-0.04267 -6.728,0.305334 -9.996,0.593334 v -21.604 c -0.067,-1.858666 -0.2707,-3.676 -0.724,-5.417333 -0.069,-2.202667 -1.1413,-4.181333 -2.556,-5.942666 -1.6093,-1.986667 -3.6533,-3.7 -5.184,-5.152 z m 45.7867,50.088 c -0.01,-0.0147 -0.013,-0.0293 -0.023,-0.044 -0.021,-0.0493 -0.037,-0.10667 -0.073,-0.15733 -1.0654,-1.49734 -2.348,-2.389338 -3.2214,-4.134672 -0.7266,-1.477333 -1.4013,-2.826666 -2.352,-4.118666 -1.64,-2.218667 -4.1413,-2.866667 -6.52,-3.134667 V 63.789363 c 3.336,-4.533334 7.8987,-7.662667 9.712,-13.529333 1.4027,-4.533334 1.532,-9.550667 -1.8706,-12.774667 -3.3134,-3.144 -8.2907,-3.794666 -12.3387,-4.501333 -2.2707,-0.4 -4.6747,-1.241333 -6.7707,-2.368 -1.008,-0.546666 -1.6933,-1.305333 -2.2946,-2.138666 -0.3667,-0.512 -0.7134,-1.053334 -1.0787,-1.593334 -0.2493,-0.369333 -0.5173,-0.734666 -0.8053,-1.093333 -0.288,0.36 -0.5547,0.730667 -0.7974,1.105333 -0.356,0.54 -0.6933,1.081334 -1.0706,1.594667 -0.4734,0.645333 -1.004,1.249333 -1.716,1.752 -2.1814,1.542666 -4.9187,2.112 -7.368,2.741333 -4.1174,1.054667 -8.8907,1.237333 -12.336,4.501333 -3.5507,3.362667 -3.0214,8.089333 -1.868,12.774667 0.7466,3.024 2.3493,5.598666 4.5106,7.370666 2.1774,1.784 3.8774,3.798667 5.3747,6.161333 v 26.581333 c -2.04,0.392 -3.8547,1.213333 -5.5907,2.98 -1.0346,1.056 -1.7266,2.717333 -2.3613,4.118666 -0.8093,1.790667 -2.1547,2.641332 -3.216,4.134672 -0.037,0.0507 -0.049,0.108 -0.069,0.15733 -0.01,0.0147 -0.017,0.0293 -0.02,0.044 -0.037,0.068 -0.053,0.14267 -0.065,0.22 -0.011,0.0493 -0.015,0.1 -0.015,0.15467 0,0.0493 0,0.10133 0.015,0.15066 0.012,0.076 0.028,0.15067 0.065,0.224 0,0.012 0.013,0.0213 0.02,0.036 0.02,0.0547 0.032,0.112 0.069,0.16 1.0653,1.5 2.3533,2.38933 3.216,4.136 0.7347,1.476 1.4093,2.82533 2.3613,4.11733 1.4214,1.928 3.5014,2.672 5.5907,3.008 v 23.48 c -3.356,4.664 -8.0387,7.79734 -9.8853,13.764 -1.4014,4.53334 -1.528,9.552 1.868,12.77334 3.312,3.144 8.2986,3.79333 12.336,4.50266 2.2773,0.4 4.6773,1.24 6.7733,2.36934 1.016,0.544 1.696,1.304 2.2973,2.13733 0.3707,0.51467 0.7147,1.05067 1.0814,1.592 0.2453,0.372 0.512,0.73733 0.808,1.09467 0.2866,-0.36134 0.544,-0.73067 0.7933,-1.10667 0.356,-0.53867 0.696,-1.08 1.0733,-1.59467 0.4654,-0.64533 0.9947,-1.24933 1.7094,-1.75066 2.184,-1.544 4.9226,-2.11334 7.3653,-2.74134 4.124,-1.05466 8.8947,-1.23466 12.3387,-4.50266 3.5533,-3.364 3.028,-8.088 1.8706,-12.77334 -0.7466,-3.02266 -2.348,-5.6 -4.5093,-7.37333 -2.0947,-1.71467 -3.7547,-3.65333 -5.2027,-5.904 v -23.84667 c 2.4254,-0.31333 4.528,-1.096 6.52,-3.128 1.0334,-1.056 1.7227,-2.71733 2.352,-4.11733 0.8174,-1.792 2.156,-2.644 3.2214,-4.136 0.036,-0.048 0.052,-0.10533 0.073,-0.16 0.01,-0.0147 0.016,-0.024 0.023,-0.036 0.032,-0.076 0.055,-0.148 0.063,-0.224 0.01,-0.0493 0.013,-0.10133 0.013,-0.15066 0,-0.0547 -0.01,-0.10534 -0.013,-0.15467 -0.013,-0.0773 -0.031,-0.152 -0.063,-0.22"
         style="fill:#b62323;fill-opacity:1;fill-rule:nonzero;stroke:none;stroke-width:0.133333" />
      <path
         id="path222"
         d="m 1240.7133,106.12403 c -0.9733,1.66133 -2.696,2.632 -4.2933,3.41066 -0.284,0.14267 -0.5654,0.276 -0.8387,0.40667 -1.552,0.73333 -3.1387,1.17333 -4.7467,1.436 -1.5106,0.248 -3.044,0.34 -4.5813,0.36 -4.9547,-0.416 -10.0373,0.36133 -14.96,-0.59733 -0.9387,-0.18 -1.872,-0.42267 -2.7933,-0.752 -1.0587,-0.37734 -1.968,-0.85334 -2.7947,-1.41067 -1.9,-1.276 -3.3213,-3.02533 -4.7893,-5.23866 1.448,0.0307 2.9146,-0.088 4.3173,-0.0133 0.1547,0.009 0.3133,0.004 0.472,0.009 1.8547,0.0707 3.7227,0.0293 5.588,-0.0453 2.064,-0.0813 4.132,-0.188 6.1907,-0.172 1.6453,0.0147 3.2906,-0.012 4.9373,-0.0507 0.5293,0.0173 1.0547,0.0213 1.584,0.0453 2.2533,0.096 4.5413,0.19867 6.8293,0.236 1.8494,0.0307 3.6907,0.0213 5.512,-0.092 0.023,-10e-4 0.051,-10e-4 0.073,-0.003 1.8213,-0.1 3.804,0.16267 5.728,0.11867 -0.5027,0.76 -0.968,1.55066 -1.4347,2.352 z m -1.5853,43.676 c 4.968,4.712 5.808,10.17466 -0.6574,12.89866 -3.1,1.308 -13.16,2.844 -17.5066,7.16667 -4.348,-4.332 -14.3694,-5.96267 -17.4694,-7.16667 -5.76,-2.22266 -6.2013,-7.57333 -1.4626,-12.136 2.8173,-2.71466 7.7533,-6.33466 8.46,-10.952 0.091,-0.568 0.1066,-1.14933 0.053,-1.748 l 0.748,-23.32133 c 3.4187,0.31467 6.9827,0.67067 10.4773,0.57733 3.024,0.04 6.0867,-0.24266 9.064,-0.51066 l 0.588,23.14933 c -0.064,0.63467 -0.043,1.256 0.052,1.856 0.668,4.26133 4.9574,7.62533 7.6534,10.18667 z m -36.784,-51.561335 c 0.7866,-1.342666 2.06,-2.230666 3.3613,-2.933333 0.6,-0.324 1.2053,-0.613333 1.7693,-0.882667 1.2507,-0.594666 2.5254,-0.989333 3.8187,-1.261333 1.8107,-0.385333 3.6533,-0.512 5.512,-0.536 4.6467,0.389333 9.3973,-0.26 14.0293,0.444 1.2534,0.188 2.4934,0.466667 3.724,0.905333 0.68,0.24 1.2814,0.530667 1.8614,0.848 1.8546,1.009334 3.2533,2.397333 4.5773,4.165333 -1.0707,0.02 -2.1413,0.06933 -3.1667,0.01733 -0.472,-0.02667 -0.9453,-0.01733 -1.4106,-0.02533 -1.8614,-0.02933 -3.7227,0.01867 -5.5854,0.096 -1.7533,0.07467 -3.5106,0.150667 -5.2626,0.136 -1.6467,-0.01333 -3.2934,0.01467 -4.936,0.04933 -0.5294,-0.01867 -1.0574,-0.02 -1.5827,-0.044 -2.564,-0.108 -5.1653,-0.224 -7.76,-0.242667 -1.5373,-0.0093 -3.0653,0.004 -4.5787,0.096 -0.3346,0.02 -0.668,0.02667 -1.0093,0.02667 -1.2293,-0.0013 -2.512,-0.110667 -3.7853,-0.137334 0.1386,-0.242666 0.2813,-0.481333 0.424,-0.721332 z m 0.4826,-46.518665 c -4.96,-4.713334 -5.8093,-10.174667 0.668,-12.902667 3.088,-1.305333 13.1507,-2.841333 17.4947,-7.162666 4.348,4.329333 14.3693,5.96 17.4813,7.162666 5.7547,2.226667 6.1907,7.574667 1.4494,12.138667 -1.696,1.636 -4.1667,3.605333 -6.0134,5.92 -1.0106,1.266666 -1.828,2.641333 -2.2453,4.119999 -0.9027,1.861334 -0.98,5.196 -0.98,5.196 l 0.1533,23.541333 c -3.1333,-0.292 -6.3693,-0.577333 -9.5466,-0.490667 -3.34,-0.04267 -6.728,0.305334 -9.9947,0.593334 v -21.604 c -0.067,-1.858666 -0.2747,-3.676 -0.728,-5.417333 -0.065,-2.202667 -1.1373,-4.181333 -2.5613,-5.942666 -1.604,-1.986667 -3.6467,-3.7 -5.1774,-5.152 z m 45.7814,50.088 c -0.01,-0.0147 -0.013,-0.0293 -0.016,-0.044 -0.023,-0.0493 -0.04,-0.10667 -0.075,-0.15733 -1.0653,-1.49734 -2.3507,-2.389338 -3.2173,-4.134672 -0.7347,-1.477333 -1.4054,-2.826666 -2.3574,-4.118666 -1.636,-2.218667 -4.136,-2.866667 -6.5226,-3.134667 V 63.789363 c 3.3386,-4.533334 7.8973,-7.662667 9.7133,-13.529333 1.404,-4.533334 1.54,-9.550667 -1.8653,-12.774667 -3.32,-3.144 -8.3014,-3.794666 -12.3387,-4.501333 -2.2747,-0.4 -4.68,-1.241333 -6.7707,-2.368 -1.0093,-0.546666 -1.692,-1.305333 -2.2973,-2.138666 -0.3707,-0.512 -0.7147,-1.053334 -1.0773,-1.593334 -0.2494,-0.369333 -0.516,-0.734666 -0.8067,-1.093333 -0.288,0.36 -0.5533,0.730667 -0.8013,1.105333 -0.3574,0.54 -0.6974,1.081334 -1.0707,1.594667 -0.4653,0.645333 -0.9987,1.249333 -1.7093,1.752 -2.192,1.542666 -4.9214,2.112 -7.368,2.741333 -4.116,1.054667 -8.8974,1.237333 -12.3387,4.501333 -3.5547,3.362667 -3.0267,8.089333 -1.8653,12.774667 0.744,3.024 2.348,5.598666 4.5093,7.370666 2.176,1.784 3.88,3.798667 5.372,6.161333 v 26.581333 c -2.0427,0.392 -3.8547,1.213333 -5.5867,2.98 -1.032,1.056 -1.728,2.717333 -2.3613,4.118666 -0.8093,1.790667 -2.1547,2.641332 -3.216,4.134672 -0.036,0.0507 -0.052,0.108 -0.075,0.15733 -0.01,0.0147 -0.015,0.0293 -0.019,0.044 -0.039,0.068 -0.055,0.14267 -0.067,0.22 -0.01,0.0493 -0.012,0.1 -0.012,0.15467 0,0.0493 0.01,0.10133 0.012,0.15066 0.012,0.076 0.028,0.15067 0.067,0.224 0,0.012 0.011,0.0213 0.019,0.036 0.023,0.0547 0.039,0.112 0.075,0.16 1.0653,1.5 2.3507,2.38933 3.216,4.136 0.7347,1.476 1.4067,2.82533 2.3613,4.11733 1.4187,1.928 3.5014,2.672 5.5867,3.008 v 23.48 c -3.3547,4.664 -8.036,7.79734 -9.8813,13.764 -1.408,4.53334 -1.5374,9.552 1.8653,12.77334 3.3147,3.144 8.2947,3.79333 12.3387,4.50266 2.2706,0.4 4.676,1.24 6.7693,2.36934 1.0147,0.544 1.6987,1.304 2.2947,2.13733 0.3773,0.51467 0.72,1.05067 1.084,1.592 0.244,0.372 0.5133,0.73733 0.8013,1.09467 0.2907,-0.36134 0.552,-0.73067 0.7987,-1.10667 0.3586,-0.53867 0.6986,-1.08 1.072,-1.59467 0.472,-0.64533 0.9986,-1.24933 1.712,-1.75066 2.1893,-1.544 4.9186,-2.11334 7.3693,-2.74134 4.12,-1.05466 8.8933,-1.23466 12.3387,-4.50266 3.5506,-3.364 3.0253,-8.088 1.8653,-12.77334 -0.744,-3.02266 -2.352,-5.6 -4.5107,-7.37333 -2.092,-1.71467 -3.7533,-3.65333 -5.2026,-5.904 v -23.84667 c 2.436,-0.31333 4.528,-1.096 6.5226,-3.128 1.028,-1.056 1.7254,-2.71733 2.3574,-4.11733 0.8093,-1.792 2.156,-2.644 3.2173,-4.136 0.035,-0.048 0.052,-0.10533 0.075,-0.16 0,-0.0147 0.011,-0.024 0.016,-0.036 0.035,-0.076 0.057,-0.148 0.067,-0.224 0.01,-0.0493 0.015,-0.10133 0.015,-0.15066 0,-0.0547 -0.01,-0.10534 -0.015,-0.15467 -0.01,-0.0773 -0.029,-0.152 -0.067,-0.22"
         style="fill:#276952;fill-opacity:1;fill-rule:nonzero;stroke:none;stroke-width:0.133333" />
      <path
         id="path223"
         d="m 1049.292,261.81469 c -0.976,1.66267 -2.6987,2.63333 -4.2987,3.41067 -0.284,0.14133 -0.5653,0.27466 -0.836,0.40666 -1.5467,0.736 -3.1373,1.17334 -4.7507,1.436 -1.5066,0.24934 -3.0346,0.34 -4.58,0.36 -4.9546,-0.41466 -10.036,0.36134 -14.96,-0.59333 -0.9413,-0.18133 -1.8693,-0.428 -2.7893,-0.75733 -1.064,-0.37734 -1.9707,-0.852 -2.7973,-1.40534 -1.8934,-1.27733 -3.3187,-3.02666 -4.7867,-5.24266 1.444,0.032 2.9173,-0.0853 4.312,-0.0107 0.1627,0.005 0.32,0 0.4747,0.005 1.8626,0.0733 3.7226,0.0333 5.5866,-0.044 2.0707,-0.08 4.1374,-0.18666 6.2014,-0.16933 1.6413,0.012 3.2893,-0.016 4.932,-0.0493 0.528,0.0187 1.0546,0.02 1.584,0.0413 2.2506,0.0973 4.5386,0.2 6.8226,0.23867 1.8507,0.028 3.696,0.02 5.5174,-0.0893 0.02,-0.004 0.051,-0.004 0.069,-0.005 1.8253,-0.1 3.8107,0.16 5.7333,0.11733 -0.5013,0.76 -0.9653,1.55067 -1.4346,2.35067 z m -1.588,43.67467 c 4.9666,4.716 5.8093,10.17466 -0.66,12.90533 -3.0947,1.304 -13.1587,2.83867 -17.504,7.15867 -4.3427,-4.328 -14.3694,-5.95867 -17.4734,-7.15867 -5.7546,-2.228 -6.1893,-7.576 -1.456,-12.14133 2.8174,-2.71334 7.7507,-6.33334 8.4574,-10.94934 0.085,-0.568 0.1093,-1.15066 0.053,-1.74666 l 0.7453,-23.32267 c 3.4227,0.31333 6.9867,0.668 10.4814,0.57467 3.0173,0.0387 6.0866,-0.24267 9.0586,-0.50934 l 0.592,23.14667 c -0.063,0.63867 -0.043,1.25467 0.049,1.85867 0.6653,4.26133 4.9653,7.62533 7.656,10.184 z m -36.7827,-51.56 c 0.7867,-1.34267 2.056,-2.22667 3.3587,-2.93067 0.6013,-0.324 1.204,-0.616 1.7693,-0.88533 1.2533,-0.596 2.5267,-0.98934 3.8173,-1.26134 1.8134,-0.38266 3.6574,-0.51333 5.5147,-0.536 4.6493,0.38934 9.3973,-0.26 14.0253,0.44267 1.256,0.18933 2.5027,0.46933 3.7334,0.90667 0.6733,0.24266 1.28,0.53066 1.8533,0.84666 1.852,1.01467 3.2547,2.396 4.584,4.16934 -1.072,0.016 -2.14,0.0667 -3.1747,0.016 -0.4706,-0.024 -0.9386,-0.016 -1.4093,-0.024 -1.8533,-0.0307 -3.7187,0.0187 -5.5867,0.0947 -1.7546,0.0733 -3.5066,0.148 -5.26,0.13734 -1.6426,-0.0133 -3.288,0.0107 -4.936,0.0507 -0.5293,-0.0213 -1.052,-0.0253 -1.58,-0.044 -2.5613,-0.11066 -5.1666,-0.224 -7.764,-0.244 -1.5333,-0.0107 -3.0626,0.004 -4.5746,0.096 -0.3307,0.02 -0.6707,0.0253 -1.012,0.0253 -1.2254,-0.004 -2.5134,-0.108 -3.7854,-0.13867 0.144,-0.24 0.2814,-0.48133 0.4267,-0.72133 z m 0.48,-46.51733 c -4.9627,-4.71467 -5.804,-10.17334 0.6653,-12.90667 3.0934,-1.30267 13.1574,-2.836 17.4974,-7.16 4.352,4.33067 14.372,5.96133 17.48,7.16 5.756,2.22933 6.192,7.58 1.4573,12.14 -1.7027,1.63867 -4.176,3.60667 -6.02,5.92133 -1.0107,1.268 -1.8307,2.64 -2.2387,4.12134 -0.9026,1.86266 -0.9893,5.196 -0.9893,5.196 l 0.1533,23.53999 c -3.128,-0.288 -6.3653,-0.576 -9.5413,-0.488 -3.3427,-0.0453 -6.728,0.30267 -9.9987,0.592 v -21.60666 c -0.064,-1.856 -0.2733,-3.672 -0.7226,-5.41333 -0.069,-2.20534 -1.1414,-4.18134 -2.5627,-5.94134 -1.6027,-1.98933 -3.6467,-3.70266 -5.18,-5.15466 z m 45.7867,50.08666 c 0,-0.016 -0.011,-0.0267 -0.017,-0.0413 -0.027,-0.0533 -0.04,-0.10934 -0.08,-0.15734 -1.0626,-1.49866 -2.3506,-2.388 -3.2173,-4.13733 -0.7333,-1.476 -1.404,-2.824 -2.3587,-4.11867 -1.6346,-2.21733 -4.1373,-2.86533 -6.5213,-3.13333 v -26.42933 c 3.3427,-4.53333 7.9027,-7.66133 9.7213,-13.528 1.4,-4.53333 1.5334,-9.55467 -1.868,-12.77467 -3.32,-3.14266 -8.2986,-3.79333 -12.3426,-4.50533 -2.272,-0.39733 -4.6747,-1.23867 -6.7707,-2.368 -1.012,-0.54267 -1.692,-1.30267 -2.2947,-2.136 -0.3693,-0.51467 -0.7133,-1.05333 -1.0773,-1.59333 -0.2547,-0.368 -0.5187,-0.73334 -0.8067,-1.09334 -0.292,0.36 -0.552,0.73067 -0.8,1.10667 -0.3533,0.53733 -0.6946,1.08 -1.0706,1.596 -0.4734,0.64267 -0.9987,1.24667 -1.712,1.74933 -2.1894,1.54267 -4.9214,2.11334 -7.3707,2.73867 -4.1173,1.05467 -8.8893,1.23733 -12.3387,4.50533 -3.5466,3.36267 -3.0173,8.08667 -1.864,12.77467 0.7467,3.02267 2.3507,5.59733 4.5094,7.36933 2.176,1.78267 3.8853,3.8 5.372,6.164 v 26.57733 c -2.036,0.392 -3.8547,1.21334 -5.5894,2.98 -1.0293,1.05734 -1.7226,2.71734 -2.3546,4.11867 -0.8094,1.79333 -2.156,2.644 -3.22,4.13733 -0.032,0.048 -0.049,0.104 -0.077,0.15734 -0.01,0.0147 -0.01,0.0253 -0.015,0.0413 -0.035,0.0693 -0.049,0.14533 -0.067,0.22 -0.011,0.052 -0.015,0.104 -0.015,0.15333 0,0.0507 0,0.10267 0.015,0.152 0.017,0.08 0.032,0.15334 0.067,0.22267 0.01,0.0133 0.01,0.0267 0.015,0.04 0.028,0.0533 0.045,0.108 0.077,0.15867 1.064,1.5 2.352,2.39066 3.22,4.13733 0.7306,1.47333 1.4053,2.824 2.3546,4.11733 1.424,1.93067 3.5054,2.668 5.5894,3.00934 v 23.47866 c -3.3534,4.66134 -8.0334,7.79734 -9.8814,13.764 -1.3986,4.53067 -1.532,9.552 1.864,12.772 3.3174,3.144 8.3027,3.79467 12.3387,4.50267 2.2773,0.4 4.6787,1.24 6.7747,2.36667 1.012,0.54533 1.692,1.304 2.2933,2.14 0.3747,0.512 0.7187,1.05066 1.0827,1.58933 0.248,0.37333 0.5186,0.73867 0.8026,1.09467 0.2907,-0.36 0.552,-0.732 0.8014,-1.104 0.3546,-0.54134 0.696,-1.08 1.0693,-1.596 0.4667,-0.64534 0.9987,-1.24934 1.7147,-1.75067 2.1826,-1.54267 4.92,-2.112 7.364,-2.74 4.12,-1.05467 8.8946,-1.236 12.3426,-4.50267 3.5494,-3.364 3.02,-8.088 1.868,-12.772 -0.7506,-3.02533 -2.3506,-5.60133 -4.5133,-7.372 -2.096,-1.71733 -3.752,-3.65466 -5.208,-5.908 v -23.84666 c 2.4373,-0.31067 4.5333,-1.096 6.5213,-3.12534 1.0374,-1.05733 1.7294,-2.71733 2.3587,-4.11733 0.8147,-1.792 2.156,-2.64267 3.2173,-4.13733 0.04,-0.0507 0.053,-0.10534 0.08,-0.15867 0.01,-0.0133 0.013,-0.0267 0.017,-0.04 0.032,-0.072 0.052,-0.14267 0.065,-0.22267 0.01,-0.0493 0.012,-0.10133 0.012,-0.152 0,-0.0493 -0.01,-0.10133 -0.012,-0.15333 -0.013,-0.0747 -0.031,-0.15067 -0.065,-0.22"
         style="fill:#276952;fill-opacity:1;fill-rule:nonzero;stroke:none;stroke-width:0.133333" />
      <path
         id="path224"
         d="m 1140.1933,261.81469 c -0.976,1.66267 -2.7013,2.63333 -4.2947,3.41067 -0.288,0.14133 -0.5693,0.27466 -0.844,0.40666 -1.5466,0.736 -3.1346,1.17334 -4.744,1.436 -1.5106,0.24934 -3.0413,0.34 -4.5826,0.36 -4.956,-0.41466 -10.0374,0.36134 -14.9627,-0.59333 -0.94,-0.18133 -1.8653,-0.428 -2.7907,-0.75733 -1.0573,-0.37734 -1.9666,-0.852 -2.7933,-1.40534 -1.8973,-1.27733 -3.316,-3.02666 -4.7907,-5.24266 1.448,0.032 2.9214,-0.0853 4.3147,-0.0107 0.156,0.005 0.3213,0 0.476,0.005 1.8573,0.0733 3.7187,0.0333 5.584,-0.044 2.0653,-0.08 4.136,-0.18666 6.196,-0.16933 1.6493,0.012 3.2853,-0.016 4.94,-0.0493 0.52,0.0187 1.0507,0.02 1.5733,0.0413 2.2614,0.0973 4.5494,0.2 6.836,0.23867 1.844,0.028 3.6894,0.02 5.5067,-0.0893 0.028,-0.004 0.053,-0.004 0.081,-0.005 1.8174,-0.1 3.8014,0.16 5.7254,0.11733 -0.5014,0.76 -0.9614,1.55067 -1.4307,2.35067 z m -1.592,43.67467 c 4.9667,4.716 5.8067,10.17466 -0.66,12.90533 -3.0947,1.304 -13.1587,2.83867 -17.5027,7.15867 -4.344,-4.328 -14.368,-5.95867 -17.4746,-7.15867 -5.76,-2.228 -6.1934,-7.576 -1.456,-12.14133 2.82,-2.71334 7.7546,-6.33334 8.4613,-10.94934 0.085,-0.568 0.1053,-1.15066 0.052,-1.74666 l 0.744,-23.32267 c 3.4213,0.31333 6.9827,0.668 10.484,0.57467 3.0173,0.0387 6.0827,-0.24267 9.0613,-0.50934 l 0.5894,23.14667 c -0.064,0.63867 -0.044,1.25467 0.048,1.85867 0.6653,4.26133 4.964,7.62533 7.6533,10.184 z m -36.7853,-51.56 c 0.784,-1.34267 2.0653,-2.22667 3.3653,-2.93067 0.5987,-0.324 1.2067,-0.616 1.7693,-0.88533 1.248,-0.596 2.5254,-0.98934 3.8147,-1.26134 1.816,-0.38266 3.6587,-0.51333 5.5147,-0.536 4.648,0.38934 9.396,-0.26 14.0306,0.44267 1.2534,0.18933 2.4974,0.46933 3.72,0.90667 0.68,0.24266 1.2894,0.53066 1.868,0.84666 1.848,1.01467 3.252,2.396 4.576,4.16934 -1.072,0.016 -2.144,0.0667 -3.1706,0.016 -0.4747,-0.024 -0.94,-0.016 -1.4054,-0.024 -1.8626,-0.0307 -3.7253,0.0187 -5.588,0.0947 -1.7586,0.0733 -3.5133,0.148 -5.2666,0.13734 -1.6387,-0.0133 -3.2867,0.0107 -4.936,0.0507 -0.5254,-0.0213 -1.0547,-0.0253 -1.58,-0.044 -2.5614,-0.11066 -5.1667,-0.224 -7.7627,-0.244 -1.5307,-0.0107 -3.0613,0.004 -4.572,0.096 -0.3347,0.02 -0.6707,0.0253 -1.012,0.0253 -1.2293,-0.004 -2.5133,-0.108 -3.7853,-0.13867 0.1386,-0.24 0.2813,-0.48133 0.42,-0.72133 z m 0.4853,-46.51733 c -4.9627,-4.71467 -5.8053,-10.17334 0.6627,-12.90667 3.0933,-1.30267 13.1573,-2.836 17.5013,-7.16 4.3467,4.33067 14.3747,5.96133 17.476,7.16 5.7587,2.22933 6.196,7.58 1.4573,12.14 -1.7013,1.63867 -4.172,3.60667 -6.0133,5.92133 -1.0187,1.268 -1.836,2.64 -2.248,4.12134 -0.9027,1.86266 -0.9787,5.196 -0.9787,5.196 l 0.152,23.53999 c -3.1333,-0.288 -6.368,-0.576 -9.5493,-0.488 -3.3387,-0.0453 -6.728,0.30267 -9.996,0.592 v -21.60666 c -0.067,-1.856 -0.2707,-3.672 -0.724,-5.41333 -0.069,-2.20534 -1.1413,-4.18134 -2.556,-5.94134 -1.6093,-1.98933 -3.6533,-3.70266 -5.184,-5.15466 z m 45.7867,50.08666 c -0.01,-0.016 -0.013,-0.0267 -0.023,-0.0413 -0.021,-0.0533 -0.037,-0.10934 -0.073,-0.15734 -1.0654,-1.49866 -2.348,-2.388 -3.2214,-4.13733 -0.7266,-1.476 -1.4013,-2.824 -2.352,-4.11867 -1.64,-2.21733 -4.1413,-2.86533 -6.52,-3.13333 v -26.42933 c 3.336,-4.53333 7.8987,-7.66133 9.712,-13.528 1.4027,-4.53333 1.532,-9.55467 -1.8706,-12.77467 -3.3134,-3.14266 -8.2907,-3.79333 -12.3387,-4.50533 -2.2707,-0.39733 -4.6747,-1.23867 -6.7707,-2.368 -1.008,-0.54267 -1.6933,-1.30267 -2.2946,-2.136 -0.3667,-0.51467 -0.7134,-1.05333 -1.0787,-1.59333 -0.2493,-0.368 -0.5173,-0.73334 -0.8053,-1.09334 -0.288,0.36 -0.5547,0.73067 -0.7974,1.10667 -0.356,0.53733 -0.6933,1.08 -1.0706,1.596 -0.4734,0.64267 -1.004,1.24667 -1.716,1.74933 -2.1814,1.54267 -4.9187,2.11334 -7.368,2.73867 -4.1174,1.05467 -8.8907,1.23733 -12.336,4.50533 -3.5507,3.36267 -3.0214,8.08667 -1.868,12.77467 0.7466,3.02267 2.3493,5.59733 4.5106,7.36933 2.1774,1.78267 3.8774,3.8 5.3747,6.164 v 26.57733 c -2.04,0.392 -3.8547,1.21334 -5.5907,2.98 -1.0346,1.05734 -1.7266,2.71734 -2.3613,4.11867 -0.8093,1.79333 -2.1547,2.644 -3.216,4.13733 -0.037,0.048 -0.049,0.104 -0.069,0.15734 -0.01,0.0147 -0.017,0.0253 -0.02,0.0413 -0.037,0.0693 -0.053,0.14533 -0.065,0.22 -0.011,0.052 -0.015,0.104 -0.015,0.15333 0,0.0507 0,0.10267 0.015,0.152 0.012,0.08 0.028,0.15334 0.065,0.22267 0,0.0133 0.013,0.0267 0.02,0.04 0.02,0.0533 0.032,0.108 0.069,0.15867 1.0653,1.5 2.3533,2.39066 3.216,4.13733 0.7347,1.47333 1.4093,2.824 2.3613,4.11733 1.4214,1.93067 3.5014,2.668 5.5907,3.00934 v 23.47866 c -3.356,4.66134 -8.0387,7.79734 -9.8853,13.764 -1.4014,4.53067 -1.528,9.552 1.868,12.772 3.312,3.144 8.2986,3.79467 12.336,4.50267 2.2773,0.4 4.6773,1.24 6.7733,2.36667 1.016,0.54533 1.696,1.304 2.2973,2.14 0.3707,0.512 0.7147,1.05066 1.0814,1.58933 0.2453,0.37333 0.512,0.73867 0.808,1.09467 0.2866,-0.36 0.544,-0.732 0.7933,-1.104 0.356,-0.54134 0.696,-1.08 1.0733,-1.596 0.4654,-0.64534 0.9947,-1.24934 1.7094,-1.75067 2.184,-1.54267 4.9226,-2.112 7.3653,-2.74 4.124,-1.05467 8.8947,-1.236 12.3387,-4.50267 3.5533,-3.364 3.028,-8.088 1.8706,-12.772 -0.7466,-3.02533 -2.348,-5.60133 -4.5093,-7.372 -2.0947,-1.71733 -3.7547,-3.65466 -5.2027,-5.908 v -23.84666 c 2.4254,-0.31067 4.528,-1.096 6.52,-3.12534 1.0334,-1.05733 1.7227,-2.71733 2.352,-4.11733 0.8174,-1.792 2.156,-2.64267 3.2214,-4.13733 0.036,-0.0507 0.052,-0.10534 0.073,-0.15867 0.01,-0.0133 0.016,-0.0267 0.023,-0.04 0.032,-0.072 0.055,-0.14267 0.063,-0.22267 0.01,-0.0493 0.013,-0.10133 0.013,-0.152 0,-0.0493 -0.01,-0.10133 -0.013,-0.15333 -0.013,-0.0747 -0.031,-0.15067 -0.063,-0.22"
         style="fill:#b62323;fill-opacity:1;fill-rule:nonzero;stroke:none;stroke-width:0.133333" />
      <path
         id="path225"
         d="m 1240.7133,261.81469 c -0.9733,1.66267 -2.696,2.63333 -4.2933,3.41067 -0.284,0.14133 -0.5654,0.27466 -0.8387,0.40666 -1.552,0.736 -3.1387,1.17334 -4.7467,1.436 -1.5106,0.24934 -3.044,0.34 -4.5813,0.36 -4.9547,-0.41466 -10.0373,0.36134 -14.96,-0.59333 -0.9387,-0.18133 -1.872,-0.428 -2.7933,-0.75733 -1.0587,-0.37734 -1.968,-0.852 -2.7947,-1.40534 -1.9,-1.27733 -3.3213,-3.02666 -4.7893,-5.24266 1.448,0.032 2.9146,-0.0853 4.3173,-0.0107 0.1547,0.005 0.3133,0 0.472,0.005 1.8547,0.0733 3.7227,0.0333 5.588,-0.044 2.064,-0.08 4.132,-0.18666 6.1907,-0.16933 1.6453,0.012 3.2906,-0.016 4.9373,-0.0493 0.5293,0.0187 1.0547,0.02 1.584,0.0413 2.2533,0.0973 4.5413,0.2 6.8293,0.23867 1.8494,0.028 3.6907,0.02 5.512,-0.0893 0.023,-0.004 0.051,-0.004 0.073,-0.005 1.8213,-0.1 3.804,0.16 5.728,0.11733 -0.5027,0.76 -0.968,1.55067 -1.4347,2.35067 z m -1.5853,43.67467 c 4.968,4.716 5.808,10.17466 -0.6574,12.90533 -3.1,1.304 -13.16,2.83867 -17.5066,7.15867 -4.348,-4.328 -14.3694,-5.95867 -17.4694,-7.15867 -5.76,-2.228 -6.2013,-7.576 -1.4626,-12.14133 2.8173,-2.71334 7.7533,-6.33334 8.46,-10.94934 0.091,-0.568 0.1066,-1.15066 0.053,-1.74666 l 0.748,-23.32267 c 3.4187,0.31333 6.9827,0.668 10.4773,0.57467 3.024,0.0387 6.0867,-0.24267 9.064,-0.50934 l 0.588,23.14667 c -0.064,0.63867 -0.043,1.25467 0.052,1.85867 0.668,4.26133 4.9574,7.62533 7.6534,10.184 z m -36.784,-51.56 c 0.7866,-1.34267 2.06,-2.22667 3.3613,-2.93067 0.6,-0.324 1.2053,-0.616 1.7693,-0.88533 1.2507,-0.596 2.5254,-0.98934 3.8187,-1.26134 1.8107,-0.38266 3.6533,-0.51333 5.512,-0.536 4.6467,0.38934 9.3973,-0.26 14.0293,0.44267 1.2534,0.18933 2.4934,0.46933 3.724,0.90667 0.68,0.24266 1.2814,0.53066 1.8614,0.84666 1.8546,1.01467 3.2533,2.396 4.5773,4.16934 -1.0707,0.016 -2.1413,0.0667 -3.1667,0.016 -0.472,-0.024 -0.9453,-0.016 -1.4106,-0.024 -1.8614,-0.0307 -3.7227,0.0187 -5.5854,0.0947 -1.7533,0.0733 -3.5106,0.148 -5.2626,0.13734 -1.6467,-0.0133 -3.2934,0.0107 -4.936,0.0507 -0.5294,-0.0213 -1.0574,-0.0253 -1.5827,-0.044 -2.564,-0.11066 -5.1653,-0.224 -7.76,-0.244 -1.5373,-0.0107 -3.0653,0.004 -4.5787,0.096 -0.3346,0.02 -0.668,0.0253 -1.0093,0.0253 -1.2293,-0.004 -2.512,-0.108 -3.7853,-0.13867 0.1386,-0.24 0.2813,-0.48133 0.424,-0.72133 z m 0.4826,-46.51733 c -4.96,-4.71467 -5.8093,-10.17334 0.668,-12.90667 3.088,-1.30267 13.1507,-2.836 17.4947,-7.16 4.348,4.33067 14.3693,5.96133 17.4813,7.16 5.7547,2.22933 6.1907,7.58 1.4494,12.14 -1.696,1.63867 -4.1667,3.60667 -6.0134,5.92133 -1.0106,1.268 -1.828,2.64 -2.2453,4.12134 -0.9027,1.86266 -0.98,5.196 -0.98,5.196 l 0.1533,23.53999 c -3.1333,-0.288 -6.3693,-0.576 -9.5466,-0.488 -3.34,-0.0453 -6.728,0.30267 -9.9947,0.592 v -21.60666 c -0.067,-1.856 -0.2747,-3.672 -0.728,-5.41333 -0.065,-2.20534 -1.1373,-4.18134 -2.5613,-5.94134 -1.604,-1.98933 -3.6467,-3.70266 -5.1774,-5.15466 z m 45.7814,50.08666 c -0.01,-0.016 -0.013,-0.0267 -0.016,-0.0413 -0.023,-0.0533 -0.04,-0.10934 -0.075,-0.15734 -1.0653,-1.49866 -2.3507,-2.388 -3.2173,-4.13733 -0.7347,-1.476 -1.4054,-2.824 -2.3574,-4.11867 -1.636,-2.21733 -4.136,-2.86533 -6.5226,-3.13333 v -26.42933 c 3.3386,-4.53333 7.8973,-7.66133 9.7133,-13.528 1.404,-4.53333 1.54,-9.55467 -1.8653,-12.77467 -3.32,-3.14266 -8.3014,-3.79333 -12.3387,-4.50533 -2.2747,-0.39733 -4.68,-1.23867 -6.7707,-2.368 -1.0093,-0.54267 -1.692,-1.30267 -2.2973,-2.136 -0.3707,-0.51467 -0.7147,-1.05333 -1.0773,-1.59333 -0.2494,-0.368 -0.516,-0.73334 -0.8067,-1.09334 -0.288,0.36 -0.5533,0.73067 -0.8013,1.10667 -0.3574,0.53733 -0.6974,1.08 -1.0707,1.596 -0.4653,0.64267 -0.9987,1.24667 -1.7093,1.74933 -2.192,1.54267 -4.9214,2.11334 -7.368,2.73867 -4.116,1.05467 -8.8974,1.23733 -12.3387,4.50533 -3.5547,3.36267 -3.0267,8.08667 -1.8653,12.77467 0.744,3.02267 2.348,5.59733 4.5093,7.36933 2.176,1.78267 3.88,3.8 5.372,6.164 v 26.57733 c -2.0427,0.392 -3.8547,1.21334 -5.5867,2.98 -1.032,1.05734 -1.728,2.71734 -2.3613,4.11867 -0.8093,1.79333 -2.1547,2.644 -3.216,4.13733 -0.036,0.048 -0.052,0.104 -0.075,0.15734 -0.01,0.0147 -0.015,0.0253 -0.019,0.0413 -0.039,0.0693 -0.055,0.14533 -0.067,0.22 -0.01,0.052 -0.012,0.104 -0.012,0.15333 0,0.0507 0.01,0.10267 0.012,0.152 0.012,0.08 0.028,0.15334 0.067,0.22267 0,0.0133 0.011,0.0267 0.019,0.04 0.023,0.0533 0.039,0.108 0.075,0.15867 1.0653,1.5 2.3507,2.39066 3.216,4.13733 0.7347,1.47333 1.4067,2.824 2.3613,4.11733 1.4187,1.93067 3.5014,2.668 5.5867,3.00934 v 23.47866 c -3.3547,4.66134 -8.036,7.79734 -9.8813,13.764 -1.408,4.53067 -1.5374,9.552 1.8653,12.772 3.3147,3.144 8.2947,3.79467 12.3387,4.50267 2.2706,0.4 4.676,1.24 6.7693,2.36667 1.0147,0.54533 1.6987,1.304 2.2947,2.14 0.3773,0.512 0.72,1.05066 1.084,1.58933 0.244,0.37333 0.5133,0.73867 0.8013,1.09467 0.2907,-0.36 0.552,-0.732 0.7987,-1.104 0.3586,-0.54134 0.6986,-1.08 1.072,-1.596 0.472,-0.64534 0.9986,-1.24934 1.712,-1.75067 2.1893,-1.54267 4.9186,-2.112 7.3693,-2.74 4.12,-1.05467 8.8933,-1.236 12.3387,-4.50267 3.5506,-3.364 3.0253,-8.088 1.8653,-12.772 -0.744,-3.02533 -2.352,-5.60133 -4.5107,-7.372 -2.092,-1.71733 -3.7533,-3.65466 -5.2026,-5.908 v -23.84666 c 2.436,-0.31067 4.528,-1.096 6.5226,-3.12534 1.028,-1.05733 1.7254,-2.71733 2.3574,-4.11733 0.8093,-1.792 2.156,-2.64267 3.2173,-4.13733 0.035,-0.0507 0.052,-0.10534 0.075,-0.15867 0,-0.0133 0.011,-0.0267 0.016,-0.04 0.035,-0.072 0.057,-0.14267 0.067,-0.22267 0.01,-0.0493 0.015,-0.10133 0.015,-0.152 0,-0.0493 -0.01,-0.10133 -0.015,-0.15333 -0.01,-0.0747 -0.029,-0.15067 -0.067,-0.22"
         style="fill:#276952;fill-opacity:1;fill-rule:nonzero;stroke:none;stroke-width:0.133333" />
      <path
         id="path226"
         d="m 1049.292,417.50802 c -0.976,1.66133 -2.6987,2.63333 -4.2987,3.41067 -0.284,0.14 -0.5653,0.276 -0.836,0.404 -1.5467,0.736 -3.1373,1.17466 -4.7507,1.43733 -1.5066,0.248 -3.0346,0.34 -4.58,0.35733 -4.9546,-0.412 -10.036,0.36267 -14.96,-0.592 -0.9413,-0.18266 -1.8693,-0.42533 -2.7893,-0.756 -1.064,-0.376 -1.9707,-0.85066 -2.7973,-1.408 -1.8934,-1.27333 -3.3187,-3.024 -4.7867,-5.23866 1.444,0.0307 2.9173,-0.0853 4.312,-0.0147 0.1627,0.009 0.32,0.003 0.4747,0.009 1.8626,0.0733 3.7226,0.0293 5.5866,-0.0427 2.0707,-0.0827 4.1374,-0.19067 6.2014,-0.172 1.6413,0.012 3.2893,-0.0147 4.932,-0.0493 0.528,0.016 1.0546,0.02 1.584,0.0427 2.2506,0.096 4.5386,0.19733 6.8226,0.23467 1.8507,0.032 3.696,0.0227 5.5174,-0.0907 0.02,0 0.051,0 0.069,-0.003 1.8253,-0.10133 3.8107,0.16134 5.7333,0.11867 -0.5013,0.75867 -0.9653,1.552 -1.4346,2.352 z m -1.588,43.67467 c 4.9666,4.712 5.8093,10.17466 -0.66,12.90266 -3.0947,1.30534 -13.1587,2.83867 -17.504,7.164 -4.3427,-4.33066 -14.3694,-5.96266 -17.4734,-7.164 -5.7546,-2.22533 -6.1893,-7.57466 -1.456,-12.13866 2.8174,-2.716 7.7507,-6.33467 8.4574,-10.952 0.085,-0.56667 0.1093,-1.148 0.053,-1.748 l 0.7453,-23.32 c 3.4227,0.312 6.9867,0.66933 10.4814,0.57466 3.0173,0.0387 6.0866,-0.24266 9.0586,-0.51066 l 0.592,23.148 c -0.063,0.63466 -0.043,1.256 0.049,1.86 0.6653,4.25733 4.9653,7.62266 7.656,10.184 z m -36.7827,-51.564 c 0.7867,-1.33734 2.056,-2.22667 3.3587,-2.92934 0.6013,-0.32533 1.204,-0.612 1.7693,-0.88266 1.2533,-0.596 2.5267,-0.98934 3.8173,-1.26267 1.8134,-0.384 3.6574,-0.51333 5.5147,-0.53467 4.6493,0.38667 9.3973,-0.26 14.0253,0.44267 1.256,0.188 2.5027,0.468 3.7334,0.908 0.6733,0.23867 1.28,0.52933 1.8533,0.844 1.852,1.01067 3.2547,2.39867 4.584,4.16667 -1.072,0.0213 -2.14,0.0707 -3.1747,0.0173 -0.4706,-0.024 -0.9386,-0.0147 -1.4093,-0.024 -1.8533,-0.032 -3.7187,0.0187 -5.5867,0.0947 -1.7546,0.0747 -3.5066,0.14933 -5.26,0.13733 -1.6426,-0.0107 -3.288,0.012 -4.936,0.048 -0.5293,-0.0187 -1.052,-0.02 -1.58,-0.0427 -2.5613,-0.10666 -5.1666,-0.22266 -7.764,-0.24133 -1.5333,-0.012 -3.0626,0.001 -4.5746,0.0933 -0.3307,0.0227 -0.6707,0.0293 -1.012,0.0293 -1.2254,-0.004 -2.5134,-0.112 -3.7854,-0.14134 0.144,-0.24133 0.2814,-0.47866 0.4267,-0.72266 z m 0.48,-46.516 c -4.9627,-4.71067 -5.804,-10.17467 0.6653,-12.90267 3.0934,-1.304 13.1574,-2.84 17.4974,-7.16266 4.352,4.32933 14.372,5.96 17.48,7.16266 5.756,2.228 6.192,7.57467 1.4573,12.13867 -1.7027,1.63733 -4.176,3.60667 -6.02,5.92 -1.0107,1.268 -1.8307,2.64266 -2.2387,4.12133 -0.9026,1.86133 -0.9893,5.19333 -0.9893,5.19333 l 0.1533,23.544 c -3.128,-0.29066 -6.3653,-0.57866 -9.5413,-0.49066 -3.3427,-0.0427 -6.728,0.304 -9.9987,0.59333 v -21.60533 c -0.064,-1.86 -0.2733,-3.67334 -0.7226,-5.41734 -0.069,-2.204 -1.1414,-4.18133 -2.5627,-5.93999 -1.6027,-1.988 -3.6467,-3.70134 -5.18,-5.15467 z m 45.7867,50.088 c 0,-0.0147 -0.011,-0.0293 -0.017,-0.04 -0.027,-0.0533 -0.04,-0.10934 -0.08,-0.15867 -1.0626,-1.5 -2.3506,-2.39067 -3.2173,-4.14 -0.7333,-1.472 -1.404,-2.82133 -2.3587,-4.11467 -1.6346,-2.22 -4.1373,-2.868 -6.5213,-3.13733 v -26.42533 c 3.3427,-4.536 7.9027,-7.66533 9.7213,-13.532 1.4,-4.53067 1.5334,-9.55067 -1.868,-12.77467 -3.32,-3.14266 -8.2986,-3.79333 -12.3426,-4.50266 -2.272,-0.39867 -4.6747,-1.24 -6.7707,-2.36534 -1.012,-0.54533 -1.692,-1.30533 -2.2947,-2.13866 -0.3693,-0.51334 -0.7133,-1.052 -1.0773,-1.59334 -0.2547,-0.36933 -0.5187,-0.736 -0.8067,-1.09466 -0.292,0.36133 -0.552,0.732 -0.8,1.108 -0.3533,0.53866 -0.6946,1.07866 -1.0706,1.59333 -0.4734,0.644 -0.9987,1.248 -1.712,1.75333 -2.1894,1.54134 -4.9214,2.11067 -7.3707,2.73734 -4.1173,1.056 -8.8893,1.23866 -12.3387,4.50266 -3.5466,3.364 -3.0173,8.08934 -1.864,12.77467 0.7467,3.024 2.3507,5.6 4.5094,7.372 2.176,1.784 3.8853,3.79866 5.372,6.16133 v 26.58 c -2.036,0.392 -3.8547,1.21467 -5.5894,2.98133 -1.0293,1.056 -1.7226,2.71467 -2.3546,4.11467 -0.8094,1.79333 -2.156,2.64533 -3.22,4.14 -0.032,0.0493 -0.049,0.10533 -0.077,0.15867 -0.01,0.0107 -0.01,0.0253 -0.015,0.04 -0.035,0.068 -0.049,0.144 -0.067,0.22133 -0.011,0.052 -0.015,0.1 -0.015,0.15333 0,0.0493 0,0.0987 0.015,0.152 0.017,0.076 0.032,0.152 0.067,0.22134 0.01,0.0133 0.01,0.0253 0.015,0.04 0.028,0.052 0.045,0.10933 0.077,0.15866 1.064,1.5 2.352,2.388 3.22,4.13734 0.7306,1.47466 1.4053,2.82266 2.3546,4.116 1.424,1.92933 3.5054,2.67066 5.5894,3.00666 v 23.48134 c -3.3534,4.66133 -8.0334,7.79733 -9.8814,13.76266 -1.3986,4.53334 -1.532,9.552 1.864,12.77467 3.3174,3.14267 8.3027,3.79333 12.3387,4.50267 2.2773,0.4 4.6787,1.24133 6.7747,2.368 1.012,0.544 1.692,1.30666 2.2933,2.13733 0.3747,0.51467 0.7187,1.052 1.0827,1.592 0.248,0.372 0.5186,0.73733 0.8026,1.09733 0.2907,-0.36266 0.552,-0.73333 0.8014,-1.10933 0.3546,-0.53867 0.696,-1.07867 1.0693,-1.59467 0.4667,-0.644 0.9987,-1.25066 1.7147,-1.75066 2.1826,-1.544 4.92,-2.11067 7.364,-2.74 4.12,-1.05467 8.8946,-1.236 12.3426,-4.50267 3.5494,-3.36267 3.02,-8.09067 1.868,-12.77467 -0.7506,-3.02266 -2.3506,-5.6 -4.5133,-7.372 -2.096,-1.716 -3.752,-3.65333 -5.208,-5.90266 v -23.848 c 2.4373,-0.31067 4.5333,-1.09734 6.5213,-3.128 1.0374,-1.056 1.7294,-2.716 2.3587,-4.116 0.8147,-1.79334 2.156,-2.644 3.2173,-4.13734 0.04,-0.0493 0.053,-0.10666 0.08,-0.15866 0.01,-0.0147 0.013,-0.0267 0.017,-0.04 0.032,-0.0733 0.052,-0.14534 0.065,-0.22134 0.01,-0.0533 0.012,-0.10266 0.012,-0.152 0,-0.0533 -0.01,-0.10133 -0.012,-0.15333 -0.013,-0.0773 -0.031,-0.15333 -0.065,-0.22133"
         style="fill:#276952;fill-opacity:1;fill-rule:nonzero;stroke:none;stroke-width:0.133333" />
      <path
         id="path227"
         d="m 1140.1933,417.50802 c -0.976,1.66133 -2.7013,2.63333 -4.2947,3.41067 -0.288,0.14 -0.5693,0.276 -0.844,0.404 -1.5466,0.736 -3.1346,1.17466 -4.744,1.43733 -1.5106,0.248 -3.0413,0.34 -4.5826,0.35733 -4.956,-0.412 -10.0374,0.36267 -14.9627,-0.592 -0.94,-0.18266 -1.8653,-0.42533 -2.7907,-0.756 -1.0573,-0.376 -1.9666,-0.85066 -2.7933,-1.408 -1.8973,-1.27333 -3.316,-3.024 -4.7907,-5.23866 1.448,0.0307 2.9214,-0.0853 4.3147,-0.0147 0.156,0.009 0.3213,0.003 0.476,0.009 1.8573,0.0733 3.7187,0.0293 5.584,-0.0427 2.0653,-0.0827 4.136,-0.19067 6.196,-0.172 1.6493,0.012 3.2853,-0.0147 4.94,-0.0493 0.52,0.016 1.0507,0.02 1.5733,0.0427 2.2614,0.096 4.5494,0.19733 6.836,0.23467 1.844,0.032 3.6894,0.0227 5.5067,-0.0907 0.028,0 0.053,0 0.081,-0.003 1.8174,-0.10133 3.8014,0.16134 5.7254,0.11867 -0.5014,0.75867 -0.9614,1.552 -1.4307,2.352 z m -1.592,43.67467 c 4.9667,4.712 5.8067,10.17466 -0.66,12.90266 -3.0947,1.30534 -13.1587,2.83867 -17.5027,7.164 -4.344,-4.33066 -14.368,-5.96266 -17.4746,-7.164 -5.76,-2.22533 -6.1934,-7.57466 -1.456,-12.13866 2.82,-2.716 7.7546,-6.33467 8.4613,-10.952 0.085,-0.56667 0.1053,-1.148 0.052,-1.748 l 0.744,-23.32 c 3.4213,0.312 6.9827,0.66933 10.484,0.57466 3.0173,0.0387 6.0827,-0.24266 9.0613,-0.51066 l 0.5894,23.148 c -0.064,0.63466 -0.044,1.256 0.048,1.86 0.6653,4.25733 4.964,7.62266 7.6533,10.184 z m -36.7853,-51.564 c 0.784,-1.33734 2.0653,-2.22667 3.3653,-2.92934 0.5987,-0.32533 1.2067,-0.612 1.7693,-0.88266 1.248,-0.596 2.5254,-0.98934 3.8147,-1.26267 1.816,-0.384 3.6587,-0.51333 5.5147,-0.53467 4.648,0.38667 9.396,-0.26 14.0306,0.44267 1.2534,0.188 2.4974,0.468 3.72,0.908 0.68,0.23867 1.2894,0.52933 1.868,0.844 1.848,1.01067 3.252,2.39867 4.576,4.16667 -1.072,0.0213 -2.144,0.0707 -3.1706,0.0173 -0.4747,-0.024 -0.94,-0.0147 -1.4054,-0.024 -1.8626,-0.032 -3.7253,0.0187 -5.588,0.0947 -1.7586,0.0747 -3.5133,0.14933 -5.2666,0.13733 -1.6387,-0.0107 -3.2867,0.012 -4.936,0.048 -0.5254,-0.0187 -1.0547,-0.02 -1.58,-0.0427 -2.5614,-0.10666 -5.1667,-0.22266 -7.7627,-0.24133 -1.5307,-0.012 -3.0613,0.001 -4.572,0.0933 -0.3347,0.0227 -0.6707,0.0293 -1.012,0.0293 -1.2293,-0.004 -2.5133,-0.112 -3.7853,-0.14134 0.1386,-0.24133 0.2813,-0.47866 0.42,-0.72266 z m 0.4853,-46.516 c -4.9627,-4.71067 -5.8053,-10.17467 0.6627,-12.90267 3.0933,-1.304 13.1573,-2.84 17.5013,-7.16266 4.3467,4.32933 14.3747,5.96 17.476,7.16266 5.7587,2.228 6.196,7.57467 1.4573,12.13867 -1.7013,1.63733 -4.172,3.60667 -6.0133,5.92 -1.0187,1.268 -1.836,2.64266 -2.248,4.12133 -0.9027,1.86133 -0.9787,5.19333 -0.9787,5.19333 l 0.152,23.544 c -3.1333,-0.29066 -6.368,-0.57866 -9.5493,-0.49066 -3.3387,-0.0427 -6.728,0.304 -9.996,0.59333 v -21.60533 c -0.067,-1.86 -0.2707,-3.67334 -0.724,-5.41734 -0.069,-2.204 -1.1413,-4.18133 -2.556,-5.93999 -1.6093,-1.988 -3.6533,-3.70134 -5.184,-5.15467 z m 45.7867,50.088 c -0.01,-0.0147 -0.013,-0.0293 -0.023,-0.04 -0.021,-0.0533 -0.037,-0.10934 -0.073,-0.15867 -1.0654,-1.5 -2.348,-2.39067 -3.2214,-4.14 -0.7266,-1.472 -1.4013,-2.82133 -2.352,-4.11467 -1.64,-2.22 -4.1413,-2.868 -6.52,-3.13733 v -26.42533 c 3.336,-4.536 7.8987,-7.66533 9.712,-13.532 1.4027,-4.53067 1.532,-9.55067 -1.8706,-12.77467 -3.3134,-3.14266 -8.2907,-3.79333 -12.3387,-4.50266 -2.2707,-0.39867 -4.6747,-1.24 -6.7707,-2.36534 -1.008,-0.54533 -1.6933,-1.30533 -2.2946,-2.13866 -0.3667,-0.51334 -0.7134,-1.052 -1.0787,-1.59334 -0.2493,-0.36933 -0.5173,-0.736 -0.8053,-1.09466 -0.288,0.36133 -0.5547,0.732 -0.7974,1.108 -0.356,0.53866 -0.6933,1.07866 -1.0706,1.59333 -0.4734,0.644 -1.004,1.248 -1.716,1.75333 -2.1814,1.54134 -4.9187,2.11067 -7.368,2.73734 -4.1174,1.056 -8.8907,1.23866 -12.336,4.50266 -3.5507,3.364 -3.0214,8.08934 -1.868,12.77467 0.7466,3.024 2.3493,5.6 4.5106,7.372 2.1774,1.784 3.8774,3.79866 5.3747,6.16133 v 26.58 c -2.04,0.392 -3.8547,1.21467 -5.5907,2.98133 -1.0346,1.056 -1.7266,2.71467 -2.3613,4.11467 -0.8093,1.79333 -2.1547,2.64533 -3.216,4.14 -0.037,0.0493 -0.049,0.10533 -0.069,0.15867 -0.01,0.0107 -0.017,0.0253 -0.02,0.04 -0.037,0.068 -0.053,0.144 -0.065,0.22133 -0.011,0.052 -0.015,0.1 -0.015,0.15333 0,0.0493 0,0.0987 0.015,0.152 0.012,0.076 0.028,0.152 0.065,0.22134 0,0.0133 0.013,0.0253 0.02,0.04 0.02,0.052 0.032,0.10933 0.069,0.15866 1.0653,1.5 2.3533,2.388 3.216,4.13734 0.7347,1.47466 1.4093,2.82266 2.3613,4.116 1.4214,1.92933 3.5014,2.67066 5.5907,3.00666 v 23.48134 c -3.356,4.66133 -8.0387,7.79733 -9.8853,13.76266 -1.4014,4.53334 -1.528,9.552 1.868,12.77467 3.312,3.14267 8.2986,3.79333 12.336,4.50267 2.2773,0.4 4.6773,1.24133 6.7733,2.368 1.016,0.544 1.696,1.30666 2.2973,2.13733 0.3707,0.51467 0.7147,1.052 1.0814,1.592 0.2453,0.372 0.512,0.73733 0.808,1.09733 0.2866,-0.36266 0.544,-0.73333 0.7933,-1.10933 0.356,-0.53867 0.696,-1.07867 1.0733,-1.59467 0.4654,-0.644 0.9947,-1.25066 1.7094,-1.75066 2.184,-1.544 4.9226,-2.11067 7.3653,-2.74 4.124,-1.05467 8.8947,-1.236 12.3387,-4.50267 3.5533,-3.36267 3.028,-8.09067 1.8706,-12.77467 -0.7466,-3.02266 -2.348,-5.6 -4.5093,-7.372 -2.0947,-1.716 -3.7547,-3.65333 -5.2027,-5.90266 v -23.848 c 2.4254,-0.31067 4.528,-1.09734 6.52,-3.128 1.0334,-1.056 1.7227,-2.716 2.352,-4.116 0.8174,-1.79334 2.156,-2.644 3.2214,-4.13734 0.036,-0.0493 0.052,-0.10666 0.073,-0.15866 0.01,-0.0147 0.016,-0.0267 0.023,-0.04 0.032,-0.0733 0.055,-0.14534 0.063,-0.22134 0.01,-0.0533 0.013,-0.10266 0.013,-0.152 0,-0.0533 -0.01,-0.10133 -0.013,-0.15333 -0.013,-0.0773 -0.031,-0.15333 -0.063,-0.22133"
         style="fill:#b62323;fill-opacity:1;fill-rule:nonzero;stroke:none;stroke-width:0.133333" />
      <path
         id="path228"
         d="m 1240.7133,417.50802 c -0.9733,1.66133 -2.696,2.63333 -4.2933,3.41067 -0.284,0.14 -0.5654,0.276 -0.8387,0.404 -1.552,0.736 -3.1387,1.17466 -4.7467,1.43733 -1.5106,0.248 -3.044,0.34 -4.5813,0.35733 -4.9547,-0.412 -10.0373,0.36267 -14.96,-0.592 -0.9387,-0.18266 -1.872,-0.42533 -2.7933,-0.756 -1.0587,-0.376 -1.968,-0.85066 -2.7947,-1.408 -1.9,-1.27333 -3.3213,-3.024 -4.7893,-5.23866 1.448,0.0307 2.9146,-0.0853 4.3173,-0.0147 0.1547,0.009 0.3133,0.003 0.472,0.009 1.8547,0.0733 3.7227,0.0293 5.588,-0.0427 2.064,-0.0827 4.132,-0.19067 6.1907,-0.172 1.6453,0.012 3.2906,-0.0147 4.9373,-0.0493 0.5293,0.016 1.0547,0.02 1.584,0.0427 2.2533,0.096 4.5413,0.19733 6.8293,0.23467 1.8494,0.032 3.6907,0.0227 5.512,-0.0907 0.023,0 0.051,0 0.073,-0.003 1.8213,-0.10133 3.804,0.16134 5.728,0.11867 -0.5027,0.75867 -0.968,1.552 -1.4347,2.352 z m -1.5853,43.67467 c 4.968,4.712 5.808,10.17466 -0.6574,12.90266 -3.1,1.30534 -13.16,2.83867 -17.5066,7.164 -4.348,-4.33066 -14.3694,-5.96266 -17.4694,-7.164 -5.76,-2.22533 -6.2013,-7.57466 -1.4626,-12.13866 2.8173,-2.716 7.7533,-6.33467 8.46,-10.952 0.091,-0.56667 0.1066,-1.148 0.053,-1.748 l 0.748,-23.32 c 3.4187,0.312 6.9827,0.66933 10.4773,0.57466 3.024,0.0387 6.0867,-0.24266 9.064,-0.51066 l 0.588,23.148 c -0.064,0.63466 -0.043,1.256 0.052,1.86 0.668,4.25733 4.9574,7.62266 7.6534,10.184 z m -36.784,-51.564 c 0.7866,-1.33734 2.06,-2.22667 3.3613,-2.92934 0.6,-0.32533 1.2053,-0.612 1.7693,-0.88266 1.2507,-0.596 2.5254,-0.98934 3.8187,-1.26267 1.8107,-0.384 3.6533,-0.51333 5.512,-0.53467 4.6467,0.38667 9.3973,-0.26 14.0293,0.44267 1.2534,0.188 2.4934,0.468 3.724,0.908 0.68,0.23867 1.2814,0.52933 1.8614,0.844 1.8546,1.01067 3.2533,2.39867 4.5773,4.16667 -1.0707,0.0213 -2.1413,0.0707 -3.1667,0.0173 -0.472,-0.024 -0.9453,-0.0147 -1.4106,-0.024 -1.8614,-0.032 -3.7227,0.0187 -5.5854,0.0947 -1.7533,0.0747 -3.5106,0.14933 -5.2626,0.13733 -1.6467,-0.0107 -3.2934,0.012 -4.936,0.048 -0.5294,-0.0187 -1.0574,-0.02 -1.5827,-0.0427 -2.564,-0.10666 -5.1653,-0.22266 -7.76,-0.24133 -1.5373,-0.012 -3.0653,0.001 -4.5787,0.0933 -0.3346,0.0227 -0.668,0.0293 -1.0093,0.0293 -1.2293,-0.004 -2.512,-0.112 -3.7853,-0.14134 0.1386,-0.24133 0.2813,-0.47866 0.424,-0.72266 z m 0.4826,-46.516 c -4.96,-4.71067 -5.8093,-10.17467 0.668,-12.90267 3.088,-1.304 13.1507,-2.84 17.4947,-7.16266 4.348,4.32933 14.3693,5.96 17.4813,7.16266 5.7547,2.228 6.1907,7.57467 1.4494,12.13867 -1.696,1.63733 -4.1667,3.60667 -6.0134,5.92 -1.0106,1.268 -1.828,2.64266 -2.2453,4.12133 -0.9027,1.86133 -0.98,5.19333 -0.98,5.19333 l 0.1533,23.544 c -3.1333,-0.29066 -6.3693,-0.57866 -9.5466,-0.49066 -3.34,-0.0427 -6.728,0.304 -9.9947,0.59333 v -21.60533 c -0.067,-1.86 -0.2747,-3.67334 -0.728,-5.41734 -0.065,-2.204 -1.1373,-4.18133 -2.5613,-5.93999 -1.604,-1.988 -3.6467,-3.70134 -5.1774,-5.15467 z m 45.7814,50.088 c -0.01,-0.0147 -0.013,-0.0293 -0.016,-0.04 -0.023,-0.0533 -0.04,-0.10934 -0.075,-0.15867 -1.0653,-1.5 -2.3507,-2.39067 -3.2173,-4.14 -0.7347,-1.472 -1.4054,-2.82133 -2.3574,-4.11467 -1.636,-2.22 -4.136,-2.868 -6.5226,-3.13733 v -26.42533 c 3.3386,-4.536 7.8973,-7.66533 9.7133,-13.532 1.404,-4.53067 1.54,-9.55067 -1.8653,-12.77467 -3.32,-3.14266 -8.3014,-3.79333 -12.3387,-4.50266 -2.2747,-0.39867 -4.68,-1.24 -6.7707,-2.36534 -1.0093,-0.54533 -1.692,-1.30533 -2.2973,-2.13866 -0.3707,-0.51334 -0.7147,-1.052 -1.0773,-1.59334 -0.2494,-0.36933 -0.516,-0.736 -0.8067,-1.09466 -0.288,0.36133 -0.5533,0.732 -0.8013,1.108 -0.3574,0.53866 -0.6974,1.07866 -1.0707,1.59333 -0.4653,0.644 -0.9987,1.248 -1.7093,1.75333 -2.192,1.54134 -4.9214,2.11067 -7.368,2.73734 -4.116,1.056 -8.8974,1.23866 -12.3387,4.50266 -3.5547,3.364 -3.0267,8.08934 -1.8653,12.77467 0.744,3.024 2.348,5.6 4.5093,7.372 2.176,1.784 3.88,3.79866 5.372,6.16133 v 26.58 c -2.0427,0.392 -3.8547,1.21467 -5.5867,2.98133 -1.032,1.056 -1.728,2.71467 -2.3613,4.11467 -0.8093,1.79333 -2.1547,2.64533 -3.216,4.14 -0.036,0.0493 -0.052,0.10533 -0.075,0.15867 -0.01,0.0107 -0.015,0.0253 -0.019,0.04 -0.039,0.068 -0.055,0.144 -0.067,0.22133 -0.01,0.052 -0.012,0.1 -0.012,0.15333 0,0.0493 0.01,0.0987 0.012,0.152 0.012,0.076 0.028,0.152 0.067,0.22134 0,0.0133 0.011,0.0253 0.019,0.04 0.023,0.052 0.039,0.10933 0.075,0.15866 1.0653,1.5 2.3507,2.388 3.216,4.13734 0.7347,1.47466 1.4067,2.82266 2.3613,4.116 1.4187,1.92933 3.5014,2.67066 5.5867,3.00666 v 23.48134 c -3.3547,4.66133 -8.036,7.79733 -9.8813,13.76266 -1.408,4.53334 -1.5374,9.552 1.8653,12.77467 3.3147,3.14267 8.2947,3.79333 12.3387,4.50267 2.2706,0.4 4.676,1.24133 6.7693,2.368 1.0147,0.544 1.6987,1.30666 2.2947,2.13733 0.3773,0.51467 0.72,1.052 1.084,1.592 0.244,0.372 0.5133,0.73733 0.8013,1.09733 0.2907,-0.36266 0.552,-0.73333 0.7987,-1.10933 0.3586,-0.53867 0.6986,-1.07867 1.072,-1.59467 0.472,-0.644 0.9986,-1.25066 1.712,-1.75066 2.1893,-1.544 4.9186,-2.11067 7.3693,-2.74 4.12,-1.05467 8.8933,-1.236 12.3387,-4.50267 3.5506,-3.36267 3.0253,-8.09067 1.8653,-12.77467 -0.744,-3.02266 -2.352,-5.6 -4.5107,-7.372 -2.092,-1.716 -3.7533,-3.65333 -5.2026,-5.90266 v -23.848 c 2.436,-0.31067 4.528,-1.09734 6.5226,-3.128 1.028,-1.056 1.7254,-2.716 2.3574,-4.116 0.8093,-1.79334 2.156,-2.644 3.2173,-4.13734 0.035,-0.0493 0.052,-0.10666 0.075,-0.15866 0,-0.0147 0.011,-0.0267 0.016,-0.04 0.035,-0.0733 0.057,-0.14534 0.067,-0.22134 0.01,-0.0533 0.015,-0.10266 0.015,-0.152 0,-0.0533 -0.01,-0.10133 -0.015,-0.15333 -0.01,-0.0773 -0.029,-0.15333 -0.067,-0.22133"
         style="fill:#276952;fill-opacity:1;fill-rule:nonzero;stroke:none;stroke-width:0.133333" />
    </g>
  </g>
</svg>
