<?xml version="1.0" encoding="UTF-8" standalone="no"?>
<!-- Created with Inkscape (http://www.inkscape.org/) -->

<svg
   version="1.1"
   id="svg1"
   width="337"
   height="500"
   viewBox="0 0 337.00001 499.99999"
   xmlns="http://www.w3.org/2000/svg"
   xmlns:svg="http://www.w3.org/2000/svg">
  <defs
     id="defs1" />
  <g
     id="g1"
     transform="translate(-346.99999)">
    <g
       id="g244"
       transform="matrix(0.98461379,0,0,0.98461379,161.41867,-0.00659455)">
      <path
         id="path36"
         d="m 523.63199,450.27069 c -0.0493,28.04666 -22.72934,50.72533 -50.77867,50.77866 H 246.02666 c -28.04533,-0.0533 -50.72533,-22.732 -50.77466,-50.77866 V 57.562696 C 195.30133,29.51603 217.98133,6.8293641 246.02666,6.7760308 h 226.82666 c 28.04933,0.053333 50.72933,22.7399992 50.77867,50.7866652 l 0.009,392.707994 z m 6.77066,0 V 57.562696 c 0,-31.793332 -25.764,-57.5559984 -57.54933,-57.5559984 H 246.02666 c -31.78133,0 -57.54533,25.7626664 -57.54533,57.5559984 V 450.27069 c 0,31.784 25.764,57.54933 57.54533,57.54933 h 226.82666 c 31.78533,0 57.54933,-25.76533 57.56,-57.54933 h -0.0107"
         style="fill:#211d1d;fill-opacity:1;fill-rule:nonzero;stroke:none;stroke-width:0.133333" />
      <path
         id="path37"
         d="m 228.40133,95.720029 c -1.52667,-2.838667 -1.08,-6.598667 0.77466,-9.728 2.00667,-3.388 6.52934,-6.378667 10.192,-7.856 4.06667,-1.636 5.88267,-1.777333 5.86534,-1.824 0.0267,0.028 -1.37467,1.144 -4.648,3.534667 -11.12134,7.695999 -7.948,19.761332 8.12666,13.043999 3.64267,-1.770666 5.352,-2.366666 5.352,-2.356 -0.0227,-0.01333 -1.08133,1.42 -4.44666,4.250667 -13.796,10.879998 -20.42534,2.405333 -21.216,0.934667 z m 0.0147,-39.474666 c 1.696,-2.745333 5.17334,-4.237333 8.80934,-4.196 3.94266,0.04533 8.792,2.465333 11.90266,4.902667 3.452,2.698666 4.48,4.199999 4.50934,4.161333 -0.0133,0.03867 -1.68,-0.616 -5.38267,-2.257334 -12.22533,-5.783999 -21.092,2.998667 -7.23333,13.565333 3.352,2.262667 4.724,3.448 4.71066,3.452 0.004,-0.024 -1.768,-0.226666 -5.90133,-1.725333 -16.32133,-6.506666 -12.292,-16.484 -11.41467,-17.902666 z m 34.19467,-19.728 c 3.22,0.09467 6.25467,2.365334 8.036,5.533334 1.932,3.435999 2.25867,8.845333 1.70667,12.757333 -0.61467,4.338666 -1.39867,5.982666 -1.352,5.990666 -0.04,0.0067 -0.304,-1.766667 -0.73467,-5.796 -1.104,-13.478666 -13.14133,-16.762666 -15.36267,0.518667 -0.288,4.034666 -0.628,5.816 -0.63866,5.808 0.0267,-0.008 -0.68667,-1.644 -1.45467,-5.972 -2.52533,-17.390666 8.12933,-18.892 9.8,-18.84 z m 12.96533,20.684 c 13.79334,-10.884 20.42534,-2.406667 21.216,-0.936 1.52667,2.84 1.08134,6.601333 -0.77733,9.729333 -2.00933,3.388 -6.52933,6.378666 -10.192,7.856 -4.064,1.638666 -5.87867,1.776 -5.86133,1.822666 -0.028,-0.028 1.37466,-1.141333 4.644,-3.534666 11.12533,-7.696 7.952,-19.761333 -8.12934,-13.042667 -3.63733,1.769334 -5.34933,2.365334 -5.34666,2.352 0.0173,0.01867 1.08133,-1.416 4.44666,-4.246666 z m 21.2,38.539999 c -1.69333,2.742666 -5.17466,4.237333 -8.81066,4.194666 -3.93734,-0.04533 -8.792,-2.466666 -11.9,-4.901333 -3.45067,-2.7 -4.48,-4.201333 -4.512,-4.166666 0.0133,-0.03467 1.68,0.622666 5.38533,2.261333 12.22667,5.785333 21.08667,-2.996 7.23333,-13.564 -3.352,-2.265333 -4.72666,-3.448 -4.71466,-3.453333 -0.003,0.024 1.76933,0.222667 5.90266,1.724 16.32134,6.508 12.29467,16.486666 11.416,17.905333 z m -48.412,-19.750666 c 0.004,-1.516 0.24134,-2.973334 0.68534,-4.342667 -0.77334,2.404 -7.82934,-7.254666 -8.07467,-8.172 0.0853,0.326667 10.17333,2.2 11.25067,2.782667 0.516,-0.537333 6.884,-4.537333 6.9,-4.050667 0,-0.02533 -0.016,-0.04533 -0.016,-0.07467 -0.0733,-1.974667 0.112,-8.026667 1.81466,-10.358667 1.00534,-1.378666 3.53467,8.234667 3.51067,10.126667 3.61067,0.469333 6.79733,2.281333 9.036,4.933333 0.99867,-0.756 1.88133,-0.890667 3.11733,-1.237333 0.50534,-0.144 8.63867,-2.761334 8.272,-2.249334 -0.69333,0.950667 -1.56666,1.748 -2.46266,2.542667 -2.648,2.34 -6.41067,5.290666 -6.50667,5.081333 0.588,1.562667 0.92933,3.249333 0.92933,5.018667 0,1.454666 -0.22533,2.853333 -0.62533,4.174666 0.344,0.146667 0.688,0.354667 1.02533,0.681334 1.47067,1.429333 2.916,2.873333 4.38,4.309333 1.088,1.072 1.71334,2.778666 3.08534,3.46 0.68,0.333333 0.0787,1.381333 -0.59334,1.02 -3.12666,-1.690667 -7.31866,-2.6 -10.476,-4.118667 -0.11466,-0.05467 -0.20133,-0.129333 -0.308,-0.190667 -2.21866,2.545334 -5.31866,4.286667 -8.836,4.752 0.53467,1.414667 -2.58933,9.478667 -2.12666,11.172009 -1.428,-2.497342 -3.11334,-9.912009 -2.48267,-11.297342 -2.952,-0.58 -5.568,-2.069333 -7.564,-4.164 -0.39733,-0.418667 -10.78133,4.668 -10.78133,4.668 0,0 5.86133,-8.234666 7.524,-9.24 0.0933,-0.05733 0.18933,-0.09067 0.28133,-0.133333 -0.61067,-1.585333 -0.95467,-3.297333 -0.95867,-5.093333 z m 14.22,39.478664 c -3.22666,-0.096 -6.25466,-2.364 -8.04133,-5.53333 -1.92667,-3.436 -2.25733,-8.848 -1.70267,-12.757335 0.616,-4.336 1.4,-5.98 1.35334,-5.990666 0.032,-0.0053 0.304,1.765333 0.73333,5.794666 1.104,13.479995 13.14133,16.763995 15.36267,-0.516 0.28933,-4.038666 0.62533,-5.82 0.632,-5.810666 -0.02,0.0093 0.69466,1.642666 1.45866,5.973333 2.52934,17.389328 -8.12666,18.890668 -9.796,18.839998 z m 0.0133,2.472 c 23.16533,-0.0413 41.90133,-18.785332 41.94,-41.951998 -0.0387,-23.165332 -18.77467,-41.902665 -41.94,-41.943999 -23.16534,0.04133 -41.908,18.778667 -41.948,41.943999 0.04,23.166666 18.78266,41.910668 41.948,41.951998"
         style="fill:#276952;fill-opacity:1;fill-rule:nonzero;stroke:none;stroke-width:0.133333" />
      <path
         id="path38"
         d="m 262.59733,27.481364 c 26.78933,0 48.51066,21.718666 48.516,48.507998 -0.005,26.797338 -21.72667,48.515998 -48.516,48.515998 -26.8,0 -48.51067,-21.71866 -48.51734,-48.515998 0,-26.789332 21.71734,-48.507998 48.51734,-48.507998 z m 0,105.413326 c 31.424,0 56.89733,-25.47466 56.89733,-56.899994 0,-31.425333 -25.47333,-56.901332 -56.89733,-56.901332 -31.42534,0 -56.90134,25.475999 -56.90134,56.901332 0,31.425334 25.476,56.899994 56.90134,56.899994"
         style="fill:#276952;fill-opacity:1;fill-rule:nonzero;stroke:none;stroke-width:0.133333" />
      <path
         id="path39"
         d="m 262.59333,85.838695 c 5.436,-0.0067 9.84266,-4.411999 9.84533,-9.847999 -0.003,-5.436 -4.40933,-9.833333 -9.84533,-9.846667 -5.43467,0.01333 -9.83867,4.410667 -9.84534,9.846667 0.007,5.436 4.41067,9.841333 9.84534,9.847999"
         style="fill:#276952;fill-opacity:1;fill-rule:nonzero;stroke:none;stroke-width:0.133333" />
      <path
         id="path40"
         d="m 254.26533,61.329363 c 0.0107,0.008 0.35066,-1.773334 0.63866,-5.808 2.22134,-17.281333 14.25867,-13.997333 15.36267,-0.518667 0.43067,4.029333 0.69467,5.802667 0.73467,5.796 -0.0467,-0.008 0.73733,-1.652 1.352,-5.990666 0.552,-3.912 0.22533,-9.321334 -1.70667,-12.757333 -1.78133,-3.168 -4.816,-5.438667 -8.036,-5.533334 -1.67067,-0.052 -12.32533,1.449334 -9.8,18.84 0.768,4.328 1.48133,5.964 1.45467,5.972"
         style="fill:#ffffff;fill-opacity:1;fill-rule:nonzero;stroke:none;stroke-width:0.133333" />
      <path
         id="path41"
         d="m 239.83066,74.148029 c 4.13333,1.498667 5.90533,1.701333 5.90133,1.725333 0.0133,-0.004 -1.35866,-1.189333 -4.71066,-3.452 -13.85867,-10.566666 -4.992,-19.349332 7.23333,-13.565333 3.70267,1.641334 5.36933,2.296 5.38267,2.257334 -0.0293,0.03867 -1.05734,-1.462667 -4.50934,-4.161333 -3.11066,-2.437334 -7.96,-4.857334 -11.90266,-4.902667 -3.636,-0.04133 -7.11334,1.450667 -8.80934,4.196 -0.87733,1.418666 -4.90666,11.396 11.41467,17.902666"
         style="fill:#ffffff;fill-opacity:1;fill-rule:nonzero;stroke:none;stroke-width:0.133333" />
      <path
         id="path42"
         d="m 249.61733,94.785362 c 3.36533,-2.830667 4.424,-4.264 4.44666,-4.250667 0,-0.01067 -1.70933,0.585334 -5.352,2.356 -16.07466,6.717333 -19.248,-5.348 -8.12666,-13.043999 3.27333,-2.390667 4.67466,-3.506667 4.648,-3.534667 0.0173,0.04667 -1.79867,0.188 -5.86534,1.824 -3.66266,1.477333 -8.18533,4.468 -10.192,7.856 -1.85466,3.129333 -2.30133,6.889333 -0.77466,9.728 0.79066,1.470666 7.42,9.945331 21.216,-0.934667"
         style="fill:#ffffff;fill-opacity:1;fill-rule:nonzero;stroke:none;stroke-width:0.133333" />
      <path
         id="path43"
         d="m 270.92133,90.656029 c -0.007,-0.0093 -0.34267,1.772 -0.632,5.810666 -2.22134,17.279995 -14.25867,13.995995 -15.36267,0.516 -0.42933,-4.029333 -0.70133,-5.8 -0.73333,-5.794666 0.0467,0.01067 -0.73734,1.654666 -1.35334,5.990666 -0.55466,3.909335 -0.224,9.321335 1.70267,12.757335 1.78667,3.16933 4.81467,5.43733 8.04133,5.53333 1.66934,0.0507 12.32534,-1.45067 9.796,-18.839998 -0.764,-4.330667 -1.47866,-5.964 -1.45866,-5.973333"
         style="fill:#ffffff;fill-opacity:1;fill-rule:nonzero;stroke:none;stroke-width:0.133333" />
      <path
         id="path44"
         d="m 285.35999,77.836029 c -4.13333,-1.501333 -5.90533,-1.7 -5.90266,-1.724 -0.012,0.0053 1.36266,1.188 4.71466,3.453333 13.85334,10.568 4.99334,19.349333 -7.23333,13.564 -3.70533,-1.638667 -5.372,-2.296 -5.38533,-2.261333 0.032,-0.03467 1.06133,1.466666 4.512,4.166666 3.108,2.434667 7.96266,4.856 11.9,4.901333 3.636,0.04267 7.11733,-1.452 8.81066,-4.194666 0.87867,-1.418667 4.90534,-11.397333 -11.416,-17.905333"
         style="fill:#ffffff;fill-opacity:1;fill-rule:nonzero;stroke:none;stroke-width:0.133333" />
      <path
         id="path45"
         d="m 276.47599,59.096029 c 16.08134,-6.718666 19.25467,5.346667 8.12934,13.042667 -3.26934,2.393333 -4.672,3.506666 -4.644,3.534666 -0.0173,-0.04667 1.79733,-0.184 5.86133,-1.822666 3.66267,-1.477334 8.18267,-4.468 10.192,-7.856 1.85867,-3.128 2.304,-6.889333 0.77733,-9.729333 -0.79066,-1.470667 -7.42266,-9.948 -21.216,0.936 -3.36533,2.830666 -4.42933,4.265333 -4.44666,4.246666 -0.003,0.01333 1.70933,-0.582666 5.34666,-2.352"
         style="fill:#ffffff;fill-opacity:1;fill-rule:nonzero;stroke:none;stroke-width:0.133333" />
      <path
         id="path46"
         d="m 262.59333,66.144029 c 5.436,0.01333 9.84266,4.410667 9.84533,9.846667 -0.003,5.436 -4.40933,9.841333 -9.84533,9.847999 -5.43467,-0.0067 -9.83867,-4.411999 -9.84534,-9.847999 0.007,-5.436 4.41067,-9.833333 9.84534,-9.846667 z m -21.076,24.313333 c 0,0 10.384,-5.086667 10.78133,-4.668 1.996,2.094667 4.612,3.584 7.564,4.164 -0.63067,1.385333 1.05467,8.8 2.48267,11.297338 -0.46267,-1.693338 2.66133,-9.757338 2.12666,-11.172005 3.51734,-0.465333 6.61734,-2.206666 8.836,-4.752 0.10667,0.06133 0.19334,0.136 0.308,0.190667 3.15734,1.518667 7.34934,2.428 10.476,4.118667 0.672,0.361333 1.27334,-0.686667 0.59334,-1.02 -1.372,-0.681334 -1.99734,-2.388 -3.08534,-3.46 -1.464,-1.436 -2.90933,-2.88 -4.38,-4.309333 -0.33733,-0.326667 -0.68133,-0.534667 -1.02533,-0.681334 0.4,-1.321333 0.62533,-2.72 0.62533,-4.174666 0,-1.769334 -0.34133,-3.456 -0.92933,-5.018667 0.096,0.209333 3.85867,-2.741333 6.50667,-5.081333 0.896,-0.794667 1.76933,-1.592 2.46266,-2.542667 0.36667,-0.512 -7.76666,2.105334 -8.272,2.249334 -1.236,0.346666 -2.11866,0.481333 -3.11733,1.237333 -2.23867,-2.652 -5.42533,-4.464 -9.036,-4.933333 0.024,-1.892 -2.50533,-11.505333 -3.51067,-10.126667 -1.70266,2.332 -1.888,8.384 -1.81466,10.358667 0,0.02933 0.016,0.04933 0.016,0.07467 -0.016,-0.486666 -6.384,3.513334 -6.9,4.050667 -1.07734,-0.582667 -11.16534,-2.456 -11.25067,-2.782667 0.24533,0.917334 7.30133,10.576 8.07467,8.172 -0.444,1.369333 -0.68134,2.826667 -0.68534,4.342667 0.004,1.796 0.348,3.508 0.95867,5.093333 -0.092,0.04267 -0.188,0.076 -0.28133,0.133333 -1.66267,1.005334 -7.524,9.24 -7.524,9.24"
         style="fill:#ffffff;fill-opacity:1;fill-rule:nonzero;stroke:none;stroke-width:0.133333" />
      <path
         id="path47"
         d="m 262.59733,34.045363 c 23.16533,0.04133 41.90133,18.778667 41.94,41.943999 -0.0387,23.166666 -18.77467,41.910668 -41.94,41.951998 -23.16534,-0.0413 -41.908,-18.785332 -41.948,-41.951998 0.04,-23.165332 18.78266,-41.902665 41.948,-41.943999 z m 0,90.459997 c 26.78933,0 48.51066,-21.71866 48.516,-48.515998 -0.005,-26.789332 -21.72667,-48.507998 -48.516,-48.507998 -26.8,0 -48.51734,21.718666 -48.51734,48.507998 0.007,26.797338 21.71734,48.515998 48.51734,48.515998"
         style="fill:#ffffff;fill-opacity:1;fill-rule:nonzero;stroke:none;stroke-width:0.133333" />
      <path
         id="path48"
         d="m 339.31732,114.64269 c 3.93734,0.0453 8.788,2.46667 11.9,4.90134 3.448,2.70133 4.47867,4.20666 4.512,4.16533 -0.0133,0.0387 -1.68266,-0.61867 -5.38933,-2.25867 -12.21867,-5.78266 -21.08666,2.99867 -7.23067,13.564 3.356,2.26534 4.72534,3.448 4.712,3.45334 0.007,-0.024 -1.76533,-0.22667 -5.89866,-1.72534 -16.32533,-6.50666 -12.29467,-16.48533 -11.41867,-17.904 1.696,-2.74533 5.17467,-4.23733 8.81333,-4.196 z m 25.38134,-15.531995 c 3.22266,0.096 6.25466,2.364005 8.03733,5.534665 1.93067,3.43333 2.26133,8.844 1.70533,12.756 -0.61066,4.33867 -1.39866,5.98267 -1.34933,5.99067 -0.0387,0.009 -0.30267,-1.76534 -0.74,-5.79467 -1.1,-13.48 -13.13867,-16.76266 -15.36,0.52 -0.284,4.03333 -0.62533,5.81467 -0.63467,5.80533 0.02,-0.008 -0.688,-1.64266 -1.45866,-5.972 -2.52534,-17.38933 8.13066,-18.890662 9.8,-18.839995 z m 12.964,20.685335 c 13.79866,-10.88267 20.428,-2.40667 21.21733,-0.936 1.528,2.84133 1.08133,6.6 -0.77333,9.72933 -2.01067,3.38667 -6.53334,6.37733 -10.196,7.85467 -4.064,1.63733 -5.87867,1.77866 -5.86134,1.824 -0.0267,-0.028 1.37467,-1.144 4.64534,-3.53467 11.124,-7.69333 7.95066,-19.76133 -8.12667,-13.04533 -3.63733,1.77333 -5.34933,2.36666 -5.34933,2.35333 0.02,0.0173 1.07733,-1.41733 4.444,-4.24533 z m 21.204,38.54133 c -1.696,2.74133 -5.17334,4.236 -8.81067,4.19467 -3.94133,-0.0467 -8.79067,-2.46934 -11.90133,-4.90134 -3.448,-2.7 -4.48,-4.204 -4.51334,-4.16666 0.0133,-0.036 1.68267,0.62133 5.38667,2.25866 12.228,5.78534 21.088,-2.99733 7.232,-13.56133 -3.35467,-2.26667 -4.724,-3.45067 -4.71333,-3.45733 -0.004,0.0253 1.768,0.22666 5.904,1.728 16.32266,6.50666 12.296,16.484 11.416,17.90533 z m -34.19467,19.72533 c -3.224,-0.0947 -6.25467,-2.36133 -8.03733,-5.53333 -1.93067,-3.43333 -2.25734,-8.84667 -1.70534,-12.75467 0.612,-4.34 1.40267,-5.98266 1.352,-5.99066 0.036,-0.007 0.30134,1.76266 0.73734,5.79333 1.10133,13.48 13.13866,16.764 15.36,-0.51867 0.284,-4.03733 0.62533,-5.81733 0.63466,-5.80933 -0.02,0.009 0.688,1.64533 1.45467,5.97467 2.52933,17.388 -8.12667,18.89066 -9.796,18.83866 z m -14.21867,-39.47733 c 0.003,-1.516 0.244,-2.97333 0.684,-4.344 -0.77066,2.40533 -7.82533,-7.25333 -8.07333,-8.17067 0.088,0.32534 10.172,2.19867 11.25067,2.78134 0.51866,-0.53867 6.88266,-4.53867 6.9,-4.04934 0,-0.028 -0.0173,-0.0467 -0.0173,-0.076 -0.072,-1.97333 0.112,-8.024 1.81467,-10.35866 1.00533,-1.37867 3.53467,8.23466 3.51467,10.12666 3.61066,0.468 6.79733,2.28134 9.032,4.93467 0.99866,-0.75733 1.88133,-0.88933 3.12133,-1.24 0.50533,-0.14133 8.636,-2.75733 8.26533,-2.25067 -0.688,0.95067 -1.56,1.752 -2.46,2.54667 -2.64533,2.33867 -6.41066,5.292 -6.50666,5.08133 0.592,1.56134 0.92533,3.248 0.92533,5.01867 0,1.45467 -0.21733,2.85333 -0.62133,4.17467 0.344,0.14533 0.688,0.35333 1.02533,0.67866 1.472,1.432 2.916,2.872 4.38133,4.31334 1.09067,1.07333 1.716,2.77733 3.084,3.456 0.684,0.33733 0.08,1.384 -0.592,1.02 -3.124,-1.688 -7.32,-2.596 -10.47733,-4.11734 -0.116,-0.0547 -0.20133,-0.12666 -0.304,-0.19066 -2.22133,2.54533 -5.32267,4.288 -8.84,4.75333 0.53467,1.416 -2.58533,9.47733 -2.12533,11.17067 -1.42934,-2.496 -3.11467,-9.912 -2.484,-11.29867 -2.948,-0.57867 -5.56667,-2.068 -7.564,-4.16 -0.396,-0.42 -10.77734,4.66667 -10.77734,4.66667 0,0 5.85867,-8.236 7.524,-9.24134 0.0893,-0.056 0.18534,-0.0907 0.27867,-0.13333 -0.608,-1.584 -0.956,-3.29467 -0.95867,-5.092 z m 1.256,18.79467 c -13.796,10.87866 -20.42533,2.40533 -21.21866,0.93333 -1.528,-2.83867 -1.08133,-6.596 0.77333,-9.72667 2.01067,-3.38933 6.53333,-6.38133 10.196,-7.85733 4.064,-1.636 5.87733,-1.77733 5.86133,-1.82267 0.0267,0.028 -1.37466,1.14534 -4.644,3.53334 -11.12533,7.696 -7.952,19.764 8.12667,13.04666 3.64,-1.772 5.348,-2.36933 5.348,-2.356 -0.0187,-0.0147 -1.07733,1.42 -4.44267,4.24934 z m 12.98,23.15333 c 23.16134,-0.04 41.89734,-18.784 41.94,-41.948 -0.0427,-23.16533 -18.77866,-41.903998 -41.94,-41.943998 -23.16933,0.04 -41.91466,18.778668 -41.95466,41.943998 0.04,23.164 18.78533,41.908 41.95466,41.948"
         style="fill:#276952;fill-opacity:1;fill-rule:nonzero;stroke:none;stroke-width:0.133333" />
      <path
         id="path49"
         d="m 364.68932,90.076029 c 26.788,0 48.50667,21.717331 48.50934,48.509331 -0.003,26.796 -21.72134,48.51333 -48.50934,48.51333 -26.8,0 -48.51466,-21.71733 -48.51733,-48.51333 0,-26.792 21.71733,-48.509331 48.51733,-48.509331 z m 0,105.412001 c 31.424,0 56.89334,-25.47467 56.89334,-56.90134 0,-31.42533 -25.46934,-56.898661 -56.89334,-56.898661 -31.42799,0 -56.90533,25.473331 -56.90533,56.898661 0,31.42667 25.47734,56.90134 56.90533,56.90134"
         style="fill:#276952;fill-opacity:1;fill-rule:nonzero;stroke:none;stroke-width:0.133333" />
      <path
         id="path50"
         d="m 364.68132,148.43336 c 5.436,-0.008 9.84667,-4.41067 9.84667,-9.848 0,-5.43733 -4.41067,-9.83333 -9.84667,-9.84667 -5.43466,0.0133 -9.83866,4.40934 -9.84133,9.84667 0.003,5.43733 4.40667,9.84 9.84133,9.848"
         style="fill:#276952;fill-opacity:1;fill-rule:nonzero;stroke:none;stroke-width:0.133333" />
      <path
         id="path51"
         d="m 356.35732,123.92269 c 0.009,0.009 0.35067,-1.772 0.63467,-5.80533 2.22133,-17.28266 14.26,-14 15.36,-0.52 0.43733,4.02933 0.70133,5.804 0.74,5.79467 -0.0493,-0.008 0.73867,-1.652 1.34933,-5.99067 0.556,-3.912 0.22534,-9.32267 -1.70533,-12.756 -1.78267,-3.17066 -4.81467,-5.438665 -8.03733,-5.534665 -1.66934,-0.05067 -12.32534,1.450665 -9.8,18.839995 0.77066,4.32934 1.47866,5.964 1.45866,5.972"
         style="fill:#ffffff;fill-opacity:1;fill-rule:nonzero;stroke:none;stroke-width:0.133333" />
      <path
         id="path52"
         d="m 341.92266,136.74269 c 4.13333,1.49867 5.90533,1.70134 5.89866,1.72534 0.0133,-0.005 -1.356,-1.188 -4.712,-3.45334 -13.85599,-10.56533 -4.988,-19.34666 7.23067,-13.564 3.70667,1.64 5.376,2.29734 5.38933,2.25867 -0.0333,0.0413 -1.064,-1.464 -4.512,-4.16533 -3.112,-2.43467 -7.96266,-4.856 -11.9,-4.90134 -3.63866,-0.0413 -7.11733,1.45067 -8.81333,4.196 -0.876,1.41867 -4.90666,11.39734 11.41867,17.904"
         style="fill:#ffffff;fill-opacity:1;fill-rule:nonzero;stroke:none;stroke-width:0.133333" />
      <path
         id="path53"
         d="m 350.80399,155.48669 c -16.07867,6.71734 -19.252,-5.35066 -8.12667,-13.04666 3.26934,-2.388 4.67067,-3.50534 4.644,-3.53334 0.016,0.0453 -1.79733,0.18667 -5.86133,1.82267 -3.66267,1.476 -8.18533,4.468 -10.196,7.85733 -1.85466,3.13067 -2.30133,6.888 -0.77333,9.72667 0.79333,1.472 7.42266,9.94533 21.21866,-0.93333 3.36534,-2.82934 4.424,-4.264 4.44267,-4.24934 0,-0.0133 -1.708,0.584 -5.348,2.356"
         style="fill:#ffffff;fill-opacity:1;fill-rule:nonzero;stroke:none;stroke-width:0.133333" />
      <path
         id="path54"
         d="m 373.01332,153.24936 c -0.009,-0.008 -0.35066,1.772 -0.63466,5.80933 -2.22134,17.28267 -14.25867,13.99867 -15.36,0.51867 -0.436,-4.03067 -0.70134,-5.8 -0.73734,-5.79333 0.0507,0.008 -0.74,1.65066 -1.352,5.99066 -0.552,3.908 -0.22533,9.32134 1.70534,12.75467 1.78266,3.172 4.81333,5.43867 8.03733,5.53333 1.66933,0.052 12.32533,-1.45066 9.796,-18.83866 -0.76667,-4.32934 -1.47467,-5.96534 -1.45467,-5.97467"
         style="fill:#ffffff;fill-opacity:1;fill-rule:nonzero;stroke:none;stroke-width:0.133333" />
      <path
         id="path55"
         d="m 387.45066,140.43203 c -4.136,-1.50134 -5.908,-1.70267 -5.904,-1.728 -0.0107,0.007 1.35866,1.19066 4.71333,3.45733 13.856,10.564 4.996,19.34667 -7.232,13.56133 -3.704,-1.63733 -5.37333,-2.29466 -5.38667,-2.25866 0.0333,-0.0373 1.06534,1.46666 4.51334,4.16666 3.11066,2.432 7.96,4.85467 11.90133,4.90134 3.63733,0.0413 7.11467,-1.45334 8.81067,-4.19467 0.88,-1.42133 4.90666,-11.39867 -11.416,-17.90533"
         style="fill:#ffffff;fill-opacity:1;fill-rule:nonzero;stroke:none;stroke-width:0.133333" />
      <path
         id="path56"
         d="m 378.56799,121.68803 c 16.07733,-6.716 19.25067,5.352 8.12667,13.04533 -3.27067,2.39067 -4.672,3.50667 -4.64534,3.53467 -0.0173,-0.0453 1.79734,-0.18667 5.86134,-1.824 3.66266,-1.47734 8.18533,-4.468 10.196,-7.85467 1.85466,-3.12933 2.30133,-6.888 0.77333,-9.72933 -0.78933,-1.47067 -7.41867,-9.94667 -21.21733,0.936 -3.36667,2.828 -4.424,4.26266 -4.444,4.24533 0,0.0133 1.712,-0.58 5.34933,-2.35333"
         style="fill:#ffffff;fill-opacity:1;fill-rule:nonzero;stroke:none;stroke-width:0.133333" />
      <path
         id="path57"
         d="m 364.68132,128.73869 c 5.436,0.0133 9.84667,4.40934 9.84667,9.84667 0,5.43733 -4.41067,9.84 -9.84667,9.848 -5.43466,-0.008 -9.83866,-4.41067 -9.84133,-9.848 0.003,-5.43733 4.40667,-9.83333 9.84133,-9.84667 z m -21.072,24.31334 c 0,0 10.38134,-5.08667 10.77734,-4.66667 1.99733,2.092 4.616,3.58133 7.564,4.16 -0.63067,1.38667 1.05466,8.80267 2.484,11.29867 -0.46,-1.69334 2.66,-9.75467 2.12533,-11.17067 3.51733,-0.46533 6.61867,-2.208 8.84,-4.75333 0.10267,0.064 0.188,0.136 0.304,0.19066 3.15733,1.52134 7.35333,2.42934 10.47733,4.11734 0.672,0.364 1.276,-0.68267 0.592,-1.02 -1.368,-0.67867 -1.99333,-2.38267 -3.084,-3.456 -1.46533,-1.44134 -2.90933,-2.88134 -4.38133,-4.31334 -0.33733,-0.32533 -0.68133,-0.53333 -1.02533,-0.67866 0.404,-1.32134 0.62133,-2.72 0.62133,-4.17467 0,-1.77067 -0.33333,-3.45733 -0.92533,-5.01867 0.096,0.21067 3.86133,-2.74266 6.50666,-5.08133 0.9,-0.79467 1.772,-1.596 2.46,-2.54667 0.37067,-0.50666 -7.76,2.10934 -8.26533,2.25067 -1.24,0.35067 -2.12267,0.48267 -3.12133,1.24 -2.23467,-2.65333 -5.42134,-4.46667 -9.032,-4.93467 0.02,-1.892 -2.50934,-11.50533 -3.51467,-10.12666 -1.70267,2.33466 -1.88667,8.38533 -1.81467,10.35866 0,0.0293 0.0173,0.048 0.0173,0.076 -0.0173,-0.48933 -6.38134,3.51067 -6.9,4.04934 -1.07867,-0.58267 -11.16267,-2.456 -11.25067,-2.78134 0.248,0.91734 7.30267,10.576 8.07333,8.17067 -0.44,1.37067 -0.68133,2.828 -0.684,4.344 0.003,1.79733 0.35067,3.508 0.95867,5.092 -0.0933,0.0427 -0.18933,0.0773 -0.27867,0.13333 -1.66533,1.00534 -7.524,9.24134 -7.524,9.24134"
         style="fill:#ffffff;fill-opacity:1;fill-rule:nonzero;stroke:none;stroke-width:0.133333" />
      <path
         id="path58"
         d="m 364.68932,96.641362 c 23.16134,0.04 41.89734,18.778668 41.94,41.943998 -0.0427,23.164 -18.77866,41.908 -41.94,41.948 -23.16933,-0.04 -41.91466,-18.784 -41.95466,-41.948 0.04,-23.16533 18.78533,-41.903998 41.95466,-41.943998 z m 0,90.457328 c 26.788,0 48.50667,-21.71733 48.50934,-48.51333 -0.003,-26.792 -21.72134,-48.509331 -48.50934,-48.509331 -26.8,0 -48.51733,21.717331 -48.51733,48.509331 0.003,26.796 21.71733,48.51333 48.51733,48.51333"
         style="fill:#ffffff;fill-opacity:1;fill-rule:nonzero;stroke:none;stroke-width:0.133333" />
      <path
         id="path59"
         d="m 496.63465,188.89336 c 1.52667,2.84133 1.08134,6.6 -0.77333,9.72667 -2.01067,3.38933 -6.53333,6.38133 -10.196,7.85733 -4.06,1.63733 -5.87867,1.77733 -5.86267,1.82533 -0.0227,-0.0307 1.37867,-1.14533 4.648,-3.536 11.12267,-7.69466 7.952,-19.76 -8.12933,-13.044 -3.636,1.77067 -5.348,2.36534 -5.348,2.35467 0.0227,0.016 1.08133,-1.41867 4.44533,-4.24667 13.79734,-10.884 20.42534,-2.408 21.216,-0.93733 z m -0.0133,39.47733 c -1.69333,2.74267 -5.17467,4.23467 -8.81067,4.192 -3.93733,-0.0427 -8.79066,-2.46666 -11.89866,-4.9 -3.452,-2.69866 -4.48267,-4.20133 -4.516,-4.16533 0.016,-0.036 1.68,0.62 5.388,2.25867 12.22266,5.78533 21.08933,-2.99867 7.23466,-13.564 -3.356,-2.26267 -4.728,-3.448 -4.71466,-3.45334 -0.003,0.0253 1.768,0.22534 5.90133,1.72667 16.32267,6.508 12.296,16.48533 11.416,17.90533 z m -34.192,19.72667 c -3.22266,-0.0973 -6.25466,-2.36534 -8.04,-5.53467 -1.928,-3.436 -2.26133,-8.848 -1.70533,-12.75733 0.61467,-4.336 1.40133,-5.97867 1.35067,-5.99067 0.0413,-0.005 0.30533,1.76667 0.73866,5.796 1.10267,13.47733 13.13867,16.76533 15.36267,-0.51866 0.284,-4.036 0.62133,-5.816 0.63466,-5.808 -0.0267,0.008 0.688,1.64266 1.45467,5.972 2.52667,17.38933 -8.12666,18.89066 -9.796,18.84133 z m -12.96933,-20.68533 c -13.796,10.88133 -20.42133,2.40666 -21.212,0.93466 -1.53067,-2.83733 -1.08,-6.59866 0.77467,-9.728 2.00933,-3.388 6.528,-6.37866 10.19466,-7.85466 4.06,-1.63734 5.87867,-1.77867 5.86267,-1.82667 0.0227,0.032 -1.376,1.14667 -4.652,3.536 -11.11867,7.696 -7.948,19.76267 8.132,13.04533 3.63733,-1.772 5.35067,-2.36666 5.34667,-2.35466 -0.02,-0.016 -1.08134,1.42 -4.44667,4.248 z m -21.19867,-38.54 c 1.692,-2.74534 5.17334,-4.236 8.81067,-4.19467 3.94133,0.0453 8.79067,2.46667 11.90133,4.90133 3.448,2.70134 4.48,4.20267 4.50934,4.164 -0.012,0.036 -1.67867,-0.61866 -5.38534,-2.26 -12.22533,-5.78266 -21.08533,3 -7.23066,13.56667 3.35333,2.26133 4.72133,3.44667 4.712,3.452 0.004,-0.024 -1.76534,-0.22533 -5.90134,-1.72667 -16.32266,-6.50666 -12.29466,-16.484 -11.416,-17.90266 z m 48.40133,19.74533 c 0,1.45467 -0.22133,2.856 -0.62533,4.17467 0.344,0.14533 0.69067,0.35333 1.02533,0.68133 1.47334,1.42933 2.916,2.87067 4.38,4.31067 1.09467,1.07333 1.712,2.77733 3.088,3.45866 0.67734,0.33334 0.076,1.38134 -0.59066,1.01734 -3.128,-1.68534 -7.32134,-2.59467 -10.48134,-4.116 -0.112,-0.0573 -0.19866,-0.12667 -0.304,-0.19067 -2.21866,2.54533 -5.32266,4.288 -8.83733,4.752 0.532,1.41467 -2.58533,9.48 -2.12933,11.17333 -1.428,-2.496 -3.11467,-9.91333 -2.48,-11.29866 -2.952,-0.57867 -5.56933,-2.068 -7.564,-4.16267 -0.39867,-0.42 -10.78133,4.66667 -10.78133,4.66667 0,0 5.86266,-8.23334 7.52266,-9.24 0.0947,-0.0573 0.188,-0.0907 0.28,-0.13467 -0.608,-1.58133 -0.952,-3.29333 -0.956,-5.092 0.004,-1.51467 0.24134,-2.97333 0.68534,-4.34133 -0.77334,2.40266 -7.82934,-7.25467 -8.07334,-8.17067 0.0867,0.324 10.172,2.196 11.25067,2.78 0.51867,-0.53733 6.87867,-4.53733 6.9,-4.04933 0,-0.0267 -0.0213,-0.0467 -0.0213,-0.0773 -0.072,-1.97333 0.11333,-8.02533 1.816,-10.356 1.00533,-1.37733 3.53466,8.23467 3.512,10.12534 3.61599,0.46933 6.79999,2.28133 9.03466,4.932 0.99733,-0.75467 1.88133,-0.88667 3.12,-1.236 0.51067,-0.144 8.636,-2.76 8.26933,-2.24934 -0.688,0.94934 -1.56266,1.74934 -2.46266,2.54534 -2.64534,2.33866 -6.408,5.288 -6.50667,5.08 0.592,1.56133 0.92933,3.24933 0.92933,5.01733 z m -14.20666,-39.47333 c 3.22,0.096 6.25466,2.36533 8.03733,5.53333 1.92667,3.436 2.25867,8.84667 1.70267,12.75733 -0.60934,4.33867 -1.39867,5.98267 -1.34934,5.99067 -0.04,0.007 -0.304,-1.764 -0.73733,-5.796 -1.104,-13.47867 -13.14133,-16.76133 -15.36266,0.51867 -0.284,4.03733 -0.62134,5.81733 -0.63467,5.808 0.0227,-0.008 -0.688,-1.644 -1.45467,-5.972 -2.52666,-17.39067 8.12534,-18.89067 9.79867,-18.84 z m -0.016,-2.47067 c -23.16533,0.0427 -41.908,18.77867 -41.948,41.944 0.04,23.16667 18.78267,41.91066 41.948,41.95066 23.16533,-0.04 41.904,-18.78399 41.948,-41.95066 -0.044,-23.16533 -18.78267,-41.90133 -41.948,-41.944"
         style="fill:#276952;fill-opacity:1;fill-rule:nonzero;stroke:none;stroke-width:0.133333" />
      <path
         id="path60"
         d="m 462.43999,257.13336 c -26.796,0 -48.51067,-21.71867 -48.51467,-48.516 0,-26.79067 21.71867,-48.50933 48.51467,-48.50933 26.788,0 48.50933,21.71866 48.516,48.50933 -0.007,26.79733 -21.728,48.516 -48.516,48.516 z m 0,-105.412 c -31.42133,0 -56.90133,25.47467 -56.90133,56.9 0,31.424 25.48,56.9 56.90133,56.9 31.43066,0 56.9,-25.476 56.9,-56.9 0,-31.42533 -25.46934,-56.9 -56.9,-56.9"
         style="fill:#276952;fill-opacity:1;fill-rule:nonzero;stroke:none;stroke-width:0.133333" />
      <path
         id="path61"
         d="m 462.43599,198.77069 c -5.43467,0.0133 -9.83867,4.412 -9.84533,9.84667 0.007,5.43733 4.41066,9.84267 9.84533,9.84933 5.43466,-0.007 9.84266,-4.412 9.84933,-9.84933 -0.007,-5.43467 -4.41467,-9.83333 -9.84933,-9.84667"
         style="fill:#276952;fill-opacity:1;fill-rule:nonzero;stroke:none;stroke-width:0.133333" />
      <path
         id="path62"
         d="m 454.11199,193.95603 c 0.0133,0.009 0.35067,-1.77067 0.63467,-5.808 2.22133,-17.28 14.25866,-13.99734 15.36266,-0.51867 0.43333,4.032 0.69733,5.80267 0.73733,5.796 -0.0493,-0.008 0.74,-1.652 1.34934,-5.99067 0.556,-3.91066 0.224,-9.32133 -1.70267,-12.75733 -1.78267,-3.168 -4.81733,-5.43733 -8.03733,-5.53333 -1.67333,-0.0507 -12.32533,1.44933 -9.79867,18.84 0.76667,4.328 1.47734,5.964 1.45467,5.972"
         style="fill:#ffffff;fill-opacity:1;fill-rule:nonzero;stroke:none;stroke-width:0.133333" />
      <path
         id="path63"
         d="m 439.67732,206.77469 c 4.136,1.50134 5.90534,1.70267 5.90134,1.72667 0.009,-0.005 -1.35867,-1.19067 -4.712,-3.452 -13.85467,-10.56667 -4.99467,-19.34933 7.23066,-13.56667 3.70667,1.64134 5.37334,2.296 5.38534,2.26 -0.0293,0.0387 -1.06134,-1.46266 -4.50934,-4.164 -3.11066,-2.43466 -7.96,-4.856 -11.90133,-4.90133 -3.63733,-0.0413 -7.11867,1.44933 -8.81067,4.19467 -0.87866,1.41866 -4.90666,11.396 11.416,17.90266"
         style="fill:#ffffff;fill-opacity:1;fill-rule:nonzero;stroke:none;stroke-width:0.133333" />
      <path
         id="path64"
         d="m 448.55999,225.51869 c -16.08,6.71734 -19.25067,-5.34933 -8.132,-13.04533 3.276,-2.38933 4.67467,-3.504 4.652,-3.536 0.016,0.048 -1.80267,0.18933 -5.86267,1.82667 -3.66666,1.476 -8.18533,4.46666 -10.19466,7.85466 -1.85467,3.12934 -2.30534,6.89067 -0.77467,9.728 0.79067,1.472 7.416,9.94667 21.212,-0.93466 3.36533,-2.828 4.42667,-4.264 4.44667,-4.248 0.004,-0.012 -1.70934,0.58266 -5.34667,2.35466"
         style="fill:#ffffff;fill-opacity:1;fill-rule:nonzero;stroke:none;stroke-width:0.133333" />
      <path
         id="path65"
         d="m 470.77065,223.28403 c -0.0133,-0.008 -0.35066,1.772 -0.63466,5.808 -2.224,17.28399 -14.26,13.99599 -15.36267,0.51866 -0.43333,-4.02933 -0.69733,-5.80133 -0.73866,-5.796 0.0507,0.012 -0.736,1.65467 -1.35067,5.99067 -0.556,3.90933 -0.22267,9.32133 1.70533,12.75733 1.78534,3.16933 4.81734,5.43733 8.04,5.53467 1.66934,0.0493 12.32267,-1.452 9.796,-18.84133 -0.76667,-4.32934 -1.48133,-5.964 -1.45467,-5.972"
         style="fill:#ffffff;fill-opacity:1;fill-rule:nonzero;stroke:none;stroke-width:0.133333" />
      <path
         id="path66"
         d="m 485.20532,210.46536 c -4.13333,-1.50133 -5.904,-1.70133 -5.90133,-1.72667 -0.0133,0.005 1.35866,1.19067 4.71466,3.45334 13.85467,10.56533 4.988,19.34933 -7.23466,13.564 -3.708,-1.63867 -5.372,-2.29467 -5.388,-2.25867 0.0333,-0.036 1.064,1.46667 4.516,4.16533 3.108,2.43334 7.96133,4.85734 11.89866,4.9 3.636,0.0427 7.11734,-1.44933 8.81067,-4.192 0.88,-1.42 4.90667,-11.39733 -11.416,-17.90533"
         style="fill:#ffffff;fill-opacity:1;fill-rule:nonzero;stroke:none;stroke-width:0.133333" />
      <path
         id="path67"
         d="m 475.41865,189.83069 c -3.364,2.828 -4.42266,4.26267 -4.44533,4.24667 0,0.0107 1.712,-0.584 5.348,-2.35467 16.08133,-6.716 19.252,5.34934 8.12933,13.044 -3.26933,2.39067 -4.67066,3.50534 -4.648,3.536 -0.016,-0.048 1.80267,-0.188 5.86267,-1.82533 3.66267,-1.476 8.18533,-4.468 10.196,-7.85733 1.85467,-3.12667 2.3,-6.88534 0.77333,-9.72667 -0.79066,-1.47067 -7.41866,-9.94667 -21.216,0.93733"
         style="fill:#ffffff;fill-opacity:1;fill-rule:nonzero;stroke:none;stroke-width:0.133333" />
      <path
         id="path68"
         d="m 462.43599,218.46669 c -5.43467,-0.007 -9.83867,-4.412 -9.84533,-9.84933 0.007,-5.43467 4.41066,-9.83333 9.84533,-9.84667 5.43466,0.0133 9.84266,4.412 9.84933,9.84667 -0.007,5.43733 -4.41467,9.84267 -9.84933,9.84933 z m 22.26666,-22.492 c 0.36667,-0.51066 -7.75866,2.10534 -8.26933,2.24934 -1.23867,0.34933 -2.12267,0.48133 -3.12,1.236 -2.23467,-2.65067 -5.41867,-4.46267 -9.03466,-4.932 0.0227,-1.89067 -2.50667,-11.50267 -3.512,-10.12534 -1.70267,2.33067 -1.888,8.38267 -1.816,10.356 0,0.0307 0.0213,0.0507 0.0213,0.0773 -0.0213,-0.488 -6.38133,3.512 -6.9,4.04933 -1.07867,-0.584 -11.164,-2.456 -11.25067,-2.78 0.244,0.916 7.3,10.57333 8.07334,8.17067 -0.444,1.368 -0.68134,2.82666 -0.68534,4.34133 0.004,1.79867 0.348,3.51067 0.956,5.092 -0.092,0.044 -0.18533,0.0773 -0.28,0.13467 -1.66,1.00666 -7.52266,9.24 -7.52266,9.24 0,0 10.38266,-5.08667 10.78133,-4.66667 1.99467,2.09467 4.612,3.584 7.564,4.16267 -0.63467,1.38533 1.052,8.80266 2.48,11.29866 -0.456,-1.69333 2.66133,-9.75866 2.12933,-11.17333 3.51467,-0.464 6.61867,-2.20667 8.83733,-4.752 0.10534,0.064 0.192,0.13333 0.304,0.19067 3.16,1.52133 7.35334,2.43066 10.48134,4.116 0.66666,0.364 1.268,-0.684 0.59066,-1.01734 -1.376,-0.68133 -1.99333,-2.38533 -3.088,-3.45866 -1.464,-1.44 -2.90666,-2.88134 -4.38,-4.31067 -0.33466,-0.328 -0.68133,-0.536 -1.02533,-0.68133 0.404,-1.31867 0.62533,-2.72 0.62533,-4.17467 0,-1.768 -0.33733,-3.456 -0.92933,-5.01733 0.0987,0.208 3.86133,-2.74134 6.50667,-5.08 0.9,-0.796 1.77466,-1.596 2.46266,-2.54534"
         style="fill:#ffffff;fill-opacity:1;fill-rule:nonzero;stroke:none;stroke-width:0.133333" />
      <path
         id="path69"
         d="m 462.43999,250.56802 c -23.16533,-0.04 -41.908,-18.78399 -41.948,-41.95066 0.04,-23.16533 18.78267,-41.90133 41.948,-41.944 23.16533,0.0427 41.904,18.77867 41.948,41.944 -0.044,23.16667 -18.78267,41.91066 -41.948,41.95066 z m 0,-90.45999 c -26.796,0 -48.51467,21.71866 -48.51467,48.50933 0.004,26.79733 21.71867,48.516 48.51467,48.516 26.788,0 48.50933,-21.71867 48.516,-48.516 -0.007,-26.79067 -21.728,-48.50933 -48.516,-48.50933"
         style="fill:#ffffff;fill-opacity:1;fill-rule:nonzero;stroke:none;stroke-width:0.133333" />
      <path
         id="path70"
         d="m 428.05999,285.91736 c 1.52667,2.84133 1.08,6.60133 -0.77333,9.72933 -2.01067,3.388 -6.53334,6.38133 -10.19334,7.856 -4.06533,1.63733 -5.88133,1.77733 -5.86533,1.824 -0.0227,-0.0293 1.38,-1.14667 4.64533,-3.53467 11.12534,-7.69333 7.95067,-19.76133 -8.12666,-13.04533 -3.636,1.77067 -5.34934,2.368 -5.34934,2.35333 0.02,0.016 1.08134,-1.416 4.44667,-4.24533 13.796,-10.88133 20.42533,-2.40667 21.216,-0.93733 z m -0.0133,39.47866 c -1.696,2.74267 -5.17467,4.236 -8.81067,4.19334 -3.93733,-0.0467 -8.79067,-2.46667 -11.89867,-4.90134 -3.452,-2.7 -4.48266,-4.204 -4.516,-4.164 0.0133,-0.0373 1.67867,0.61867 5.388,2.25734 12.22667,5.78266 21.08667,-2.99867 7.23067,-13.56134 -3.352,-2.268 -4.728,-3.45066 -4.71067,-3.456 -0.004,0.0253 1.76934,0.22667 5.90134,1.72534 16.32133,6.50933 12.29466,16.48533 11.416,17.90666 z m -34.192,19.72667 c -3.22667,-0.096 -6.25734,-2.364 -8.04,-5.536 -1.93067,-3.43467 -2.25734,-8.84533 -1.70534,-12.75467 0.61467,-4.33733 1.40134,-5.98266 1.352,-5.99066 0.036,-0.005 0.304,1.76533 0.736,5.79466 1.10134,13.47867 13.13867,16.76267 15.36,-0.52133 0.288,-4.03333 0.62534,-5.81333 0.636,-5.80533 -0.02,0.008 0.69067,1.64266 1.45734,5.97333 2.52666,17.38667 -8.12934,18.888 -9.796,18.84 z m -12.96934,-20.684 c -13.79333,10.88 -20.42133,2.40267 -21.216,0.93333 -1.52666,-2.83866 -1.07733,-6.59733 0.77467,-9.72933 2.00933,-3.388 6.532,-6.38 10.196,-7.85333 4.06267,-1.63867 5.87867,-1.77734 5.86133,-1.82534 0.0267,0.0307 -1.37466,1.14534 -4.648,3.53467 -11.12133,7.69467 -7.948,19.76267 8.12934,13.04533 3.64,-1.772 5.34933,-2.368 5.34933,-2.35333 -0.02,-0.016 -1.07867,1.41867 -4.44667,4.248 z m -21.20133,-38.54267 c 1.69467,-2.74266 5.17333,-4.23333 8.81333,-4.196 3.93734,0.048 8.788,2.46934 11.89867,4.90267 3.45067,2.7 4.48,4.20533 4.50933,4.16533 -0.0107,0.036 -1.68,-0.62 -5.38266,-2.25866 -12.22534,-5.784 -21.08534,2.99733 -7.23334,13.56533 3.352,2.26267 4.724,3.44667 4.71467,3.452 0.003,-0.0253 -1.76933,-0.22533 -5.90133,-1.72667 -16.32534,-6.50666 -12.296,-16.484 -11.41867,-17.904 z m 48.404,19.74667 c 0,1.45333 -0.22267,2.85733 -0.62533,4.17467 0.344,0.14533 0.688,0.352 1.024,0.68 1.476,1.43066 2.91733,2.872 4.38133,4.312 1.09467,1.07333 1.71333,2.77733 3.084,3.45466 0.68133,0.33734 0.08,1.384 -0.59067,1.02 -3.124,-1.68533 -7.316,-2.59333 -10.47733,-4.116 -0.112,-0.0547 -0.20133,-0.12533 -0.304,-0.18933 -2.22133,2.54533 -5.324,4.288 -8.84,4.752 0.53467,1.416 -2.58267,9.48 -2.12667,11.17333 -1.428,-2.49733 -3.11466,-9.91333 -2.47866,-11.29866 -2.95334,-0.57867 -5.572,-2.06934 -7.568,-4.16267 -0.39334,-0.41867 -10.77734,4.66533 -10.77734,4.66533 0,0 5.86134,-8.236 7.52,-9.24 0.096,-0.0533 0.18934,-0.088 0.28134,-0.13333 -0.608,-1.58133 -0.95467,-3.29467 -0.95867,-5.092 0.004,-1.51467 0.248,-2.97333 0.684,-4.34133 -0.76933,2.40266 -7.82533,-7.25467 -8.06933,-8.172 0.0853,0.324 10.16933,2.19733 11.24666,2.78133 0.52,-0.54 6.884,-4.54133 6.9,-4.04667 0,-0.032 -0.016,-0.052 -0.016,-0.0787 -0.0733,-1.97467 0.112,-8.02534 1.81467,-10.35734 1.004,-1.37733 3.53733,8.23334 3.51067,10.12534 3.61333,0.46533 6.8,2.28266 9.036,4.93333 0.99866,-0.75467 1.88133,-0.888 3.12133,-1.23867 0.50533,-0.144 8.63467,-2.76 8.268,-2.252 -0.688,0.952 -1.56,1.752 -2.46267,2.54934 -2.648,2.33733 -6.408,5.28933 -6.50666,5.07866 0.592,1.56134 0.92933,3.24934 0.92933,5.01867 z m -14.21067,-39.47333 c 3.224,0.0947 6.26,2.36133 8.03867,5.536 1.92933,3.42933 2.26,8.844 1.70533,12.752 -0.61466,4.34 -1.39866,5.984 -1.34933,5.99066 -0.04,0.0107 -0.304,-1.76133 -0.73733,-5.79333 -1.104,-13.47867 -13.14134,-16.76267 -15.36267,0.52133 -0.284,4.03334 -0.62533,5.81334 -0.63467,5.80667 0.0227,-0.009 -0.688,-1.64267 -1.45466,-5.97467 -2.52534,-17.388 8.12533,-18.88933 9.79466,-18.83866 z m -0.0133,-2.46934 c -23.16533,0.04 -41.90667,18.77734 -41.94667,41.94267 0.04,23.16667 18.78134,41.91067 41.94667,41.948 23.16533,-0.0373 41.90533,-18.78133 41.944,-41.948 -0.0387,-23.16533 -18.77867,-41.90267 -41.944,-41.94267"
         style="fill:#b62323;fill-opacity:1;fill-rule:nonzero;stroke:none;stroke-width:0.133333" />
      <path
         id="path71"
         d="m 393.86399,354.15869 c -26.79867,0 -48.50933,-21.71867 -48.516,-48.516 0,-26.792 21.71733,-48.508 48.516,-48.508 26.78933,0 48.51067,21.716 48.51733,48.508 -0.007,26.79733 -21.728,48.516 -48.51733,48.516 z m 0,-105.412 c -31.42267,0 -56.9,25.47333 -56.9,56.9 0,31.424 25.47733,56.89733 56.9,56.89733 31.42533,0 56.89867,-25.47333 56.89867,-56.89733 0,-31.42667 -25.47334,-56.9 -56.89867,-56.9"
         style="fill:#b62323;fill-opacity:1;fill-rule:nonzero;stroke:none;stroke-width:0.133333" />
      <path
         id="path72"
         d="m 393.86266,295.79602 c -5.436,0.0133 -9.84,4.412 -9.84667,9.84667 0.007,5.43733 4.41067,9.84267 9.84667,9.848 5.43466,-0.005 9.84133,-4.41067 9.844,-9.848 -0.003,-5.43467 -4.40934,-9.83333 -9.844,-9.84667"
         style="fill:#b62323;fill-opacity:1;fill-rule:nonzero;stroke:none;stroke-width:0.133333" />
      <path
         id="path73"
         d="m 385.53732,290.98269 c 0.009,0.007 0.35067,-1.77333 0.63467,-5.80667 2.22133,-17.284 14.25867,-14 15.36267,-0.52133 0.43333,4.032 0.69733,5.804 0.73733,5.79333 -0.0493,-0.007 0.73467,-1.65066 1.34933,-5.99066 0.55467,-3.908 0.224,-9.32267 -1.70533,-12.752 -1.77867,-3.17467 -4.81467,-5.44134 -8.03867,-5.536 -1.66933,-0.0507 -12.32,1.45066 -9.79466,18.83866 0.76666,4.332 1.47733,5.96534 1.45466,5.97467"
         style="fill:#ffffff;fill-opacity:1;fill-rule:nonzero;stroke:none;stroke-width:0.133333" />
      <path
         id="path74"
         d="m 371.10266,303.80002 c 4.132,1.50134 5.904,1.70134 5.90133,1.72667 0.009,-0.005 -1.36267,-1.18933 -4.71467,-3.452 -13.852,-10.568 -4.992,-19.34933 7.23334,-13.56533 3.70266,1.63866 5.372,2.29466 5.38266,2.25866 -0.0293,0.04 -1.05866,-1.46533 -4.50933,-4.16533 -3.11067,-2.43333 -7.96133,-4.85467 -11.89867,-4.90267 -3.64,-0.0373 -7.11866,1.45334 -8.81333,4.196 -0.87733,1.42 -4.90667,11.39734 11.41867,17.904"
         style="fill:#ffffff;fill-opacity:1;fill-rule:nonzero;stroke:none;stroke-width:0.133333" />
      <path
         id="path75"
         d="m 379.98266,322.54402 c -16.07734,6.71734 -19.25067,-5.35066 -8.12934,-13.04533 3.27334,-2.38933 4.67467,-3.504 4.648,-3.53467 0.0173,0.048 -1.79866,0.18667 -5.86133,1.82534 -3.664,1.47333 -8.18667,4.46533 -10.196,7.85333 -1.852,3.132 -2.30133,6.89067 -0.77467,9.72933 0.79467,1.46934 7.42267,9.94667 21.216,-0.93333 3.368,-2.82933 4.42667,-4.264 4.44667,-4.248 0,-0.0147 -1.70933,0.58133 -5.34933,2.35333"
         style="fill:#ffffff;fill-opacity:1;fill-rule:nonzero;stroke:none;stroke-width:0.133333" />
      <path
         id="path76"
         d="m 402.19332,320.30936 c -0.0107,-0.008 -0.348,1.772 -0.636,5.80533 -2.22133,17.284 -14.25866,14 -15.36,0.52133 -0.432,-4.02933 -0.7,-5.8 -0.736,-5.79466 0.0493,0.008 -0.73733,1.65333 -1.352,5.99066 -0.552,3.90934 -0.22533,9.32 1.70534,12.75467 1.78266,3.172 4.81333,5.44 8.04,5.536 1.66666,0.048 12.32266,-1.45333 9.796,-18.84 -0.76667,-4.33067 -1.47734,-5.96533 -1.45734,-5.97333"
         style="fill:#ffffff;fill-opacity:1;fill-rule:nonzero;stroke:none;stroke-width:0.133333" />
      <path
         id="path77"
         d="m 416.63066,307.48936 c -4.132,-1.49867 -5.90534,-1.7 -5.90134,-1.72534 -0.0173,0.005 1.35867,1.188 4.71067,3.456 13.856,10.56267 4.996,19.344 -7.23067,13.56134 -3.70933,-1.63867 -5.37466,-2.29467 -5.388,-2.25734 0.0333,-0.04 1.064,1.464 4.516,4.164 3.108,2.43467 7.96134,4.85467 11.89867,4.90134 3.636,0.0427 7.11467,-1.45067 8.81067,-4.19334 0.87866,-1.42133 4.90533,-11.39733 -11.416,-17.90666"
         style="fill:#ffffff;fill-opacity:1;fill-rule:nonzero;stroke:none;stroke-width:0.133333" />
      <path
         id="path78"
         d="m 406.84399,286.85469 c -3.36533,2.82933 -4.42667,4.26133 -4.44667,4.24533 0,0.0147 1.71334,-0.58266 5.34934,-2.35333 16.07733,-6.716 19.252,5.352 8.12666,13.04533 -3.26533,2.388 -4.668,3.50534 -4.64533,3.53467 -0.016,-0.0467 1.8,-0.18667 5.86533,-1.824 3.66,-1.47467 8.18267,-4.468 10.19334,-7.856 1.85333,-3.128 2.3,-6.888 0.77333,-9.72933 -0.79067,-1.46934 -7.42,-9.944 -21.216,0.93733"
         style="fill:#ffffff;fill-opacity:1;fill-rule:nonzero;stroke:none;stroke-width:0.133333" />
      <path
         id="path79"
         d="m 393.86266,315.49069 c -5.436,-0.005 -9.84,-4.41067 -9.84667,-9.848 0.007,-5.43467 4.41067,-9.83333 9.84667,-9.84667 5.43466,0.0133 9.84133,4.412 9.844,9.84667 -0.003,5.43733 -4.40934,9.84267 -9.844,9.848 z m 22.26533,-22.49467 c 0.36667,-0.508 -7.76267,2.108 -8.268,2.252 -1.24,0.35067 -2.12267,0.484 -3.12133,1.23867 -2.236,-2.65067 -5.42267,-4.468 -9.036,-4.93333 0.0267,-1.892 -2.50667,-11.50267 -3.51067,-10.12534 -1.70267,2.332 -1.888,8.38267 -1.81467,10.35734 0,0.0267 0.016,0.0467 0.016,0.0787 -0.016,-0.49466 -6.38,3.50667 -6.9,4.04667 -1.07733,-0.584 -11.16133,-2.45733 -11.24666,-2.78133 0.244,0.91733 7.3,10.57466 8.06933,8.172 -0.436,1.368 -0.68,2.82666 -0.684,4.34133 0.004,1.79733 0.35067,3.51067 0.95867,5.092 -0.092,0.0453 -0.18534,0.08 -0.28134,0.13333 -1.65866,1.004 -7.52,9.24 -7.52,9.24 0,0 10.384,-5.084 10.77734,-4.66533 1.996,2.09333 4.61466,3.584 7.568,4.16267 -0.636,1.38533 1.05066,8.80133 2.47866,11.29866 -0.456,-1.69333 2.66134,-9.75733 2.12667,-11.17333 3.516,-0.464 6.61867,-2.20667 8.84,-4.752 0.10267,0.064 0.192,0.13467 0.304,0.18933 3.16133,1.52267 7.35333,2.43067 10.47733,4.116 0.67067,0.364 1.272,-0.68266 0.59067,-1.02 -1.37067,-0.67733 -1.98933,-2.38133 -3.084,-3.45466 -1.464,-1.44 -2.90533,-2.88134 -4.38133,-4.312 -0.336,-0.328 -0.68,-0.53467 -1.024,-0.68 0.40266,-1.31734 0.62533,-2.72134 0.62533,-4.17467 0,-1.76933 -0.33733,-3.45733 -0.92933,-5.01867 0.0987,0.21067 3.85866,-2.74133 6.50666,-5.07866 0.90267,-0.79734 1.77467,-1.59734 2.46267,-2.54934"
         style="fill:#ffffff;fill-opacity:1;fill-rule:nonzero;stroke:none;stroke-width:0.133333" />
      <path
         id="path80"
         d="m 393.86399,347.59069 c -23.16533,-0.0373 -41.90667,-18.78133 -41.94667,-41.948 0.04,-23.16533 18.78134,-41.90267 41.94667,-41.94267 23.16533,0.04 41.90533,18.77734 41.944,41.94267 -0.0387,23.16667 -18.77867,41.91067 -41.944,41.948 z m 0,-90.456 c -26.79867,0 -48.516,21.716 -48.516,48.508 0.007,26.79733 21.71733,48.516 48.516,48.516 26.78933,0 48.51067,-21.71867 48.51733,-48.516 -0.007,-26.792 -21.728,-48.508 -48.51733,-48.508"
         style="fill:#ffffff;fill-opacity:1;fill-rule:nonzero;stroke:none;stroke-width:0.133333" />
      <path
         id="path81"
         d="m 428.05999,402.64002 c 1.52667,2.84 1.08,6.59867 -0.77333,9.728 -2.01067,3.38667 -6.53334,6.38 -10.19334,7.856 -4.06533,1.63867 -5.88133,1.77867 -5.86533,1.82267 -0.0227,-0.0253 1.38,-1.14134 4.64533,-3.53334 11.12534,-7.69333 7.95067,-19.76 -8.12666,-13.044 -3.636,1.77334 -5.34934,2.36667 -5.34934,2.35334 0.02,0.016 1.08134,-1.416 4.44667,-4.24667 13.796,-10.88133 20.42533,-2.40667 21.216,-0.936 z m -0.0133,39.476 c -1.696,2.744 -5.17467,4.236 -8.81067,4.19333 -3.93733,-0.044 -8.79067,-2.46533 -11.89867,-4.9 -3.452,-2.7 -4.48266,-4.20266 -4.516,-4.16533 0.0133,-0.0373 1.67867,0.62 5.388,2.25867 12.22667,5.78666 21.08667,-2.99734 7.23067,-13.56267 -3.352,-2.26667 -4.728,-3.44933 -4.71067,-3.45467 -0.004,0.024 1.76934,0.224 5.90134,1.72534 16.32133,6.508 12.29466,16.48533 11.416,17.90533 z m -34.192,19.72667 c -3.22667,-0.096 -6.25734,-2.36267 -8.04,-5.53334 -1.93067,-3.43333 -2.25734,-8.84666 -1.70534,-12.756 0.61467,-4.33733 1.40134,-5.98 1.352,-5.99066 0.036,-0.007 0.304,1.764 0.736,5.79333 1.10134,13.48 13.13867,16.764 15.36,-0.51733 0.288,-4.036 0.62534,-5.816 0.636,-5.808 -0.02,0.008 0.69067,1.644 1.45734,5.972 2.52666,17.38933 -8.12934,18.892 -9.796,18.84 z m -12.96934,-20.68267 c -13.79333,10.88 -20.42133,2.40667 -21.216,0.93333 -1.52666,-2.83866 -1.07733,-6.59733 0.77467,-9.72666 2.00933,-3.39067 6.532,-6.38 10.196,-7.856 4.06267,-1.63734 5.87867,-1.77867 5.86133,-1.82534 0.0267,0.0293 -1.37466,1.14534 -4.648,3.53467 -11.12133,7.696 -7.948,19.76267 8.12934,13.04667 3.64,-1.77334 5.34933,-2.37067 5.34933,-2.35467 -0.02,-0.016 -1.07867,1.41733 -4.44667,4.248 z m -21.20133,-38.54133 c 1.69467,-2.74534 5.17333,-4.236 8.81333,-4.19734 3.93734,0.0493 8.788,2.46667 11.89867,4.90534 3.45067,2.69866 4.48,4.20266 4.50933,4.164 -0.0107,0.0387 -1.68,-0.61867 -5.38266,-2.26 -12.22534,-5.784 -21.08534,2.99866 -7.23334,13.56533 3.352,2.26267 4.724,3.44667 4.71467,3.45467 0.003,-0.0267 -1.76933,-0.228 -5.90133,-1.728 -16.32534,-6.50534 -12.296,-16.48534 -11.41867,-17.904 z m 48.404,19.74666 c 0,1.456 -0.22267,2.85467 -0.62533,4.17467 0.344,0.14533 0.688,0.35333 1.024,0.68133 1.476,1.428 2.91733,2.87067 4.38133,4.31067 1.09467,1.07333 1.71333,2.77733 3.084,3.45733 0.68133,0.33734 0.08,1.38267 -0.59067,1.01867 -3.124,-1.68933 -7.316,-2.596 -10.47733,-4.11867 -0.112,-0.0547 -0.20133,-0.124 -0.304,-0.19066 -2.22133,2.54666 -5.324,4.28933 -8.84,4.75466 0.53467,1.41467 -2.58267,9.47867 -2.12667,11.17067 -1.428,-2.49733 -3.11466,-9.91067 -2.47866,-11.29733 -2.95334,-0.57867 -5.572,-2.068 -7.568,-4.16267 -0.39334,-0.41867 -10.77734,4.668 -10.77734,4.668 0,0 5.86134,-8.236 7.52,-9.24133 0.096,-0.056 0.18934,-0.0907 0.28134,-0.13334 -0.608,-1.584 -0.95467,-3.29466 -0.95867,-5.092 0.004,-1.51466 0.248,-2.97333 0.684,-4.34533 -0.76933,2.40533 -7.82533,-7.25333 -8.06933,-8.16933 0.0853,0.324 10.16933,2.19866 11.24666,2.78133 0.52,-0.53733 6.884,-4.53867 6.9,-4.04933 0,-0.028 -0.016,-0.0453 -0.016,-0.0773 -0.0733,-1.97066 0.112,-8.024 1.81467,-10.356 1.004,-1.37866 3.53733,8.23334 3.51067,10.12667 3.61333,0.468 6.8,2.27867 9.036,4.932 0.99866,-0.75733 1.88133,-0.88933 3.12133,-1.236 0.50533,-0.144 8.63467,-2.75867 8.268,-2.252 -0.688,0.95067 -1.56,1.752 -2.46267,2.54667 -2.648,2.33733 -6.408,5.28933 -6.50666,5.07866 0.592,1.56267 0.92933,3.24934 0.92933,5.02 z m -14.21067,-39.47333 c 3.224,0.096 6.26,2.36267 8.03867,5.532 1.92933,3.436 2.26,8.84533 1.70533,12.75867 -0.61466,4.33733 -1.39866,5.98266 -1.34933,5.99066 -0.04,0.007 -0.304,-1.76533 -0.73733,-5.796 -1.104,-13.48133 -13.14134,-16.76133 -15.36267,0.51867 -0.284,4.036 -0.62533,5.816 -0.63467,5.80533 0.0227,-0.007 -0.688,-1.64266 -1.45466,-5.96933 -2.52534,-17.39067 8.12533,-18.892 9.79466,-18.84 z m -0.0133,-2.47067 c -23.16533,0.04 -41.90667,18.77734 -41.94667,41.94267 0.04,23.16533 18.78134,41.908 41.94667,41.94933 23.16533,-0.0413 41.90533,-18.784 41.944,-41.94933 -0.0387,-23.16533 -18.77867,-41.90267 -41.944,-41.94267"
         style="fill:#b62323;fill-opacity:1;fill-rule:nonzero;stroke:none;stroke-width:0.133333" />
      <path
         id="path82"
         d="m 393.86399,470.88002 c -26.79867,0 -48.50933,-21.71733 -48.516,-48.516 0,-26.78933 21.71733,-48.508 48.516,-48.508 26.78933,0 48.51067,21.71867 48.51733,48.508 -0.007,26.79867 -21.728,48.516 -48.51733,48.516 z m 0,-105.40933 c -31.42267,0 -56.9,25.47333 -56.9,56.89733 0,31.424 25.47733,56.9 56.9,56.9 31.42533,0 56.89867,-25.476 56.89867,-56.9 0,-31.424 -25.47334,-56.89733 -56.89867,-56.89733"
         style="fill:#b62323;fill-opacity:1;fill-rule:nonzero;stroke:none;stroke-width:0.133333" />
      <path
         id="path83"
         d="m 393.86266,412.51869 c -5.436,0.012 -9.84,4.41066 -9.84667,9.84666 0.007,5.43734 4.41067,9.84 9.84667,9.848 5.43466,-0.008 9.84133,-4.41066 9.844,-9.848 -0.003,-5.436 -4.40934,-9.83466 -9.844,-9.84666"
         style="fill:#b62323;fill-opacity:1;fill-rule:nonzero;stroke:none;stroke-width:0.133333" />
      <path
         id="path84"
         d="m 385.53732,407.70135 c 0.009,0.0107 0.35067,-1.76933 0.63467,-5.80533 2.22133,-17.28 14.25867,-14 15.36267,-0.51867 0.43333,4.03067 0.69733,5.80267 0.73733,5.796 -0.0493,-0.008 0.73467,-1.65333 1.34933,-5.99066 0.55467,-3.91334 0.224,-9.32267 -1.70533,-12.75867 -1.77867,-3.16933 -4.81467,-5.436 -8.03867,-5.532 -1.66933,-0.052 -12.32,1.44933 -9.79466,18.84 0.76666,4.32667 1.47733,5.96267 1.45466,5.96933"
         style="fill:#ffffff;fill-opacity:1;fill-rule:nonzero;stroke:none;stroke-width:0.133333" />
      <path
         id="path85"
         d="m 371.10266,420.52269 c 4.132,1.5 5.904,1.70133 5.90133,1.728 0.009,-0.008 -1.36267,-1.192 -4.71467,-3.45467 -13.852,-10.56667 -4.992,-19.34933 7.23334,-13.56533 3.70266,1.64133 5.372,2.29866 5.38266,2.26 -0.0293,0.0387 -1.05866,-1.46534 -4.50933,-4.164 -3.11067,-2.43867 -7.96133,-4.856 -11.89867,-4.90534 -3.64,-0.0387 -7.11866,1.452 -8.81333,4.19734 -0.87733,1.41866 -4.90667,11.39866 11.41867,17.904"
         style="fill:#ffffff;fill-opacity:1;fill-rule:nonzero;stroke:none;stroke-width:0.133333" />
      <path
         id="path86"
         d="m 379.98266,439.26669 c -16.07734,6.716 -19.25067,-5.35067 -8.12934,-13.04667 3.27334,-2.38933 4.67467,-3.50533 4.648,-3.53467 0.0173,0.0467 -1.79866,0.188 -5.86133,1.82534 -3.664,1.476 -8.18667,4.46533 -10.196,7.856 -1.852,3.12933 -2.30133,6.888 -0.77467,9.72666 0.79467,1.47334 7.42267,9.94667 21.216,-0.93333 3.368,-2.83067 4.42667,-4.264 4.44667,-4.248 0,-0.016 -1.70933,0.58133 -5.34933,2.35467"
         style="fill:#ffffff;fill-opacity:1;fill-rule:nonzero;stroke:none;stroke-width:0.133333" />
      <path
         id="path87"
         d="m 402.19332,437.03069 c -0.0107,-0.008 -0.348,1.772 -0.636,5.808 -2.22133,17.28133 -14.25866,13.99733 -15.36,0.51733 -0.432,-4.02933 -0.7,-5.8 -0.736,-5.79333 0.0493,0.0107 -0.73733,1.65333 -1.352,5.99066 -0.552,3.90934 -0.22533,9.32267 1.70534,12.756 1.78266,3.17067 4.81333,5.43734 8.04,5.53334 1.66666,0.052 12.32266,-1.45067 9.796,-18.84 -0.76667,-4.328 -1.47734,-5.964 -1.45734,-5.972"
         style="fill:#ffffff;fill-opacity:1;fill-rule:nonzero;stroke:none;stroke-width:0.133333" />
      <path
         id="path88"
         d="m 416.63066,424.21069 c -4.132,-1.50134 -5.90534,-1.70134 -5.90134,-1.72534 -0.0173,0.005 1.35867,1.188 4.71067,3.45467 13.856,10.56533 4.996,19.34933 -7.23067,13.56267 -3.70933,-1.63867 -5.37466,-2.296 -5.388,-2.25867 0.0333,-0.0373 1.064,1.46533 4.516,4.16533 3.108,2.43467 7.96134,4.856 11.89867,4.9 3.636,0.0427 7.11467,-1.44933 8.81067,-4.19333 0.87866,-1.42 4.90533,-11.39733 -11.416,-17.90533"
         style="fill:#ffffff;fill-opacity:1;fill-rule:nonzero;stroke:none;stroke-width:0.133333" />
      <path
         id="path89"
         d="m 406.84399,403.57602 c -3.36533,2.83067 -4.42667,4.26267 -4.44667,4.24667 0,0.0133 1.71334,-0.58 5.34934,-2.35334 16.07733,-6.716 19.252,5.35067 8.12666,13.044 -3.26533,2.392 -4.668,3.508 -4.64533,3.53334 -0.016,-0.044 1.8,-0.184 5.86533,-1.82267 3.66,-1.476 8.18267,-4.46933 10.19334,-7.856 1.85333,-3.12933 2.3,-6.888 0.77333,-9.728 -0.79067,-1.47067 -7.42,-9.94533 -21.216,0.936"
         style="fill:#ffffff;fill-opacity:1;fill-rule:nonzero;stroke:none;stroke-width:0.133333" />
      <path
         id="path90"
         d="m 393.86266,432.21335 c -5.436,-0.008 -9.84,-4.41066 -9.84667,-9.848 0.007,-5.436 4.41067,-9.83466 9.84667,-9.84666 5.43466,0.012 9.84133,4.41066 9.844,9.84666 -0.003,5.43734 -4.40934,9.84 -9.844,9.848 z m 22.26533,-22.49333 c 0.36667,-0.50667 -7.76267,2.108 -8.268,2.252 -1.24,0.34667 -2.12267,0.47867 -3.12133,1.236 -2.236,-2.65333 -5.42267,-4.464 -9.036,-4.932 0.0267,-1.89333 -2.50667,-11.50533 -3.51067,-10.12667 -1.70267,2.332 -1.888,8.38534 -1.81467,10.356 0,0.032 0.016,0.0493 0.016,0.0773 -0.016,-0.48934 -6.38,3.512 -6.9,4.04933 -1.07733,-0.58267 -11.16133,-2.45733 -11.24666,-2.78133 0.244,0.916 7.3,10.57466 8.06933,8.16933 -0.436,1.372 -0.68,2.83067 -0.684,4.34533 0.004,1.79734 0.35067,3.508 0.95867,5.092 -0.092,0.0427 -0.18534,0.0773 -0.28134,0.13334 -1.65866,1.00533 -7.52,9.24133 -7.52,9.24133 0,0 10.384,-5.08667 10.77734,-4.668 1.996,2.09467 4.61466,3.584 7.568,4.16267 -0.636,1.38666 1.05066,8.8 2.47866,11.29733 -0.456,-1.692 2.66134,-9.756 2.12667,-11.17067 3.516,-0.46533 6.61867,-2.208 8.84,-4.75466 0.10267,0.0667 0.192,0.136 0.304,0.19066 3.16133,1.52267 7.35333,2.42934 10.47733,4.11867 0.67067,0.364 1.272,-0.68133 0.59067,-1.01867 -1.37067,-0.68 -1.98933,-2.384 -3.084,-3.45733 -1.464,-1.44 -2.90533,-2.88267 -4.38133,-4.31067 -0.336,-0.328 -0.68,-0.536 -1.024,-0.68133 0.40266,-1.32 0.62533,-2.71867 0.62533,-4.17467 0,-1.77066 -0.33733,-3.45733 -0.92933,-5.02 0.0987,0.21067 3.85866,-2.74133 6.50666,-5.07866 0.90267,-0.79467 1.77467,-1.596 2.46267,-2.54667"
         style="fill:#ffffff;fill-opacity:1;fill-rule:nonzero;stroke:none;stroke-width:0.133333" />
      <path
         id="path91"
         d="m 393.86399,464.31335 c -23.16533,-0.0413 -41.90667,-18.784 -41.94667,-41.94933 0.04,-23.16533 18.78134,-41.90267 41.94667,-41.94267 23.16533,0.04 41.90533,18.77734 41.944,41.94267 -0.0387,23.16533 -18.77867,41.908 -41.944,41.94933 z m 0,-90.45733 c -26.79867,0 -48.516,21.71867 -48.516,48.508 0.007,26.79867 21.71733,48.516 48.516,48.516 26.78933,0 48.51067,-21.71733 48.51733,-48.516 -0.007,-26.78933 -21.728,-48.508 -48.51733,-48.508"
         style="fill:#ffffff;fill-opacity:1;fill-rule:nonzero;stroke:none;stroke-width:0.133333" />
      <path
         id="path92"
         d="m 310.10799,285.91736 c 1.528,2.84133 1.08134,6.60133 -0.776,9.72933 -2.00666,3.388 -6.52933,6.38133 -10.196,7.856 -4.06,1.63733 -5.876,1.77733 -5.85866,1.824 -0.0293,-0.0293 1.37466,-1.14667 4.64533,-3.53467 11.12533,-7.69333 7.95067,-19.76133 -8.12933,-13.04533 -3.63734,1.77067 -5.34934,2.368 -5.34667,2.35333 0.02,0.016 1.07867,-1.416 4.444,-4.24533 13.79867,-10.88133 20.428,-2.40667 21.21733,-0.93733 z m -0.016,39.47866 c -1.692,2.74267 -5.17066,4.236 -8.808,4.19334 -3.94,-0.0467 -8.79333,-2.46667 -11.90133,-4.90134 -3.452,-2.7 -4.48,-4.204 -4.51333,-4.164 0.0133,-0.0373 1.68,0.61867 5.38533,2.25734 12.22667,5.78266 21.09067,-2.99867 7.23467,-13.56134 -3.35467,-2.268 -4.728,-3.45066 -4.71067,-3.456 -0.007,0.0253 1.768,0.22667 5.90133,1.72534 16.31867,6.50933 12.292,16.48533 11.412,17.90666 z m -34.192,19.72667 c -3.22266,-0.096 -6.25466,-2.364 -8.03866,-5.536 -1.92934,-3.43467 -2.256,-8.84533 -1.704,-12.75467 0.612,-4.33733 1.39866,-5.98266 1.352,-5.99066 0.0373,-0.005 0.30133,1.76533 0.73466,5.79466 1.104,13.47867 13.14134,16.76267 15.364,-0.52133 0.28267,-4.03333 0.624,-5.81333 0.63067,-5.80533 -0.02,0.008 0.69067,1.64266 1.46133,5.97333 2.52534,17.38667 -8.13066,18.888 -9.8,18.84 z m -12.96666,-20.684 c -13.792,10.88 -20.424,2.40267 -21.21467,0.93333 -1.52667,-2.83866 -1.08,-6.59733 0.77467,-9.72933 2.00666,-3.388 6.52933,-6.38 10.19466,-7.85333 4.064,-1.63867 5.87867,-1.77734 5.86267,-1.82534 0.0253,0.0307 -1.376,1.14534 -4.64933,3.53467 -11.12134,7.69467 -7.94667,19.76267 8.12933,13.04533 3.64133,-1.772 5.35067,-2.368 5.35067,-2.35333 -0.024,-0.016 -1.08134,1.41867 -4.448,4.248 z m -21.20134,-38.54267 c 1.696,-2.74266 5.17467,-4.23333 8.81467,-4.196 3.93733,0.048 8.788,2.46934 11.89867,4.90267 3.45066,2.7 4.47866,4.20533 4.50933,4.16533 -0.0133,0.036 -1.68,-0.62 -5.38267,-2.25866 -12.22666,-5.784 -21.09333,2.99733 -7.23466,13.56533 3.35333,2.26267 4.72533,3.44667 4.716,3.452 0,-0.0253 -1.76934,-0.22533 -5.90267,-1.72667 -16.324,-6.50666 -12.29467,-16.484 -11.41867,-17.904 z m 48.40534,19.74667 c 0,1.45333 -0.22534,2.85733 -0.62534,4.17467 0.344,0.14533 0.68667,0.352 1.024,0.68 1.472,1.43066 2.91334,2.872 4.38134,4.312 1.08666,1.07333 1.712,2.77733 3.084,3.45466 0.68133,0.33734 0.08,1.384 -0.59067,1.02 -3.128,-1.68533 -7.32133,-2.59333 -10.47733,-4.116 -0.116,-0.0547 -0.20267,-0.12533 -0.308,-0.18933 -2.21867,2.54533 -5.31867,4.288 -8.83734,4.752 0.536,1.416 -2.58533,9.48 -2.12533,11.17333 -1.428,-2.49733 -3.11467,-9.91333 -2.48,-11.29866 -2.956,-0.57867 -5.57333,-2.06934 -7.568,-4.16267 -0.392,-0.41867 -10.78,4.66533 -10.78,4.66533 0,0 5.864,-8.236 7.524,-9.24 0.096,-0.0533 0.188,-0.088 0.28133,-0.13333 -0.60933,-1.58133 -0.956,-3.29467 -0.95866,-5.092 0.003,-1.51467 0.24133,-2.97333 0.684,-4.34133 -0.77334,2.40266 -7.82934,-7.25467 -8.07067,-8.172 0.084,0.324 10.17067,2.19733 11.248,2.78133 0.51867,-0.54 6.88267,-4.54133 6.9,-4.04667 0,-0.032 -0.0173,-0.052 -0.0173,-0.0787 -0.072,-1.97467 0.11333,-8.02534 1.816,-10.35734 1.00533,-1.37733 3.53066,8.23334 3.51066,10.12534 3.61334,0.46533 6.79734,2.28266 9.036,4.93333 0.99734,-0.75467 1.88,-0.888 3.11734,-1.23867 0.50933,-0.144 8.63866,-2.76 8.272,-2.252 -0.69067,0.952 -1.56667,1.752 -2.46267,2.54934 -2.64933,2.33733 -6.41067,5.28933 -6.50667,5.07866 0.59067,1.56134 0.92934,3.24934 0.92934,5.01867 z m -14.21067,-39.47333 c 3.22,0.0947 6.256,2.36133 8.03733,5.536 1.928,3.42933 2.26134,8.844 1.70534,12.752 -0.61467,4.34 -1.39734,5.984 -1.352,5.99066 -0.0387,0.0107 -0.304,-1.76133 -0.73334,-5.79333 -1.104,-13.47867 -13.14133,-16.76267 -15.36266,0.52133 -0.288,4.03334 -0.62534,5.81334 -0.636,5.80667 0.02,-0.009 -0.69067,-1.64267 -1.45467,-5.97467 -2.52933,-17.388 8.12667,-18.88933 9.796,-18.83866 z m -0.012,-2.46934 c -23.16667,0.04 -41.90933,18.77734 -41.952,41.94267 0.0427,23.16667 18.78533,41.91067 41.952,41.948 23.16533,-0.0373 41.9,-18.78133 41.94,-41.948 -0.04,-23.16533 -18.77467,-41.90267 -41.94,-41.94267"
         style="fill:#b62323;fill-opacity:1;fill-rule:nonzero;stroke:none;stroke-width:0.133333" />
      <path
         id="path93"
         d="m 275.91466,354.15869 c -26.8,0 -48.51467,-21.71867 -48.51733,-48.516 0,-26.792 21.71733,-48.508 48.51733,-48.508 26.788,0 48.50533,21.716 48.516,48.508 -0.0107,26.79733 -21.728,48.516 -48.516,48.516 z m 0,-105.412 c -31.42533,0 -56.90133,25.47333 -56.90133,56.9 0,31.424 25.476,56.89733 56.90133,56.89733 31.42267,0 56.896,-25.47333 56.896,-56.89733 0,-31.42667 -25.47333,-56.9 -56.896,-56.9"
         style="fill:#b62323;fill-opacity:1;fill-rule:nonzero;stroke:none;stroke-width:0.133333" />
      <path
         id="path94"
         d="m 275.91066,295.79602 c -5.436,0.0133 -9.83867,4.412 -9.84533,9.84667 0.007,5.43733 4.40933,9.84267 9.84533,9.848 5.43467,-0.005 9.84133,-4.41067 9.84533,-9.848 -0.004,-5.43467 -4.41066,-9.83333 -9.84533,-9.84667"
         style="fill:#b62323;fill-opacity:1;fill-rule:nonzero;stroke:none;stroke-width:0.133333" />
      <path
         id="path95"
         d="m 267.58533,290.98269 c 0.0107,0.007 0.348,-1.77333 0.636,-5.80667 2.22133,-17.284 14.25866,-14 15.36266,-0.52133 0.42934,4.032 0.69467,5.804 0.73334,5.79333 -0.0453,-0.007 0.73733,-1.65066 1.352,-5.99066 0.556,-3.908 0.22266,-9.32267 -1.70534,-12.752 -1.78133,-3.17467 -4.81733,-5.44134 -8.03733,-5.536 -1.66933,-0.0507 -12.32533,1.45066 -9.796,18.83866 0.764,4.332 1.47467,5.96534 1.45467,5.97467"
         style="fill:#ffffff;fill-opacity:1;fill-rule:nonzero;stroke:none;stroke-width:0.133333" />
      <path
         id="path96"
         d="m 253.15066,303.80002 c 4.13333,1.50134 5.90267,1.70134 5.90267,1.72667 0.009,-0.005 -1.36267,-1.18933 -4.716,-3.452 -13.85867,-10.568 -4.992,-19.34933 7.23466,-13.56533 3.70267,1.63866 5.36934,2.29466 5.38267,2.25866 -0.0307,0.04 -1.05867,-1.46533 -4.50933,-4.16533 -3.11067,-2.43333 -7.96134,-4.85467 -11.89867,-4.90267 -3.64,-0.0373 -7.11867,1.45334 -8.81467,4.196 -0.876,1.42 -4.90533,11.39734 11.41867,17.904"
         style="fill:#ffffff;fill-opacity:1;fill-rule:nonzero;stroke:none;stroke-width:0.133333" />
      <path
         id="path97"
         d="m 262.03066,322.54402 c -16.076,6.71734 -19.25067,-5.35066 -8.12933,-13.04533 3.27333,-2.38933 4.67466,-3.504 4.64933,-3.53467 0.016,0.048 -1.79867,0.18667 -5.86267,1.82534 -3.66533,1.47333 -8.188,4.46533 -10.19466,7.85333 -1.85467,3.132 -2.30134,6.89067 -0.77467,9.72933 0.79067,1.46934 7.42267,9.94667 21.21467,-0.93333 3.36666,-2.82933 4.424,-4.264 4.448,-4.248 0,-0.0147 -1.70934,0.58133 -5.35067,2.35333"
         style="fill:#ffffff;fill-opacity:1;fill-rule:nonzero;stroke:none;stroke-width:0.133333" />
      <path
         id="path98"
         d="m 284.23866,320.30936 c -0.007,-0.008 -0.348,1.772 -0.63067,5.80533 -2.22266,17.284 -14.26,14 -15.364,0.52133 -0.43333,-4.02933 -0.69733,-5.8 -0.73466,-5.79466 0.0467,0.008 -0.74,1.65333 -1.352,5.99066 -0.552,3.90934 -0.22534,9.32 1.704,12.75467 1.784,3.172 4.816,5.44 8.03866,5.536 1.66934,0.048 12.32534,-1.45333 9.8,-18.84 -0.77066,-4.33067 -1.48133,-5.96533 -1.46133,-5.97333"
         style="fill:#ffffff;fill-opacity:1;fill-rule:nonzero;stroke:none;stroke-width:0.133333" />
      <path
         id="path99"
         d="m 298.67999,307.48936 c -4.13333,-1.49867 -5.908,-1.7 -5.90133,-1.72534 -0.0173,0.005 1.356,1.188 4.71067,3.456 13.856,10.56267 4.992,19.344 -7.23467,13.56134 -3.70533,-1.63867 -5.372,-2.29467 -5.38533,-2.25734 0.0333,-0.04 1.06133,1.464 4.51333,4.164 3.108,2.43467 7.96133,4.85467 11.90133,4.90134 3.63734,0.0427 7.116,-1.45067 8.808,-4.19334 0.88,-1.42133 4.90667,-11.39733 -11.412,-17.90666"
         style="fill:#ffffff;fill-opacity:1;fill-rule:nonzero;stroke:none;stroke-width:0.133333" />
      <path
         id="path100"
         d="m 288.89066,286.85469 c -3.36533,2.82933 -4.424,4.26133 -4.444,4.24533 -0.003,0.0147 1.70933,-0.58266 5.34667,-2.35333 16.08,-6.716 19.25466,5.352 8.12933,13.04533 -3.27067,2.388 -4.67467,3.50534 -4.64533,3.53467 -0.0173,-0.0467 1.79866,-0.18667 5.85866,-1.824 3.66667,-1.47467 8.18934,-4.468 10.196,-7.856 1.85734,-3.128 2.304,-6.888 0.776,-9.72933 -0.78933,-1.46934 -7.41866,-9.944 -21.21733,0.93733"
         style="fill:#ffffff;fill-opacity:1;fill-rule:nonzero;stroke:none;stroke-width:0.133333" />
      <path
         id="path101"
         d="m 275.91066,315.49069 c -5.436,-0.005 -9.83867,-4.41067 -9.84533,-9.848 0.007,-5.43467 4.40933,-9.83333 9.84533,-9.84667 5.43467,0.0133 9.84133,4.412 9.84533,9.84667 -0.004,5.43733 -4.41066,9.84267 -9.84533,9.848 z m 22.26667,-22.49467 c 0.36666,-0.508 -7.76267,2.108 -8.272,2.252 -1.23734,0.35067 -2.12,0.484 -3.11734,1.23867 -2.23866,-2.65067 -5.42266,-4.468 -9.036,-4.93333 0.02,-1.892 -2.50533,-11.50267 -3.51066,-10.12534 -1.70267,2.332 -1.888,8.38267 -1.816,10.35734 0,0.0267 0.0173,0.0467 0.0173,0.0787 -0.0173,-0.49466 -6.38133,3.50667 -6.9,4.04667 -1.07733,-0.584 -11.164,-2.45733 -11.248,-2.78133 0.24133,0.91733 7.29733,10.57466 8.07067,8.172 -0.44267,1.368 -0.68134,2.82666 -0.684,4.34133 0.003,1.79733 0.34933,3.51067 0.95866,5.092 -0.0933,0.0453 -0.18533,0.08 -0.28133,0.13333 -1.66,1.004 -7.524,9.24 -7.524,9.24 0,0 10.388,-5.084 10.78,-4.66533 1.99467,2.09333 4.612,3.584 7.568,4.16267 -0.63467,1.38533 1.052,8.80133 2.48,11.29866 -0.46,-1.69333 2.66133,-9.75733 2.12533,-11.17333 3.51867,-0.464 6.61867,-2.20667 8.83734,-4.752 0.10533,0.064 0.192,0.13467 0.308,0.18933 3.156,1.52267 7.34933,2.43067 10.47733,4.116 0.67067,0.364 1.272,-0.68266 0.59067,-1.02 -1.372,-0.67733 -1.99734,-2.38133 -3.084,-3.45466 -1.468,-1.44 -2.90934,-2.88134 -4.38134,-4.312 -0.33733,-0.328 -0.68,-0.53467 -1.024,-0.68 0.4,-1.31734 0.62534,-2.72134 0.62534,-4.17467 0,-1.76933 -0.33867,-3.45733 -0.92934,-5.01867 0.096,0.21067 3.85734,-2.74133 6.50667,-5.07866 0.896,-0.79734 1.772,-1.59734 2.46267,-2.54934"
         style="fill:#ffffff;fill-opacity:1;fill-rule:nonzero;stroke:none;stroke-width:0.133333" />
      <path
         id="path102"
         d="m 275.91466,347.59069 c -23.16667,-0.0373 -41.90933,-18.78133 -41.952,-41.948 0.0427,-23.16533 18.78533,-41.90267 41.952,-41.94267 23.16533,0.04 41.9,18.77734 41.94,41.94267 -0.04,23.16667 -18.77467,41.91067 -41.94,41.948 z m 0,-90.456 c -26.8,0 -48.51733,21.716 -48.51733,48.508 0.003,26.79733 21.71733,48.516 48.51733,48.516 26.788,0 48.50533,-21.71867 48.516,-48.516 -0.0107,-26.792 -21.728,-48.508 -48.516,-48.508"
         style="fill:#ffffff;fill-opacity:1;fill-rule:nonzero;stroke:none;stroke-width:0.133333" />
      <path
         id="path103"
         d="m 310.10799,402.64002 c 1.528,2.84 1.08134,6.59867 -0.776,9.728 -2.00666,3.38667 -6.52933,6.38 -10.196,7.856 -4.06,1.63867 -5.876,1.77867 -5.85866,1.82267 -0.0293,-0.0253 1.37466,-1.14134 4.64533,-3.53334 11.12533,-7.69333 7.95067,-19.76 -8.12933,-13.044 -3.63734,1.77334 -5.34934,2.36667 -5.34667,2.35334 0.02,0.016 1.07867,-1.416 4.444,-4.24667 13.79867,-10.88133 20.428,-2.40667 21.21733,-0.936 z m -0.016,39.476 c -1.692,2.744 -5.17066,4.236 -8.808,4.19333 -3.94,-0.044 -8.79333,-2.46533 -11.90133,-4.9 -3.452,-2.7 -4.48,-4.20266 -4.51333,-4.16533 0.0133,-0.0373 1.68,0.62 5.38533,2.25867 12.22667,5.78666 21.09067,-2.99734 7.23467,-13.56267 -3.35467,-2.26667 -4.728,-3.44933 -4.71067,-3.45467 -0.007,0.024 1.768,0.224 5.90133,1.72534 16.31867,6.508 12.292,16.48533 11.412,17.90533 z m -34.192,19.72667 c -3.22266,-0.096 -6.25466,-2.36267 -8.03866,-5.53334 -1.92934,-3.43333 -2.256,-8.84666 -1.704,-12.756 0.612,-4.33733 1.39866,-5.98 1.352,-5.99066 0.0373,-0.007 0.30133,1.764 0.73466,5.79333 1.104,13.48 13.14134,16.764 15.364,-0.51733 0.28267,-4.036 0.624,-5.816 0.63067,-5.808 -0.02,0.008 0.69067,1.644 1.46133,5.972 2.52534,17.38933 -8.13066,18.892 -9.8,18.84 z m -12.96666,-20.68267 c -13.792,10.88 -20.424,2.40667 -21.21467,0.93333 -1.52667,-2.83866 -1.08,-6.59733 0.77467,-9.72666 2.00666,-3.39067 6.52933,-6.38 10.19466,-7.856 4.064,-1.63734 5.87867,-1.77867 5.86267,-1.82534 0.0253,0.0293 -1.376,1.14534 -4.64933,3.53467 -11.12134,7.696 -7.94667,19.76267 8.12933,13.04667 3.64133,-1.77334 5.35067,-2.37067 5.35067,-2.35467 -0.024,-0.016 -1.08134,1.41733 -4.448,4.248 z m -21.20134,-38.54133 c 1.696,-2.74534 5.17467,-4.236 8.81467,-4.19734 3.93733,0.0493 8.788,2.46667 11.89867,4.90534 3.45066,2.69866 4.47866,4.20266 4.50933,4.164 -0.0133,0.0387 -1.68,-0.61867 -5.38267,-2.26 -12.22666,-5.784 -21.09333,2.99866 -7.23466,13.56533 3.35333,2.26267 4.72533,3.44667 4.716,3.45467 0,-0.0267 -1.76934,-0.228 -5.90267,-1.728 -16.324,-6.50534 -12.29467,-16.48534 -11.41867,-17.904 z m 48.40534,19.74666 c 0,1.456 -0.22534,2.85467 -0.62534,4.17467 0.344,0.14533 0.68667,0.35333 1.024,0.68133 1.472,1.428 2.91334,2.87067 4.38134,4.31067 1.08666,1.07333 1.712,2.77733 3.084,3.45733 0.68133,0.33734 0.08,1.38267 -0.59067,1.01867 -3.128,-1.68933 -7.32133,-2.596 -10.47733,-4.11867 -0.116,-0.0547 -0.20267,-0.124 -0.308,-0.19066 -2.21867,2.54666 -5.31867,4.28933 -8.83734,4.75466 0.536,1.41467 -2.58533,9.47867 -2.12533,11.17067 -1.428,-2.49733 -3.11467,-9.91067 -2.48,-11.29733 -2.956,-0.57867 -5.57333,-2.068 -7.568,-4.16267 -0.392,-0.41867 -10.78,4.668 -10.78,4.668 0,0 5.864,-8.236 7.524,-9.24133 0.096,-0.056 0.188,-0.0907 0.28133,-0.13334 -0.60933,-1.584 -0.956,-3.29466 -0.95866,-5.092 0.003,-1.51466 0.24133,-2.97333 0.684,-4.34533 -0.77334,2.40533 -7.82934,-7.25333 -8.07067,-8.16933 0.084,0.324 10.17067,2.19866 11.248,2.78133 0.51867,-0.53733 6.88267,-4.53867 6.9,-4.04933 0,-0.028 -0.0173,-0.0453 -0.0173,-0.0773 -0.072,-1.97066 0.11333,-8.024 1.816,-10.356 1.00533,-1.37866 3.53066,8.23334 3.51066,10.12667 3.61334,0.468 6.79734,2.27867 9.036,4.932 0.99734,-0.75733 1.88,-0.88933 3.11734,-1.236 0.50933,-0.144 8.63866,-2.75867 8.272,-2.252 -0.69067,0.95067 -1.56667,1.752 -2.46267,2.54667 -2.64933,2.33733 -6.41067,5.28933 -6.50667,5.07866 0.59067,1.56267 0.92934,3.24934 0.92934,5.02 z m -14.21067,-39.47333 c 3.22,0.096 6.256,2.36267 8.03733,5.532 1.928,3.436 2.26134,8.84533 1.70534,12.75867 -0.61467,4.33733 -1.39734,5.98266 -1.352,5.99066 -0.0387,0.007 -0.304,-1.76533 -0.73334,-5.796 -1.104,-13.48133 -13.14133,-16.76133 -15.36266,0.51867 -0.288,4.036 -0.62534,5.816 -0.636,5.80533 0.02,-0.007 -0.69067,-1.64266 -1.45467,-5.96933 -2.52933,-17.39067 8.12667,-18.892 9.796,-18.84 z m -0.012,-2.47067 c -23.16667,0.04 -41.90933,18.77734 -41.952,41.94267 0.0427,23.16533 18.78533,41.908 41.952,41.94933 23.16533,-0.0413 41.9,-18.784 41.94,-41.94933 -0.04,-23.16533 -18.77467,-41.90267 -41.94,-41.94267"
         style="fill:#b62323;fill-opacity:1;fill-rule:nonzero;stroke:none;stroke-width:0.133333" />
      <path
         id="path104"
         d="m 275.91466,470.88002 c -26.8,0 -48.51467,-21.71733 -48.51733,-48.516 0,-26.78933 21.71733,-48.508 48.51733,-48.508 26.788,0 48.50533,21.71867 48.516,48.508 -0.0107,26.79867 -21.728,48.516 -48.516,48.516 z m 0,-105.40933 c -31.42533,0 -56.90133,25.47333 -56.90133,56.89733 0,31.424 25.476,56.9 56.90133,56.9 31.42267,0 56.896,-25.476 56.896,-56.9 0,-31.424 -25.47333,-56.89733 -56.896,-56.89733"
         style="fill:#b62323;fill-opacity:1;fill-rule:nonzero;stroke:none;stroke-width:0.133333" />
      <path
         id="path105"
         d="m 275.91066,412.51869 c -5.436,0.012 -9.83867,4.41066 -9.84533,9.84666 0.007,5.43734 4.40933,9.84 9.84533,9.848 5.43467,-0.008 9.84133,-4.41066 9.84533,-9.848 -0.004,-5.436 -4.41066,-9.83466 -9.84533,-9.84666"
         style="fill:#b62323;fill-opacity:1;fill-rule:nonzero;stroke:none;stroke-width:0.133333" />
      <path
         id="path106"
         d="m 267.58533,407.70135 c 0.0107,0.0107 0.348,-1.76933 0.636,-5.80533 2.22133,-17.28 14.25866,-14 15.36266,-0.51867 0.42934,4.03067 0.69467,5.80267 0.73334,5.796 -0.0453,-0.008 0.73733,-1.65333 1.352,-5.99066 0.556,-3.91334 0.22266,-9.32267 -1.70534,-12.75867 -1.78133,-3.16933 -4.81733,-5.436 -8.03733,-5.532 -1.66933,-0.052 -12.32533,1.44933 -9.796,18.84 0.764,4.32667 1.47467,5.96267 1.45467,5.96933"
         style="fill:#ffffff;fill-opacity:1;fill-rule:nonzero;stroke:none;stroke-width:0.133333" />
      <path
         id="path107"
         d="m 253.15066,420.52269 c 4.13333,1.5 5.90267,1.70133 5.90267,1.728 0.009,-0.008 -1.36267,-1.192 -4.716,-3.45467 -13.85867,-10.56667 -4.992,-19.34933 7.23466,-13.56533 3.70267,1.64133 5.36934,2.29866 5.38267,2.26 -0.0307,0.0387 -1.05867,-1.46534 -4.50933,-4.164 -3.11067,-2.43867 -7.96134,-4.856 -11.89867,-4.90534 -3.64,-0.0387 -7.11867,1.452 -8.81467,4.19734 -0.876,1.41866 -4.90533,11.39866 11.41867,17.904"
         style="fill:#ffffff;fill-opacity:1;fill-rule:nonzero;stroke:none;stroke-width:0.133333" />
      <path
         id="path108"
         d="m 262.03066,439.26669 c -16.076,6.716 -19.25067,-5.35067 -8.12933,-13.04667 3.27333,-2.38933 4.67466,-3.50533 4.64933,-3.53467 0.016,0.0467 -1.79867,0.188 -5.86267,1.82534 -3.66533,1.476 -8.188,4.46533 -10.19466,7.856 -1.85467,3.12933 -2.30134,6.888 -0.77467,9.72666 0.79067,1.47334 7.42267,9.94667 21.21467,-0.93333 3.36666,-2.83067 4.424,-4.264 4.448,-4.248 0,-0.016 -1.70934,0.58133 -5.35067,2.35467"
         style="fill:#ffffff;fill-opacity:1;fill-rule:nonzero;stroke:none;stroke-width:0.133333" />
      <path
         id="path109"
         d="m 284.23866,437.03069 c -0.007,-0.008 -0.348,1.772 -0.63067,5.808 -2.22266,17.28133 -14.26,13.99733 -15.364,0.51733 -0.43333,-4.02933 -0.69733,-5.8 -0.73466,-5.79333 0.0467,0.0107 -0.74,1.65333 -1.352,5.99066 -0.552,3.90934 -0.22534,9.32267 1.704,12.756 1.784,3.17067 4.816,5.43734 8.03866,5.53334 1.66934,0.052 12.32534,-1.45067 9.8,-18.84 -0.77066,-4.328 -1.48133,-5.964 -1.46133,-5.972"
         style="fill:#ffffff;fill-opacity:1;fill-rule:nonzero;stroke:none;stroke-width:0.133333" />
      <path
         id="path110"
         d="m 298.67999,424.21069 c -4.13333,-1.50134 -5.908,-1.70134 -5.90133,-1.72534 -0.0173,0.005 1.356,1.188 4.71067,3.45467 13.856,10.56533 4.992,19.34933 -7.23467,13.56267 -3.70533,-1.63867 -5.372,-2.296 -5.38533,-2.25867 0.0333,-0.0373 1.06133,1.46533 4.51333,4.16533 3.108,2.43467 7.96133,4.856 11.90133,4.9 3.63734,0.0427 7.116,-1.44933 8.808,-4.19333 0.88,-1.42 4.90667,-11.39733 -11.412,-17.90533"
         style="fill:#ffffff;fill-opacity:1;fill-rule:nonzero;stroke:none;stroke-width:0.133333" />
      <path
         id="path111"
         d="m 288.89066,403.57602 c -3.36533,2.83067 -4.424,4.26267 -4.444,4.24667 -0.003,0.0133 1.70933,-0.58 5.34667,-2.35334 16.08,-6.716 19.25466,5.35067 8.12933,13.044 -3.27067,2.392 -4.67467,3.508 -4.64533,3.53334 -0.0173,-0.044 1.79866,-0.184 5.85866,-1.82267 3.66667,-1.476 8.18934,-4.46933 10.196,-7.856 1.85734,-3.12933 2.304,-6.888 0.776,-9.728 -0.78933,-1.47067 -7.41866,-9.94533 -21.21733,0.936"
         style="fill:#ffffff;fill-opacity:1;fill-rule:nonzero;stroke:none;stroke-width:0.133333" />
      <path
         id="path112"
         d="m 275.91066,432.21335 c -5.436,-0.008 -9.83867,-4.41066 -9.84533,-9.848 0.007,-5.436 4.40933,-9.83466 9.84533,-9.84666 5.43467,0.012 9.84133,4.41066 9.84533,9.84666 -0.004,5.43734 -4.41066,9.84 -9.84533,9.848 z m 22.26667,-22.49333 c 0.36666,-0.50667 -7.76267,2.108 -8.272,2.252 -1.23734,0.34667 -2.12,0.47867 -3.11734,1.236 -2.23866,-2.65333 -5.42266,-4.464 -9.036,-4.932 0.02,-1.89333 -2.50533,-11.50533 -3.51066,-10.12667 -1.70267,2.332 -1.888,8.38534 -1.816,10.356 0,0.032 0.0173,0.0493 0.0173,0.0773 -0.0173,-0.48934 -6.38133,3.512 -6.9,4.04933 -1.07733,-0.58267 -11.164,-2.45733 -11.248,-2.78133 0.24133,0.916 7.29733,10.57466 8.07067,8.16933 -0.44267,1.372 -0.68134,2.83067 -0.684,4.34533 0.003,1.79734 0.34933,3.508 0.95866,5.092 -0.0933,0.0427 -0.18533,0.0773 -0.28133,0.13334 -1.66,1.00533 -7.524,9.24133 -7.524,9.24133 0,0 10.388,-5.08667 10.78,-4.668 1.99467,2.09467 4.612,3.584 7.568,4.16267 -0.63467,1.38666 1.052,8.8 2.48,11.29733 -0.46,-1.692 2.66133,-9.756 2.12533,-11.17067 3.51867,-0.46533 6.61867,-2.208 8.83734,-4.75466 0.10533,0.0667 0.192,0.136 0.308,0.19066 3.156,1.52267 7.34933,2.42934 10.47733,4.11867 0.67067,0.364 1.272,-0.68133 0.59067,-1.01867 -1.372,-0.68 -1.99734,-2.384 -3.084,-3.45733 -1.468,-1.44 -2.90934,-2.88267 -4.38134,-4.31067 -0.33733,-0.328 -0.68,-0.536 -1.024,-0.68133 0.4,-1.32 0.62534,-2.71867 0.62534,-4.17467 0,-1.77066 -0.33867,-3.45733 -0.92934,-5.02 0.096,0.21067 3.85734,-2.74133 6.50667,-5.07866 0.896,-0.79467 1.772,-1.596 2.46267,-2.54667"
         style="fill:#ffffff;fill-opacity:1;fill-rule:nonzero;stroke:none;stroke-width:0.133333" />
      <path
         id="path113"
         d="m 275.91466,464.31335 c -23.16667,-0.0413 -41.90933,-18.784 -41.952,-41.94933 0.0427,-23.16533 18.78533,-41.90267 41.952,-41.94267 23.16533,0.04 41.9,18.77734 41.94,41.94267 -0.04,23.16533 -18.77467,41.908 -41.94,41.94933 z m 0,-90.45733 c -26.8,0 -48.51733,21.71867 -48.51733,48.508 0.003,26.79867 21.71733,48.516 48.51733,48.516 26.788,0 48.50533,-21.71733 48.516,-48.516 -0.0107,-26.78933 -21.728,-48.508 -48.516,-48.508"
         style="fill:#ffffff;fill-opacity:1;fill-rule:nonzero;stroke:none;stroke-width:0.133333" />
    </g>
  </g>
</svg>
