<?xml version="1.0" encoding="UTF-8" standalone="no"?>
<!-- Created with Inkscape (http://www.inkscape.org/) -->

<svg
   version="1.1"
   id="svg1"
   width="337"
   height="500"
   viewBox="0 0 337.00001 499.99999"
   xmlns="http://www.w3.org/2000/svg"
   xmlns:svg="http://www.w3.org/2000/svg">
  <defs
     id="defs1" />
  <g
     id="g1"
     transform="translate(-1735)">
    <g
       id="g246"
       transform="matrix(0.98461122,0,0,0.98461122,1362.792,-718.12161)">
      <path
         id="path114"
         d="m 713.17465,1179.6105 c -0.0493,28.0468 -22.728,50.7255 -50.77733,50.7787 H 435.57066 c -28.04534,-0.053 -50.72534,-22.7319 -50.77467,-50.7787 V 786.90401 c 0.0493,-28.048 22.72933,-50.73466 50.77467,-50.788 h 226.82666 c 28.04933,0.0533 50.728,22.74 50.77733,50.788 l 0.0107,392.70649 z m 6.772,0 V 786.90401 c 0,-31.79333 -25.76533,-57.55866 -57.54933,-57.55866 H 435.57066 c -31.78134,0 -57.54534,25.76533 -57.54534,57.55866 v 392.70649 c 0,31.7839 25.764,57.5495 57.54534,57.5495 h 226.82666 c 31.784,0 57.54933,-25.7656 57.55866,-57.5495 h -0.009"
         style="fill:#211d1d;fill-opacity:1;fill-rule:nonzero;stroke:none;stroke-width:0.133333" />
      <path
         id="path115"
         d="m 425.81732,874.63734 c -1.97733,-3.67866 -1.39866,-8.54933 1.00534,-12.604 2.60133,-4.39066 8.46,-8.264 13.204,-10.17466 5.264,-2.12134 7.61733,-2.30534 7.59733,-2.36667 0.0333,0.04 -1.78533,1.48533 -6.024,4.58267 -14.40667,9.968 -10.29467,25.60133 10.53333,16.9 4.71467,-2.29734 6.92934,-3.06934 6.92934,-3.05334 -0.0267,-0.0187 -1.40134,1.83867 -5.75867,5.50534 -17.872,14.096 -26.46267,3.116 -27.48667,1.21066 z m 0.0187,-51.14 c 2.196,-3.556 6.70267,-5.488 11.41333,-5.43466 5.10534,0.0587 11.39067,3.19333 15.42,6.35066 4.47067,3.49734 5.80267,5.44267 5.84534,5.39467 -0.02,0.048 -2.17867,-0.804 -6.98,-2.928 -15.836,-7.49333 -27.31734,3.88533 -9.36934,17.57467 4.34534,2.932 6.124,4.46533 6.10667,4.472 0.008,-0.0307 -2.29067,-0.29067 -7.644,-2.23467 -21.14533,-8.43067 -15.932,-21.35733 -14.792,-23.19467 z m 44.296,-25.55866 c 4.17866,0.12533 8.10666,3.06266 10.41466,7.16933 2.50267,4.448 2.928,11.46 2.21067,16.52533 -0.796,5.62134 -1.81467,7.752 -1.748,7.76134 -0.0533,0.0107 -0.396,-2.284 -0.95867,-7.50534 -1.42933,-17.464 -17.01999,-21.71733 -19.90266,0.672 -0.368,5.228 -0.80667,7.532 -0.82,7.524 0.0293,-0.012 -0.89333,-2.13066 -1.884,-7.73866 -3.27467,-22.52934 10.52666,-24.47334 12.688,-24.408 z m 16.80133,26.79866 c 17.87333,-14.09866 26.45867,-3.11733 27.48,-1.212 1.984,3.67867 1.40267,8.54934 -0.99733,12.60267 -2.60667,4.388 -8.464,8.264 -13.212,10.17733 -5.26267,2.12 -7.61467,2.3 -7.59334,2.36267 -0.0333,-0.036 1.78534,-1.48267 6.024,-4.58 14.40667,-9.96667 10.29734,-25.6 -10.53466,-16.89867 -4.71067,2.29467 -6.92934,3.06667 -6.92667,3.05067 0.024,0.02 1.396,-1.83733 5.76,-5.50267 z m 27.46667,49.92934 c -2.19467,3.55333 -6.704,5.48666 -11.41867,5.43333 -5.10133,-0.06 -11.38667,-3.19467 -15.41333,-6.34933 -4.46934,-3.49734 -5.80534,-5.444 -5.844,-5.396 0.012,-0.0467 2.17466,0.80266 6.97466,2.92666 15.836,7.49334 27.32267,-3.88266 9.36934,-17.57333 -4.344,-2.93333 -6.12267,-4.46667 -6.10667,-4.47333 -0.003,0.0307 2.292,0.292 7.648,2.236 21.14533,8.43066 15.928,21.35466 14.79067,23.196 z m -62.72,-25.58667 c 0.004,-1.964 0.31467,-3.85333 0.88667,-5.628 -1.00134,3.11467 -10.14267,-9.39733 -10.456,-10.58667 0.108,0.42267 13.17733,2.84934 14.572,3.604 0.672,-0.69733 8.91733,-5.88133 8.94,-5.244 0,-0.0387 -0.0227,-0.0627 -0.0227,-0.1 -0.096,-2.55733 0.14533,-10.39733 2.34933,-13.41733 1.30267,-1.788 4.58,10.664 4.55067,13.116 4.68,0.608 8.80933,2.956 11.70533,6.39067 1.29333,-0.97867 2.43733,-1.15067 4.03733,-1.60267 0.65734,-0.18533 11.19067,-3.576 10.71467,-2.91467 -0.892,1.22934 -2.02267,2.26667 -3.19067,3.29867 -3.428,3.028 -8.304,6.85067 -8.42666,6.58 0.764,2.02267 1.2,4.20933 1.2,6.504 0,1.88267 -0.284,3.69733 -0.80667,5.40533 0.44267,0.19067 0.89333,0.45867 1.32933,0.88134 1.908,1.85466 3.77467,3.72133 5.67334,5.58666 1.41466,1.39067 2.21733,3.59734 4,4.47734 0.88,0.43466 0.0987,1.792 -0.76934,1.32266 -4.048,-2.18666 -9.48,-3.36266 -13.572,-5.33466 -0.152,-0.072 -0.26533,-0.164 -0.396,-0.248 -2.87733,3.29866 -6.89733,5.55466 -11.44933,6.15733 0.69067,1.83333 -3.34933,12.28133 -2.75733,14.47467 -1.852,-3.23467 -4.03733,-12.84267 -3.21733,-14.63734 -3.82134,-0.748 -7.21334,-2.68 -9.79867,-5.392 -0.51333,-0.54266 -13.96533,6.044 -13.96533,6.044 0,0 7.59066,-10.66666 9.74666,-11.96933 0.12267,-0.072 0.244,-0.11733 0.36267,-0.17333 -0.78933,-2.052 -1.236,-4.26667 -1.24,-6.59467 z m 18.41866,51.14267 c -4.17199,-0.124 -8.10266,-3.06134 -10.41066,-7.16934 -2.50267,-4.45066 -2.92533,-11.46266 -2.212,-16.52533 0.79733,-5.62 1.816,-7.74933 1.752,-7.76133 0.0507,-0.008 0.39067,2.28533 0.956,7.50666 1.428,17.464 17.02266,21.71734 19.9,-0.672 0.36933,-5.22933 0.80933,-7.536 0.82266,-7.524 -0.0293,0.0107 0.89334,2.12934 1.888,7.73734 3.27334,22.52933 -10.53333,24.47466 -12.696,24.408 z m 0.02,3.2 c 30.00934,-0.052 54.28534,-24.33467 54.336,-54.34534 -0.0507,-30.01066 -24.32666,-54.28533 -54.336,-54.336 -30.01199,0.0507 -54.29599,24.32534 -54.34799,54.336 0.052,30.01067 24.336,54.29334 54.34799,54.34534"
         style="fill:#276952;fill-opacity:1;fill-rule:nonzero;stroke:none;stroke-width:0.133333" />
      <path
         id="path116"
         d="m 470.11865,786.23468 c 34.708,0 62.84267,28.13333 62.84934,62.84266 -0.007,34.716 -28.14134,62.852 -62.84934,62.852 -34.71733,0 -62.84799,-28.136 -62.85466,-62.852 0,-34.70933 28.13733,-62.84266 62.85466,-62.84266 z m 0,136.56133 c 40.712,0 73.71334,-33.00267 73.71334,-73.71333 0,-40.71334 -33.00134,-73.71467 -73.71334,-73.71467 -40.71066,0 -73.71466,33.00133 -73.71466,73.71467 0,40.71066 33.004,73.71333 73.71466,73.71333"
         style="fill:#276952;fill-opacity:1;fill-rule:nonzero;stroke:none;stroke-width:0.133333" />
      <path
         id="path117"
         d="m 470.11465,861.83601 c 7.03867,-0.009 12.74934,-5.71467 12.756,-12.756 -0.007,-7.04267 -5.71733,-12.74267 -12.756,-12.75867 -7.04133,0.016 -12.74799,5.716 -12.75733,12.75867 0.009,7.04133 5.716,12.74667 12.75733,12.756"
         style="fill:#276952;fill-opacity:1;fill-rule:nonzero;stroke:none;stroke-width:0.133333" />
      <path
         id="path118"
         d="m 459.32799,830.08534 c 0.0133,0.008 0.452,-2.296 0.82,-7.524 2.88267,-22.38933 18.47333,-18.136 19.90266,-0.672 0.56267,5.22134 0.90534,7.516 0.95867,7.50534 -0.0667,-0.009 0.952,-2.14 1.748,-7.76134 0.71733,-5.06533 0.292,-12.07733 -2.21067,-16.52533 -2.308,-4.10667 -6.236,-7.044 -10.41466,-7.16933 -2.16134,-0.0653 -15.96267,1.87866 -12.688,24.408 0.99067,5.608 1.91333,7.72666 1.884,7.73866"
         style="fill:#ffffff;fill-opacity:1;fill-rule:nonzero;stroke:none;stroke-width:0.133333" />
      <path
         id="path119"
         d="m 440.62799,846.69201 c 5.35333,1.944 7.652,2.204 7.644,2.23467 0.0173,-0.007 -1.76133,-1.54 -6.10667,-4.472 -17.948,-13.68934 -6.46666,-25.068 9.36934,-17.57467 4.80133,2.124 6.96,2.976 6.98,2.928 -0.0427,0.048 -1.37467,-1.89733 -5.84534,-5.39467 -4.02933,-3.15733 -10.31466,-6.292 -15.42,-6.35066 -4.71066,-0.0533 -9.21733,1.87866 -11.41333,5.43466 -1.14,1.83734 -6.35333,14.764 14.792,23.19467"
         style="fill:#ffffff;fill-opacity:1;fill-rule:nonzero;stroke:none;stroke-width:0.133333" />
      <path
         id="path120"
         d="m 453.30399,873.42668 c 4.35733,-3.66667 5.732,-5.524 5.75867,-5.50534 0,-0.016 -2.21467,0.756 -6.92934,3.05334 -20.828,8.70133 -24.94,-6.932 -10.53333,-16.9 4.23867,-3.09734 6.05733,-4.54267 6.024,-4.58267 0.02,0.0613 -2.33333,0.24533 -7.59733,2.36667 -4.744,1.91066 -10.60267,5.784 -13.204,10.17466 -2.404,4.05467 -2.98267,8.92534 -1.00534,12.604 1.024,1.90534 9.61467,12.88534 27.48667,-1.21066"
         style="fill:#ffffff;fill-opacity:1;fill-rule:nonzero;stroke:none;stroke-width:0.133333" />
      <path
         id="path121"
         d="m 480.90665,868.07734 c -0.0133,-0.012 -0.45333,2.29467 -0.82266,7.524 -2.87734,22.38934 -18.472,18.136 -19.9,0.672 -0.56533,-5.22133 -0.90533,-7.51466 -0.956,-7.50666 0.064,0.012 -0.95467,2.14133 -1.752,7.76133 -0.71333,5.06267 -0.29067,12.07467 2.212,16.52533 2.308,4.108 6.23867,7.04534 10.41066,7.16934 2.16267,0.0667 15.96934,-1.87867 12.696,-24.408 -0.99466,-5.608 -1.91733,-7.72667 -1.888,-7.73734"
         style="fill:#ffffff;fill-opacity:1;fill-rule:nonzero;stroke:none;stroke-width:0.133333" />
      <path
         id="path122"
         d="m 499.60932,851.47068 c -5.356,-1.944 -7.65067,-2.20534 -7.648,-2.236 -0.016,0.007 1.76267,1.54 6.10667,4.47333 17.95333,13.69067 6.46666,25.06667 -9.36934,17.57333 -4.8,-2.124 -6.96266,-2.97333 -6.97466,-2.92666 0.0387,-0.048 1.37466,1.89866 5.844,5.396 4.02666,3.15466 10.312,6.28933 15.41333,6.34933 4.71467,0.0533 9.224,-1.88 11.41867,-5.43333 1.13733,-1.84134 6.35466,-14.76534 -14.79067,-23.196"
         style="fill:#ffffff;fill-opacity:1;fill-rule:nonzero;stroke:none;stroke-width:0.133333" />
      <path
         id="path123"
         d="m 488.09999,827.18934 c 20.832,-8.70133 24.94133,6.932 10.53466,16.89867 -4.23866,3.09733 -6.05733,4.544 -6.024,4.58 -0.0213,-0.0627 2.33067,-0.24267 7.59334,-2.36267 4.748,-1.91333 10.60533,-5.78933 13.212,-10.17733 2.4,-4.05333 2.98133,-8.924 0.99733,-12.60267 -1.02133,-1.90533 -9.60667,-12.88666 -27.48,1.212 -4.364,3.66534 -5.736,5.52267 -5.76,5.50267 -0.003,0.016 2.216,-0.756 6.92667,-3.05067"
         style="fill:#ffffff;fill-opacity:1;fill-rule:nonzero;stroke:none;stroke-width:0.133333" />
      <path
         id="path124"
         d="m 470.11465,836.32134 c 7.03867,0.016 12.74934,5.716 12.756,12.75867 -0.007,7.04133 -5.71733,12.74667 -12.756,12.756 -7.04133,-0.009 -12.74799,-5.71467 -12.75733,-12.756 0.009,-7.04267 5.716,-12.74267 12.75733,-12.75867 z m -27.30399,31.496 c 0,0 13.452,-6.58666 13.96533,-6.044 2.58533,2.712 5.97733,4.644 9.79867,5.392 -0.82,1.79467 1.36533,11.40267 3.21733,14.63734 -0.592,-2.19334 3.448,-12.64134 2.75733,-14.47467 4.552,-0.60267 8.572,-2.85867 11.44933,-6.15733 0.13067,0.084 0.244,0.176 0.396,0.248 4.092,1.972 9.524,3.148 13.572,5.33466 0.868,0.46934 1.64934,-0.888 0.76934,-1.32266 -1.78267,-0.88 -2.58534,-3.08667 -4,-4.47734 -1.89867,-1.86533 -3.76534,-3.732 -5.67334,-5.58666 -0.436,-0.42267 -0.88666,-0.69067 -1.32933,-0.88134 0.52267,-1.708 0.80667,-3.52266 0.80667,-5.40533 0,-2.29467 -0.436,-4.48133 -1.2,-6.504 0.12266,0.27067 4.99866,-3.552 8.42666,-6.58 1.168,-1.032 2.29867,-2.06933 3.19067,-3.29867 0.476,-0.66133 -10.05733,2.72934 -10.71467,2.91467 -1.6,0.452 -2.744,0.624 -4.03733,1.60267 -2.896,-3.43467 -7.02533,-5.78267 -11.70533,-6.39067 0.0293,-2.452 -3.248,-14.904 -4.55067,-13.116 -2.204,3.02 -2.44533,10.86 -2.34933,13.41733 0,0.0373 0.0227,0.0613 0.0227,0.1 -0.0227,-0.63733 -8.268,4.54667 -8.94,5.244 -1.39467,-0.75466 -14.464,-3.18133 -14.572,-3.604 0.31333,1.18934 9.45466,13.70134 10.456,10.58667 -0.572,1.77467 -0.88267,3.664 -0.88667,5.628 0.004,2.328 0.45067,4.54267 1.24,6.59467 -0.11867,0.056 -0.24,0.10133 -0.36267,0.17333 -2.156,1.30267 -9.74666,11.96933 -9.74666,11.96933"
         style="fill:#ffffff;fill-opacity:1;fill-rule:nonzero;stroke:none;stroke-width:0.133333" />
      <path
         id="path125"
         d="m 470.11865,794.74134 c 30.00934,0.0507 54.28534,24.32534 54.336,54.336 -0.0507,30.01067 -24.32666,54.29334 -54.336,54.34534 -30.01199,-0.052 -54.29599,-24.33467 -54.34799,-54.34534 0.052,-30.01066 24.336,-54.28533 54.34799,-54.336 z m 0,117.188 c 34.708,0 62.84267,-28.136 62.84934,-62.852 -0.007,-34.70933 -28.14134,-62.84266 -62.84934,-62.84266 -34.71733,0 -62.85466,28.13333 -62.85466,62.84266 0.007,34.716 28.13733,62.852 62.85466,62.852"
         style="fill:#ffffff;fill-opacity:1;fill-rule:nonzero;stroke:none;stroke-width:0.133333" />
      <path
         id="path126"
         d="m 669.40932,823.52534 c 1.98133,3.67867 1.40133,8.54934 -1.00134,12.60267 -2.60266,4.388 -8.46133,8.264 -13.208,10.17733 -5.26266,2.12 -7.61733,2.3 -7.59466,2.36267 -0.032,-0.036 1.78266,-1.48267 6.024,-4.58 14.408,-9.96667 10.29866,-25.6 -10.53334,-16.89867 -4.71066,2.29467 -6.92933,3.06667 -6.92666,3.05067 0.024,0.02 1.396,-1.83733 5.76,-5.50267 17.87333,-14.09866 26.45866,-3.11733 27.48,-1.212 z m -0.0133,51.14134 c -2.19866,3.55333 -6.704,5.48666 -11.42,5.43333 -5.1,-0.06 -11.38533,-3.19467 -15.416,-6.34933 -4.46533,-3.49734 -5.80133,-5.444 -5.84133,-5.396 0.0133,-0.0467 2.17467,0.80266 6.976,2.92666 15.836,7.49334 27.32133,-3.88266 9.36933,-17.57333 -4.344,-2.93333 -6.12266,-4.46667 -6.10666,-4.47333 -0.003,0.0307 2.292,0.292 7.648,2.236 21.14533,8.43066 15.928,21.35466 14.79066,23.196 z m -44.30133,25.556 c -4.172,-0.124 -8.104,-3.06134 -10.41067,-7.16934 -2.50266,-4.45066 -2.92666,-11.46266 -2.212,-16.52533 0.796,-5.62 1.81467,-7.74933 1.752,-7.76133 0.0493,-0.008 0.39067,2.28533 0.952,7.50666 1.432,17.464 17.02667,21.71734 19.90267,-0.672 0.37067,-5.22933 0.81067,-7.536 0.824,-7.524 -0.0307,0.0107 0.892,2.12934 1.88667,7.73734 3.27333,22.52933 -10.532,24.47466 -12.69467,24.408 z m -16.79467,-26.796 c -17.87333,14.096 -26.46266,3.116 -27.48666,1.21066 -1.97733,-3.67866 -1.39867,-8.54933 1.00533,-12.604 2.60134,-4.39066 8.46,-8.264 13.204,-10.17466 5.26267,-2.12134 7.61733,-2.30534 7.59733,-2.36667 0.0333,0.04 -1.78533,1.48533 -6.02399,4.58267 -14.408,9.968 -10.29467,25.60133 10.53333,16.9 4.71466,-2.29734 6.92933,-3.06934 6.92933,-3.05334 -0.0267,-0.0187 -1.40133,1.83867 -5.75867,5.50534 z m -27.46666,-49.92934 c 2.19467,-3.556 6.70133,-5.488 11.412,-5.43466 5.10533,0.0587 11.38933,3.19333 15.42,6.35066 4.46666,3.49734 5.80133,5.44267 5.844,5.39467 -0.0187,0.048 -2.17734,-0.804 -6.97867,-2.928 -15.83466,-7.49333 -27.31733,3.88533 -9.36933,17.57467 4.344,2.932 6.12266,4.46533 6.10666,4.472 0.004,-0.0307 -2.292,-0.29067 -7.64666,-2.23467 -21.14267,-8.43067 -15.92933,-21.35733 -14.788,-23.19467 z m 62.70266,25.58267 c 0,1.88267 -0.284,3.69733 -0.80666,5.40533 0.44266,0.19067 0.892,0.45867 1.32933,0.88134 1.908,1.85466 3.776,3.72133 5.67333,5.58666 1.41334,1.39067 2.21734,3.59734 4,4.47734 0.88,0.43466 0.1,1.792 -0.77066,1.32266 -4.04934,-2.18666 -9.47867,-3.36266 -13.57067,-5.33466 -0.152,-0.072 -0.26533,-0.164 -0.39733,-0.248 -2.876,3.29866 -6.896,5.55466 -11.44934,6.15733 0.692,1.83333 -3.348,12.28133 -2.75733,14.47467 -1.85067,-3.23467 -4.036,-12.84267 -3.216,-14.63734 -3.82267,-0.748 -7.21333,-2.68 -9.8,-5.392 -0.512,-0.54266 -13.964,6.044 -13.964,6.044 0,0 7.58933,-10.66666 9.74667,-11.96933 0.12133,-0.072 0.244,-0.11733 0.36266,-0.17333 -0.79066,-2.052 -1.236,-4.26667 -1.24,-6.59467 0.004,-1.964 0.31467,-3.85333 0.88267,-5.628 -0.99867,3.11467 -10.14,-9.39733 -10.45333,-10.58667 0.10933,0.42267 13.17733,2.84934 14.57333,3.604 0.67067,-0.69733 8.916,-5.88133 8.93867,-5.244 0,-0.0387 -0.0227,-0.0627 -0.0227,-0.1 -0.096,-2.55733 0.14667,-10.39733 2.35067,-13.41733 1.3,-1.788 4.58,10.664 4.54933,13.116 4.68133,0.608 8.808,2.956 11.70667,6.39067 1.29333,-0.97867 2.43733,-1.15067 4.03733,-1.60267 0.65733,-0.18533 11.19067,-3.576 10.71467,-2.91467 -0.89334,1.22934 -2.02667,2.26667 -3.19067,3.29867 -3.428,3.028 -8.304,6.85067 -8.428,6.58 0.76533,2.02267 1.20133,4.20933 1.20133,6.504 z m -18.408,-51.14133 c 4.17867,0.12533 8.10534,3.06266 10.41334,7.16933 2.5,4.448 2.93066,11.46 2.212,16.52533 -0.79734,5.62134 -1.81467,7.752 -1.752,7.76134 -0.0507,0.0107 -0.39334,-2.284 -0.956,-7.50534 -1.428,-17.464 -17.01867,-21.71733 -19.90267,0.672 -0.36667,5.228 -0.80667,7.532 -0.81867,7.524 0.0293,-0.012 -0.89333,-2.13066 -1.88533,-7.73866 -3.272,-22.52934 10.52667,-24.47334 12.68933,-24.408 z m -0.0147,-3.19734 c -30.012,0.0507 -54.29467,24.32534 -54.34667,54.336 0.052,30.01067 24.33467,54.29334 54.34667,54.34534 30.01066,-0.052 54.284,-24.33467 54.336,-54.34534 -0.052,-30.01066 -24.32534,-54.28533 -54.336,-54.336"
         style="fill:#276952;fill-opacity:1;fill-rule:nonzero;stroke:none;stroke-width:0.133333" />
      <path
         id="path127"
         d="m 625.11332,911.92934 c -34.716,0 -62.84667,-28.136 -62.85467,-62.852 0,-34.70933 28.13867,-62.84266 62.85467,-62.84266 34.708,0 62.84266,28.13333 62.84933,62.84266 -0.007,34.716 -28.14133,62.852 -62.84933,62.852 z m 0,-136.56133 c -40.71067,0 -73.71467,33.00133 -73.71467,73.71467 0,40.71066 33.004,73.71333 73.71467,73.71333 40.712,0 73.71333,-33.00267 73.71333,-73.71333 0,-40.71334 -33.00133,-73.71467 -73.71333,-73.71467"
         style="fill:#276952;fill-opacity:1;fill-rule:nonzero;stroke:none;stroke-width:0.133333" />
      <path
         id="path128"
         d="m 625.11065,836.32134 c -7.04133,0.016 -12.748,5.716 -12.75733,12.75867 0.009,7.04133 5.716,12.74667 12.75733,12.756 7.03867,-0.009 12.748,-5.71467 12.75467,-12.756 -0.007,-7.04267 -5.716,-12.74267 -12.75467,-12.75867"
         style="fill:#276952;fill-opacity:1;fill-rule:nonzero;stroke:none;stroke-width:0.133333" />
      <path
         id="path129"
         d="m 614.32398,830.08534 c 0.012,0.008 0.452,-2.296 0.81867,-7.524 2.884,-22.38933 18.47467,-18.136 19.90267,-0.672 0.56266,5.22134 0.90533,7.516 0.956,7.50534 -0.0627,-0.009 0.95466,-2.14 1.752,-7.76134 0.71866,-5.06533 0.288,-12.07733 -2.212,-16.52533 -2.308,-4.10667 -6.23467,-7.044 -10.41334,-7.16933 -2.16266,-0.0653 -15.96133,1.87866 -12.68933,24.408 0.992,5.608 1.91467,7.72666 1.88533,7.73866"
         style="fill:#ffffff;fill-opacity:1;fill-rule:nonzero;stroke:none;stroke-width:0.133333" />
      <path
         id="path130"
         d="m 595.62132,846.69201 c 5.35466,1.944 7.65066,2.204 7.64666,2.23467 0.016,-0.007 -1.76266,-1.54 -6.10666,-4.472 -17.948,-13.68934 -6.46533,-25.068 9.36933,-17.57467 4.80133,2.124 6.96,2.976 6.97867,2.928 -0.0427,0.048 -1.37734,-1.89733 -5.844,-5.39467 -4.03067,-3.15733 -10.31467,-6.292 -15.42,-6.35066 -4.71067,-0.0533 -9.21733,1.87866 -11.412,5.43466 -1.14133,1.83734 -6.35467,14.764 14.788,23.19467"
         style="fill:#ffffff;fill-opacity:1;fill-rule:nonzero;stroke:none;stroke-width:0.133333" />
      <path
         id="path131"
         d="m 607.12932,870.97468 c -20.828,8.70133 -24.94133,-6.932 -10.53333,-16.9 4.23866,-3.09734 6.05733,-4.54267 6.02399,-4.58267 0.02,0.0613 -2.33466,0.24533 -7.59733,2.36667 -4.744,1.91066 -10.60266,5.784 -13.204,10.17466 -2.404,4.05467 -2.98266,8.92534 -1.00533,12.604 1.024,1.90534 9.61333,12.88534 27.48666,-1.21066 4.35734,-3.66667 5.732,-5.524 5.75867,-5.50534 0,-0.016 -2.21467,0.756 -6.92933,3.05334"
         style="fill:#ffffff;fill-opacity:1;fill-rule:nonzero;stroke:none;stroke-width:0.133333" />
      <path
         id="path132"
         d="m 635.90265,868.07734 c -0.0133,-0.012 -0.45333,2.29467 -0.824,7.524 -2.876,22.38934 -18.47067,18.136 -19.90267,0.672 -0.56133,-5.22133 -0.90266,-7.51466 -0.952,-7.50666 0.0627,0.012 -0.956,2.14133 -1.752,7.76133 -0.71466,5.06267 -0.29066,12.07467 2.212,16.52533 2.30667,4.108 6.23867,7.04534 10.41067,7.16934 2.16267,0.0667 15.968,-1.87867 12.69467,-24.408 -0.99467,-5.608 -1.91734,-7.72667 -1.88667,-7.73734"
         style="fill:#ffffff;fill-opacity:1;fill-rule:nonzero;stroke:none;stroke-width:0.133333" />
      <path
         id="path133"
         d="m 654.60532,851.47068 c -5.356,-1.944 -7.65067,-2.20534 -7.648,-2.236 -0.016,0.007 1.76266,1.54 6.10666,4.47333 17.952,13.69067 6.46667,25.06667 -9.36933,17.57333 -4.80133,-2.124 -6.96267,-2.97333 -6.976,-2.92666 0.04,-0.048 1.376,1.89866 5.84133,5.396 4.03067,3.15466 10.316,6.28933 15.416,6.34933 4.716,0.0533 9.22134,-1.88 11.42,-5.43333 1.13734,-1.84134 6.35467,-14.76534 -14.79066,-23.196"
         style="fill:#ffffff;fill-opacity:1;fill-rule:nonzero;stroke:none;stroke-width:0.133333" />
      <path
         id="path134"
         d="m 641.92932,824.73734 c -4.364,3.66534 -5.736,5.52267 -5.76,5.50267 -0.003,0.016 2.216,-0.756 6.92666,-3.05067 20.832,-8.70133 24.94134,6.932 10.53334,16.89867 -4.24134,3.09733 -6.056,4.544 -6.024,4.58 -0.0227,-0.0627 2.332,-0.24267 7.59466,-2.36267 4.74667,-1.91333 10.60534,-5.78933 13.208,-10.17733 2.40267,-4.05333 2.98267,-8.924 1.00134,-12.60267 -1.02134,-1.90533 -9.60667,-12.88666 -27.48,1.212"
         style="fill:#ffffff;fill-opacity:1;fill-rule:nonzero;stroke:none;stroke-width:0.133333" />
      <path
         id="path135"
         d="m 625.11065,861.83601 c -7.04133,-0.009 -12.748,-5.71467 -12.75733,-12.756 0.009,-7.04267 5.716,-12.74267 12.75733,-12.75867 7.03867,0.016 12.748,5.716 12.75467,12.75867 -0.007,7.04133 -5.716,12.74667 -12.75467,12.756 z m 28.84267,-29.13867 c 0.476,-0.66133 -10.05734,2.72934 -10.71467,2.91467 -1.6,0.452 -2.744,0.624 -4.03733,1.60267 -2.89867,-3.43467 -7.02534,-5.78267 -11.70667,-6.39067 0.0307,-2.452 -3.24933,-14.904 -4.54933,-13.116 -2.204,3.02 -2.44667,10.86 -2.35067,13.41733 0,0.0373 0.0227,0.0613 0.0227,0.1 -0.0227,-0.63733 -8.268,4.54667 -8.93867,5.244 -1.396,-0.75466 -14.464,-3.18133 -14.57333,-3.604 0.31333,1.18934 9.45466,13.70134 10.45333,10.58667 -0.568,1.77467 -0.87867,3.664 -0.88267,5.628 0.004,2.328 0.44934,4.54267 1.24,6.59467 -0.11866,0.056 -0.24133,0.10133 -0.36266,0.17333 -2.15734,1.30267 -9.74667,11.96933 -9.74667,11.96933 0,0 13.452,-6.58666 13.964,-6.044 2.58667,2.712 5.97733,4.644 9.8,5.392 -0.82,1.79467 1.36533,11.40267 3.216,14.63734 -0.59067,-2.19334 3.44933,-12.64134 2.75733,-14.47467 4.55334,-0.60267 8.57334,-2.85867 11.44934,-6.15733 0.132,0.084 0.24533,0.176 0.39733,0.248 4.092,1.972 9.52133,3.148 13.57067,5.33466 0.87066,0.46934 1.65066,-0.888 0.77066,-1.32266 -1.78266,-0.88 -2.58666,-3.08667 -4,-4.47734 -1.89733,-1.86533 -3.76533,-3.732 -5.67333,-5.58666 -0.43733,-0.42267 -0.88667,-0.69067 -1.32933,-0.88134 0.52266,-1.708 0.80666,-3.52266 0.80666,-5.40533 0,-2.29467 -0.436,-4.48133 -1.20133,-6.504 0.124,0.27067 5,-3.552 8.428,-6.58 1.164,-1.032 2.29733,-2.06933 3.19067,-3.29867"
         style="fill:#ffffff;fill-opacity:1;fill-rule:nonzero;stroke:none;stroke-width:0.133333" />
      <path
         id="path136"
         d="m 625.11332,903.42268 c -30.012,-0.052 -54.29467,-24.33467 -54.34667,-54.34534 0.052,-30.01066 24.33467,-54.28533 54.34667,-54.336 30.01066,0.0507 54.284,24.32534 54.336,54.336 -0.052,30.01067 -24.32534,54.29334 -54.336,54.34534 z m 0,-117.188 c -34.716,0 -62.85467,28.13333 -62.85467,62.84266 0.008,34.716 28.13867,62.852 62.85467,62.852 34.708,0 62.84266,-28.136 62.84933,-62.852 -0.007,-34.70933 -28.14133,-62.84266 -62.84933,-62.84266"
         style="fill:#ffffff;fill-opacity:1;fill-rule:nonzero;stroke:none;stroke-width:0.133333" />
      <path
         id="path137"
         d="m 514.41332,1099.4893 c 1.984,3.68 1.40267,8.5519 -0.99733,12.604 -2.60667,4.3891 -8.464,8.2667 -13.212,10.176 -5.26267,2.1214 -7.61467,2.3038 -7.59334,2.3652 -0.0333,-0.038 1.78534,-1.4838 6.024,-4.5813 14.40667,-9.9667 10.29734,-25.5985 -10.53466,-16.8999 -4.71067,2.2974 -6.92934,3.0682 -6.92667,3.0504 0.024,0.023 1.396,-1.8369 5.76,-5.501 17.87333,-14.0987 26.45867,-3.116 27.48,-1.2134 z m -0.0133,51.1436 c -2.19467,3.5536 -6.704,5.4886 -11.41867,5.4323 -5.10133,-0.057 -11.38667,-3.1959 -15.41333,-6.3479 -4.46934,-3.4974 -5.80534,-5.4453 -5.844,-5.3974 0.012,-0.045 2.17466,0.8041 6.97466,2.9265 15.836,7.4948 27.32267,-3.8828 9.36934,-17.5703 -4.344,-2.9349 -6.12267,-4.4682 -6.10667,-4.4776 -0.003,0.035 2.292,0.2932 7.648,2.2375 21.14533,8.4292 15.928,21.3557 14.79067,23.1969 z m -44.30134,25.5578 c -4.17199,-0.1255 -8.10266,-3.063 -10.41066,-7.1708 -2.50267,-4.4495 -2.92533,-11.4615 -2.212,-16.5255 0.79733,-5.6199 1.816,-7.7489 1.752,-7.7609 0.0507,-0.01 0.39067,2.2864 0.956,7.5052 1.428,17.464 17.02266,21.7197 19.9,-0.6708 0.36933,-5.2292 0.80933,-7.536 0.82266,-7.524 -0.0293,0.01 0.89334,2.1292 1.888,7.7385 3.27334,22.5265 -10.53333,24.4708 -12.696,24.4083 z m -16.79466,-26.7974 c -17.872,14.0959 -26.46267,3.1162 -27.48667,1.2104 -1.97733,-3.6786 -1.39866,-8.5489 1.00534,-12.6025 2.60133,-4.3907 8.46,-8.2652 13.204,-10.1787 5.264,-2.1213 7.61733,-2.3016 7.59733,-2.3625 0.0333,0.037 -1.78533,1.4839 -6.024,4.5787 -14.40667,9.9692 -10.29467,25.6036 10.53333,16.9025 4.71467,-2.2989 6.92934,-3.0692 6.92934,-3.052 -0.0267,-0.02 -1.40134,1.8385 -5.75867,5.5041 z m -27.468,-49.9293 c 2.196,-3.556 6.70267,-5.488 11.41333,-5.4347 5.10534,0.057 11.39067,3.1934 15.42,6.348 4.47067,3.4983 5.80267,5.4452 5.84534,5.3958 -0.02,0.047 -2.17867,-0.8011 -6.98,-2.9278 -15.836,-7.4906 -27.31734,3.8855 -9.36934,17.5746 4.34534,2.9317 6.124,4.465 6.10667,4.4734 0.008,-0.032 -2.29067,-0.2921 -7.644,-2.236 -21.14533,-8.4306 -15.932,-21.3546 -14.792,-23.1933 z m 62.704,25.5815 c 0,1.8822 -0.284,3.6984 -0.80667,5.4077 0.44267,0.1891 0.89333,0.4573 1.32933,0.8813 1.908,1.8531 3.77467,3.7214 5.67334,5.5854 1.41466,1.389 2.21733,3.5974 4,4.4786 0.88,0.4334 0.0987,1.7922 -0.76934,1.3198 -4.048,-2.1848 -9.48,-3.361 -13.572,-5.3343 -0.152,-0.071 -0.26533,-0.1641 -0.396,-0.2453 -2.87733,3.2973 -6.89733,5.553 -11.44933,6.1557 0.69067,1.8349 -3.34933,12.2812 -2.75733,14.4735 -1.852,-3.2344 -4.03733,-12.8412 -3.21733,-14.636 -3.82134,-0.7495 -7.21334,-2.6803 -9.79867,-5.3922 -0.51333,-0.5428 -13.96533,6.0443 -13.96533,6.0443 0,0 7.59066,-10.6683 9.74666,-11.9693 0.12267,-0.072 0.244,-0.1178 0.36267,-0.1735 -0.78933,-2.052 -1.236,-4.2692 -1.24,-6.5957 0.004,-1.9642 0.31467,-3.8522 0.88667,-5.6282 -1.00134,3.1162 -10.14267,-9.3974 -10.456,-10.5838 0.108,0.4197 13.17733,2.8462 14.572,3.601 0.672,-0.6948 8.91733,-5.8797 8.94,-5.2438 0,-0.038 -0.0227,-0.061 -0.0227,-0.1015 -0.096,-2.5557 0.14533,-10.3932 2.34933,-13.4159 1.30267,-1.7853 4.58,10.6664 4.55067,13.1159 4.68,0.6083 8.80933,2.9588 11.70533,6.3932 1.29333,-0.9812 2.43733,-1.1521 4.03733,-1.6036 0.65734,-0.1871 11.19067,-3.5761 10.71467,-2.9161 -0.892,1.2306 -2.02267,2.2676 -3.19067,3.2984 -3.428,3.0296 -8.304,6.852 -8.42666,6.5812 0.764,2.0245 1.2,4.2093 1.2,6.5032 z m -18.408,-51.1402 c 4.17866,0.1254 8.10666,3.0614 10.41466,7.1707 2.50267,4.448 2.928,11.4573 2.21067,16.524 -0.796,5.62 -1.81467,7.7507 -1.748,7.7627 -0.0533,0.01 -0.396,-2.2867 -0.95867,-7.508 -1.42933,-17.464 -17.01999,-21.716 -19.90266,0.672 -0.368,5.228 -0.80667,7.5344 -0.82,7.5224 0.0293,-0.01 -0.89333,-2.1292 -1.884,-7.7371 -3.27467,-22.528 10.52666,-24.472 12.688,-24.4067 z m -0.0133,-3.2 c -30.01199,0.052 -54.29599,24.3267 -54.34799,54.3386 0.052,30.012 24.336,54.2948 54.34799,54.3453 30.00934,-0.051 54.28534,-24.3333 54.336,-54.3453 -0.0507,-30.0119 -24.32666,-54.2866 -54.336,-54.3386"
         style="fill:#276952;fill-opacity:1;fill-rule:nonzero;stroke:none;stroke-width:0.133333" />
      <path
         id="path138"
         d="m 470.11865,1187.896 c -34.71733,0 -62.84799,-28.136 -62.85466,-62.8521 0,-34.7092 28.13733,-62.8439 62.85466,-62.8439 34.708,0 62.84267,28.1347 62.84934,62.8439 -0.007,34.7161 -28.14134,62.8521 -62.84934,62.8521 z m 0,-136.5627 c -40.71066,0 -73.71466,33.0014 -73.71466,73.7131 0,40.712 33.004,73.7147 73.71466,73.7147 40.712,0 73.71334,-33.0027 73.71334,-73.7147 0,-40.7117 -33.00134,-73.7131 -73.71334,-73.7131"
         style="fill:#276952;fill-opacity:1;fill-rule:nonzero;stroke:none;stroke-width:0.133333" />
      <path
         id="path139"
         d="m 470.11465,1112.2881 c -7.04133,0.017 -12.74799,5.7146 -12.75733,12.7574 0.009,7.0421 5.716,12.7489 12.75733,12.7572 7.03867,-0.01 12.74934,-5.7151 12.756,-12.7572 -0.007,-7.0428 -5.71733,-12.7402 -12.756,-12.7574"
         style="fill:#276952;fill-opacity:1;fill-rule:nonzero;stroke:none;stroke-width:0.133333" />
      <path
         id="path140"
         d="m 459.32799,1106.0491 c 0.0133,0.012 0.452,-2.2944 0.82,-7.5224 2.88267,-22.388 18.47333,-18.136 19.90266,-0.672 0.56267,5.2213 0.90534,7.5157 0.95867,7.508 -0.0667,-0.012 0.952,-2.1427 1.748,-7.7627 0.71733,-5.0667 0.292,-12.076 -2.21067,-16.524 -2.308,-4.1093 -6.236,-7.0453 -10.41466,-7.1707 -2.16134,-0.065 -15.96267,1.8787 -12.688,24.4067 0.99067,5.6079 1.91333,7.7267 1.884,7.7371"
         style="fill:#ffffff;fill-opacity:1;fill-rule:nonzero;stroke:none;stroke-width:0.133333" />
      <path
         id="path141"
         d="m 440.62799,1122.6573 c 5.35333,1.9439 7.652,2.2038 7.644,2.236 0.0173,-0.01 -1.76133,-1.5417 -6.10667,-4.4734 -17.948,-13.6891 -6.46666,-25.0652 9.36934,-17.5746 4.80133,2.1267 6.96,2.9746 6.98,2.9278 -0.0427,0.049 -1.37467,-1.8975 -5.84534,-5.3958 -4.02933,-3.1546 -10.31466,-6.2906 -15.42,-6.348 -4.71066,-0.053 -9.21733,1.8787 -11.41333,5.4347 -1.14,1.8387 -6.35333,14.7627 14.792,23.1933"
         style="fill:#ffffff;fill-opacity:1;fill-rule:nonzero;stroke:none;stroke-width:0.133333" />
      <path
         id="path142"
         d="m 452.13332,1146.9412 c -20.828,8.7011 -24.94,-6.9333 -10.53333,-16.9025 4.23867,-3.0948 6.05733,-4.5418 6.024,-4.5787 0.02,0.061 -2.33333,0.2412 -7.59733,2.3625 -4.744,1.9135 -10.60267,5.788 -13.204,10.1787 -2.404,4.0536 -2.98267,8.9239 -1.00534,12.6025 1.024,1.9058 9.61467,12.8855 27.48667,-1.2104 4.35733,-3.6656 5.732,-5.524 5.75867,-5.5041 0,-0.017 -2.21467,0.7531 -6.92934,3.052"
         style="fill:#ffffff;fill-opacity:1;fill-rule:nonzero;stroke:none;stroke-width:0.133333" />
      <path
         id="path143"
         d="m 480.90665,1144.0439 c -0.0133,-0.012 -0.45333,2.2948 -0.82266,7.524 -2.87734,22.3905 -18.472,18.1348 -19.9,0.6708 -0.56533,-5.2188 -0.90533,-7.5136 -0.956,-7.5052 0.064,0.012 -0.95467,2.141 -1.752,7.7609 -0.71333,5.064 -0.29067,12.076 2.212,16.5255 2.308,4.1078 6.23867,7.0453 10.41066,7.1708 2.16267,0.062 15.96934,-1.8818 12.696,-24.4083 -0.99466,-5.6093 -1.91733,-7.7292 -1.888,-7.7385"
         style="fill:#ffffff;fill-opacity:1;fill-rule:nonzero;stroke:none;stroke-width:0.133333" />
      <path
         id="path144"
         d="m 499.60932,1127.436 c -5.356,-1.9443 -7.65067,-2.2025 -7.648,-2.2375 -0.016,0.01 1.76267,1.5427 6.10667,4.4776 17.95333,13.6875 6.46666,25.0651 -9.36934,17.5703 -4.8,-2.1224 -6.96266,-2.9719 -6.97466,-2.9265 0.0387,-0.048 1.37466,1.9 5.844,5.3974 4.02666,3.152 10.312,6.2906 15.41333,6.3479 4.71467,0.056 9.224,-1.8787 11.41867,-5.4323 1.13733,-1.8412 6.35466,-14.7677 -14.79067,-23.1969"
         style="fill:#ffffff;fill-opacity:1;fill-rule:nonzero;stroke:none;stroke-width:0.133333" />
      <path
         id="path145"
         d="m 486.93332,1100.7027 c -4.364,3.6641 -5.736,5.524 -5.76,5.501 -0.003,0.018 2.216,-0.753 6.92667,-3.0504 20.832,-8.6986 24.94133,6.9332 10.53466,16.8999 -4.23866,3.0975 -6.05733,4.5428 -6.024,4.5813 -0.0213,-0.061 2.33067,-0.2438 7.59334,-2.3652 4.748,-1.9093 10.60533,-5.7869 13.212,-10.176 2.4,-4.0521 2.98133,-8.924 0.99733,-12.604 -1.02133,-1.9026 -9.60667,-12.8853 -27.48,1.2134"
         style="fill:#ffffff;fill-opacity:1;fill-rule:nonzero;stroke:none;stroke-width:0.133333" />
      <path
         id="path146"
         d="m 470.11465,1137.8027 c -7.04133,-0.01 -12.74799,-5.7151 -12.75733,-12.7572 0.009,-7.0428 5.716,-12.7402 12.75733,-12.7574 7.03867,0.017 12.74934,5.7146 12.756,12.7574 -0.007,7.0421 -5.71733,12.7489 -12.756,12.7572 z m 28.84267,-29.14 c 0.476,-0.66 -10.05733,2.729 -10.71467,2.9161 -1.6,0.4515 -2.744,0.6224 -4.03733,1.6036 -2.896,-3.4344 -7.02533,-5.7849 -11.70533,-6.3932 0.0293,-2.4495 -3.248,-14.9012 -4.55067,-13.1159 -2.204,3.0227 -2.44533,10.8602 -2.34933,13.4159 0,0.04 0.0227,0.064 0.0227,0.1015 -0.0227,-0.6359 -8.268,4.549 -8.94,5.2438 -1.39467,-0.7548 -14.464,-3.1813 -14.572,-3.601 0.31333,1.1864 9.45466,13.7 10.456,10.5838 -0.572,1.776 -0.88267,3.664 -0.88667,5.6282 0.004,2.3265 0.45067,4.5437 1.24,6.5957 -0.11867,0.056 -0.24,0.1011 -0.36267,0.1735 -2.156,1.301 -9.74666,11.9693 -9.74666,11.9693 0,0 13.452,-6.5871 13.96533,-6.0443 2.58533,2.7119 5.97733,4.6427 9.79867,5.3922 -0.82,1.7948 1.36533,11.4016 3.21733,14.636 -0.592,-2.1923 3.448,-12.6386 2.75733,-14.4735 4.552,-0.6027 8.572,-2.8584 11.44933,-6.1557 0.13067,0.081 0.244,0.1744 0.396,0.2453 4.092,1.9733 9.524,3.1495 13.572,5.3343 0.868,0.4724 1.64934,-0.8864 0.76934,-1.3198 -1.78267,-0.8812 -2.58534,-3.0896 -4,-4.4786 -1.89867,-1.864 -3.76534,-3.7323 -5.67334,-5.5854 -0.436,-0.424 -0.88666,-0.6922 -1.32933,-0.8813 0.52267,-1.7093 0.80667,-3.5255 0.80667,-5.4077 0,-2.2939 -0.436,-4.4787 -1.2,-6.5032 0.12266,0.2708 4.99866,-3.5516 8.42666,-6.5812 1.168,-1.0308 2.29867,-2.0678 3.19067,-3.2984"
         style="fill:#ffffff;fill-opacity:1;fill-rule:nonzero;stroke:none;stroke-width:0.133333" />
      <path
         id="path147"
         d="m 470.11865,1179.3892 c -30.01199,-0.051 -54.29599,-24.3333 -54.34799,-54.3453 0.052,-30.0119 24.336,-54.2866 54.34799,-54.3386 30.00934,0.052 54.28534,24.3267 54.336,54.3386 -0.0507,30.012 -24.32666,54.2948 -54.336,54.3453 z m 0,-117.1892 c -34.71733,0 -62.85466,28.1347 -62.85466,62.8439 0.007,34.7161 28.13733,62.8521 62.85466,62.8521 34.708,0 62.84267,-28.136 62.84934,-62.8521 -0.007,-34.7092 -28.14134,-62.8439 -62.84934,-62.8439"
         style="fill:#ffffff;fill-opacity:1;fill-rule:nonzero;stroke:none;stroke-width:0.133333" />
      <path
         id="path148"
         d="m 669.40932,1099.4893 c 1.98133,3.68 1.40133,8.5519 -1.00134,12.604 -2.60266,4.3891 -8.46133,8.2667 -13.208,10.176 -5.26266,2.1214 -7.61733,2.3038 -7.59466,2.3652 -0.032,-0.038 1.78266,-1.4838 6.024,-4.5813 14.408,-9.9667 10.29866,-25.5985 -10.53334,-16.8999 -4.71066,2.2974 -6.92933,3.0682 -6.92666,3.0504 0.024,0.023 1.396,-1.8369 5.76,-5.501 17.87333,-14.0987 26.45866,-3.116 27.48,-1.2134 z m -0.0133,51.1436 c -2.19866,3.5536 -6.704,5.4886 -11.42,5.4323 -5.1,-0.057 -11.38533,-3.1959 -15.416,-6.3479 -4.46533,-3.4974 -5.80133,-5.4453 -5.84133,-5.3974 0.0133,-0.045 2.17467,0.8041 6.976,2.9265 15.836,7.4948 27.32133,-3.8828 9.36933,-17.5703 -4.344,-2.9349 -6.12266,-4.4682 -6.10666,-4.4776 -0.003,0.035 2.292,0.2932 7.648,2.2375 21.14533,8.4292 15.928,21.3557 14.79066,23.1969 z m -44.30133,25.5578 c -4.172,-0.1255 -8.104,-3.063 -10.41067,-7.1708 -2.50266,-4.4495 -2.92666,-11.4615 -2.212,-16.5255 0.796,-5.6199 1.81467,-7.7489 1.752,-7.7609 0.0493,-0.01 0.39067,2.2864 0.952,7.5052 1.432,17.464 17.02667,21.7197 19.90267,-0.6708 0.37067,-5.2292 0.81067,-7.536 0.824,-7.524 -0.0307,0.01 0.892,2.1292 1.88667,7.7385 3.27333,22.5265 -10.532,24.4708 -12.69467,24.4083 z m -16.79467,-26.7974 c -17.87333,14.0959 -26.46266,3.1162 -27.48666,1.2104 -1.97733,-3.6786 -1.39867,-8.5489 1.00533,-12.6025 2.60134,-4.3907 8.46,-8.2652 13.204,-10.1787 5.26267,-2.1213 7.61733,-2.3016 7.59733,-2.3625 0.0333,0.037 -1.78533,1.4839 -6.02399,4.5787 -14.408,9.9692 -10.29467,25.6036 10.53333,16.9025 4.71466,-2.2989 6.92933,-3.0692 6.92933,-3.052 -0.0267,-0.02 -1.40133,1.8385 -5.75867,5.5041 z m -27.46666,-49.9293 c 2.19467,-3.556 6.70133,-5.488 11.412,-5.4347 5.10533,0.057 11.38933,3.1934 15.42,6.348 4.46666,3.4983 5.80133,5.4452 5.844,5.3958 -0.0187,0.047 -2.17734,-0.8011 -6.97867,-2.9278 -15.83466,-7.4906 -27.31733,3.8855 -9.36933,17.5746 4.344,2.9317 6.12266,4.465 6.10666,4.4734 0.004,-0.032 -2.292,-0.2921 -7.64666,-2.236 -21.14267,-8.4306 -15.92933,-21.3546 -14.788,-23.1933 z m 62.70266,25.5815 c 0,1.8822 -0.284,3.6984 -0.80666,5.4077 0.44266,0.1891 0.892,0.4573 1.32933,0.8813 1.908,1.8531 3.776,3.7214 5.67333,5.5854 1.41334,1.389 2.21734,3.5974 4,4.4786 0.88,0.4334 0.1,1.7922 -0.77066,1.3198 -4.04934,-2.1848 -9.47867,-3.361 -13.57067,-5.3343 -0.152,-0.071 -0.26533,-0.1641 -0.39733,-0.2453 -2.876,3.2973 -6.896,5.553 -11.44934,6.1557 0.692,1.8349 -3.348,12.2812 -2.75733,14.4735 -1.85067,-3.2344 -4.036,-12.8412 -3.216,-14.636 -3.82267,-0.7495 -7.21333,-2.6803 -9.8,-5.3922 -0.512,-0.5428 -13.964,6.0443 -13.964,6.0443 0,0 7.58933,-10.6683 9.74667,-11.9693 0.12133,-0.072 0.244,-0.1178 0.36266,-0.1735 -0.79066,-2.052 -1.236,-4.2692 -1.24,-6.5957 0.004,-1.9642 0.31467,-3.8522 0.88267,-5.6282 -0.99867,3.1162 -10.14,-9.3974 -10.45333,-10.5838 0.10933,0.4197 13.17733,2.8462 14.57333,3.601 0.67067,-0.6948 8.916,-5.8797 8.93867,-5.2438 0,-0.038 -0.0227,-0.061 -0.0227,-0.1015 -0.096,-2.5557 0.14667,-10.3932 2.35067,-13.4159 1.3,-1.7853 4.58,10.6664 4.54933,13.1159 4.68133,0.6083 8.808,2.9588 11.70667,6.3932 1.29333,-0.9812 2.43733,-1.1521 4.03733,-1.6036 0.65733,-0.1871 11.19067,-3.5761 10.71467,-2.9161 -0.89334,1.2306 -2.02667,2.2676 -3.19067,3.2984 -3.428,3.0296 -8.304,6.852 -8.428,6.5812 0.76533,2.0245 1.20133,4.2093 1.20133,6.5032 z m -18.408,-51.1402 c 4.17867,0.1254 8.10534,3.0614 10.41334,7.1707 2.5,4.448 2.93066,11.4573 2.212,16.524 -0.79734,5.62 -1.81467,7.7507 -1.752,7.7627 -0.0507,0.01 -0.39334,-2.2867 -0.956,-7.508 -1.428,-17.464 -17.01867,-21.716 -19.90267,0.672 -0.36667,5.228 -0.80667,7.5344 -0.81867,7.5224 0.0293,-0.01 -0.89333,-2.1292 -1.88533,-7.7371 -3.272,-22.528 10.52667,-24.472 12.68933,-24.4067 z m -0.0147,-3.2 c -30.012,0.052 -54.29467,24.3267 -54.34667,54.3386 0.052,30.012 24.33467,54.2948 54.34667,54.3453 30.01066,-0.051 54.284,-24.3333 54.336,-54.3453 -0.052,-30.0119 -24.32534,-54.2866 -54.336,-54.3386"
         style="fill:#276952;fill-opacity:1;fill-rule:nonzero;stroke:none;stroke-width:0.133333" />
      <path
         id="path149"
         d="m 625.11332,1187.896 c -34.716,0 -62.84667,-28.136 -62.85467,-62.8521 0,-34.7092 28.13867,-62.8439 62.85467,-62.8439 34.708,0 62.84266,28.1347 62.84933,62.8439 -0.007,34.7161 -28.14133,62.8521 -62.84933,62.8521 z m 0,-136.5627 c -40.71067,0 -73.71467,33.0014 -73.71467,73.7131 0,40.712 33.004,73.7147 73.71467,73.7147 40.712,0 73.71333,-33.0027 73.71333,-73.7147 0,-40.7117 -33.00133,-73.7131 -73.71333,-73.7131"
         style="fill:#276952;fill-opacity:1;fill-rule:nonzero;stroke:none;stroke-width:0.133333" />
      <path
         id="path150"
         d="m 625.11065,1112.2881 c -7.04133,0.017 -12.748,5.7146 -12.75733,12.7574 0.009,7.0421 5.716,12.7489 12.75733,12.7572 7.03867,-0.01 12.748,-5.7151 12.75467,-12.7572 -0.007,-7.0428 -5.716,-12.7402 -12.75467,-12.7574"
         style="fill:#276952;fill-opacity:1;fill-rule:nonzero;stroke:none;stroke-width:0.133333" />
      <path
         id="path151"
         d="m 614.32398,1106.0491 c 0.012,0.012 0.452,-2.2944 0.81867,-7.5224 2.884,-22.388 18.47467,-18.136 19.90267,-0.672 0.56266,5.2213 0.90533,7.5157 0.956,7.508 -0.0627,-0.012 0.95466,-2.1427 1.752,-7.7627 0.71866,-5.0667 0.288,-12.076 -2.212,-16.524 -2.308,-4.1093 -6.23467,-7.0453 -10.41334,-7.1707 -2.16266,-0.065 -15.96133,1.8787 -12.68933,24.4067 0.992,5.6079 1.91467,7.7267 1.88533,7.7371"
         style="fill:#ffffff;fill-opacity:1;fill-rule:nonzero;stroke:none;stroke-width:0.133333" />
      <path
         id="path152"
         d="m 595.62132,1122.6573 c 5.35466,1.9439 7.65066,2.2038 7.64666,2.236 0.016,-0.01 -1.76266,-1.5417 -6.10666,-4.4734 -17.948,-13.6891 -6.46533,-25.0652 9.36933,-17.5746 4.80133,2.1267 6.96,2.9746 6.97867,2.9278 -0.0427,0.049 -1.37734,-1.8975 -5.844,-5.3958 -4.03067,-3.1546 -10.31467,-6.2906 -15.42,-6.348 -4.71067,-0.053 -9.21733,1.8787 -11.412,5.4347 -1.14133,1.8387 -6.35467,14.7627 14.788,23.1933"
         style="fill:#ffffff;fill-opacity:1;fill-rule:nonzero;stroke:none;stroke-width:0.133333" />
      <path
         id="path153"
         d="m 607.12932,1146.9412 c -20.828,8.7011 -24.94133,-6.9333 -10.53333,-16.9025 4.23866,-3.0948 6.05733,-4.5418 6.02399,-4.5787 0.02,0.061 -2.33466,0.2412 -7.59733,2.3625 -4.744,1.9135 -10.60266,5.788 -13.204,10.1787 -2.404,4.0536 -2.98266,8.9239 -1.00533,12.6025 1.024,1.9058 9.61333,12.8855 27.48666,-1.2104 4.35734,-3.6656 5.732,-5.524 5.75867,-5.5041 0,-0.017 -2.21467,0.7531 -6.92933,3.052"
         style="fill:#ffffff;fill-opacity:1;fill-rule:nonzero;stroke:none;stroke-width:0.133333" />
      <path
         id="path154"
         d="m 635.90265,1144.0439 c -0.0133,-0.012 -0.45333,2.2948 -0.824,7.524 -2.876,22.3905 -18.47067,18.1348 -19.90267,0.6708 -0.56133,-5.2188 -0.90266,-7.5136 -0.952,-7.5052 0.0627,0.012 -0.956,2.141 -1.752,7.7609 -0.71466,5.064 -0.29066,12.076 2.212,16.5255 2.30667,4.1078 6.23867,7.0453 10.41067,7.1708 2.16267,0.062 15.968,-1.8818 12.69467,-24.4083 -0.99467,-5.6093 -1.91734,-7.7292 -1.88667,-7.7385"
         style="fill:#ffffff;fill-opacity:1;fill-rule:nonzero;stroke:none;stroke-width:0.133333" />
      <path
         id="path155"
         d="m 654.60532,1127.436 c -5.356,-1.9443 -7.65067,-2.2025 -7.648,-2.2375 -0.016,0.01 1.76266,1.5427 6.10666,4.4776 17.952,13.6875 6.46667,25.0651 -9.36933,17.5703 -4.80133,-2.1224 -6.96267,-2.9719 -6.976,-2.9265 0.04,-0.048 1.376,1.9 5.84133,5.3974 4.03067,3.152 10.316,6.2906 15.416,6.3479 4.716,0.056 9.22134,-1.8787 11.42,-5.4323 1.13734,-1.8412 6.35467,-14.7677 -14.79066,-23.1969"
         style="fill:#ffffff;fill-opacity:1;fill-rule:nonzero;stroke:none;stroke-width:0.133333" />
      <path
         id="path156"
         d="m 641.92932,1100.7027 c -4.364,3.6641 -5.736,5.524 -5.76,5.501 -0.003,0.018 2.216,-0.753 6.92666,-3.0504 20.832,-8.6986 24.94134,6.9332 10.53334,16.8999 -4.24134,3.0975 -6.056,4.5428 -6.024,4.5813 -0.0227,-0.061 2.332,-0.2438 7.59466,-2.3652 4.74667,-1.9093 10.60534,-5.7869 13.208,-10.176 2.40267,-4.0521 2.98267,-8.924 1.00134,-12.604 -1.02134,-1.9026 -9.60667,-12.8853 -27.48,1.2134"
         style="fill:#ffffff;fill-opacity:1;fill-rule:nonzero;stroke:none;stroke-width:0.133333" />
      <path
         id="path157"
         d="m 625.11065,1137.8027 c -7.04133,-0.01 -12.748,-5.7151 -12.75733,-12.7572 0.009,-7.0428 5.716,-12.7402 12.75733,-12.7574 7.03867,0.017 12.748,5.7146 12.75467,12.7574 -0.007,7.0421 -5.716,12.7489 -12.75467,12.7572 z m 28.84267,-29.14 c 0.476,-0.66 -10.05734,2.729 -10.71467,2.9161 -1.6,0.4515 -2.744,0.6224 -4.03733,1.6036 -2.89867,-3.4344 -7.02534,-5.7849 -11.70667,-6.3932 0.0307,-2.4495 -3.24933,-14.9012 -4.54933,-13.1159 -2.204,3.0227 -2.44667,10.8602 -2.35067,13.4159 0,0.04 0.0227,0.064 0.0227,0.1015 -0.0227,-0.6359 -8.268,4.549 -8.93867,5.2438 -1.396,-0.7548 -14.464,-3.1813 -14.57333,-3.601 0.31333,1.1864 9.45466,13.7 10.45333,10.5838 -0.568,1.776 -0.87867,3.664 -0.88267,5.6282 0.004,2.3265 0.44934,4.5437 1.24,6.5957 -0.11866,0.056 -0.24133,0.1011 -0.36266,0.1735 -2.15734,1.301 -9.74667,11.9693 -9.74667,11.9693 0,0 13.452,-6.5871 13.964,-6.0443 2.58667,2.7119 5.97733,4.6427 9.8,5.3922 -0.82,1.7948 1.36533,11.4016 3.216,14.636 -0.59067,-2.1923 3.44933,-12.6386 2.75733,-14.4735 4.55334,-0.6027 8.57334,-2.8584 11.44934,-6.1557 0.132,0.081 0.24533,0.1744 0.39733,0.2453 4.092,1.9733 9.52133,3.1495 13.57067,5.3343 0.87066,0.4724 1.65066,-0.8864 0.77066,-1.3198 -1.78266,-0.8812 -2.58666,-3.0896 -4,-4.4786 -1.89733,-1.864 -3.76533,-3.7323 -5.67333,-5.5854 -0.43733,-0.424 -0.88667,-0.6922 -1.32933,-0.8813 0.52266,-1.7093 0.80666,-3.5255 0.80666,-5.4077 0,-2.2939 -0.436,-4.4787 -1.20133,-6.5032 0.124,0.2708 5,-3.5516 8.428,-6.5812 1.164,-1.0308 2.29733,-2.0678 3.19067,-3.2984"
         style="fill:#ffffff;fill-opacity:1;fill-rule:nonzero;stroke:none;stroke-width:0.133333" />
      <path
         id="path158"
         d="m 625.11332,1179.3892 c -30.012,-0.051 -54.29467,-24.3333 -54.34667,-54.3453 0.052,-30.0119 24.33467,-54.2866 54.34667,-54.3386 30.01066,0.052 54.284,24.3267 54.336,54.3386 -0.052,30.012 -24.32534,54.2948 -54.336,54.3453 z m 0,-117.1892 c -34.716,0 -62.85467,28.1347 -62.85467,62.8439 0.008,34.7161 28.13867,62.8521 62.85467,62.8521 34.708,0 62.84266,-28.136 62.84933,-62.8521 -0.007,-34.7092 -28.14133,-62.8439 -62.84933,-62.8439"
         style="fill:#ffffff;fill-opacity:1;fill-rule:nonzero;stroke:none;stroke-width:0.133333" />
      <path
         id="path159"
         d="m 580.47865,1018.0827 c -5.10133,-0.059 -11.38933,-3.196 -15.416,-6.3494 -4.46933,-3.4986 -5.80533,-5.444 -5.84533,-5.3973 0.0173,-0.047 2.17467,0.804 6.976,2.928 15.84,7.492 27.32133,-3.884 9.36933,-17.57199 -4.344,-2.93467 -6.11866,-4.468 -6.10266,-4.476 -0.007,0.032 2.288,0.292 7.644,2.236 21.14533,8.432 15.928,21.35599 14.79066,23.19729 -2.19466,3.552 -6.704,5.488 -11.416,5.4334 z m -32.88133,20.1213 c -4.176,-0.1227 -8.104,-3.0613 -10.41467,-7.168 -2.5,-4.4493 -2.92533,-11.4627 -2.20933,-16.5253 0.79467,-5.6214 1.816,-7.7494 1.75067,-7.76 0.048,-0.01 0.392,2.284 0.95466,7.504 1.428,17.464 17.02267,21.7186 19.90267,-0.6694 0.36667,-5.2306 0.80933,-7.5373 0.82267,-7.5253 -0.0333,0.011 0.89333,2.1307 1.88533,7.7387 3.272,22.5266 -10.53067,24.472 -12.692,24.4053 z m -16.79867,-26.7947 c -17.87333,14.0947 -26.45866,3.116 -27.484,1.2094 -1.98,-3.6774 -1.40133,-8.5467 1.00267,-12.6027 2.604,-4.38933 8.46267,-8.26399 13.208,-10.17599 5.26267,-2.12 7.616,-2.304 7.59333,-2.36534 0.0333,0.0413 -1.78266,1.48534 -6.02,4.58134 -14.412,9.96799 -10.29866,25.60269 10.52934,16.89999 4.71466,-2.296 6.93333,-3.068 6.92933,-3.0507 -0.0267,-0.021 -1.39733,1.8374 -5.75867,5.504 z m -27.46666,-49.93063 c 2.19466,-3.556 6.704,-5.488 11.416,-5.43466 5.10133,0.06 11.38933,3.196 15.416,6.34933 4.46933,3.5 5.80533,5.44533 5.84533,5.396 -0.016,0.048 -2.176,-0.80267 -6.976,-2.92533 -15.83867,-7.49467 -27.32133,3.884 -9.36933,17.572 4.344,2.932 6.11866,4.468 6.10266,4.47466 0.007,-0.0347 -2.288,-0.29333 -7.644,-2.23733 -21.14533,-8.42933 -15.928,-21.35733 -14.79066,-23.19467 z m 44.29866,-25.55733 c 4.17467,0.124 8.10267,3.06133 10.41334,7.16933 2.49866,4.448 2.92666,11.45867 2.208,16.52534 -0.79334,5.62266 -1.81067,7.752 -1.74934,7.76133 -0.0493,0.0107 -0.392,-2.28533 -0.95466,-7.50667 -1.428,-17.46266 -17.02267,-21.716 -19.90267,0.67334 -0.36667,5.22666 -0.80933,7.53333 -0.82267,7.52266 0.0333,-0.0107 -0.88933,-2.12933 -1.884,-7.73733 -3.27333,-22.52933 10.52934,-24.472 12.692,-24.408 z m 18.408,51.14133 c 0,1.88267 -0.288,3.69734 -0.81066,5.40667 0.44666,0.188 0.896,0.45467 1.32933,0.88133 1.908,1.852 3.776,3.72 5.67333,5.58534 1.41467,1.38929 2.22134,3.59729 4,4.47729 0.88267,0.436 0.1,1.7907 -0.76666,1.3214 -4.05067,-2.1854 -9.48267,-3.3627 -13.57467,-5.33336 -0.14933,-0.0733 -0.26133,-0.16267 -0.39733,-0.248 -2.87334,3.29866 -6.89334,5.55466 -11.44534,6.15736 0.69067,1.8333 -3.352,12.2813 -2.76,14.476 -1.848,-3.236 -4.03466,-12.844 -3.21466,-14.6387 -3.824,-0.7493 -7.216,-2.68 -9.79867,-5.39199 -0.516,-0.54267 -13.96533,6.04529 -13.96533,6.04529 0,0 7.59066,-10.66929 9.74666,-11.97063 0.12267,-0.072 0.24134,-0.11733 0.36134,-0.17333 -0.788,-2.052 -1.23734,-4.268 -1.24134,-6.59467 0.004,-1.96666 0.31734,-3.85466 0.88667,-5.62933 -0.99867,3.116 -10.14,-9.396 -10.45733,-10.584 0.11333,0.42 13.17733,2.848 14.57333,3.60133 0.67067,-0.69733 8.916,-5.87866 8.94,-5.244 0,-0.0373 -0.024,-0.0627 -0.024,-0.1 -0.092,-2.556 0.14933,-10.39733 2.35067,-13.41733 1.30266,-1.78533 4.58266,10.668 4.55066,13.11867 4.68,0.60666 8.81067,2.95466 11.70534,6.38933 1.29333,-0.98 2.43733,-1.15067 4.04,-1.604 0.65866,-0.184 11.192,-3.57333 10.716,-2.91467 -0.89334,1.232 -2.02667,2.26667 -3.19467,3.29867 -3.424,3.02933 -8.30133,6.852 -8.42667,6.58133 0.764,2.024 1.204,4.208 1.204,6.504 z m -1.61066,-24.344 c 17.87333,-14.09866 26.45866,-3.11733 27.484,-1.21066 1.98,3.67866 1.40133,8.548 -1.00134,12.60266 -2.60266,4.38934 -8.464,8.264 -13.20933,10.17734 -5.26267,2.12133 -7.616,2.30133 -7.59333,2.36133 -0.0333,-0.036 1.78133,-1.48267 6.024,-4.57867 14.40666,-9.96666 10.29466,-25.59866 -10.53334,-16.9 -4.71466,2.296 -6.93333,3.06667 -6.93066,3.04934 0.028,0.0227 1.39866,-1.836 5.76,-5.50134 z m -16.81467,-29.99733 c -30.012,0.0533 -54.29333,24.328 -54.34533,54.33867 0.052,30.01069 24.33333,54.29469 54.34533,54.34669 30.012,-0.052 54.28533,-24.336 54.33866,-54.34669 -0.0533,-30.01067 -24.32666,-54.28534 -54.33866,-54.33867"
         style="fill:#b62323;fill-opacity:1;fill-rule:nonzero;stroke:none;stroke-width:0.133333" />
      <path
         id="path160"
         d="m 547.61332,1049.912 c -34.71333,0 -62.84533,-28.1373 -62.852,-62.85199 0,-34.708 28.13867,-62.844 62.852,-62.844 34.70667,0 62.84533,28.136 62.852,62.844 -0.007,34.71469 -28.14533,62.85199 -62.852,62.85199 z m 73.716,-62.84666 c 0,-40.71333 -33.00533,-73.716 -73.716,-73.716 -40.71067,0 -73.712,33.00267 -73.712,73.716 0,40.71066 33.00133,73.71466 73.712,73.71466 40.71067,0 73.716,-33.004 73.716,-73.71466"
         style="fill:#b62323;fill-opacity:1;fill-rule:nonzero;stroke:none;stroke-width:0.133333" />
      <path
         id="path161"
         d="m 547.60932,974.30401 c -7.03867,0.016 -12.74533,5.716 -12.75467,12.75866 0.009,7.04134 5.716,12.74667 12.75467,12.756 7.04267,-0.009 12.752,-5.71466 12.75867,-12.756 -0.007,-7.04266 -5.716,-12.74266 -12.75867,-12.75866"
         style="fill:#b62323;fill-opacity:1;fill-rule:nonzero;stroke:none;stroke-width:0.133333" />
      <path
         id="path162"
         d="m 536.82265,968.06667 c 0.0133,0.0107 0.456,-2.296 0.82267,-7.52266 2.88,-22.38934 18.47467,-18.136 19.90267,-0.67334 0.56266,5.22134 0.90533,7.51734 0.95466,7.50667 -0.0613,-0.009 0.956,-2.13867 1.74934,-7.76133 0.71866,-5.06667 0.29066,-12.07734 -2.208,-16.52534 -2.31067,-4.108 -6.23867,-7.04533 -10.41334,-7.16933 -2.16266,-0.064 -15.96533,1.87867 -12.692,24.408 0.99467,5.608 1.91734,7.72667 1.884,7.73733"
         style="fill:#ffffff;fill-opacity:1;fill-rule:nonzero;stroke:none;stroke-width:0.133333" />
      <path
         id="path163"
         d="m 518.12265,984.67334 c 5.356,1.944 7.65067,2.20267 7.644,2.23733 0.016,-0.007 -1.75866,-1.54266 -6.10266,-4.47466 -17.952,-13.688 -6.46934,-25.06667 9.36933,-17.572 4.8,2.12266 6.96,2.97333 6.976,2.92533 -0.04,0.0493 -1.376,-1.896 -5.84533,-5.396 -4.02667,-3.15333 -10.31467,-6.28933 -15.416,-6.34933 -4.712,-0.0533 -9.22134,1.87866 -11.416,5.43466 -1.13734,1.83734 -6.35467,14.76534 14.79066,23.19467"
         style="fill:#ffffff;fill-opacity:1;fill-rule:nonzero;stroke:none;stroke-width:0.133333" />
      <path
         id="path164"
         d="m 529.62799,1008.956 c -20.828,8.7027 -24.94134,-6.932 -10.52934,-16.89999 4.23734,-3.096 6.05334,-4.54 6.02,-4.58134 0.0227,0.0613 -2.33066,0.24534 -7.59333,2.36534 -4.74533,1.912 -10.604,5.78666 -13.208,10.17599 -2.404,4.056 -2.98267,8.9253 -1.00267,12.6027 1.02534,1.9066 9.61067,12.8853 27.484,-1.2094 4.36134,-3.6666 5.732,-5.5253 5.75867,-5.504 0.004,-0.017 -2.21467,0.7547 -6.92933,3.0507"
         style="fill:#ffffff;fill-opacity:1;fill-rule:nonzero;stroke:none;stroke-width:0.133333" />
      <path
         id="path165"
         d="m 558.40399,1006.06 c -0.0133,-0.012 -0.456,2.2947 -0.82267,7.5253 -2.88,22.388 -18.47467,18.1334 -19.90267,0.6694 -0.56266,-5.22 -0.90666,-7.5134 -0.95466,-7.504 0.0653,0.011 -0.956,2.1386 -1.75067,7.76 -0.716,5.0626 -0.29067,12.076 2.20933,16.5253 2.31067,4.1067 6.23867,7.0453 10.41467,7.168 2.16133,0.067 15.964,-1.8787 12.692,-24.4053 -0.992,-5.608 -1.91867,-7.728 -1.88533,-7.7387"
         style="fill:#ffffff;fill-opacity:1;fill-rule:nonzero;stroke:none;stroke-width:0.133333" />
      <path
         id="path166"
         d="m 577.10399,989.45201 c -5.356,-1.944 -7.65067,-2.204 -7.644,-2.236 -0.016,0.008 1.75866,1.54133 6.10266,4.476 17.952,13.68799 6.47067,25.06399 -9.36933,17.57199 -4.80133,-2.124 -6.95867,-2.9747 -6.976,-2.928 0.04,-0.047 1.376,1.8987 5.84533,5.3973 4.02667,3.1534 10.31467,6.2907 15.416,6.3494 4.712,0.055 9.22134,-1.8814 11.416,-5.4334 1.13734,-1.8413 6.35467,-14.76529 -14.79066,-23.19729"
         style="fill:#ffffff;fill-opacity:1;fill-rule:nonzero;stroke:none;stroke-width:0.133333" />
      <path
         id="path167"
         d="m 565.59865,965.17067 c 20.828,-8.69866 24.94,6.93334 10.53334,16.9 -4.24267,3.096 -6.05734,4.54267 -6.024,4.57867 -0.0227,-0.06 2.33066,-0.24 7.59333,-2.36133 4.74533,-1.91334 10.60667,-5.788 13.20933,-10.17734 2.40267,-4.05466 2.98134,-8.924 1.00134,-12.60266 -1.02534,-1.90667 -9.61067,-12.888 -27.484,1.21066 -4.36134,3.66534 -5.732,5.524 -5.76,5.50134 -0.003,0.0173 2.216,-0.75334 6.93066,-3.04934"
         style="fill:#ffffff;fill-opacity:1;fill-rule:nonzero;stroke:none;stroke-width:0.133333" />
      <path
         id="path168"
         d="m 547.60932,999.81867 c -7.03867,-0.009 -12.74533,-5.71466 -12.75467,-12.756 0.009,-7.04266 5.716,-12.74266 12.75467,-12.75866 7.04267,0.016 12.752,5.716 12.75867,12.75866 -0.007,7.04134 -5.716,12.74667 -12.75867,12.756 z m 28.84667,-29.14 c 0.476,-0.65866 -10.05734,2.73067 -10.716,2.91467 -1.60267,0.45333 -2.74667,0.624 -4.04,1.604 -2.89467,-3.43467 -7.02534,-5.78267 -11.70534,-6.38933 0.032,-2.45067 -3.248,-14.904 -4.55066,-13.11867 -2.20134,3.02 -2.44267,10.86133 -2.35067,13.41733 0,0.0373 0.024,0.0627 0.024,0.1 -0.024,-0.63466 -8.26933,4.54667 -8.94,5.244 -1.396,-0.75333 -14.46,-3.18133 -14.57333,-3.60133 0.31733,1.188 9.45866,13.7 10.45733,10.584 -0.56933,1.77467 -0.88267,3.66267 -0.88667,5.62933 0.004,2.32667 0.45334,4.54267 1.24134,6.59467 -0.12,0.056 -0.23867,0.10133 -0.36134,0.17333 -2.156,1.30134 -9.74666,11.97063 -9.74666,11.97063 0,0 13.44933,-6.58796 13.96533,-6.04529 2.58267,2.71199 5.97467,4.64269 9.79867,5.39199 -0.82,1.7947 1.36666,11.4027 3.21466,14.6387 -0.592,-2.1947 3.45067,-12.6427 2.76,-14.476 4.552,-0.6027 8.572,-2.8587 11.44534,-6.15736 0.136,0.0853 0.248,0.17467 0.39733,0.248 4.092,1.97066 9.524,3.14796 13.57467,5.33336 0.86666,0.4693 1.64933,-0.8854 0.76666,-1.3214 -1.77866,-0.88 -2.58533,-3.088 -4,-4.47729 -1.89733,-1.86534 -3.76533,-3.73334 -5.67333,-5.58534 -0.43333,-0.42666 -0.88267,-0.69333 -1.32933,-0.88133 0.52266,-1.70933 0.81066,-3.524 0.81066,-5.40667 0,-2.296 -0.44,-4.48 -1.204,-6.504 0.12534,0.27067 5.00267,-3.552 8.42667,-6.58133 1.168,-1.032 2.30133,-2.06667 3.19467,-3.29867"
         style="fill:#ffffff;fill-opacity:1;fill-rule:nonzero;stroke:none;stroke-width:0.133333" />
      <path
         id="path169"
         d="m 547.61332,1041.4067 c -30.012,-0.052 -54.29333,-24.336 -54.34533,-54.34669 0.052,-30.01067 24.33333,-54.28534 54.34533,-54.33867 30.012,0.0533 54.28533,24.328 54.33866,54.33867 -0.0533,30.01069 -24.32666,54.29469 -54.33866,54.34669 z m 0,-117.19069 c -34.71333,0 -62.852,28.136 -62.852,62.844 0.007,34.71469 28.13867,62.85199 62.852,62.85199 34.70667,0 62.84533,-28.1373 62.852,-62.85199 -0.007,-34.708 -28.14533,-62.844 -62.852,-62.844"
         style="fill:#ffffff;fill-opacity:1;fill-rule:nonzero;stroke:none;stroke-width:0.133333" />
    </g>
  </g>
</svg>
