<?xml version="1.0" encoding="UTF-8" standalone="no"?>
<!-- Created with Inkscape (http://www.inkscape.org/) -->

<svg
   version="1.1"
   id="svg1"
   width="337"
   height="500"
   viewBox="0 0 337.00001 499.99999"
   xmlns="http://www.w3.org/2000/svg"
   xmlns:svg="http://www.w3.org/2000/svg">
  <defs
     id="defs1" />
  <g
     id="g1"
     transform="translate(-2429)">
    <g
       id="g241"
       transform="matrix(0.98461114,0,0,0.98461114,945.296,-665.60896)">
      <path
         id="path238"
         d="m 1842.04,1126.2772 c -0.04,28.0468 -22.72,50.7255 -50.7734,50.7776 H 1564.44 c -28.0534,-0.052 -50.72,-22.7308 -50.7734,-50.7776 V 733.56935 c 0.053,-28.04667 22.72,-50.73467 50.7734,-50.78667 h 226.8266 c 28.0534,0.052 50.7334,22.74 50.7734,50.78667 l 0.013,392.70785 z m 6.7733,0 V 733.56935 c 0,-31.792 -25.76,-57.55734 -57.5467,-57.55734 H 1564.44 c -31.7867,0 -57.5467,25.76534 -57.5467,57.55734 v 392.70785 c 0,31.7839 25.76,57.5495 57.5467,57.5495 h 226.8266 c 31.7867,0 57.5467,-25.7656 57.56,-57.5495 h -0.013"
         style="fill:#211d1d;fill-opacity:1;fill-rule:nonzero;stroke:none;stroke-width:0.133333" />
      <path
         id="path239"
         d="m 1631.6933,891.51468 c -0.067,-2.67067 -0.1333,-5.344 -0.2133,-8.016 -0.48,-17.24267 -1.1334,-34.488 -1.2,-51.71867 0,-0.70267 -0.08,-1.36 -0.2134,-1.97067 -5.5466,2.12267 -11.1733,3.67334 -16.44,3.684 0.067,17.69067 0.4534,35.37734 0.96,53.06267 -6.04,1.10133 -12.0933,2.19467 -18.1333,3.31067 -7.6267,1.40666 -15.24,2.83066 -22.8533,4.308 -2.7867,0.53866 -5.5734,1.09733 -8.3467,1.67466 -2.8533,0.58934 -6.8533,6.672 -5.3733,5.46134 -2.3467,1.92266 -1.4667,5.92399 0.9866,7.31866 1.36,1.172 2.5867,2.29333 4.3867,2.78667 3,0.82533 6.52,-0.472 9.4933,-1.07334 7.0534,-1.428 14.1334,-2.768 21.2,-4.10933 6.3867,-1.208 12.7467,-2.38533 19.12,-3.56933 0.2,6.23066 0.4,12.45866 0.6134,18.68933 0.9466,28.33333 5.7866,57.276 4.84,85.63736 -8.5734,1.3453 -17.08,3.5226 -25.44,5.464 -14.5867,3.3813 -32.56,2.8853 -44.4667,12.6 -3.52,2.876 -1.32,8.6626 2.5867,9.764 13.3866,3.7813 27.6,-3.7934 40.04,-8.5027 9.56,-3.6187 19.48,-6.584 29.0266,-10.38 -0.1733,-2.888 -0.1866,-5.7573 -0.04,-8.616 0.027,-0.204 0.067,-0.4133 0.093,-0.6213 4.2133,-26.78536 9.0133,-52.51736 9.56,-80.03603 0.1866,-9.03866 0.1333,-18.08 -0.027,-27.12666 -0.053,-2.672 -0.093,-5.34667 -0.16,-8.02133"
         style="fill:#11100e;fill-opacity:1;fill-rule:nonzero;stroke:none;stroke-width:0.133333" />
      <path
         id="path240"
         d="m 1776.5466,922.52267 c -0.1333,-0.94133 -1.6266,-0.95466 -1.8,-0.22666 -4.7466,20.08666 9.52,52.72666 0.8534,74.688 -7.8667,19.93199 -65.1467,38.34799 -80.4267,9.24799 -3.2,-6.0853 -4.3467,-12.81199 -4.84,-19.68133 1.5733,-14.664 3.16,-29.27333 3.5733,-44.14533 0.5067,-18.28 -0.4666,-36.55733 -0.2666,-54.84133 0,-0.644 0.013,-1.30133 0.027,-1.948 20.24,-4.288 40.3467,-9.03467 60.2667,-14.74533 2.9733,-0.84934 2.48,-5.648 -0.7333,-5.47734 -19.8667,1.05067 -39.56,3.32 -59.2134,6.136 0.093,-3.304 0.1334,-57.55066 -7.5066,-81.52133 -5.6267,1.75333 -11.1467,3.69333 -16.6934,5.092 -0.3466,18.16 6.5334,46.07867 7.2,53.84533 2.1734,25.04 -0.5866,50.03067 0.1867,75.10533 0.8667,28.44267 -6.2667,62.36 5.2667,89.33203 9.6,22.428 37.7333,22.8626 58.7466,21.8146 22.16,-1.1 50.0667,-3.592 55.4134,-27.0106 2.4533,-10.72536 0.9866,-24.23869 -2.8,-35.00136 -5.1334,-14.592 -15.2667,-36.57733 -17.2534,-50.66267"
         style="fill:#11100e;fill-opacity:1;fill-rule:nonzero;stroke:none;stroke-width:0.133333" />
    </g>
  </g>
</svg>
