<?xml version="1.0" encoding="UTF-8" standalone="no"?>
<!-- Created with Inkscape (http://www.inkscape.org/) -->

<svg
   version="1.1"
   id="svg1"
   width="337"
   height="500"
   viewBox="0 0 337.00001 499.99999"
   xmlns="http://www.w3.org/2000/svg"
   xmlns:svg="http://www.w3.org/2000/svg">
  <defs
     id="defs1" />
  <g
     id="g1"
     transform="translate(-693.99998)">
    <g
       id="g247"
       transform="matrix(0.98461374,0,0,0.98461374,-59.451375,-665.61203)">
      <path
         id="path216"
         d="m 1100.376,1126.2772 c -0.049,28.0479 -22.7294,50.7265 -50.7787,50.7787 H 822.77065 c -28.04534,-0.052 -50.724,-22.7308 -50.77467,-50.7787 V 733.57068 c 0.0507,-28.04667 22.72933,-50.73467 50.77467,-50.78667 h 226.82665 c 28.0493,0.052 50.7293,22.74 50.7787,50.78667 l 0.011,392.70652 z m 6.7693,0 V 733.57068 c 0,-31.79333 -25.7627,-57.55733 -57.548,-57.55733 H 822.77065 c -31.78134,0 -57.54534,25.764 -57.54534,57.55733 v 392.70652 c 0,31.7839 25.764,57.5495 57.54534,57.5495 h 226.82665 c 31.7853,0 57.548,-25.7656 57.5587,-57.5495 h -0.011"
         style="fill:#211d1d;fill-opacity:1;fill-rule:nonzero;stroke:none;stroke-width:0.133333" />
      <path
         id="path217"
         d="m 1060.4973,1057.4987 c -1.4827,2.54 -4.1227,4.024 -6.5653,5.212 -0.436,0.2146 -0.8627,0.4226 -1.2867,0.6213 -2.36,1.128 -4.796,1.7933 -7.2493,2.196 -2.3107,0.3813 -4.6547,0.5213 -7.0094,0.5507 -7.5773,-0.6347 -15.3466,0.5533 -22.8706,-0.9107 -1.4347,-0.2747 -2.8574,-0.6493 -4.2654,-1.1533 -1.6226,-0.5747 -3.0146,-1.304 -4.2746,-2.1507 -2.9027,-1.952 -5.0747,-4.6267 -7.32269,-8.0133 2.21069,0.048 4.45999,-0.1294 6.59199,-0.02 0.244,0.013 0.4893,0 0.7307,0.013 2.836,0.1107 5.6893,0.047 8.54,-0.067 3.16,-0.1253 6.32,-0.2893 9.4773,-0.264 2.5133,0.021 5.0267,-0.02 7.5413,-0.072 0.804,0.025 1.6134,0.029 2.4134,0.065 3.4493,0.1453 6.9533,0.3026 10.448,0.3573 2.8266,0.048 5.6426,0.035 8.42,-0.136 0.041,0 0.084,0 0.116,-0.01 2.784,-0.1533 5.816,0.2507 8.7586,0.1827 -0.764,1.1587 -1.472,2.3693 -2.1933,3.5947 z m -2.4267,66.7706 c 7.5947,7.2079 8.8854,15.5558 -1.008,19.7267 -4.7306,1.9947 -20.1133,4.3411 -26.7506,10.9504 -6.6534,-6.6213 -21.9774,-9.1145 -26.7227,-10.9504 -8.80266,-3.4053 -9.47066,-11.5813 -2.2293,-18.5589 4.3106,-4.1506 11.8506,-9.6855 12.936,-16.7402 0.132,-0.8666 0.1613,-1.7609 0.081,-2.6729 l 1.1387,-35.656 c 5.2306,0.4773 10.6786,1.024 16.0146,0.8813 4.624,0.06 9.3094,-0.3706 13.8654,-0.7826 l 0.8986,35.3906 c -0.096,0.972 -0.068,1.9188 0.072,2.8412 1.0227,6.512 7.592,11.6588 11.704,15.5708 z M 1001.832,1045.44 c 1.2026,-2.0467 3.1533,-3.404 5.144,-4.4813 0.916,-0.4947 1.8413,-0.9374 2.708,-1.3507 1.9093,-0.9107 3.8573,-1.512 5.832,-1.928 2.7666,-0.5867 5.5893,-0.7853 8.4333,-0.82 7.1013,0.5933 14.364,-0.396 21.4467,0.676 1.9106,0.2907 3.808,0.7173 5.692,1.3867 1.04,0.368 1.964,0.8146 2.844,1.2946 2.8293,1.5467 4.9786,3.6667 7.0026,6.3707 -1.64,0.029 -3.276,0.1067 -4.8493,0.028 -0.7187,-0.039 -1.436,-0.027 -2.1533,-0.039 -2.844,-0.047 -5.6894,0.028 -8.536,0.148 -2.688,0.1107 -5.368,0.2267 -8.0507,0.204 -2.516,-0.016 -5.032,0.023 -7.548,0.079 -0.8,-0.029 -1.6093,-0.035 -2.4133,-0.068 -3.916,-0.164 -7.904,-0.3427 -11.868,-0.3693 -2.348,-0.017 -4.6854,0 -6.9947,0.144 -0.5067,0.032 -1.0227,0.041 -1.5453,0.041 -1.8827,-0.01 -3.8454,-0.168 -5.7827,-0.2107 0.2053,-0.368 0.428,-0.736 0.6387,-1.1053 z m 0.744,-71.11999 c -7.59202,-7.204 -8.87736,-15.552 1.0133,-19.72534 4.7253,-1.992 20.112,-4.34133 26.7507,-10.948 6.652,6.61867 21.9706,9.11334 26.7226,10.948 8.7974,3.408 9.4654,11.58534 2.2254,18.55734 -2.5974,2.50666 -6.3734,5.51333 -9.1987,9.05466 -1.5467,1.936 -2.7987,4.03734 -3.428,6.29867 -1.3813,2.84667 -1.508,7.94133 -1.508,7.94133 l 0.2427,35.99603 c -4.7907,-0.448 -9.74,-0.8854 -14.596,-0.7507 -5.1107,-0.065 -10.288,0.4627 -15.284,0.904 v -33.02799 c -0.1067,-2.844 -0.4174,-5.62 -1.1107,-8.28267 -0.02,-0.85467 -0.1493,-1.68267 -0.3587,-2.49067 0.04,-0.32133 0.049,-0.652 0.104,-0.968 -0.1626,-0.052 -0.3,-0.136 -0.4533,-0.19333 -0.7013,-1.94 -1.848,-3.752 -3.204,-5.42933 -2.4533,-3.04267 -5.58,-5.66134 -7.9173,-7.884 z m -18.10669,33.57599 c -1.90933,1.988 -3.70133,4.0013 -5.28133,6.0947 -2.35734,2.46 -3.87867,5.2426 -4.93334,7.9546 -1.21333,3.0747 -1.84266,6.0574 -2.492,8.3814 -1.924,7.0133 -6.46533,12.3506 -11.58,12.2786 -0.324,0 -0.66266,-0.019 -0.98533,-0.059 -2.048,-0.1947 -7.444,-2.9547 -13.248,-2.9627 -0.384,0 -0.78,0.061 -1.17067,0.088 -2.65066,1.1813 -6.32133,-0.1427 -6.19866,-3.7853 0.13866,-4.1894 0.496,-8.14 1.96666,-11.9814 0,-0.02 -0.0133,-0.044 -0.0133,-0.063 -0.0627,-0.3574 -0.088,-0.716 -0.088,-1.076 -0.0707,-4.3734 4.55733,-9.2814 11.08133,-11.0947 2.588,-0.7347 6.08,-1.3987 9.65067,-2.8147 1.93333,-0.764 3.884,-1.7586 5.71867,-3.108 2.66133,-1.5826 6.11333,-4.984 6.152,-5.0093 l 21.74533,-21.89599 c 1.12133,1.72666 2.44,3.26133 3.96667,4.516 1.92529,1.576 3.58399,3.29066 5.10259,5.13866 z m -50.46933,28.3587 c -0.45334,2.0893 -2.21867,2.832 -3.916,2.6253 0.0293,0.3053 0.0187,0.6 0.068,0.908 -0.89867,-0.1453 -1.788,-0.2067 -2.668,-0.2067 -5.81067,0.011 -11.204,2.7707 -13.23734,2.9654 -0.336,0.04 -0.664,0.059 -0.99466,0.059 -5.11734,0.071 -9.66667,-5.2693 -11.57467,-12.2786 -0.64533,-2.328 -1.28,-5.3094 -2.48667,-8.3867 -1.064,-2.704 -2.57733,-5.4893 -4.94266,-7.9493 -1.57867,-2.0894 -3.36134,-4.108 -5.26,-6.0787 l -19.33067,-19.32799 c 2.97333,-3.324 6.084,-6.44267 8.484,-10.25734 l 22.236,22.39863 c 0.0507,0.043 3.472,3.4094 6.12667,4.992 1.852,1.364 3.81466,2.3694 5.76933,3.14 3.56133,1.416 7.052,2.084 9.63733,2.816 6.24267,1.7347 10.688,6.288 11.01867,10.504 0.0467,0.136 0.12533,0.24 0.152,0.396 0.744,4.712 1.95333,8.8854 0.91867,13.6814 z m -71.648,-54.04803 c -1.54667,1.936 -2.8,4.03734 -3.42933,6.29867 -1.37867,2.84667 -1.5,7.94133 -1.5,7.94133 l 0.23466,35.99603 c -4.79066,-0.448 -9.73733,-0.8854 -14.59733,-0.7507 -5.104,-0.065 -10.28533,0.4627 -15.28,0.904 v -33.02799 c -0.10267,-2.844 -0.42667,-5.62 -1.11333,-8.28267 -0.1,-3.36933 -1.74,-6.392 -3.912,-9.08133 -2.45067,-3.04267 -5.58,-5.66134 -7.91734,-7.884 -7.59066,-7.204 -8.87866,-15.552 1.01467,-19.72534 4.73067,-1.992 20.11333,-4.34133 26.74933,-10.948 6.64934,6.61867 21.97467,9.11334 26.72267,10.948 8.804,3.408 9.46933,11.58534 2.22533,18.55734 -2.6,2.50666 -6.37066,5.51333 -9.19733,9.05466 z m 10.84133,64.38133 c -1.632,0.029 -3.27467,0.1067 -4.848,0.028 -0.71467,-0.039 -1.43467,-0.027 -2.148,-0.039 -2.84666,-0.047 -5.69066,0.028 -8.54,0.148 -2.68533,0.1107 -5.36933,0.2267 -8.05066,0.204 -2.516,-0.016 -5.028,0.023 -7.548,0.079 -0.804,-0.029 -1.60667,-0.035 -2.41334,-0.068 -3.91866,-0.164 -7.90133,-0.3427 -11.86533,-0.3693 -2.344,-0.017 -4.68533,0 -7.00533,0.144 -0.496,0.032 -1.01467,0.041 -1.53734,0.041 -1.88133,-0.01 -3.83866,-0.168 -5.78933,-0.2107 0.21867,-0.368 0.43333,-0.736 0.648,-1.1053 1.20667,-2.0467 3.15067,-3.404 5.14133,-4.4813 0.91867,-0.4947 1.84134,-0.9374 2.71067,-1.3507 1.904,-0.9107 3.85733,-1.512 5.832,-1.928 2.76933,-0.5867 5.58667,-0.7853 8.43333,-0.82 7.096,0.5933 14.36134,-0.396 21.444,0.676 1.91734,0.2907 3.81467,0.7173 5.68934,1.3867 1.04133,0.368 1.96666,0.8146 2.85066,1.2946 2.82933,1.5467 4.97733,3.6667 6.996,6.3707 z m -0.43467,10.9107 c -1.48666,2.54 -4.12133,4.024 -6.56133,5.212 -0.43733,0.2146 -0.87066,0.4226 -1.28933,0.6213 -2.36533,1.128 -4.792,1.7933 -7.25067,2.196 -2.312,0.3813 -4.65466,0.5213 -7.00533,0.5507 -7.58533,-0.6347 -15.344,0.5533 -22.872,-0.9107 -1.43733,-0.2747 -2.86,-0.6493 -4.27467,-1.1533 -1.61733,-0.5747 -3.00533,-1.304 -4.268,-2.1507 -2.90266,-1.952 -5.076,-4.6267 -7.324,-8.0133 2.212,0.048 4.46134,-0.1294 6.6,-0.02 0.24,0.013 0.48267,0 0.724,0.013 2.84267,0.1107 5.68934,0.047 8.54267,-0.067 3.15467,-0.1253 6.32533,-0.2893 9.472,-0.264 2.512,0.021 5.02933,-0.02 7.54133,-0.072 0.80667,0.025 1.616,0.029 2.42,0.065 3.444,0.1453 6.94934,0.3026 10.444,0.3573 2.82267,0.048 5.64,0.035 8.424,-0.136 0.036,0 0.08,0 0.116,-0.01 2.78267,-0.1533 5.81467,0.2507 8.76,0.1827 -0.77067,1.1587 -1.47867,2.3693 -2.19867,3.5947 z m -2.42,66.7706 c 7.584,7.2079 8.87734,15.5558 -1.01466,19.7267 -4.724,1.9947 -20.11733,4.3411 -26.756,10.9504 -6.64667,-6.6213 -21.972,-9.1145 -26.716,-10.9504 -8.79733,-3.4053 -9.46533,-11.5813 -2.22933,-18.5589 4.308,-4.1506 11.856,-9.6855 12.93066,-16.7402 0.13334,-0.8666 0.16534,-1.7609 0.0867,-2.6729 l 1.14,-35.656 c 5.22933,0.4773 10.668,1.024 16.01733,0.8813 4.61867,0.06 9.30667,-0.3706 13.86,-0.7826 l 0.89867,35.3906 c -0.0987,0.972 -0.0693,1.9188 0.0773,2.8412 1.016,6.512 7.58267,11.6588 11.70533,15.5708 z M 1072.568,1050.896 c -0.01,-0.02 -0.02,-0.04 -0.025,-0.061 -0.041,-0.08 -0.061,-0.1627 -0.116,-0.2427 -1.6306,-2.2907 -3.588,-3.652 -4.916,-6.3227 -1.1213,-2.2546 -2.1586,-4.3173 -3.6066,-6.2933 -2.496,-3.3933 -6.3254,-4.3853 -9.972,-4.7933 v -40.40269 c 5.1013,-6.93334 12.08,-11.72 14.852,-20.68934 2.148,-6.92933 2.3506,-14.604 -2.8547,-19.52666 -5.0653,-4.80667 -12.6813,-5.80134 -18.8573,-6.88667 -3.4814,-0.608 -7.148,-1.896 -10.3614,-3.62 -1.544,-0.83333 -2.588,-1.996 -3.508,-3.26667 -0.564,-0.78266 -1.0946,-1.608 -1.6453,-2.436 -0.3853,-0.564 -0.792,-1.12266 -1.2307,-1.676 -0.4466,0.55467 -0.8466,1.12267 -1.224,1.69334 -0.544,0.82533 -1.068,1.65333 -1.636,2.44 -0.72,0.98533 -1.5306,1.908 -2.6213,2.67866 -3.3453,2.35467 -7.5253,3.228 -11.264,4.18667 -6.2973,1.616 -13.59866,1.88933 -18.86399,6.88667 -5.42933,5.13866 -4.61867,12.364 -2.85333,19.52666 0.016,0.048 0.036,0.0907 0.0467,0.13334 l -26.012,26.02 c -6.32533,2.70129 -12.276,3.46929 -19.54266,8.64799 -3.60134,2.5853 -7.136,5.6613 -9.63067,9.0547 -2.51067,-3.3934 -6.044,-6.4694 -9.63467,-9.052 -7.26933,-5.1814 -13.23066,-5.948 -19.548,-8.65069 l -26.42666,-26.42267 c 2.07066,-6.86 2.216,-14.39733 -2.92134,-19.25733 -5.072,-4.80667 -12.68533,-5.80134 -18.86133,-6.88667 -3.47866,-0.608 -7.15066,-1.896 -10.36133,-3.62 -1.544,-0.83333 -2.58933,-1.996 -3.504,-3.26667 -0.56933,-0.78266 -1.09467,-1.608 -1.65067,-2.436 -0.38,-0.564 -0.78933,-1.12266 -1.236,-1.676 -0.44,0.55467 -0.84,1.12267 -1.21733,1.69334 -0.54533,0.82533 -1.06667,1.65333 -1.636,2.44 -0.71733,0.98533 -1.528,1.908 -2.61867,2.67866 -3.34266,2.35467 -7.52133,3.228 -11.26666,4.18667 -6.29734,1.616 -13.59067,1.88933 -18.86534,6.88667 -5.424,5.13866 -4.62,12.364 -2.84666,19.52666 1.13466,4.62267 3.588,8.56134 6.89066,11.26934 3.32667,2.72533 5.93067,5.81066 8.216,9.42133 v 40.63466 c -3.11866,0.6 -5.896,1.8573 -8.54666,4.56 -1.57734,1.6133 -2.63467,4.1507 -3.604,6.2933 -1.24267,2.7387 -3.292,4.04 -4.92267,6.3227 -0.0453,0.08 -0.072,0.1627 -0.10933,0.2427 -0.0133,0.021 -0.02,0.041 -0.0253,0.061 -0.0573,0.108 -0.0827,0.2227 -0.10266,0.3413 -0.0133,0.076 -0.02,0.1547 -0.02,0.2334 0,0.077 0.007,0.1546 0.02,0.232 0.02,0.1173 0.0453,0.2333 0.10266,0.3413 0.005,0.02 0.012,0.039 0.0253,0.059 0.0373,0.081 0.064,0.1666 0.10933,0.2426 1.63333,2.292 3.59333,3.6534 4.92267,6.3254 1.124,2.2546 2.156,4.3173 3.604,6.292 2.17866,2.9506 5.352,4.0853 8.54666,4.6 v 35.8984 c -5.128,7.1281 -12.28933,11.9177 -15.10666,21.0416 -2.148,6.9266 -2.34934,14.6037 2.84666,19.5292 5.072,4.8041 12.68534,5.7984 18.86534,6.8838 3.47733,0.6083 7.14666,1.8948 10.35866,3.6214 1.54667,0.8308 2.58534,1.9922 3.50667,3.2682 0.56933,0.7823 1.09067,1.6052 1.64667,2.4318 0.38666,0.5656 0.79333,1.1265 1.232,1.6718 0.448,-0.5505 0.844,-1.1172 1.224,-1.6874 0.54533,-0.8271 1.064,-1.6511 1.63733,-2.4427 0.71467,-0.9844 1.53067,-1.9084 2.61467,-2.6751 3.34266,-2.3598 7.524,-3.2306 11.27066,-4.188 6.29467,-1.613 13.59067,-1.889 18.86133,-6.8838 5.424,-5.1438 4.62134,-12.3683 2.84934,-19.5292 -1.13734,-4.623 -3.59067,-8.563 -6.89734,-11.2719 -3.19333,-2.6244 -5.732,-5.5869 -7.94933,-9.0281 v -36.4587 c 3.716,-0.476 6.92533,-1.676 9.968,-4.7813 1.58267,-1.612 2.63733,-4.152 3.60667,-6.292 1.23466,-2.7427 3.292,-4.0387 4.912,-6.3254 0.0627,-0.076 0.0827,-0.1613 0.11866,-0.2426 0.0107,-0.02 0.024,-0.039 0.0307,-0.059 0.0467,-0.1147 0.0787,-0.224 0.0987,-0.3413 0.0133,-0.077 0.0227,-0.1547 0.0227,-0.232 0,-0.079 -0.009,-0.1574 -0.0227,-0.2334 -0.02,-0.1186 -0.0467,-0.2333 -0.0987,-0.3413 -0.007,-0.02 -0.02,-0.04 -0.0307,-0.061 -0.036,-0.08 -0.056,-0.1627 -0.11866,-0.2427 -1.62667,-2.2907 -3.58667,-3.652 -4.912,-6.3227 -1.12134,-2.2546 -2.15334,-4.3173 -3.60667,-6.2933 -2.5,-3.3933 -6.32533,-4.3853 -9.968,-4.7933 v -38.58269 l 22.51733,22.51869 c 1.54667,3.172 2.61867,6.084 3.216,8.988 0.68134,3.2973 2.54,6.9853 5.34,10.6573 4.26534,5.548 8.952,10.9733 14.936,12.648 1.23467,0.3373 2.37467,0.4813 3.436,0.4813 3.86134,-0.02 6.4,-1.9173 8.86,-2.7573 0.26134,-0.095 0.50934,-0.176 0.76934,-0.2707 0.444,-0.492 0.94933,-0.9453 1.588,-1.2866 0.78266,-0.4107 1.52,-0.6947 2.26133,-0.9054 0.71467,-0.2426 1.46267,-0.4466 2.228,-0.6266 0.19067,-0.08 0.35067,-0.2014 0.54933,-0.264 1.304,-0.4254 2.71067,-0.6027 4.08267,-0.6174 0.38133,0 0.736,0.065 1.088,0.1414 0.30667,-0.013 0.612,-0.031 0.92133,-0.033 1.73334,-0.52 3.68,-0.4266 5.56134,0.3574 0.052,0.015 0.10933,0.043 0.16533,0.059 5.23733,0.808 10.24267,2.8334 13.644,6.1747 0.152,0.01 0.284,0.024 0.43333,0.029 h 0.0627 c 1.03867,0 2.15867,-0.148 3.376,-0.4853 5.98667,-1.668 10.668,-7.0987 14.94267,-12.64 2.79733,-3.6773 4.652,-7.3667 5.33733,-10.664 0.59733,-2.896 1.66933,-5.8133 3.20933,-8.984 l 22.25339,-22.24666 v 38.54266 c -3.12,0.6 -5.8974,1.8573 -8.54672,4.56 -1.58267,1.6133 -2.63733,4.1507 -3.60267,6.2933 -1.23733,2.7387 -3.29466,4.04 -4.91866,6.3227 -0.0573,0.08 -0.0773,0.1627 -0.11334,0.2427 -0.0147,0.021 -0.0267,0.041 -0.0347,0.061 -0.048,0.108 -0.0747,0.2227 -0.0947,0.3413 -0.0147,0.076 -0.02,0.1547 -0.02,0.2334 0,0.077 0.005,0.1546 0.02,0.232 0.02,0.1173 0.0467,0.2333 0.0947,0.3413 0.008,0.02 0.02,0.039 0.0347,0.059 0.036,0.081 0.056,0.1666 0.11334,0.2426 1.632,2.292 3.592,3.6534 4.91866,6.3254 1.12134,2.2546 2.152,4.3173 3.60267,6.292 2.17602,2.9506 5.35202,4.0853 8.54672,4.6 v 35.8984 c -5.124,7.1281 -12.28805,11.9177 -15.11205,21.0416 -2.14267,6.9266 -2.344,14.6037 2.85333,19.5292 5.07067,4.8041 12.68802,5.7984 18.86402,6.8838 3.4787,0.6083 7.148,1.8948 10.3507,3.6214 1.5546,0.8308 2.5933,1.9922 3.5146,3.2682 0.5667,0.7823 1.092,1.6052 1.6507,2.4318 0.3773,0.5656 0.7893,1.1265 1.2293,1.6718 0.4427,-0.5505 0.84,-1.1172 1.2227,-1.6874 0.5467,-0.8271 1.0627,-1.6511 1.6373,-2.4427 0.7147,-0.9844 1.5267,-1.9084 2.6187,-2.6751 3.3387,-2.3598 7.52,-3.2306 11.2667,-4.188 6.292,-1.613 13.5906,-1.889 18.8573,-6.8838 5.4293,-5.1438 4.6267,-12.3683 2.8547,-19.5292 -1.1414,-4.623 -3.5907,-8.563 -6.8974,-11.2719 -3.196,-2.6244 -5.7333,-5.5869 -7.9546,-9.0281 v -36.4587 c 3.7226,-0.476 6.9306,-1.676 9.972,-4.7813 1.576,-1.612 2.6306,-4.152 3.6066,-6.292 1.24,-2.7427 3.2934,-4.0387 4.916,-6.3254 0.055,-0.076 0.075,-0.1613 0.116,-0.2426 0.01,-0.02 0.02,-0.039 0.025,-0.059 0.057,-0.1147 0.085,-0.224 0.104,-0.3413 0.013,-0.077 0.02,-0.1547 0.02,-0.232 0,-0.079 -0.01,-0.1574 -0.02,-0.2334 -0.021,-0.1186 -0.047,-0.2333 -0.104,-0.3413"
         style="fill:#276952;fill-opacity:1;fill-rule:nonzero;stroke:none;stroke-width:0.133333" />
      <path
         id="path218"
         d="m 1053.932,800.78668 c -0.032,-0.004 -0.075,-0.004 -0.116,-0.004 -2.7774,-0.172 -5.5934,-0.184 -8.42,-0.14 -3.4947,0.0547 -6.9987,0.216 -10.448,0.36266 -0.8,0.0347 -1.6094,0.036 -2.4134,0.068 -2.5146,-0.0547 -5.028,-0.0973 -7.5413,-0.076 -3.1573,0.024 -6.3173,-0.13866 -9.4773,-0.264 -2.8507,-0.11333 -5.704,-0.176 -8.54,-0.068 -0.2414,0.0107 -0.4867,0 -0.7307,0.012 -2.132,0.11067 -4.3813,-0.0667 -6.59199,-0.0187 2.24799,-3.38534 4.41999,-6.064 7.32269,-8.012 1.26,-0.848 2.652,-1.57734 4.2746,-2.152 1.408,-0.5 2.8307,-0.87467 4.2654,-1.152 7.524,-1.46534 15.2933,-0.276 22.8706,-0.90934 2.3547,0.028 4.6987,0.16667 7.0094,0.54934 2.4533,0.4 4.8893,1.06666 7.2493,2.19333 0.424,0.20133 0.8507,0.40933 1.2867,0.62267 2.4426,1.19066 5.0826,2.672 6.5653,5.21333 0.7213,1.22533 1.4293,2.436 2.1933,3.59467 -2.9426,-0.0667 -5.9746,0.33333 -8.7586,0.18 z m 0,13.50533 c -0.88,0.484 -1.804,0.92533 -2.844,1.296 -1.884,0.668 -3.7814,1.09867 -5.692,1.38533 -7.0827,1.07467 -14.3454,0.084 -21.4467,0.67734 -2.844,-0.032 -5.6667,-0.232 -8.4333,-0.824 -1.9747,-0.41334 -3.9227,-1.01467 -5.832,-1.924 -0.8667,-0.412 -1.792,-0.85734 -2.708,-1.348 -1.9907,-1.08 -3.9414,-2.436 -5.144,-4.48534 -0.2107,-0.368 -0.4334,-0.73466 -0.6387,-1.10266 1.9373,-0.044 3.9,-0.208 5.7827,-0.21334 0.5226,0 1.0386,0.008 1.5453,0.04 2.3093,0.14267 4.6467,0.16267 6.9947,0.14667 3.964,-0.0253 7.952,-0.20267 11.868,-0.37067 0.804,-0.032 1.6133,-0.0387 2.4133,-0.0667 2.516,0.0587 5.032,0.0933 7.548,0.076 2.6827,-0.0173 5.3627,0.096 8.0507,0.20933 2.8466,0.11867 5.692,0.192 8.536,0.144 0.7173,-0.012 1.4346,0 2.1533,-0.0373 1.5733,-0.08 3.2093,-10e-4 4.8493,0.0253 -2.024,2.70933 -4.1733,4.824 -7.0026,6.372 z m 5.356,67.06667 c 7.24,6.972 6.572,15.15066 -2.2254,18.55733 -4.752,1.836 -20.0706,4.32933 -26.7226,10.948 -6.6387,-6.608 -22.0254,-8.956 -26.7507,-10.948 -9.89066,-4.17467 -8.60532,-12.51867 -1.0133,-19.72533 2.3373,-2.22267 5.464,-4.84134 7.9173,-7.88134 1.356,-1.68 2.5027,-3.49066 3.204,-5.43066 0.1533,-0.06 0.2907,-0.14267 0.4533,-0.19334 -0.055,-0.32 -0.064,-0.65066 -0.104,-0.96666 0.2094,-0.81067 0.3387,-1.64 0.3587,-2.49334 0.6933,-2.66266 1.004,-5.44 1.1107,-8.28266 v -33.028 c 4.996,0.44 10.1733,0.96933 15.284,0.90533 4.856,0.132 9.8053,-0.30533 14.596,-0.748 l -0.2427,35.98933 c 0,0 0.1267,5.09734 1.508,7.944 0.6293,2.26134 1.8813,4.36 3.428,6.304 2.8253,3.53467 6.6013,6.54267 9.1987,9.04934 z m -86.24002,-27.58667 c -0.0387,-0.0267 -3.49067,-3.428 -6.152,-5.01067 -1.83467,-1.34933 -3.78534,-2.344 -5.71867,-3.11066 -3.57067,-1.412 -7.06267,-2.076 -9.65067,-2.808 -6.524,-1.81734 -11.152,-6.72667 -11.08133,-11.09734 0,-0.35866 0.0253,-0.72 0.088,-1.08 0,-0.016 0.0133,-0.0427 0.0133,-0.06 -1.47066,-3.84 -1.828,-7.79066 -1.96666,-11.98266 -0.12267,-3.644 3.548,-4.96667 6.19866,-3.78267 0.39067,0.024 0.78667,0.0893 1.17067,0.0893 5.804,-0.012 11.2,-2.772 13.248,-2.96666 0.32267,-0.04 0.66133,-0.056 0.98533,-0.056 5.11467,-0.0707 9.656,5.264 11.58,12.27733 0.64934,2.324 1.27867,5.31067 2.492,8.38133 1.05467,2.71067 2.576,5.49467 4.93334,7.952 1.58,2.092 3.372,4.108 5.28133,6.09734 l 19.39332,19.39733 c -1.5186,1.848 -3.1773,3.56267 -5.10265,5.13733 -1.52667,1.25467 -2.84534,2.79067 -3.96667,4.51467 z M 1001.36,729.07335 c -7.24136,-6.98 -6.57336,-15.15467 2.2293,-18.55734 4.7453,-1.84 20.0693,-4.332 26.7227,-10.95333 6.6373,6.61067 22.02,8.956 26.7506,10.95333 9.8934,4.16934 8.6027,12.516 1.008,19.724 -4.112,3.91334 -10.6813,9.05867 -11.704,15.572 -0.14,0.92 -0.168,1.86534 -0.072,2.84267 l -0.8986,35.388 c -4.556,-0.40934 -9.2414,-0.84534 -13.8654,-0.78 -5.336,-0.144 -10.784,0.4 -16.0146,0.87866 l -1.1387,-35.65599 c 0.08,-0.912 0.051,-1.804 -0.081,-2.67067 -1.0854,-7.056 -8.6254,-12.592 -12.936,-16.74133 z m -68.27869,102.86666 c -0.0267,0.15733 -0.10533,0.25733 -0.152,0.39333 -0.33067,4.216 -4.776,8.77467 -11.01867,10.50934 -2.58533,0.72666 -6.076,1.396 -9.63733,2.808 -1.95467,0.772 -3.91733,1.78 -5.76933,3.14266 -2.65467,1.584 -6.076,4.95067 -6.12667,4.99067 l -22.236,22.39733 c -2.4,-3.812 -5.51067,-6.932 -8.484,-10.256 l 19.33067,-19.328 c 1.89866,-1.97066 3.68133,-3.988 5.26,-6.08 2.36533,-2.45733 3.87866,-5.24533 4.94266,-7.948 1.20667,-3.07333 1.84134,-6.056 2.48667,-8.38533 1.908,-7.01067 6.45733,-12.348 11.57467,-12.27733 0.33066,0 0.65866,0.016 0.99466,0.056 2.03334,0.19466 7.42667,2.95466 13.23734,2.96666 0.88,0 1.76933,-0.064 2.668,-0.208 -0.0493,0.30934 -0.0387,0.60267 -0.068,0.91067 1.69733,-0.208 3.46266,0.536 3.916,2.624 1.03466,4.79467 -0.17467,8.96933 -0.91867,13.684 z m -63.75733,67.976 c -4.748,1.836 -20.07333,4.32933 -26.72267,10.948 -6.636,-6.608 -22.01866,-8.956 -26.74933,-10.948 -9.89333,-4.17467 -8.60533,-12.51867 -1.01467,-19.72533 2.33734,-2.22267 5.46667,-4.84134 7.91734,-7.88134 2.172,-2.68933 3.812,-5.712 3.912,-9.084 0.68666,-2.66266 1.01066,-5.44 1.11333,-8.28266 v -33.028 c 4.99467,0.44 10.176,0.96933 15.28,0.90533 4.86,0.132 9.80667,-0.30533 14.59733,-0.748 l -0.23466,35.98933 c 0,0 0.12133,5.09734 1.5,7.944 0.62933,2.26134 1.88266,4.36 3.42933,6.304 2.82667,3.53467 6.59733,6.54267 9.19733,9.04934 7.244,6.972 6.57867,15.15066 -2.22533,18.55733 z m -55.228,-90.84667 c -0.21467,-0.368 -0.42933,-0.73466 -0.648,-1.10266 1.95067,-0.044 3.908,-0.208 5.78933,-0.21334 0.52267,0 1.04134,0.008 1.53734,0.04 2.32,0.14267 4.66133,0.16267 7.00533,0.14667 3.964,-0.0253 7.94667,-0.20267 11.86533,-0.37067 0.80667,-0.032 1.60934,-0.0387 2.41334,-0.0667 2.52,0.0587 5.032,0.0933 7.548,0.076 2.68133,-0.0173 5.36533,0.096 8.05066,0.20933 2.84934,0.11867 5.69334,0.192 8.54,0.144 0.71333,-0.012 1.43333,0 2.148,-0.0373 1.57333,-0.08 3.216,-10e-4 4.848,0.0253 -2.01867,2.70933 -4.16667,4.824 -6.996,6.372 -0.884,0.484 -1.80933,0.92533 -2.85066,1.296 -1.87467,0.668 -3.772,1.09867 -5.68934,1.38533 -7.08266,1.07467 -14.348,0.084 -21.444,0.67734 -2.84666,-0.032 -5.664,-0.232 -8.43333,-0.824 -1.97467,-0.41334 -3.928,-1.01467 -5.832,-1.924 -0.86933,-0.412 -1.792,-0.85734 -2.71067,-1.348 -1.99066,-1.08 -3.93466,-2.436 -5.14133,-4.48534 z m 5.14133,-16.42266 c 1.26267,-0.848 2.65067,-1.57734 4.268,-2.152 1.41467,-0.5 2.83734,-0.87467 4.27467,-1.152 7.528,-1.46534 15.28667,-0.276 22.872,-0.90934 2.35067,0.028 4.69333,0.16667 7.00533,0.54934 2.45867,0.4 4.88534,1.06666 7.25067,2.19333 0.41867,0.20133 0.852,0.40933 1.28933,0.62267 2.44,1.19066 5.07467,2.672 6.56133,5.21333 0.72,1.22533 1.428,2.436 2.19867,3.59467 -2.94533,-0.0667 -5.97733,0.33333 -8.76,0.18 -0.036,-0.004 -0.08,-0.004 -0.116,-0.004 -2.784,-0.172 -5.60133,-0.184 -8.424,-0.14 -3.49466,0.0547 -7,0.216 -10.444,0.36266 -0.804,0.0347 -1.61333,0.036 -2.42,0.068 -2.512,-0.0547 -5.02933,-0.0973 -7.54133,-0.076 -3.14667,0.024 -6.31733,-0.13866 -9.472,-0.264 -2.85333,-0.11333 -5.7,-0.176 -8.54267,-0.068 -0.24133,0.0107 -0.484,0 -0.724,0.012 -2.13866,0.11067 -4.388,-0.0667 -6.6,-0.0187 2.248,-3.38534 4.42134,-6.064 7.324,-8.012 z m -5.61466,-63.57333 c -7.236,-6.98 -6.568,-15.15467 2.22933,-18.55734 4.744,-1.84 20.06933,-4.332 26.716,-10.95333 6.63867,6.61067 22.032,8.956 26.756,10.95333 9.892,4.16934 8.59866,12.516 1.01466,19.724 -4.12266,3.91334 -10.68933,9.05867 -11.70533,15.572 -0.14666,0.92 -0.176,1.86534 -0.0773,2.84267 l -0.89867,35.388 c -4.55333,-0.40934 -9.24133,-0.84534 -13.86,-0.78 -5.34933,-0.144 -10.788,0.4 -16.01733,0.87866 l -1.14,-35.65599 c 0.0787,-0.912 0.0467,-1.804 -0.0867,-2.67067 -1.07466,-7.056 -8.62266,-12.592 -12.93066,-16.74133 z m 258.94535,73.39466 c -0.01,-0.02 -0.02,-0.0413 -0.025,-0.0613 -0.041,-0.0813 -0.061,-0.16667 -0.116,-0.24134 -1.6226,-2.28533 -3.676,-3.584 -4.916,-6.32533 -0.976,-2.14 -2.0306,-4.67867 -3.6066,-6.29467 -3.0414,-3.104 -6.2494,-4.30266 -9.972,-4.78 v -36.45733 c 2.2213,-3.444 4.7586,-6.40533 7.9546,-9.02933 3.3067,-2.71067 5.756,-6.64533 6.8974,-11.27067 1.772,-7.15866 2.5746,-14.38533 -2.8547,-19.52933 -5.2667,-4.99333 -12.5653,-5.27333 -18.8573,-6.88267 -3.7467,-0.96 -7.928,-1.83066 -11.2667,-4.188 -1.092,-0.76666 -1.904,-1.692 -2.6187,-2.676 -0.5746,-0.792 -1.0906,-1.616 -1.6373,-2.43866 -0.3827,-0.57467 -0.78,-1.14267 -1.2227,-1.692 -0.44,0.54266 -0.852,1.104 -1.2293,1.67066 -0.5587,0.828 -1.084,1.648 -1.6507,2.436 -0.9213,1.272 -1.96,2.436 -3.5146,3.268 -3.2027,1.72267 -6.872,3.008 -10.3507,3.62 -6.176,1.08267 -13.79332,2.07734 -18.86399,6.88267 -5.19733,4.92667 -4.996,12.60133 -2.85333,19.52933 2.824,9.124 9.98802,13.91334 15.11202,21.04134 v 35.89733 c -3.1947,0.516 -6.3707,1.65066 -8.54669,4.59866 -1.45067,1.976 -2.48133,4.03867 -3.60267,6.29467 -1.32666,2.67067 -3.28666,4.03333 -4.91866,6.32533 -0.0573,0.0747 -0.0773,0.16 -0.11334,0.24134 -0.0147,0.02 -0.0267,0.0413 -0.0347,0.0613 -0.048,0.10667 -0.0747,0.22133 -0.0947,0.34133 -0.0147,0.0787 -0.02,0.15467 -0.02,0.23067 0,0.0773 0.005,0.15733 0.02,0.23333 0.02,0.11867 0.0467,0.236 0.0947,0.34 0.008,0.0213 0.02,0.04 0.0347,0.06 0.036,0.0813 0.056,0.168 0.11334,0.24267 1.624,2.28267 3.68133,3.58667 4.91866,6.324 0.96534,2.144 2.02,4.68133 3.60267,6.296 2.64929,2.7 5.42669,3.96 8.54669,4.55733 v 38.54534 l -22.25336,-22.25067 c -1.54,-3.17067 -2.612,-6.08533 -3.20933,-8.98267 -0.68533,-3.296 -2.54,-6.98666 -5.33733,-10.664 -4.27467,-5.54266 -8.956,-10.96933 -14.94267,-12.63866 -1.21733,-0.336 -2.33733,-0.48267 -3.376,-0.48267 h -0.0627 c -0.14933,0 -0.28133,0.0213 -0.43333,0.028 -3.40133,3.34 -8.40667,5.36533 -13.644,6.172 -0.056,0.016 -0.11333,0.044 -0.16533,0.0573 -1.88134,0.788 -3.828,0.88 -5.56134,0.36 -0.30933,-0.005 -0.61466,-0.0187 -0.92133,-0.032 -0.352,0.0747 -0.70667,0.13734 -1.088,0.13734 -1.372,-0.012 -2.77867,-0.18934 -4.08267,-0.61867 -0.19866,-0.0613 -0.35866,-0.18133 -0.54933,-0.25867 -0.76533,-0.18 -1.51333,-0.38533 -2.228,-0.628 -0.74133,-0.21333 -1.47867,-0.496 -2.26133,-0.90666 -0.63867,-0.34267 -1.144,-0.79467 -1.588,-1.288 -0.26,-0.092 -0.508,-0.17467 -0.76934,-0.26934 -2.46,-0.83866 -4.99866,-2.736 -8.86,-2.75333 -1.06133,0 -2.20133,0.14 -3.436,0.48133 -5.984,1.672 -10.67066,7.096 -14.936,12.644 -2.8,3.67334 -4.65866,7.36267 -5.34,10.65867 -0.59733,2.90133 -1.66933,5.81733 -3.216,8.98533 l -22.51733,22.52 v -38.58 c 3.64267,-0.40933 7.468,-1.40133 9.968,-4.79333 1.45333,-1.97733 2.48533,-4.04 3.60667,-6.296 1.32533,-2.67067 3.28533,-4.03333 4.912,-6.324 0.0627,-0.0747 0.0827,-0.16133 0.11866,-0.24267 0.0107,-0.02 0.024,-0.0387 0.0307,-0.06 0.052,-0.104 0.0787,-0.22133 0.0987,-0.34 0.0133,-0.076 0.0227,-0.156 0.0227,-0.23333 0,-0.076 -0.009,-0.152 -0.0227,-0.23067 -0.02,-0.12 -0.052,-0.22933 -0.0987,-0.34133 -0.007,-0.02 -0.02,-0.0413 -0.0307,-0.0613 -0.036,-0.0813 -0.056,-0.16667 -0.11866,-0.24134 -1.62,-2.28533 -3.67734,-3.584 -4.912,-6.32533 -0.96934,-2.14 -2.024,-4.67867 -3.60667,-6.29467 -3.04267,-3.104 -6.252,-4.30266 -9.968,-4.78 v -36.45733 c 2.21733,-3.444 4.756,-6.40533 7.94933,-9.02933 3.30667,-2.71067 5.76,-6.64533 6.89734,-11.27067 1.772,-7.15866 2.57466,-14.38533 -2.84934,-19.52933 -5.27066,-4.99333 -12.56666,-5.27333 -18.86133,-6.88267 -3.74666,-0.96 -7.928,-1.83066 -11.27066,-4.188 -1.084,-0.76666 -1.9,-1.692 -2.61467,-2.676 -0.57333,-0.792 -1.092,-1.616 -1.63733,-2.43866 -0.38,-0.57467 -0.776,-1.14267 -1.224,-1.692 -0.43867,0.54266 -0.84534,1.104 -1.232,1.67066 -0.556,0.828 -1.07734,1.648 -1.64667,2.436 -0.92133,1.272 -1.96,2.436 -3.50667,3.268 -3.212,1.72267 -6.88133,3.008 -10.35866,3.62 -6.18,1.08267 -13.79334,2.07734 -18.86534,6.88267 -5.196,4.92667 -4.99466,12.60133 -2.84666,19.52933 2.81733,9.124 9.97866,13.91334 15.10666,21.04134 v 35.89733 c -3.19466,0.516 -6.368,1.65066 -8.54666,4.59866 -1.448,1.976 -2.48,4.03867 -3.604,6.29467 -1.32934,2.67067 -3.28934,4.03333 -4.92267,6.32533 -0.0453,0.0747 -0.072,0.16 -0.10933,0.24134 -0.0133,0.02 -0.02,0.0413 -0.0253,0.0613 -0.0573,0.10667 -0.0827,0.22133 -0.10266,0.34133 -0.0133,0.0787 -0.02,0.15467 -0.02,0.23067 0,0.0773 0.007,0.15733 0.02,0.23333 0.02,0.11867 0.0453,0.236 0.10266,0.34 0.005,0.0213 0.012,0.04 0.0253,0.06 0.0373,0.0813 0.064,0.168 0.10933,0.24267 1.63067,2.28267 3.68,3.58667 4.92267,6.324 0.96933,2.144 2.02666,4.68133 3.604,6.296 2.65066,2.7 5.428,3.96 8.54666,4.55733 v 40.63734 c -2.28533,3.60933 -4.88933,6.69466 -8.216,9.41866 -3.30266,2.70667 -5.756,6.648 -6.89066,11.27067 -1.77334,7.164 -2.57734,14.388 2.84666,19.52933 5.27467,4.99333 12.568,5.27067 18.86534,6.884 3.74533,0.95733 7.924,1.828 11.26666,4.18533 1.09067,0.77067 1.90134,1.69467 2.61867,2.68 0.56933,0.78667 1.09067,1.61467 1.636,2.44 0.37733,0.57067 0.77733,1.14 1.21733,1.68934 0.44667,-0.54934 0.856,-1.108 1.236,-1.672 0.556,-0.82667 1.08134,-1.65067 1.65067,-2.43467 0.91467,-1.27333 1.96,-2.43733 3.504,-3.268 3.21067,-1.72533 6.88267,-3.01067 10.36133,-3.62 6.176,-1.08533 13.78933,-2.08 18.86133,-6.884 5.13734,-4.86266 4.992,-12.404 2.92134,-19.26 l 26.42666,-26.424 c 6.31734,-2.704 12.27867,-3.47066 19.548,-8.652 3.59067,-2.58 7.124,-5.656 9.63467,-9.04933 2.49467,3.39333 6.02933,6.468 9.63067,9.05467 7.26666,5.176 13.21733,5.94666 19.54266,8.64666 l 26.012,26.02134 c -0.0107,0.0427 -0.0307,0.0853 -0.0467,0.13333 -1.76534,7.164 -2.576,14.388 2.85333,19.52933 5.26533,4.99333 12.56666,5.27067 18.86396,6.884 3.7387,0.95733 7.9187,1.828 11.264,4.18533 1.0907,0.77067 1.9013,1.69467 2.6213,2.68 0.568,0.78667 1.092,1.61467 1.636,2.44 0.3774,0.57067 0.7774,1.14 1.224,1.68934 0.4387,-0.54934 0.8454,-1.108 1.2307,-1.672 0.5507,-0.82667 1.0813,-1.65067 1.6453,-2.43467 0.92,-1.27333 1.964,-2.43733 3.508,-3.268 3.2134,-1.72533 6.88,-3.01067 10.3614,-3.62 6.176,-1.08533 13.792,-2.08 18.8573,-6.884 5.2053,-4.92666 5.0027,-12.59866 2.8547,-19.52933 -2.772,-8.97067 -9.7507,-13.75333 -14.852,-20.68533 v -40.40534 c 3.6466,-0.40933 7.476,-1.40133 9.972,-4.79333 1.448,-1.97733 2.4853,-4.04 3.6066,-6.296 1.328,-2.67067 3.2854,-4.03333 4.916,-6.324 0.055,-0.0747 0.075,-0.16133 0.116,-0.24267 0.01,-0.02 0.02,-0.0387 0.025,-0.06 0.057,-0.104 0.083,-0.22133 0.104,-0.34 0.013,-0.076 0.02,-0.156 0.02,-0.23333 0,-0.076 -0.01,-0.152 -0.02,-0.23067 -0.019,-0.12 -0.047,-0.22933 -0.104,-0.34133"
         style="fill:#276952;fill-opacity:1;fill-rule:nonzero;stroke:none;stroke-width:0.133333" />
    </g>
  </g>
</svg>
