<?xml version="1.0" encoding="UTF-8" standalone="no"?>
<!-- Created with Inkscape (http://www.inkscape.org/) -->

<svg
   width="108"
   height="108"
   viewBox="0 0 108 108"
   version="1.1"
   id="svg1"
   inkscape:version="1.3.2 (091e20ef0f, 2023-11-25)"
   sodipodi:docname="flecha.svg"
   inkscape:export-filename="logo.png"
   inkscape:export-xdpi="96"
   inkscape:export-ydpi="96"
   xmlns:inkscape="http://www.inkscape.org/namespaces/inkscape"
   xmlns:sodipodi="http://sodipodi.sourceforge.net/DTD/sodipodi-0.dtd"
   xmlns="http://www.w3.org/2000/svg"
   xmlns:svg="http://www.w3.org/2000/svg">
  <sodipodi:namedview
     id="namedview1"
     pagecolor="#ffffff"
     bordercolor="#000000"
     borderopacity="0.25"
     inkscape:showpageshadow="2"
     inkscape:pageopacity="0.0"
     inkscape:pagecheckerboard="0"
     inkscape:deskcolor="#d1d1d1"
     inkscape:document-units="px"
     inkscape:zoom="3.4624462"
     inkscape:cx="68.881937"
     inkscape:cy="68.30431"
     inkscape:window-width="1920"
     inkscape:window-height="1011"
     inkscape:window-x="0"
     inkscape:window-y="0"
     inkscape:window-maximized="1"
     inkscape:current-layer="g2" />
  <defs
     id="defs1" />
  <g
     inkscape:label="Layer 1"
     inkscape:groupmode="layer"
     id="layer1">
    <g
       id="g2">
      <g
         id="g1"
         transform="matrix(0.83020266,0,0,0.83020266,16.387186,16.387186)">
        <path
           id="path1"
           style="fill:#ffd700;stroke-width:0.303926"
           d="M 85.054912,45.30558 A 39.749332,39.749332 0 0 1 45.30558,85.054912 39.749332,39.749332 0 0 1 5.5562505,45.30558 39.749332,39.749332 0 0 1 45.30558,5.5562505 39.749332,39.749332 0 0 1 85.054912,45.30558 Z" />
        <path
           style="font-size:43.0602px;font-family:'Ma Shan Zheng';-inkscape-font-specification:'Ma Shan Zheng, Normal';stroke-width:1.54573"
           d="m 30.520768,32.946337 q 1.234643,-0.444464 1.876656,-0.444464 0.691398,0 1.481564,0.54324 0.642016,0.493859 0.790174,0.79017 0.197535,0.296325 0.395069,1.679112 0.09879,0.444464 0.14814,0.691398 0.09874,0.592627 -0.642013,1.0371 -0.642012,0.296325 -1.284029,0.938323 -0.592626,0.642013 -1.284024,1.185258 -0.493855,0.345674 -0.592627,0.592626 -0.0494,0.197535 0.0494,0.79017 0.197535,0.888937 0.24693,1.777879 0.0494,0.888942 0.543245,1.728498 0.493854,0.79017 1.037095,1.926037 0.592626,1.086486 1.432182,2.469278 0.839556,1.382801 0.691399,1.876655 -0.14814,0.296325 0.09879,0.444464 0.296324,0.09879 1.679111,0.444464 1.926037,0.395069 3.852074,1.185253 2.321125,0.987714 6.469514,2.024809 l 1.876651,0.493859 q 1.284029,0.296325 8.494323,0.395069 7.210297,0.09879 8.148625,0.24693 0.642012,0.0494 0.79017,0.148139 0.197535,0.09879 0.197535,0.444464 0,0.493855 -0.839556,0.839556 -0.839556,0.395069 -1.135872,0.395069 -0.444464,0 -2.271733,1.580341 -1.82727,1.629721 -2.222353,2.321119 -0.246929,0.34572 -1.185257,0.34572 -0.938324,0 -2.56805,-0.24693 -1.58034,-0.197534 -2.222352,-0.395069 -1.876651,-0.54324 -4.839788,-0.987713 -1.382796,-0.14814 -2.518668,-0.642013 -1.135866,-0.493854 -5.531185,-2.765593 -3.11129,-1.58034 -5.827502,-2.271738 -1.33341,-0.34572 -3.555763,-0.14814 -2.222348,0.14814 -2.864364,0.691394 -0.642013,0.395069 -0.691394,0.592631 0,0.296325 -0.543245,0.839551 -0.493855,0.543245 -0.839556,0.740785 -0.444464,0.148139 -0.642012,0.09879 -0.14814,0 -0.444465,-0.34572 -0.493855,-0.444464 -0.493855,-0.691398 0,-0.296325 -0.296316,-0.296325 -0.296315,0 -0.296315,-0.740784 0,-1.234639 1.827266,-2.123581 l 1.777879,-0.888937 q 0.987714,-0.395069 1.728498,-1.185257 0.740784,-0.839556 0.592626,-1.382797 -0.148139,-0.444464 -1.382796,-4.049617 -0.54324,-1.530954 -0.691398,-3.753307 -0.14814,-2.222352 0.148139,-3.456991 0.592627,-2.37051 0.493855,-2.469282 -0.09879,-0.09879 -1.728493,0.79017 -1.185258,0.642012 -1.975428,1.382796 -0.790166,0.691399 -0.790166,1.0371 0,0.543241 -0.790169,-0.148139 -0.09877,-0.09879 -0.197544,-0.24693 -0.691398,-0.740784 -0.592626,-1.135867 0.148157,-0.444464 0.197543,-0.888942 0.04939,-0.345674 0.543242,-0.691398 0.543241,-0.345674 2.222351,-1.234639 2.716207,-1.382796 3.950846,-1.876651 z M 29.286129,22.57536 q 0.39507,-0.09877 0.987714,-0.197544 0.691398,0 2.419892,0.592627 1.777883,0.592628 1.926037,0.839556 0.543245,1.037098 0.197534,2.46928 -0.345674,1.382797 -1.234639,1.876651 -1.827256,0.987714 -3.950841,-2.321119 -1.679107,-2.71621 -0.345697,-3.259451 z m 12.24763,-2.123581 q 0.148139,-0.444469 0.395069,-0.444469 0.296324,0 1.530954,0.444469 l 1.382796,0.395087 0.938328,-0.444468 q 1.333411,-0.642014 1.333411,-0.24693 0,0.296311 -0.493855,0.839555 -0.296325,0.246929 -0.395069,0.691398 -0.04939,0.395087 -0.04939,1.58034 0,1.580339 -0.296325,1.926037 -0.246929,0.296316 -1.333415,0.148158 -0.691393,-0.09877 -1.185253,-0.493856 -0.444464,-0.395087 -1.086462,-1.580341 -1.135872,-1.975424 -0.740784,-2.81498 z m 9.630189,1.23464 q 0.0494,-0.148158 1.185257,-1.926039 1.185253,-1.777881 1.185253,-1.926037 0,-0.197544 0.345674,-0.395083 0.34572,-0.246929 0.740784,-0.148158 0.444464,0.09877 0.691399,0.09877 0.246929,0 1.185257,0.938327 0.938323,0.88894 1.086481,0.88894 0.197534,0 0.197534,0.740784 -0.0494,1.58034 -1.58034,1.777881 -0.691398,0.09877 -0.79017,0.444473 -0.09879,0.345702 -1.33341,1.185254 -0.740784,0.543242 -1.284025,0.987712 -0.54324,0.395087 -0.839556,0.691399 -0.246929,0.246929 -0.148139,0.345697 0.09879,0.09877 2.518667,-0.148158 6.716439,-0.592628 7.852311,0.24693 0.296324,0.246929 0.54324,0.839552 0.24693,0.592627 0.24693,1.086481 0,0.592631 -0.691403,0.888942 -0.493855,0.296325 -0.839552,0.296325 -0.296324,-0.0494 -1.432182,-0.493859 -1.086485,-0.395069 -1.876656,-0.444464 -0.740784,-0.09879 -3.407605,-0.09879 -3.703921,0 -4.296547,0.148139 -0.444464,0.09879 -0.493855,0.197535 0,0.0494 0.24693,0.296324 0.691398,0.79017 -0.0494,1.876656 l -0.839556,1.185253 q -0.592626,0.888941 -0.04939,0.987713 0.09879,0 0.197535,-0.09879 0.444464,-0.09879 3.259447,0.14814 2.814979,0.197534 3.506377,0.345674 1.135872,0.345719 1.234643,0.888942 0.14814,0.493854 -0.296324,2.91375 -0.24693,1.382797 -0.14814,5.679344 0.0494,2.864365 0,3.90146 0,1.037099 -0.246929,2.222352 -0.691398,3.111295 -2.469282,4.889174 -0.839556,0.938328 -1.333411,1.037099 -0.493854,0.09879 -1.037099,-0.54324 -0.493855,-0.543245 -1.333411,-1.135871 -0.79017,-0.592627 -0.987709,-0.888942 -0.14814,-0.296325 -0.740784,-0.839552 -0.592631,-0.592626 -1.333415,-0.493859 -0.691394,0.09879 -1.234639,0.444464 -0.493855,0.34572 -1.432182,0.34572 -0.592627,0 -0.790171,0.09879 -0.197534,0.09879 -0.246929,0.296324 -0.04939,0.444465 -0.543245,0.49386 -0.444464,0.0494 -0.543241,-0.34572 -0.148139,-0.296325 -0.592626,-0.938323 -0.444464,-0.642017 -0.592626,-1.530955 -0.09879,-0.888941 -0.296325,-1.234643 -0.197535,-0.345674 -0.04939,-1.135867 0.740784,-2.518663 0.740784,-7.753538 0.0494,-2.666821 0.09879,-3.358219 0.0494,-0.691399 0.296325,-0.888942 0.345674,-0.24693 0.148139,-0.296325 -0.246929,-0.04939 0.345674,-0.493854 0.197535,-0.04939 0.34572,-0.197535 1.037095,-0.592626 1.926037,-1.975423 1.926037,-2.963136 1.777884,-3.308833 -0.04939,-0.197535 -2.568054,0.444464 -2.469278,0.592626 -2.913751,0.839556 -0.444464,0.148139 -1.284024,0.444464 -0.839556,0.24693 -1.580341,-0.0494 -1.185252,-0.543241 -0.691398,-1.432182 0.296325,-0.493855 2.518668,-1.086481 5.086713,-1.382797 6.5189,-1.382797 0.642007,0 1.33341,-0.740783 0.493855,-0.493856 1.629722,-1.975423 1.135871,-1.530954 1.33341,-1.876654 z m 0.691398,12.395785 q -0.938328,-0.345674 -2.716207,-0.24693 -1.728498,0.09879 -3.210061,0.493859 -0.888942,0.296325 -1.086486,0.543241 -0.197535,0.197534 0.04939,0.493854 0.197535,0.34572 0,0.888942 -0.197535,0.493855 -0.14814,0.543241 0.04939,0.04939 1.333411,-0.395069 1.333411,-0.444465 2.666821,-0.34572 1.382801,0.09879 1.777884,0.642012 0.395069,0.493859 0.345719,1.086486 l -0.0494,0.642012 -2.617439,0.543241 q -2.617435,0.54324 -3.160676,0.493854 -0.493859,-0.09874 -0.740784,0 -0.14814,0.09879 -0.24693,1.086486 -0.09879,0.938328 0.04939,1.086481 0.09879,0.0494 1.876651,-0.543241 1.777884,-0.592626 3.061909,-0.691398 0.839556,-0.14814 1.086481,-0.04939 0.246929,0.09879 0.493859,0.444464 0.345674,0.493855 0.246929,1.284025 -0.148139,0.642012 -0.395069,0.938328 -0.246929,0.296324 -0.839556,0.395069 -0.592626,0.09879 -1.037095,0.345719 l -1.333415,0.543241 q -0.888937,0.296324 -1.135867,0.642012 -0.345719,0.493855 -2.024808,0 -0.34572,-0.09879 -0.34572,0.14814 0.04939,0.246929 0.09879,1.135866 0,0.592627 0.04939,0.790171 0.09879,0.148139 0.444464,0.148139 0.493859,0 0.987714,-0.197534 0.54324,-0.24693 2.91375,-0.444465 1.728494,-0.148139 2.172967,-0.09879 0.444464,0 0.938323,0.296325 l 0.740784,0.395069 0.197535,-0.938328 q 0.197535,-0.987709 0.09879,-3.753302 -0.04939,-2.814979 -0.04939,-5.481804 0,-1.975423 -0.09879,-2.32112 -0.09879,-0.395069 -0.395069,-0.543245 z"
           id="text1"
           aria-label="é“" />
        <path
           style="font-size:14.027px;font-family:'Ma Shan Zheng';-inkscape-font-specification:'Ma Shan Zheng, Normal';stroke-width:0.503529"
           d="m 36.175929,63.895553 q 0,-0.209144 0.176957,-0.321774 0.91699,-0.611323 2.590088,-1.013513 0.691767,-0.14477 1.142218,-0.14477 2.284426,0 3.297939,2.799227 0.353914,0.997429 0.353914,2.107464 0,1.673103 -0.884817,3.378383 -0.884813,1.705275 -1.817887,2.750966 -0.514801,0.546973 -1.093952,0.546973 -0.579151,0 -0.900901,-0.450473 -0.321728,-0.450474 -0.321728,-1.142213 0,-0.707852 0.2574,-1.576576 0.257401,-0.868728 0.804374,-1.093951 -0.08044,0.37003 -0.08044,0.788285 0,0.402171 0.273471,0.997429 0.289587,0.595239 0.675678,0.595239 0.386101,0 0.627412,-0.450473 0.997425,-1.801803 0.997425,-4.102318 0,-2.734881 -1.431787,-3.539255 -0.418287,-0.225214 -0.804378,-0.225214 -0.386101,0 -0.836551,0.225214 0.1287,0.691762 0.1287,1.753541 0,1.045686 -0.37003,3.362289 -0.353914,2.300515 -0.353914,3.507078 v 0.514801 q 0,0.418287 -0.193074,0.546978 -0.193073,0.128701 -0.402171,0.128701 -0.595239,0 -0.836551,-2.203992 -0.09651,-0.884813 -0.160887,-1.190475 0.04826,-0.01593 0.144771,-0.01593 0.289587,0 0.675678,0.418287 V 70.42719 q -0.01593,-1.270913 0.337844,-4.633203 0.01593,-0.1287 0.01593,-0.466539 0,-0.353914 -0.06437,-0.72394 -0.11263,0.06437 -0.450473,0.337844 -0.788286,0.643501 -1.126125,0.643501 -0.321773,0 -0.321773,-0.563062 l 0.01593,-0.498717 z m 11.212988,7.609395 q -1.319175,2.364865 -2.010942,2.364865 -0.498712,0 -0.900902,-0.611323 -0.112629,-0.160887 -0.24133,-0.498717 -0.1287,-0.353914 -0.321727,-0.643496 -0.176957,-0.289587 -0.176957,-0.772202 0,-0.498716 0.193073,-0.884817 1.319174,-2.606177 2.783143,-3.571428 0.193027,-0.144771 0.450428,-0.144771 0.2574,0 0.643496,0.289587 0.225214,0.225214 0.273471,0.386101 0.08044,0.353914 0.08044,0.434357 0.563062,0.193028 0.563062,0.707851 0,0.353914 -0.193073,1.608753 -0.193027,1.23874 -0.225214,1.850064 0,0.337844 0.225214,0.337844 0.257401,0 0.91699,-0.900902 0.675679,-0.900901 0.772202,-0.900901 0.160886,0 0.160886,0.530889 l -0.03232,0.788286 q 0,0.450428 -0.402171,1.23874 -0.402171,0.772201 -1.029606,0.772201 -0.386101,0 -0.611324,-0.2574 -0.08044,-0.08044 -0.24133,-0.321728 -0.498716,-0.723939 -0.675678,-1.801802 z m 0.14477,-3.716217 q -2.02703,1.850065 -2.574004,4.231018 1.624841,-1.399613 2.574004,-4.231018 z m 6.901531,2.043115 q 0,1.946592 -1.126124,3.458817 -0.402171,0.5148 -0.900902,0.5148 -0.482623,0 -0.772201,-0.24133 -1.04569,-0.868728 -1.04569,-2.976193 0,-1.463963 0.78829,-3.732301 0.06437,-0.160887 0.11263,-0.193073 0.04826,-0.04826 0.160886,-0.04826 0.1287,0 0.305658,-0.160887 0.176957,-0.176957 0.57915,-0.176957 0.418287,0 0.836552,0.305658 0.418287,0.305657 0.611328,0.820462 0.450473,1.206568 0.450473,2.429215 z M 53.099955,68.78616 q 0,-1.480052 -0.37003,-1.480052 -0.176957,0 -0.321728,0.273471 -0.643501,1.528318 -0.643501,3.651867 0,0.530889 0.01593,0.804378 1.319175,-1.013513 1.319175,-3.249678 z"
           id="text2"
           aria-label="Dao" />
      </g>
    </g>
  </g>
</svg>
