<svg width="55" height="55" viewBox="0 0 55 55" fill="none" xmlns="http://www.w3.org/2000/svg">
<path d="M27.5 4.58325C30.5094 4.58325 33.4894 5.17601 36.2698 6.32768C39.0502 7.47935 41.5765 9.16738 43.7045 11.2954C45.8325 13.4234 47.5205 15.9497 48.6722 18.7301C49.8239 21.5105 50.4166 24.4905 50.4166 27.4999C50.4166 33.5778 48.0022 39.4067 43.7045 43.7044C39.4068 48.0022 33.5779 50.4166 27.5 50.4166C24.4905 50.4166 21.5105 49.8238 18.7301 48.6722C15.9498 47.5205 13.4235 45.8325 11.2954 43.7044C6.99774 39.4067 4.58331 33.5778 4.58331 27.4999C4.58331 21.422 6.99774 15.5931 11.2954 11.2954C15.5932 6.99768 21.4221 4.58325 27.5 4.58325ZM27.5 9.16658C22.6377 9.16658 17.9745 11.0981 14.5364 14.5363C11.0982 17.9745 9.16665 22.6376 9.16665 27.4999C9.16665 32.3622 11.0982 37.0254 14.5364 40.4635C17.9745 43.9017 22.6377 45.8332 27.5 45.8332C25.0688 45.8332 22.7372 44.8675 21.0182 43.1484C19.2991 41.4293 18.3333 39.0977 18.3333 36.6666C18.3333 34.2354 19.2991 31.9039 21.0182 30.1848C22.7372 28.4657 25.0688 27.4999 27.5 27.4999C29.9311 27.4999 32.2627 26.5341 33.9818 24.8151C35.7009 23.096 36.6666 20.7644 36.6666 18.3333C36.6666 15.9021 35.7009 13.5705 33.9818 11.8514C32.2627 10.1324 29.9311 9.16658 27.5 9.16658ZM27.5 14.8958C28.4117 14.8958 29.286 15.2579 29.9307 15.9026C30.5753 16.5472 30.9375 17.4216 30.9375 18.3333C30.9375 19.2449 30.5753 20.1193 29.9307 20.7639C29.286 21.4086 28.4117 21.7708 27.5 21.7708C26.5883 21.7708 25.714 21.4086 25.0693 20.7639C24.4246 20.1193 24.0625 19.2449 24.0625 18.3333C24.0625 17.4216 24.4246 16.5472 25.0693 15.9026C25.714 15.2579 26.5883 14.8958 27.5 14.8958ZM27.5 33.2291C26.5883 33.2291 25.714 33.5912 25.0693 34.2359C24.4246 34.8806 24.0625 35.7549 24.0625 36.6666C24.0625 37.5783 24.4246 38.4526 25.0693 39.0973C25.714 39.7419 26.5883 40.1041 27.5 40.1041C28.4117 40.1041 29.286 39.7419 29.9307 39.0973C30.5753 38.4526 30.9375 37.5783 30.9375 36.6666C30.9375 35.7549 30.5753 34.8806 29.9307 34.2359C29.286 33.5912 28.4117 33.2291 27.5 33.2291Z" fill="black"/>
</svg>
