<?xml version="1.0" encoding="UTF-8" standalone="no"?>
<!-- Created with Inkscape (http://www.inkscape.org/) -->

<svg
   width="108"
   height="108"
   viewBox="0 0 108 108"
   version="1.1"
   id="svg1"
   inkscape:version="1.3.2 (091e20ef0f, 2023-11-25)"
   sodipodi:docname="tao.svg"
   xml:space="preserve"
   xmlns:inkscape="http://www.inkscape.org/namespaces/inkscape"
   xmlns:sodipodi="http://sodipodi.sourceforge.net/DTD/sodipodi-0.dtd"
   xmlns="http://www.w3.org/2000/svg"
   xmlns:svg="http://www.w3.org/2000/svg"><sodipodi:namedview
     id="namedview1"
     pagecolor="#ffffff"
     bordercolor="#000000"
     borderopacity="0.25"
     inkscape:showpageshadow="2"
     inkscape:pageopacity="0.0"
     inkscape:pagecheckerboard="0"
     inkscape:deskcolor="#d1d1d1"
     inkscape:document-units="px"
     inkscape:zoom="4.0567375"
     inkscape:cx="91.576051"
     inkscape:cy="46.46591"
     inkscape:window-width="1920"
     inkscape:window-height="1011"
     inkscape:window-x="0"
     inkscape:window-y="0"
     inkscape:window-maximized="1"
     inkscape:current-layer="layer1" /><defs
     id="defs1" /><g
     inkscape:label="Layer 1"
     inkscape:groupmode="layer"
     id="layer1"><g
       style="fill:none"
       id="g1"
       transform="matrix(1.8327266,0,0,1.8327266,3.600101,3.600156)"><path
         d="m 27.5,4.58325 c 3.0094,0 5.9894,0.59276 8.7698,1.74443 2.7804,1.15167 5.3067,2.8397 7.4347,4.96772 2.128,2.128 3.816,4.6543 4.9677,7.4347 1.1517,2.7804 1.7444,5.7604 1.7444,8.7698 0,6.0779 -2.4144,11.9068 -6.7121,16.2045 -4.2977,4.2978 -10.1266,6.7122 -16.2045,6.7122 -3.0095,0 -5.9895,-0.5928 -8.7699,-1.7444 C 15.9498,47.5205 13.4235,45.8325 11.2954,43.7044 6.99774,39.4067 4.58331,33.5778 4.58331,27.4999 4.58331,21.422 6.99774,15.5931 11.2954,11.2954 15.5932,6.99768 21.4221,4.58325 27.5,4.58325 Z m 0,4.58333 c -4.8623,0 -9.5255,1.93152 -12.9636,5.36972 -3.4382,3.4382 -5.36975,8.1013 -5.36975,12.9636 0,4.8623 1.93155,9.5255 5.36975,12.9636 3.4381,3.4382 8.1013,5.3697 12.9636,5.3697 -2.4312,0 -4.7628,-0.9657 -6.4818,-2.6848 -1.7191,-1.7191 -2.6849,-4.0507 -2.6849,-6.4818 0,-2.4312 0.9658,-4.7627 2.6849,-6.4818 1.719,-1.7191 4.0506,-2.6849 6.4818,-2.6849 2.4311,0 4.7627,-0.9658 6.4818,-2.6848 1.7191,-1.7191 2.6848,-4.0507 2.6848,-6.4818 0,-2.4312 -0.9657,-4.7628 -2.6848,-6.4819 C 32.2627,10.1324 29.9311,9.16658 27.5,9.16658 Z m 0,5.72922 c 0.9117,0 1.786,0.3621 2.4307,1.0068 0.6446,0.6446 1.0068,1.519 1.0068,2.4307 0,0.9116 -0.3622,1.786 -1.0068,2.4306 -0.6447,0.6447 -1.519,1.0069 -2.4307,1.0069 -0.9117,0 -1.786,-0.3622 -2.4307,-1.0069 -0.6447,-0.6446 -1.0068,-1.519 -1.0068,-2.4306 0,-0.9117 0.3621,-1.7861 1.0068,-2.4307 0.6447,-0.6447 1.519,-1.0068 2.4307,-1.0068 z m 0,18.3333 c -0.9117,0 -1.786,0.3621 -2.4307,1.0068 -0.6447,0.6447 -1.0068,1.519 -1.0068,2.4307 0,0.9117 0.3621,1.786 1.0068,2.4307 0.6447,0.6446 1.519,1.0068 2.4307,1.0068 0.9117,0 1.786,-0.3622 2.4307,-1.0068 0.6446,-0.6447 1.0068,-1.519 1.0068,-2.4307 0,-0.9117 -0.3622,-1.786 -1.0068,-2.4307 C 29.286,33.5912 28.4117,33.2291 27.5,33.2291 Z"
         fill="#000000"
         id="path1" /></g></g></svg>
